<svg width="17" height="30" viewBox="0 0 17 30" fill="none" xmlns="http://www.w3.org/2000/svg">
<path d="M7.39163 2C7.47655 3.99587 7.90951 5.98223 8.08788 7.97291C8.31434 10.5001 8.74929 11.8037 9.09144 14.3127M9.09144 14.3127C9.66865 18.5446 9.93999 23.9832 10.5247 28.2117M9.09144 14.3127C7.22067 14.9112 4.7463 15.1655 2.8028 15.1655M9.09144 14.3127C10.9187 13.728 12.5833 13.024 14.2294 11.8335M9.09144 14.3127C9.96561 12.9743 10.4262 11.5531 11.1498 10.0858C11.426 9.52562 11.7674 9.06348 12.3989 7.96316M9.09144 14.3127C7.93251 16.087 6.41127 17.7783 5.21119 19.5141M9.09144 14.3127C6.66188 12.5302 4.52346 11.4799 2 9.89836M9.09144 14.3127C10.6986 15.4917 13.078 17.2467 14.5325 18.5615" stroke="#976393" stroke-width="3" stroke-linecap="round" vector-effect="non-scaling-stroke" />
</svg>
