<svg width="1982" height="2524" viewBox="0 0 1982 2524" fill="none" xmlns="http://www.w3.org/2000/svg">
<path d="M6 28.6525L7.97939 24.061L0.89266 21.0059L1.00049 28.7224L6 28.6525ZM101.043 806.991L96.061 807.41L96.061 807.41L101.043 806.991ZM133.038 1807.38L128.038 1807.34L128.038 1807.34L133.038 1807.38ZM116.1 2081.62L111.1 2081.53L111.1 2081.53L116.1 2081.62ZM98.6908 2347.74L93.6996 2347.44L93.6996 2347.44L98.6908 2347.74ZM230.434 2456.87L230.727 2451.87L230.727 2451.87L230.434 2456.87ZM542.854 2462.14L542.925 2457.14L542.925 2457.14L542.854 2462.14ZM1234.04 2475.93L1234.06 2470.93L1234.06 2470.93L1234.04 2475.93ZM1686.67 2488.1L1687.3 2483.14L1687.3 2483.14L1686.67 2488.1ZM1968.97 2508.39L1973.82 2509.61L1973.82 2509.61L1968.97 2508.39ZM1968.97 802.123L1973.97 802.002L1973.97 802.002L1968.97 802.123ZM1778 7.00084L1778 12.0008L1778 12.0008L1778 7.00084ZM1539.87 7.00189L1539.66 2.00631L1539.87 7.00189ZM1074.53 8.21892L1074.6 13.2185L1074.53 8.21892ZM189.824 34.7747L189.652 39.7717L189.738 39.7747H189.824V34.7747ZM355.571 2464.83C356.031 2467.55 358.611 2469.39 361.334 2468.93C364.056 2468.47 365.891 2465.89 365.432 2463.17L355.571 2464.83ZM763.003 1832.99L766.903 1829.86L765.561 1828.19L763.424 1828.01L763.003 1832.99ZM933.001 1870.49V1865.49H931.772L930.683 1866.06L933.001 1870.49ZM1270 2463.99C1270 2466.75 1272.24 2468.99 1275 2468.99C1277.76 2468.99 1280 2466.75 1280 2463.99H1270ZM758.573 1828.07C757.563 1830.64 758.828 1833.54 761.398 1834.55C763.969 1835.56 766.871 1834.3 767.88 1831.73L758.573 1828.07ZM780.749 1793.65L776.14 1791.71L776.14 1791.71L780.749 1793.65ZM820.847 1694.35C821.512 1691.67 819.879 1688.96 817.199 1688.29C814.519 1687.63 811.807 1689.26 811.142 1691.94L820.847 1694.35ZM941.493 1715.44C941.46 1712.68 939.194 1710.47 936.433 1710.5C933.672 1710.53 931.46 1712.8 931.494 1715.56L941.493 1715.44ZM927.348 1872.32C928.355 1874.89 931.255 1876.16 933.827 1875.16C936.398 1874.15 937.667 1871.25 936.66 1868.68L927.348 1872.32ZM562.622 1305.01C564.574 1306.96 567.74 1306.96 569.693 1305.01C571.645 1303.05 571.645 1299.89 569.693 1297.94L562.622 1305.01ZM476.13 1284.86L477.596 1289.64L476.13 1284.86ZM430.21 1336.31L425.457 1334.76L425.457 1334.76L430.21 1336.31ZM421.549 1386.66L426.543 1386.9L426.543 1386.9L421.549 1386.66ZM425.98 1411.34L422.595 1415.02L422.595 1415.02L425.98 1411.34ZM477.036 1429.97L476.299 1434.91L476.299 1434.91L477.036 1429.97ZM541.183 1430.77L539.878 1425.95L539.878 1425.95L541.183 1430.77ZM576.026 1413.85L572.847 1409.99L572.847 1409.99L576.026 1413.85ZM585.301 1404.84C586.326 1402.27 585.079 1399.36 582.515 1398.34C579.951 1397.31 577.041 1398.56 576.016 1401.12L585.301 1404.84ZM1385.36 1498.68C1383.73 1496.45 1380.6 1495.96 1378.37 1497.59C1376.14 1499.22 1375.65 1502.34 1377.28 1504.58L1385.36 1498.68ZM1534.17 1547.51L1537.55 1551.2L1537.55 1551.2L1534.17 1547.51ZM1554.56 1445.71L1558.6 1442.77L1558.6 1442.77L1554.56 1445.71ZM1492.97 1405.78L1491.8 1410.64L1492.97 1405.78ZM1421.36 1413.92C1418.76 1414.83 1417.38 1417.68 1418.29 1420.29C1419.2 1422.9 1422.06 1424.27 1424.66 1423.36L1421.36 1413.92ZM572.356 1093.51C569.602 1093.32 567.209 1095.39 567.013 1098.14C566.816 1100.9 568.889 1103.29 571.644 1103.49L572.356 1093.51ZM856.969 891.052C857.274 888.308 855.297 885.836 852.552 885.531C849.808 885.226 847.336 887.203 847.031 889.948L856.969 891.052ZM968.883 793.329C970.169 790.885 969.231 787.862 966.787 786.575C964.344 785.289 961.32 786.228 960.034 788.671L968.883 793.329ZM973.121 841.437L968.481 839.576L968.481 839.576L973.121 841.437ZM964.461 877.287L959.461 877.317L964.461 877.287ZM1004.24 945.361L1000.93 949.106L1000.93 949.106L1004.24 945.361ZM1090.84 984.736L1090.58 989.729L1090.58 989.729L1090.84 984.736ZM1157.61 974.162L1155.27 969.744L1155.27 969.744L1157.61 974.162ZM1176.44 960.064L1171.78 958.259L1171.78 958.259L1176.44 960.064ZM1164.15 1014.44L1169.13 1014.88L1169.13 1014.88L1164.15 1014.44ZM1204.33 1098.43L1200.51 1101.65L1200.51 1101.65L1204.33 1098.43ZM1305.54 1140.82L1305.18 1145.81L1305.18 1145.81L1305.54 1140.82ZM1441.89 1143.05C1444.62 1142.66 1446.52 1140.13 1446.13 1137.4C1445.74 1134.66 1443.21 1132.76 1440.48 1133.15L1441.89 1143.05ZM852.383 885.579C849.665 885.091 847.066 886.899 846.579 889.617C846.091 892.335 847.899 894.934 850.617 895.421L852.383 885.579ZM969.389 793.048C969.968 790.348 968.248 787.69 965.548 787.111C962.848 786.532 960.19 788.252 959.611 790.952L969.389 793.048ZM1083.71 675.055C1082.92 677.699 1084.41 680.489 1087.05 681.287C1089.7 682.085 1092.49 680.589 1093.29 677.945L1083.71 675.055ZM1130.6 598.854L1133.63 602.828L1133.63 602.828L1130.6 598.854ZM1365.14 530.497L1365.15 535.497L1365.14 530.497ZM1469.69 541.569L1467.52 546.075L1467.52 546.075L1469.69 541.569ZM1543.76 647.956L1539.01 649.516L1539.01 649.516L1543.76 647.956ZM1527.42 805.85L1531.39 808.887L1531.39 808.887L1527.42 805.85ZM1530.04 807.776L1531.2 812.639L1531.2 812.639L1530.04 807.776ZM1696.96 804.406L1698.18 799.556L1698.18 799.556L1696.96 804.406ZM1774.27 1080.72L1770.45 1077.49L1770.45 1077.49L1774.27 1080.72ZM1656.19 1139.45L1655.93 1134.46L1655.93 1134.46L1656.19 1139.45ZM1661.44 1140.65L1660.38 1145.54L1660.38 1145.54L1661.44 1140.65ZM1814.03 1211.18L1811.29 1215.36L1811.29 1215.36L1814.03 1211.18ZM1867.92 1298.55L1862.92 1298.68L1862.92 1298.68L1867.92 1298.55ZM1648.05 1459.63C1645.42 1458.78 1642.6 1460.21 1641.75 1462.84C1640.89 1465.47 1642.33 1468.29 1644.96 1469.14L1648.05 1459.63ZM1306.36 1639.83C1305.72 1637.15 1303.02 1635.49 1300.33 1636.14C1297.65 1636.78 1295.99 1639.48 1296.64 1642.17L1306.36 1639.83ZM1372.5 1705L1370.63 1709.64L1370.85 1709.73L1371.09 1709.8L1372.5 1705ZM1592.88 1719.6L1593.76 1724.52L1593.76 1724.52L1592.88 1719.6ZM1679.1 1655.25L1683.84 1656.84L1683.84 1656.84L1679.1 1655.25ZM1704.42 1564.36L1709.41 1564.77L1709.41 1564.77L1704.42 1564.36ZM1709.42 1473C1709.42 1470.24 1707.18 1468 1704.42 1468C1701.66 1468 1699.42 1470.24 1699.42 1473H1709.42ZM723.994 1653.89C723.934 1651.13 721.648 1648.94 718.887 1649C716.126 1649.06 713.937 1651.35 713.996 1654.11L723.994 1653.89ZM745.495 1716L747.542 1711.44L747.542 1711.44L745.495 1716ZM807.448 1699.76L810.797 1703.47L810.797 1703.47L807.448 1699.76ZM818.92 1695.61C821.16 1693.99 821.665 1690.87 820.049 1688.63C818.434 1686.39 815.308 1685.88 813.069 1687.5L818.92 1695.61ZM941.801 1720.45C940.393 1718.08 937.326 1717.29 934.951 1718.7C932.575 1720.11 931.791 1723.17 933.199 1725.55L941.801 1720.45ZM1000.21 1753.96L1002.61 1758.35L1002.61 1758.35L1000.21 1753.96ZM1021.38 1740.77L1026.08 1742.49L1026.08 1742.49L1021.38 1740.77ZM1029.5 1732.02C1030.72 1729.54 1029.71 1726.54 1027.23 1725.32C1024.75 1724.1 1021.76 1725.12 1020.53 1727.59L1029.5 1732.02ZM1030.38 1725.4C1028.34 1723.53 1025.18 1723.67 1023.31 1725.7C1021.45 1727.74 1021.59 1730.9 1023.62 1732.77L1030.38 1725.4ZM1237 1747L1239.9 1751.07L1239.9 1751.07L1237 1747ZM1306.44 1645.3C1306.88 1642.57 1305.02 1640 1302.3 1639.56C1299.57 1639.12 1297 1640.98 1296.56 1643.7L1306.44 1645.3ZM1087.31 678.174C1088.26 680.767 1091.13 682.099 1093.72 681.149C1096.31 680.199 1097.64 677.326 1096.69 674.734L1087.31 678.174ZM1031.12 609.851L1034.63 606.297L1034.63 606.297L1031.12 609.851ZM865.806 508.631L864.555 513.472L864.555 513.472L865.806 508.631ZM578.344 513.013L580.393 517.574L580.393 517.574L578.344 513.013ZM436.925 687.408L441.568 689.264L441.568 689.264L436.925 687.408ZM427.292 859.394L422.355 860.19L422.355 860.19L427.292 859.394ZM458.119 960.395L455.064 964.353L455.064 964.353L458.119 960.395ZM567.811 992.973C570.558 993.257 573.015 991.261 573.299 988.514C573.583 985.767 571.586 983.31 568.839 983.027L567.811 992.973ZM567.255 992.943C569.985 992.526 571.86 989.975 571.443 987.245C571.026 984.515 568.475 982.64 565.745 983.057L567.255 992.943ZM337.188 1061.42L340.507 1065.16L340.507 1065.16L337.188 1061.42ZM273.568 1151.1L278.285 1152.75L273.568 1151.1ZM262.044 1320.08L267.025 1319.64L262.044 1320.08ZM490 1509C492.761 1509 495 1506.76 495 1504C495 1501.24 492.761 1499 490 1499V1509ZM489.514 1509C492.276 1509 494.515 1506.77 494.515 1504C494.515 1501.24 492.277 1499 489.516 1499L489.514 1509ZM425.819 1560.47L420.941 1559.38L425.819 1560.47ZM466.913 1655.55L469.939 1651.57L466.913 1655.55ZM655.155 1703.27L657.029 1707.91L657.029 1707.91L655.155 1703.27ZM723.014 1655.87C724.494 1653.54 723.804 1650.45 721.473 1648.97C719.141 1647.49 716.052 1648.18 714.572 1650.51L723.014 1655.87ZM974.087 1300C974.387 1297.26 972.406 1294.79 969.66 1294.49C966.915 1294.19 964.447 1296.17 964.146 1298.92L974.087 1300ZM921.01 1415.53C919.679 1417.95 920.561 1420.99 922.981 1422.33C925.401 1423.66 928.441 1422.77 929.772 1420.35L921.01 1415.53ZM842.263 1485.37C842.106 1482.61 839.744 1480.5 836.987 1480.66C834.23 1480.81 832.122 1483.18 832.279 1485.93L842.263 1485.37ZM863.338 1526.67L859.748 1530.15L859.748 1530.15L863.338 1526.67ZM910.443 1548.14L909.785 1553.1L909.785 1553.1L910.443 1548.14ZM972.558 1532.81C974.533 1530.88 974.57 1527.71 972.64 1525.74C970.71 1523.76 967.545 1523.73 965.57 1525.66L972.558 1532.81ZM845.757 1177.45C846.007 1174.7 843.981 1172.27 841.231 1172.02C838.481 1171.77 836.049 1173.8 835.799 1176.55L845.757 1177.45ZM818.235 1243.63C817.398 1246.26 818.853 1249.08 821.484 1249.91C824.115 1250.75 826.927 1249.3 827.765 1246.67L818.235 1243.63ZM1142.73 1245.33C1142.91 1242.58 1140.83 1240.19 1138.07 1240.01C1135.32 1239.83 1132.94 1241.91 1132.75 1244.67L1142.73 1245.33ZM1112.2 1329.52C1111.42 1332.17 1112.94 1334.94 1115.59 1335.72C1118.24 1336.5 1121.02 1334.99 1121.8 1332.34L1112.2 1329.52ZM578.485 1096.39C578.698 1093.63 576.638 1091.23 573.885 1091.01C571.132 1090.8 568.728 1092.86 568.515 1095.61L578.485 1096.39ZM875 1707L876.059 1702.11L876.059 1702.11L875 1707ZM1446.32 1137.67C1445.59 1135.01 1442.83 1133.45 1440.17 1134.18C1437.51 1134.91 1435.95 1137.67 1436.68 1140.33L1446.32 1137.67ZM1352.48 2151.93C1351.3 2154.43 1352.37 2157.41 1354.87 2158.58C1357.37 2159.76 1360.35 2158.69 1361.52 2156.19L1352.48 2151.93ZM1368.96 2104.58L1373.81 2105.8L1368.96 2104.58ZM1381.86 2059.09L1386.72 2060.23L1386.72 2060.23L1381.86 2059.09ZM1388.77 2033.06L1386.2 2028.77L1386.2 2028.77L1388.77 2033.06ZM1408.59 2089.22L1403.74 2090.45L1403.74 2090.45L1408.59 2089.22ZM1417.95 2137.3C1419.19 2139.77 1422.19 2140.77 1424.66 2139.54C1427.13 2138.3 1428.13 2135.3 1426.9 2132.83L1417.95 2137.3ZM1361.26 2092.9C1358.5 2092.9 1356.26 2095.14 1356.26 2097.9C1356.26 2100.66 1358.5 2102.9 1361.26 2102.9V2092.9ZM1409.53 2097.9L1408.25 2093.06L1408.25 2093.06L1409.53 2097.9ZM1430.38 2096.93C1432.92 2095.85 1434.1 2092.91 1433.01 2090.37C1431.92 2087.83 1428.98 2086.65 1426.44 2087.74L1430.38 2096.93ZM1483.01 2067.68C1485.77 2067.68 1488.01 2065.45 1488.01 2062.68C1488.01 2059.92 1485.77 2057.68 1483.01 2057.68V2067.68ZM1457.24 2072.64L1460.58 2068.92L1457.24 2072.64ZM1495.6 2075.28L1497.18 2070.53L1495.6 2075.28ZM1469.03 2099.98C1467.79 2097.51 1464.79 2096.51 1462.32 2097.75C1459.85 2098.98 1458.85 2101.99 1460.08 2104.46L1469.03 2099.98ZM1514.71 2067.96C1513.15 2065.68 1510.04 2065.1 1507.76 2066.66C1505.48 2068.22 1504.9 2071.33 1506.46 2073.61L1514.71 2067.96ZM1523.45 2068.69L1526.19 2072.87L1526.19 2072.87L1523.45 2068.69ZM1525.39 2054.18L1521.04 2056.63L1521.04 2056.63L1525.39 2054.18ZM1505.4 2060.64L1510.4 2060.7L1505.4 2060.64ZM1514.39 2091.4L1510.92 2095L1510.92 2095L1514.39 2091.4ZM1541.47 2100.56L1539.34 2096.04L1539.34 2096.04L1541.47 2100.56ZM1559.35 2071.05L1564.28 2071.85L1564.28 2071.85L1559.35 2071.05ZM1559.9 2019.26L1564.88 2018.8L1564.88 2018.8L1559.9 2019.26ZM1558.51 2003.15L1553.53 2003.57L1553.53 2003.57L1558.51 2003.15ZM1565.74 2046.96L1560.77 2047.57L1560.77 2047.57L1565.74 2046.96ZM1569.8 2082.55L1564.93 2083.68L1564.93 2083.68L1569.8 2082.55ZM1574.87 2091.68L1572.63 2087.2L1572.63 2087.2L1574.87 2091.68ZM1589.62 2072.76L1585.36 2070.14L1585.36 2070.14L1589.62 2072.76ZM1607.09 2013.25L1602.11 2012.71L1602.11 2012.71L1607.09 2013.25ZM1606.77 1982.32L1601.89 1983.4L1601.89 1983.4L1606.77 1982.32ZM1601.98 1980.37L1598.19 1977.12L1598.19 1977.12L1601.98 1980.37ZM1600.45 2027.38L1605.29 2026.1L1605.29 2026.1L1600.45 2027.38ZM1623.78 2096.68L1619.01 2098.15L1619.01 2098.15L1623.78 2096.68ZM1637.08 2141.22L1632.33 2142.78L1632.33 2142.78L1637.08 2141.22ZM1640.38 2154.2L1635.6 2155.67L1635.6 2155.67L1640.38 2154.2ZM1641.66 2151.18L1646.54 2152.3L1646.54 2152.3L1641.66 2151.18ZM1644.06 2135L1649.04 2135.39L1649.04 2135.39L1644.06 2135ZM1634.1 2073.1L1638.8 2071.4L1638.8 2071.4L1634.1 2073.1ZM1619.69 2047.86L1623.13 2044.24L1623.13 2044.24L1619.69 2047.86ZM1613.58 2044.95L1610.66 2040.89L1610.66 2040.89L1613.58 2044.95ZM1617.33 2044.67L1617.09 2039.67L1617.09 2039.67L1617.33 2044.67ZM1626.98 2043.7L1626.1 2038.77L1626.1 2038.77L1626.98 2043.7ZM1651.98 2035.16L1654.55 2039.45L1654.55 2039.45L1651.98 2035.16ZM1680.71 2010.09C1681.63 2007.48 1680.27 2004.63 1677.66 2003.71C1675.06 2002.79 1672.2 2004.16 1671.29 2006.76L1680.71 2010.09ZM1418.86 2204.47C1418.07 2201.82 1415.29 2200.31 1412.64 2201.1C1409.99 2201.89 1408.48 2204.67 1409.27 2207.32L1418.86 2204.47ZM1430.23 2272.02L1425.32 2272.97L1430.23 2272.02ZM1434.53 2294.85L1439.39 2293.7L1439.39 2293.7L1434.53 2294.85ZM1433.14 2291.3L1428.49 2293.13L1428.49 2293.13L1433.14 2291.3ZM1423.27 2267.47L1418.5 2268.99L1418.5 2268.99L1423.27 2267.47ZM1420.68 2228.15L1415.73 2227.47L1415.73 2227.47L1420.68 2228.15ZM1439.99 2196.85L1439.87 2191.85L1439.99 2196.85ZM1450.83 2221.69L1446.11 2220.05L1446.11 2220.05L1450.83 2221.69ZM1429.51 2227.5C1427.18 2226.03 1424.09 2226.73 1422.62 2229.06C1421.14 2231.4 1421.84 2234.48 1424.17 2235.96L1429.51 2227.5ZM1495.86 2202.18C1498.55 2202.8 1501.23 2201.12 1501.85 2198.43C1502.47 2195.74 1500.8 2193.06 1498.11 2192.43L1495.86 2202.18ZM1480.57 2196.78L1482.29 2201.47L1482.29 2201.47L1480.57 2196.78ZM1464.25 2220.84L1459.27 2221.27L1464.25 2220.84ZM1501.59 2215.82L1496.67 2214.93L1496.67 2214.93L1501.59 2215.82ZM1500.82 2201.57L1505.48 2199.75L1505.48 2199.75L1500.82 2201.57ZM1501.98 2202.37L1503.73 2197.68L1503.73 2197.68L1501.98 2202.37ZM1508 2202.22L1509.45 2207.01L1509.45 2207.01L1508 2202.22ZM1515.38 2198.51L1518.6 2202.34L1518.6 2202.34L1515.38 2198.51ZM1523.39 2190.89L1523.97 2195.86L1523.97 2195.86L1523.39 2190.89ZM1532.43 2241.58L1527.45 2242.07L1527.45 2242.07L1532.43 2241.58ZM1546.1 2196.09L1545.97 2191.09L1546.1 2196.09ZM1567.7 2148.65L1572.69 2148.99L1572.69 2148.99L1567.7 2148.65ZM1569.42 2153.12L1564.46 2153.76L1564.46 2153.76L1569.42 2153.12ZM1575.55 2214.09L1580.43 2213.01L1580.43 2213.01L1575.55 2214.09ZM1590.97 2230.91L1592.94 2235.51L1593.77 2235.16L1594.42 2234.54L1590.97 2230.91ZM1603.19 2202.98L1598.22 2202.4L1598.22 2202.4L1603.19 2202.98ZM1608.81 2205.9L1604.23 2207.91L1604.23 2207.91L1608.81 2205.9ZM1611.59 2213.2L1616.36 2211.72L1616.36 2211.72L1611.59 2213.2ZM1613.12 2218.41L1617.55 2220.72L1617.55 2220.72L1613.12 2218.41ZM1611.12 2209.06L1615.96 2207.81L1615.96 2207.81L1611.12 2209.06ZM1607.56 2194.98L1602.67 2196.04L1602.67 2196.04L1607.56 2194.98ZM1616.59 2186.87L1617.86 2191.71L1617.86 2191.71L1616.59 2186.87ZM1631.13 2178.73L1633.82 2182.94L1633.82 2182.94L1631.13 2178.73ZM1635.52 2175.61L1635.64 2180.61L1635.52 2175.61ZM1628.92 2185.95L1633.72 2187.34L1633.72 2187.34L1628.92 2185.95ZM1627.2 2210.9L1622.23 2211.4L1622.23 2211.4L1627.2 2210.9ZM1643.94 2188.59L1638.94 2188.47L1638.94 2188.47L1643.94 2188.59ZM1640.19 2178.51L1644.34 2175.72L1644.34 2175.72L1640.19 2178.51ZM1649.38 2203.29L1649.26 2198.29L1649.38 2203.29ZM1665.69 2178.71L1660.95 2177.1L1660.95 2177.1L1665.69 2178.71ZM1668.51 2166.75L1673.46 2167.47L1673.46 2167.47L1668.51 2166.75ZM1670.34 2161.26L1665.69 2163.1L1670.34 2161.26ZM1683.22 2203.39L1687.8 2201.39L1687.8 2201.39L1683.22 2203.39ZM1687.84 2207.68L1692.16 2210.2L1692.16 2210.2L1687.84 2207.68ZM1693.25 2185.08L1688.27 2184.55L1688.27 2184.55L1693.25 2185.08ZM1695.71 2148.34L1690.72 2148.14L1690.72 2148.14L1695.71 2148.34ZM1698.26 2140.24L1693.27 2140.55L1693.28 2140.64L1693.29 2140.74L1698.26 2140.24ZM1701.28 2157.59L1706.2 2156.66L1706.2 2156.66L1701.28 2157.59ZM1707.74 2185.61L1712.57 2184.33L1712.57 2184.33L1707.74 2185.61ZM1713.21 2199.17L1716.95 2195.85L1716.95 2195.85L1713.21 2199.17ZM1746.7 2165.71C1748.37 2163.51 1747.94 2160.38 1745.74 2158.71C1743.54 2157.04 1740.41 2157.46 1738.74 2159.66L1746.7 2165.71ZM1671.62 2122.9C1668.87 2123.08 1666.78 2125.46 1666.96 2128.22C1667.14 2130.97 1669.52 2133.06 1672.28 2132.88L1671.62 2122.9ZM1745.7 2116.92C1748.37 2116.21 1749.96 2113.47 1749.25 2110.8C1748.54 2108.13 1745.8 2106.54 1743.13 2107.25L1745.7 2116.92ZM1678.22 2138.73C1678.15 2135.97 1675.86 2133.79 1673.1 2133.86C1670.34 2133.92 1668.15 2136.22 1668.22 2138.98L1678.22 2138.73ZM1668.31 2142.71C1668.38 2145.47 1670.68 2147.65 1673.44 2147.59C1676.2 2147.52 1678.38 2145.22 1678.31 2142.46L1668.31 2142.71ZM1543.84 2165.93C1541.08 2166 1538.9 2168.29 1538.97 2171.05C1539.04 2173.81 1541.33 2175.99 1544.09 2175.92L1543.84 2165.93ZM1614.9 2170.36C1617.6 2169.8 1619.34 2167.15 1618.78 2164.45C1618.22 2161.74 1615.57 2160 1612.87 2160.57L1614.9 2170.36ZM1.00049 28.7224C3.01077 172.583 20.8011 295.946 41.0613 418.968C61.3291 542.036 84.0414 664.627 96.061 807.41L106.026 806.571C93.9639 663.287 71.1595 540.188 50.9284 417.343C30.6898 294.452 12.9991 171.68 10.9995 28.5826L1.00049 28.7224ZM96.061 807.41C124.163 1141.24 130.979 1472.68 128.038 1807.34L138.038 1807.43C140.98 1472.59 134.162 1140.81 106.026 806.571L96.061 807.41ZM128.038 1807.34C127.639 1852.81 123.809 1898.18 119.866 1943.84C115.928 1989.44 111.877 2035.34 111.1 2081.53L121.099 2081.7C121.869 2035.92 125.885 1990.38 129.829 1944.7C133.768 1899.09 137.635 1853.34 138.038 1807.43L128.038 1807.34ZM111.1 2081.53C110.806 2099.04 106.719 2116.2 102.535 2133.96C98.3965 2151.52 94.1613 2169.69 94.1613 2188.31H104.161C104.161 2171.03 108.09 2153.99 112.269 2136.25C116.402 2118.71 120.784 2100.47 121.099 2081.7L111.1 2081.53ZM94.1613 2188.31C94.1613 2241.65 96.8364 2294.7 93.6996 2347.44L103.682 2348.04C106.841 2294.93 104.161 2240.95 104.161 2188.31H94.1613ZM93.6996 2347.44C92.9554 2359.95 90.9991 2372.13 89.1733 2384.7C87.3612 2397.17 85.6921 2409.96 85.6921 2423.2H95.6921C95.6921 2410.74 97.2622 2398.58 99.0695 2386.14C100.863 2373.79 102.906 2361.08 103.682 2348.04L93.6996 2347.44ZM85.6921 2423.2C85.6921 2436.03 95.1258 2444.24 106.8 2449.39C118.571 2454.59 134.198 2457.49 150.158 2459.16C166.213 2460.84 183.041 2461.32 197.424 2461.48C212.004 2461.64 223.705 2461.48 230.141 2461.86L230.727 2451.87C223.984 2451.48 211.628 2451.63 197.535 2451.48C183.246 2451.32 166.786 2450.85 151.199 2449.22C135.519 2447.57 121.152 2444.8 110.841 2440.25C100.431 2435.65 95.6921 2430.01 95.6921 2423.2H85.6921ZM230.141 2461.86C334.228 2467.98 438.938 2465.67 542.783 2467.14L542.925 2457.14C438.579 2455.66 334.534 2457.98 230.727 2451.87L230.141 2461.86ZM542.783 2467.14C772.961 2470.41 1003.57 2479.92 1234.01 2480.93L1234.06 2470.93C1003.51 2469.92 773.631 2460.41 542.925 2457.14L542.783 2467.14ZM1234.01 2480.93C1383.83 2481.59 1537.92 2474.08 1686.03 2493.06L1687.3 2483.14C1538.37 2464.06 1383.14 2471.59 1234.06 2470.93L1234.01 2480.93ZM1686.03 2493.06C1693.52 2494.02 1714.26 2497.7 1741.69 2502.26C1768.99 2506.8 1802.66 2512.16 1835.64 2516.43C1868.58 2520.68 1901.02 2523.87 1925.79 2524C1938.14 2524.06 1948.89 2523.37 1956.93 2521.56C1960.94 2520.65 1964.58 2519.4 1967.46 2517.63C1970.38 2515.83 1972.91 2513.24 1973.82 2509.61L1964.13 2507.17C1964.05 2507.45 1963.76 2508.16 1962.22 2509.11C1960.65 2510.08 1958.2 2511.02 1954.73 2511.8C1947.8 2513.36 1937.96 2514.06 1925.85 2514C1901.71 2513.87 1869.77 2510.76 1836.92 2506.51C1804.12 2502.27 1770.59 2496.93 1743.33 2492.4C1716.21 2487.89 1695.03 2484.13 1687.3 2483.14L1686.03 2493.06ZM1973.82 2509.61C1982.45 2475.28 1982.89 2437.09 1981.24 2399.27C1979.58 2361.1 1975.86 2323.8 1975.86 2289.73H1965.86C1965.86 2323.99 1969.63 2362.42 1971.25 2399.7C1972.89 2437.32 1972.38 2474.31 1964.13 2507.17L1973.82 2509.61ZM1975.86 2289.73C1975.86 1794.17 1985.98 1297.62 1973.97 802.002L1963.98 802.244C1975.98 1297.71 1965.86 1793.89 1965.86 2289.73H1975.86ZM1973.97 802.002C1967.14 519.881 1961.3 472.848 1961.3 190.889H1951.3C1951.3 473.002 1957.15 520.397 1963.98 802.244L1973.97 802.002ZM1961.3 190.889C1961.3 189.083 1961.65 185.311 1962.29 179.741C1962.92 174.28 1963.79 167.412 1964.77 159.591C1966.71 143.989 1969.06 124.709 1970.63 105.945C1972.19 87.2477 1973 68.7787 1971.79 54.8802C1971.19 47.9898 1970.07 41.7761 1968.03 37.1389C1966.02 32.5583 1962.38 28.073 1956.3 28.073V38.073C1956.45 38.073 1957.48 37.9818 1958.88 41.1581C1960.24 44.2779 1961.26 49.1839 1961.83 55.7447C1962.96 68.7486 1962.21 86.5079 1960.66 105.114C1959.11 123.654 1956.79 142.753 1954.84 158.354C1953.87 166.134 1952.99 173.075 1952.36 178.597C1951.73 184.009 1951.3 188.394 1951.3 190.889H1961.3ZM1956.3 28.073C1948.09 28.073 1938.52 26.5389 1927.13 24.1094C1915.62 21.6532 1903.08 18.477 1888.24 15.1578C1858.9 8.5989 1822.69 2.00136 1778 2.00084L1778 12.0008C1821.67 12.0013 1857.09 18.4399 1886.06 24.9168C1900.36 28.1155 1913.64 31.4572 1925.04 33.8893C1936.57 36.3482 1946.99 38.073 1956.3 38.073V28.073ZM1778 2.00084C1577.03 1.9985 1646.74 -2.49726 1539.66 2.00631L1540.08 11.9975C1647.1 7.4961 1575.81 11.9985 1778 12.0008L1778 2.00084ZM1539.66 2.00631C1384.96 8.51257 1229.74 1.15964 1074.47 3.21936L1074.6 13.2185C1228.82 11.1728 1385.44 18.5014 1540.08 11.9975L1539.66 2.00631ZM1074.47 3.21936C992.264 4.30972 910.552 7.86298 828.892 11.1392C747.203 14.4165 665.548 17.4175 583.318 17.4175V27.4175C665.77 27.4175 747.604 24.4085 829.293 21.1311C911.01 17.8527 992.563 14.3066 1074.6 13.2185L1074.47 3.21936ZM583.318 17.4175C530.055 17.4175 495.566 19.751 461.185 22.0769C426.86 24.399 392.643 26.7136 339.727 26.7136V36.7136C392.989 36.7136 427.478 34.3801 461.86 32.0541C496.184 29.732 530.402 27.4175 583.318 27.4175V17.4175ZM339.727 26.7136C322.534 26.7136 305.238 27.4843 282.271 28.2469C259.263 29.0108 230.386 29.7747 189.824 29.7747V39.7747C230.525 39.7747 259.517 39.0079 282.603 38.2414C305.73 37.4734 322.753 36.7136 339.727 36.7136V26.7136ZM189.997 29.7776C145.331 28.2372 111.158 32.0084 82.7149 33.4811C54.1596 34.9595 31.3483 34.1353 7.97939 24.061L4.02061 33.244C29.573 44.2596 54.2949 44.9659 83.232 43.4677C112.281 41.9637 145.56 38.2511 189.652 39.7717L189.997 29.7776ZM365.432 2463.17C345.677 2346.13 383.854 2184.3 458.094 2054.22C532.473 1923.9 641.638 1827.73 762.581 1837.97L763.424 1828.01C636.367 1817.25 524.281 1918.08 449.409 2049.27C374.397 2180.7 335.324 2344.87 355.571 2464.83L365.432 2463.17ZM759.102 1836.12C768.049 1847.27 776.799 1859.12 786.249 1869.32C795.786 1879.61 806.413 1888.66 819.57 1894.39C846.179 1905.97 881.283 1903.2 935.32 1874.92L930.683 1866.06C877.72 1893.78 846.075 1895.01 823.559 1885.22C812.154 1880.25 802.624 1872.28 793.584 1862.52C784.456 1852.67 776.206 1841.46 766.903 1829.86L759.102 1836.12ZM933.001 1875.49C1084.29 1875.49 1168.55 1986.13 1215.17 2116.24C1261.76 2246.26 1270 2393.97 1270 2463.99H1280C1280 2393.51 1271.74 2244.47 1224.58 2112.87C1177.46 1981.35 1090.71 1865.49 933.001 1865.49V1875.49ZM767.88 1831.73C770.21 1825.8 773.168 1820.05 776.295 1814.07C779.385 1808.17 782.655 1802.01 785.358 1795.58L776.14 1791.71C773.634 1797.66 770.584 1803.42 767.435 1809.44C764.324 1815.38 761.125 1821.57 758.573 1828.07L767.88 1831.73ZM785.358 1795.58C799.109 1762.89 812.21 1729.14 820.847 1694.35L811.142 1691.94C802.696 1725.96 789.84 1759.14 776.14 1791.71L785.358 1795.58ZM931.494 1715.56C931.576 1722.4 930.286 1732.46 928.462 1744.86C926.663 1757.09 924.383 1771.36 922.663 1786.13C919.248 1815.47 917.846 1848.04 927.348 1872.32L936.66 1868.68C928.158 1846.96 929.177 1816.65 932.596 1787.29C934.293 1772.72 936.533 1758.7 938.355 1746.31C940.153 1734.1 941.587 1723.22 941.493 1715.44L931.494 1715.56ZM569.693 1297.94C558.312 1286.55 541.145 1280.12 523.927 1277.47C506.649 1274.8 488.535 1275.82 474.663 1280.08L477.596 1289.64C489.792 1285.89 506.354 1284.88 522.403 1287.35C538.513 1289.84 553.326 1295.71 562.622 1305.01L569.693 1297.94ZM474.663 1280.08C446.283 1288.78 433.692 1309.57 425.457 1334.76L434.962 1337.87C442.742 1314.07 453.712 1296.96 477.596 1289.64L474.663 1280.08ZM425.457 1334.76C419.914 1351.72 417.398 1368.87 416.555 1386.42L426.543 1386.9C427.356 1369.99 429.765 1353.76 434.962 1337.87L425.457 1334.76ZM416.555 1386.42C416.381 1390.05 415.761 1395.42 416.107 1400.17C416.473 1405.18 417.927 1410.72 422.595 1415.02L429.365 1407.66C427.311 1405.77 426.35 1403.14 426.081 1399.44C425.792 1395.48 426.318 1391.61 426.543 1386.9L416.555 1386.42ZM422.595 1415.02C437.785 1428.99 458.469 1432.26 476.299 1434.91L477.772 1425.02C459.464 1422.29 441.953 1419.24 429.365 1407.66L422.595 1415.02ZM476.299 1434.91C496.547 1437.93 521.033 1441.4 542.488 1435.6L539.878 1425.95C520.78 1431.11 498.411 1428.09 477.772 1425.02L476.299 1434.91ZM542.488 1435.6C555.132 1432.18 568.588 1426.46 579.204 1417.71L572.847 1409.99C563.681 1417.54 551.674 1422.76 539.878 1425.95L542.488 1435.6ZM579.204 1417.71C582.005 1415.41 583.148 1412.53 583.812 1410.24C584.118 1409.18 584.394 1407.96 584.597 1407.15C584.827 1406.23 585.038 1405.49 585.301 1404.84L576.016 1401.12C575.498 1402.42 575.157 1403.67 574.894 1404.73C574.604 1405.89 574.445 1406.63 574.206 1407.46C573.779 1408.94 573.387 1409.55 572.847 1409.99L579.204 1417.71ZM1377.28 1504.58C1394.07 1527.59 1419.78 1551.83 1448.37 1564.14C1477.22 1576.58 1509.44 1576.96 1537.55 1551.2L1530.79 1543.82C1506.3 1566.28 1478.53 1566.26 1452.32 1554.96C1425.85 1543.55 1401.44 1520.73 1385.36 1498.68L1377.28 1504.58ZM1537.55 1551.2C1552.19 1537.78 1563.38 1519.1 1568.02 1499.66C1572.66 1480.21 1570.8 1459.54 1558.6 1442.77L1550.52 1448.66C1560.56 1462.47 1562.44 1479.93 1558.29 1497.34C1554.13 1514.78 1544 1531.72 1530.79 1543.82L1537.55 1551.2ZM1558.6 1442.77C1542.71 1420.92 1517.57 1406.59 1494.15 1400.92L1491.8 1410.64C1513.34 1415.86 1536.25 1429.05 1550.52 1448.66L1558.6 1442.77ZM1494.15 1400.92C1481.18 1397.79 1468.71 1399.09 1456.69 1402.11C1444.83 1405.09 1432.85 1409.91 1421.36 1413.92L1424.66 1423.36C1436.77 1419.13 1447.85 1414.64 1459.13 1411.81C1470.24 1409.02 1480.96 1408.02 1491.8 1410.64L1494.15 1400.92ZM571.644 1103.49C743.866 1115.79 815.766 1070.78 843.888 1016.57C857.789 989.769 860.569 961.416 860.161 938.257C859.957 926.665 858.952 916.289 858.112 908.035C857.688 903.875 857.315 900.334 857.093 897.379C856.866 894.356 856.829 892.312 856.969 891.052L847.031 889.948C846.779 892.214 846.892 895.072 847.121 898.128C847.356 901.252 847.748 904.969 848.163 909.047C849 917.269 849.967 927.29 850.163 938.433C850.555 960.747 847.843 987.225 835.011 1011.96C809.667 1060.82 743.134 1105.71 572.356 1093.51L571.644 1103.49ZM960.034 788.671C957.642 793.216 958.031 798.525 959.008 803.134C960.011 807.865 961.898 812.983 963.656 817.701C965.477 822.589 967.172 827.082 968.148 831.12C969.154 835.279 969.128 837.961 968.481 839.576L977.762 843.298C979.619 838.669 978.987 833.397 977.868 828.77C976.72 824.022 974.773 818.897 973.027 814.21C971.218 809.354 969.613 804.94 968.79 801.06C967.942 797.059 968.173 794.678 968.883 793.329L960.034 788.671ZM968.481 839.576C963.896 851.007 959.379 863.831 959.461 877.317L969.461 877.256C969.391 865.882 973.214 854.637 977.762 843.298L968.481 839.576ZM959.461 877.317C959.651 908.408 980.294 930.856 1000.93 949.106L1007.55 941.616C987.046 923.478 969.622 903.628 969.461 877.256L959.461 877.317ZM1000.93 949.106C1026.62 971.832 1055.08 987.88 1090.58 989.729L1091.1 979.742C1058.62 978.051 1032.22 963.443 1007.55 941.616L1000.93 949.106ZM1090.58 989.729C1111.98 990.843 1139.42 989.459 1159.95 978.58L1155.27 969.744C1137.24 979.294 1112.12 980.837 1091.1 979.742L1090.58 989.729ZM1159.95 978.58C1167.36 974.654 1173.58 968.682 1178.87 963.398L1171.8 956.327C1166.48 961.639 1161.2 966.6 1155.27 969.744L1159.95 978.58ZM1178.87 963.398C1179.78 962.486 1180.48 961.645 1180.98 960.987C1181.41 960.425 1181.9 959.714 1181.78 959.879C1181.77 959.896 1181.74 959.934 1181.7 959.983C1181.67 960.02 1181.59 960.129 1181.47 960.262C1181.41 960.328 1181.3 960.448 1181.15 960.586C1181.04 960.689 1180.72 960.99 1180.22 961.271C1180.02 961.387 1178.26 962.438 1176.03 961.623C1173.33 960.634 1172.86 958.137 1172.79 957.582C1172.69 956.84 1172.79 956.258 1172.82 956.098C1172.86 955.856 1172.91 955.668 1172.94 955.572C1172.99 955.376 1173.05 955.229 1173.07 955.182C1173.09 955.117 1173.11 955.068 1173.12 955.047C1173.13 955.022 1173.14 955.005 1173.14 954.999C1173.14 954.996 1173.13 955.011 1173.09 955.111C1173.05 955.192 1173 955.304 1172.94 955.44C1172.69 955.996 1172.3 956.904 1171.78 958.259L1181.1 961.869C1181.56 960.684 1181.89 959.932 1182.07 959.518C1182.12 959.406 1182.27 959.077 1182.31 958.996C1182.32 958.962 1182.37 958.852 1182.42 958.718C1182.44 958.659 1182.5 958.503 1182.56 958.3C1182.59 958.2 1182.64 958.009 1182.68 957.765C1182.71 957.603 1182.8 957.019 1182.71 956.275C1182.63 955.72 1182.17 953.221 1179.47 952.232C1177.24 951.417 1175.47 952.468 1175.27 952.585C1174.77 952.867 1174.45 953.169 1174.33 953.273C1174.18 953.414 1174.07 953.536 1174.01 953.605C1173.81 953.831 1173.66 954.038 1173.66 954.046C1173.4 954.402 1172.9 955.221 1171.8 956.327L1178.87 963.398ZM1171.78 958.259C1164.94 975.921 1160.8 995.334 1159.17 1014.01L1169.13 1014.88C1170.69 997.018 1174.65 978.544 1181.1 961.869L1171.78 958.259ZM1159.17 1014.01C1157.78 1030.02 1164 1046.87 1172.33 1061.93C1180.73 1077.1 1191.64 1091.11 1200.51 1101.65L1208.16 1095.21C1199.45 1084.86 1189.01 1071.42 1181.08 1057.09C1173.09 1042.64 1168 1027.93 1169.13 1014.88L1159.17 1014.01ZM1200.51 1101.65C1225.79 1131.69 1268.78 1143.23 1305.18 1145.81L1305.89 1135.84C1270.39 1133.32 1230.8 1122.12 1208.16 1095.21L1200.51 1101.65ZM1305.18 1145.81C1350.88 1149.05 1396.25 1149.57 1441.89 1143.05L1440.48 1133.15C1395.81 1139.54 1351.22 1139.05 1305.89 1135.84L1305.18 1145.81ZM850.617 895.421C891.983 902.846 920.539 883.472 939.106 859.373C957.521 835.472 966.494 806.559 969.389 793.048L959.611 790.952C956.894 803.632 948.366 830.969 931.185 853.27C914.155 875.373 889.017 892.154 852.383 885.579L850.617 895.421ZM1093.29 677.945C1096.83 666.218 1102.86 650.424 1110.15 635.957C1117.55 621.282 1125.84 608.777 1133.63 602.828L1127.56 594.88C1117.82 602.318 1108.69 616.648 1101.22 631.457C1093.66 646.472 1087.41 662.807 1083.71 675.055L1093.29 677.945ZM1133.63 602.828C1203.04 549.824 1283.24 535.741 1365.15 535.497L1365.12 525.497C1282.15 525.744 1199.43 540.002 1127.56 594.88L1133.63 602.828ZM1365.15 535.497C1381.79 535.448 1399.69 534.479 1417.71 535.382C1435.62 536.278 1452.84 539.017 1467.52 546.075L1471.86 537.063C1455.43 529.164 1436.66 526.318 1418.21 525.394C1399.87 524.476 1381.05 525.45 1365.12 525.497L1365.15 535.497ZM1467.52 546.075C1483.97 553.986 1498.56 569.629 1510.78 588.702C1522.96 607.7 1532.49 629.65 1539.01 649.516L1548.52 646.395C1541.8 625.939 1531.94 603.18 1519.2 583.307C1506.52 563.509 1490.69 546.12 1471.86 537.063L1467.52 546.075ZM1539.01 649.516C1545.96 670.674 1548.91 700.235 1546.58 729.114C1544.26 758.093 1536.7 785.479 1523.44 802.813L1531.39 808.887C1546.34 789.332 1554.16 759.697 1556.55 729.915C1558.96 700.034 1555.97 669.092 1548.52 646.395L1539.01 649.516ZM1523.44 802.813C1522.24 804.386 1521.1 805.24 1520.56 805.581L1525.9 814.038C1527.35 813.119 1529.4 811.482 1531.39 808.887L1523.44 802.813ZM1520.56 805.581C1520.4 805.684 1520.32 805.719 1520.35 805.706C1520.35 805.705 1520.45 805.658 1520.62 805.598C1520.69 805.572 1520.88 805.504 1521.15 805.444C1521.28 805.415 1521.54 805.363 1521.87 805.34C1522.07 805.327 1522.93 805.263 1523.95 805.642C1524.52 805.854 1525.39 806.299 1526.11 807.211C1526.9 808.198 1527.21 809.349 1527.2 810.391C1527.18 812.086 1526.3 813.184 1526.17 813.355C1525.71 813.958 1525.22 814.301 1525.19 814.324C1525.04 814.43 1524.92 814.5 1524.88 814.528C1524.82 814.562 1524.78 814.583 1524.77 814.591C1524.73 814.61 1524.83 814.557 1525.12 814.439L1521.34 805.18C1520.86 805.376 1520.43 805.573 1520.06 805.769C1519.91 805.849 1519.61 806.013 1519.29 806.244C1519.23 806.292 1518.71 806.655 1518.24 807.272C1518.1 807.45 1517.22 808.555 1517.2 810.254C1517.19 811.298 1517.5 812.452 1518.29 813.44C1519.02 814.353 1519.89 814.799 1520.46 815.013C1521.48 815.393 1522.35 815.331 1522.56 815.316C1522.9 815.293 1523.18 815.238 1523.32 815.206C1523.62 815.14 1523.86 815.058 1523.98 815.015C1524.25 814.918 1524.49 814.811 1524.67 814.725C1525.05 814.544 1525.46 814.312 1525.9 814.038L1520.56 805.581ZM1525.12 814.439C1525.94 814.103 1527.82 813.445 1531.2 812.639L1528.88 802.912C1525.16 803.799 1522.77 804.598 1521.34 805.18L1525.12 814.439ZM1531.2 812.639C1582.34 800.443 1645.15 796.553 1695.74 809.255L1698.18 799.556C1645.56 786.345 1581.04 790.473 1528.88 802.912L1531.2 812.639ZM1695.74 809.255C1747.81 822.326 1786.65 865.488 1802.38 917.64C1818.09 969.726 1810.54 1030.2 1770.45 1077.49L1778.08 1083.96C1820.63 1033.77 1828.52 969.668 1811.96 914.753C1795.41 859.903 1754.29 813.642 1698.18 799.556L1695.74 809.255ZM1770.45 1077.49C1741.76 1111.33 1696.16 1132.34 1655.93 1134.46L1656.45 1144.44C1699.33 1142.19 1747.54 1119.98 1778.08 1083.96L1770.45 1077.49ZM1655.93 1134.46C1654.88 1134.51 1653.94 1134.56 1653.09 1134.59L1653.52 1144.58C1654.4 1144.55 1655.37 1144.5 1656.45 1144.44L1655.93 1134.46ZM1653.09 1134.59C1650.56 1134.7 1648.95 1134.73 1648.07 1134.72C1647.58 1134.71 1647.48 1134.69 1647.6 1134.71C1647.64 1134.71 1647.8 1134.73 1648.03 1134.79C1648.15 1134.81 1648.38 1134.87 1648.66 1134.98C1648.84 1135.04 1649.55 1135.31 1650.25 1135.96C1651.1 1136.74 1652.46 1138.71 1651.59 1141.25C1650.98 1143.02 1649.63 1143.8 1649.42 1143.92C1648.99 1144.18 1648.62 1144.3 1648.48 1144.35C1648.3 1144.41 1648.15 1144.45 1648.07 1144.47C1647.7 1144.55 1647.53 1144.54 1647.94 1144.52C1648.2 1144.5 1648.59 1144.49 1649.09 1144.48C1650.09 1144.47 1651.45 1144.49 1653 1144.58L1653.6 1134.6C1651.8 1134.49 1650.19 1134.46 1648.95 1134.48C1648.34 1134.49 1647.79 1134.51 1647.33 1134.54C1647.03 1134.55 1646.37 1134.6 1645.78 1134.73C1645.72 1134.75 1645.05 1134.89 1644.32 1135.32C1644.1 1135.45 1642.74 1136.23 1642.13 1138.01C1641.25 1140.56 1642.62 1142.53 1643.47 1143.32C1644.18 1143.97 1644.91 1144.25 1645.1 1144.32C1645.4 1144.43 1645.65 1144.5 1645.78 1144.53C1646.06 1144.59 1646.3 1144.62 1646.42 1144.64C1646.89 1144.69 1647.46 1144.71 1647.97 1144.72C1649.1 1144.73 1650.91 1144.69 1653.52 1144.58L1653.09 1134.59ZM1653 1144.58C1655.3 1144.72 1657.92 1145.01 1660.38 1145.54L1662.5 1135.77C1659.39 1135.09 1656.23 1134.76 1653.6 1134.6L1653 1144.58ZM1660.38 1145.54C1711.46 1156.62 1765.45 1185.36 1811.29 1215.36L1816.77 1206.99C1770.57 1176.77 1715.37 1147.23 1662.5 1135.77L1660.38 1145.54ZM1811.29 1215.36C1827.19 1225.77 1839.71 1235.91 1848.46 1248.67C1857.13 1261.33 1862.34 1276.94 1862.92 1298.68L1872.92 1298.42C1872.3 1275.07 1866.64 1257.51 1856.71 1243.02C1846.86 1228.64 1833.03 1217.64 1816.77 1206.99L1811.29 1215.36ZM1862.92 1298.68C1864.72 1366.34 1835.06 1414.23 1793.15 1441.43C1751.07 1468.74 1696.37 1475.35 1648.05 1459.63L1644.96 1469.14C1696.04 1485.76 1753.9 1478.82 1798.6 1449.82C1843.47 1420.7 1874.81 1369.5 1872.92 1298.42L1862.92 1298.68ZM1296.64 1642.17C1301.28 1661.48 1313.43 1675.75 1327.44 1686.42C1341.41 1697.07 1357.52 1704.34 1370.63 1709.64L1374.37 1700.36C1361.48 1695.16 1346.38 1688.28 1333.5 1678.47C1320.65 1668.69 1310.3 1656.21 1306.36 1639.83L1296.64 1642.17ZM1371.09 1709.8C1424.73 1725.59 1460.58 1732.89 1493.04 1734.39C1525.53 1735.89 1554.35 1731.57 1593.76 1724.52L1592 1714.68C1552.63 1721.71 1524.77 1725.84 1493.51 1724.4C1462.23 1722.95 1427.27 1715.91 1373.91 1700.2L1371.09 1709.8ZM1593.76 1724.52C1627.39 1718.51 1670.25 1697.46 1683.84 1656.84L1674.36 1653.67C1662.47 1689.19 1624.1 1708.94 1592 1714.68L1593.76 1724.52ZM1683.84 1656.84C1687.7 1645.3 1693.57 1628.58 1698.7 1611.74C1703.81 1594.99 1708.34 1577.62 1709.41 1564.77L1699.44 1563.94C1698.47 1575.63 1694.24 1592.08 1689.13 1608.83C1684.06 1625.49 1678.28 1641.94 1674.36 1653.67L1683.84 1656.84ZM1709.41 1564.77C1712.97 1521.71 1709.42 1515.15 1709.42 1473H1699.42C1699.42 1516.9 1702.97 1521.22 1699.44 1563.94L1709.41 1564.77ZM713.996 1654.11C714.147 1661.15 713.639 1667.36 713.317 1673.43C713.003 1679.35 712.857 1685.24 714.011 1690.84C715.2 1696.62 717.741 1702 722.57 1707.02C727.306 1711.95 734.072 1716.35 743.448 1720.56L747.542 1711.44C738.822 1707.53 733.306 1703.76 729.779 1700.09C726.343 1696.52 724.639 1692.88 723.805 1688.83C722.936 1684.6 722.99 1679.86 723.303 1673.96C723.608 1668.21 724.155 1661.42 723.994 1653.89L713.996 1654.11ZM743.448 1720.56C764.427 1729.98 780.438 1726.86 791.839 1720.35C797.408 1717.17 801.723 1713.28 804.897 1709.99C806.484 1708.35 807.806 1706.84 808.831 1705.66C809.971 1704.34 810.506 1703.74 810.797 1703.47L804.1 1696.05C803.233 1696.83 802.184 1698.06 801.283 1699.1C800.268 1700.26 799.094 1701.61 797.703 1703.05C794.92 1705.93 791.349 1709.12 786.883 1711.67C778.214 1716.61 765.563 1719.52 747.542 1711.44L743.448 1720.56ZM810.797 1703.47C812.46 1701.98 813.995 1700.28 815.229 1698.99C816.549 1697.61 817.686 1696.5 818.92 1695.61L813.069 1687.5C811.053 1688.95 809.396 1690.62 807.995 1692.08C806.508 1693.64 805.395 1694.88 804.1 1696.05L810.797 1703.47ZM933.199 1725.55C940.562 1737.97 951.104 1749.54 963.1 1756.4C975.187 1763.32 989.245 1765.65 1002.61 1758.35L997.81 1749.57C988.367 1754.73 978.11 1753.47 968.064 1747.72C957.927 1741.93 948.518 1731.78 941.801 1720.45L933.199 1725.55ZM1002.61 1758.35C1003.61 1757.8 1005.18 1757.09 1007.33 1756.14C1009.37 1755.23 1011.77 1754.15 1014.11 1752.96C1016.43 1751.78 1018.86 1750.41 1020.91 1748.85C1022.84 1747.37 1025.05 1745.28 1026.08 1742.49L1016.69 1739.05C1016.69 1739.03 1016.63 1739.21 1016.31 1739.58C1015.99 1739.94 1015.52 1740.38 1014.85 1740.89C1013.5 1741.92 1011.68 1742.98 1009.58 1744.05C1007.5 1745.11 1005.31 1746.09 1003.25 1747.01C1001.29 1747.88 999.257 1748.78 997.81 1749.57L1002.61 1758.35ZM1026.08 1742.49C1026.83 1740.44 1027.38 1738.28 1027.86 1736.61C1028.36 1734.82 1028.84 1733.36 1029.5 1732.02L1020.53 1727.59C1019.45 1729.78 1018.78 1731.97 1018.24 1733.88C1017.66 1735.9 1017.27 1737.46 1016.69 1739.05L1026.08 1742.49ZM1023.62 1732.77C1053.9 1760.53 1080.74 1779.46 1123.63 1779.46V1769.46C1084.56 1769.46 1060.09 1752.63 1030.38 1725.4L1023.62 1732.77ZM1123.63 1779.46C1139.18 1779.46 1156.31 1781.23 1174.98 1778.62C1194.04 1775.95 1215.03 1768.77 1239.9 1751.07L1234.1 1742.93C1210.47 1759.73 1190.99 1766.28 1173.6 1768.71C1155.82 1771.2 1140.52 1769.46 1123.63 1769.46V1779.46ZM1239.9 1751.07C1258.61 1737.77 1272.87 1728.37 1283.49 1713.67C1294.2 1698.84 1300.98 1679.04 1306.44 1645.3L1296.56 1643.7C1291.19 1676.96 1284.72 1694.89 1275.39 1707.81C1265.96 1720.85 1253.39 1729.2 1234.1 1742.93L1239.9 1751.07ZM1096.69 674.734C1091.85 661.508 1079.98 648.268 1067.94 636.678C1061.83 630.802 1055.49 625.181 1049.7 620.056C1043.87 614.891 1038.66 610.284 1034.63 606.297L1027.6 613.404C1031.87 617.629 1037.31 622.444 1043.07 627.543C1048.88 632.684 1055.07 638.173 1061 643.884C1073.05 655.469 1083.33 667.319 1087.31 678.174L1096.69 674.734ZM1034.63 606.297C985.902 558.054 931.283 520.388 867.058 503.79L864.555 513.472C926.504 529.482 979.632 565.918 1027.6 613.404L1034.63 606.297ZM867.058 503.79C771.9 479.198 670.136 466.306 576.296 508.452L580.393 517.574C671.007 476.877 769.939 489.019 864.555 513.472L867.058 503.79ZM576.296 508.452C505.646 540.182 462.359 610.309 432.282 685.553L441.568 689.264C471.39 614.659 513.41 547.657 580.393 517.574L576.296 508.452ZM432.282 685.553C411.413 737.761 413.564 805.659 422.355 860.19L432.228 858.598C423.528 804.638 421.715 738.929 441.568 689.264L432.282 685.553ZM422.355 860.19C424.265 872.033 426.893 893.708 431.591 914.158C433.948 924.418 436.871 934.593 440.582 943.294C444.247 951.885 448.913 959.607 455.064 964.353L461.173 956.436C457.049 953.254 453.212 947.416 449.781 939.371C446.396 931.435 443.629 921.896 441.337 911.919C436.737 891.893 434.227 870.996 432.228 858.598L422.355 860.19ZM455.064 964.353C470.241 976.064 490.492 982.295 510.618 986.072C530.761 989.852 551.564 991.294 567.811 992.973L568.839 983.027C552.134 981.3 532.067 979.922 512.462 976.243C492.84 972.561 474.465 966.692 461.173 956.436L455.064 964.353ZM565.745 983.057C541.14 986.814 494.215 995.799 448.079 1008.58C425.01 1014.97 402.048 1022.33 382.133 1030.5C362.319 1038.62 345.11 1047.7 333.868 1057.68L340.507 1065.16C350.464 1056.32 366.408 1047.75 385.927 1039.75C405.346 1031.79 427.899 1024.54 450.748 1018.21C496.451 1005.56 542.983 996.649 567.255 992.943L565.745 983.057ZM333.868 1057.68C307.888 1080.75 283.584 1107.53 268.851 1149.44L278.285 1152.75C292.233 1113.08 315.179 1087.65 340.507 1065.16L333.868 1057.68ZM268.851 1149.44C251.041 1200.1 252.29 1266.09 257.063 1320.51L267.025 1319.64C262.262 1265.33 261.244 1201.23 278.285 1152.75L268.851 1149.44ZM257.063 1320.51C264.29 1402.91 300.917 1450.39 347.012 1477.02C392.759 1503.44 447.264 1509 490 1509V1499C447.858 1499 395.478 1493.46 352.013 1468.36C308.895 1443.45 273.983 1398.97 267.025 1319.64L257.063 1320.51ZM489.516 1499C468.664 1499 452.136 1511.43 440.796 1524.6C429.497 1537.71 422.477 1552.55 420.941 1559.38L430.697 1561.57C431.788 1556.72 437.858 1543.33 448.372 1531.12C458.844 1518.97 472.851 1509 489.514 1509L489.516 1499ZM420.941 1559.38C415.567 1583.26 417.195 1601.73 425.108 1617.75C432.922 1633.57 446.577 1646.37 463.887 1659.53L469.939 1651.57C452.904 1638.62 440.818 1626.97 434.074 1613.32C427.43 1599.87 425.683 1583.86 430.697 1561.57L420.941 1559.38ZM463.887 1659.53C487.012 1677.1 519.948 1695.23 554.608 1706C589.165 1716.73 626.204 1720.36 657.029 1707.91L653.282 1698.64C625.54 1709.85 591.15 1706.87 557.574 1696.45C524.101 1686.05 492.2 1668.49 469.939 1651.57L463.887 1659.53ZM657.029 1707.91C671.695 1701.98 683.538 1696.45 694.059 1688.59C704.643 1680.68 713.654 1670.61 723.014 1655.87L714.572 1650.51C705.695 1664.49 697.462 1673.57 688.075 1680.58C678.624 1687.64 667.766 1692.79 653.282 1698.64L657.029 1707.91ZM964.146 1298.92C959.721 1339.38 940.794 1379.56 921.01 1415.53L929.772 1420.35C949.644 1384.22 969.432 1342.56 974.087 1300L964.146 1298.92ZM832.279 1485.93C832.507 1489.93 833.969 1494.14 835.874 1498.1C837.808 1502.13 840.367 1506.25 843.119 1510.17C848.622 1518.01 855.149 1525.41 859.748 1530.15L866.928 1523.19C862.584 1518.71 856.426 1511.72 851.305 1504.43C848.746 1500.78 846.508 1497.14 844.887 1493.77C843.237 1490.33 842.384 1487.49 842.263 1485.37L832.279 1485.93ZM859.748 1530.15C864.958 1535.53 874.598 1540.82 883.863 1544.87C893.223 1548.96 903.256 1552.23 909.785 1553.1L911.102 1543.18C905.932 1542.5 896.894 1539.65 887.867 1535.71C878.744 1531.72 870.681 1527.06 866.928 1523.19L859.748 1530.15ZM909.785 1553.1C919.333 1554.37 931.827 1552.32 943.209 1548.65C954.571 1544.99 965.815 1539.4 972.558 1532.81L965.57 1525.66C960.424 1530.69 950.865 1535.68 940.142 1539.13C929.439 1542.58 918.567 1544.18 911.102 1543.18L909.785 1553.1ZM835.799 1176.55C833.748 1199.1 825.366 1221.22 818.235 1243.63L827.765 1246.67C834.648 1225.03 843.579 1201.42 845.757 1177.45L835.799 1176.55ZM1132.75 1244.67C1130.84 1273.33 1120.61 1300.95 1112.2 1329.52L1121.8 1332.34C1129.92 1304.71 1140.72 1275.44 1142.73 1245.33L1132.75 1244.67ZM568.515 1095.61C558.504 1225.01 559.676 1362.59 600.872 1476.04C642.21 1589.89 723.848 1679.35 873.941 1711.89L876.059 1702.11C729.677 1670.38 650.565 1583.6 610.272 1472.63C569.837 1361.28 568.497 1225.49 578.485 1096.39L568.515 1095.61ZM873.941 1711.89C1028.1 1745.3 1194.21 1685.41 1310.17 1575.69C1426.19 1465.92 1492.66 1305.59 1446.32 1137.67L1436.68 1140.33C1481.82 1303.91 1417.27 1460.58 1303.3 1568.43C1189.25 1676.34 1026.39 1734.7 876.059 1702.11L873.941 1711.89ZM1361.52 2156.19C1365.35 2148.06 1367.42 2139.17 1369.04 2130.58C1370.7 2121.77 1371.84 2113.59 1373.81 2105.8L1364.11 2103.36C1362.05 2111.52 1360.76 2120.56 1359.21 2128.73C1357.63 2137.13 1355.74 2145 1352.48 2151.93L1361.52 2156.19ZM1373.81 2105.8C1375.7 2098.3 1377.98 2090.89 1380.29 2083.31C1382.58 2075.77 1384.88 2068.08 1386.72 2060.23L1376.99 2057.95C1375.23 2065.45 1373.01 2072.85 1370.72 2080.4C1368.44 2087.91 1366.07 2095.57 1364.11 2103.36L1373.81 2105.8ZM1386.72 2060.23C1387.06 2058.79 1387.38 2056.45 1387.7 2054.15C1388.04 2051.7 1388.43 2048.95 1388.92 2046.28C1389.41 2043.57 1389.97 2041.14 1390.62 2039.31C1390.94 2038.39 1391.24 2037.76 1391.47 2037.38C1391.73 2036.95 1391.74 2037.11 1391.35 2037.35L1386.2 2028.77C1384.65 2029.7 1383.62 2031.05 1382.93 2032.18C1382.21 2033.37 1381.65 2034.69 1381.19 2035.98C1380.28 2038.56 1379.6 2041.6 1379.08 2044.48C1378.55 2047.39 1378.13 2050.34 1377.8 2052.77C1377.44 2055.35 1377.19 2057.08 1376.99 2057.95L1386.72 2060.23ZM1391.35 2037.35C1390.09 2038.1 1388.7 2038.13 1387.65 2037.8C1386.78 2037.53 1386.28 2037.08 1386.16 2036.96C1385.92 2036.74 1385.97 2036.7 1386.28 2037.24C1386.84 2038.2 1387.63 2039.89 1388.58 2042.28C1390.46 2046.98 1392.69 2053.57 1394.88 2060.47C1399.26 2074.24 1403.3 2088.71 1403.74 2090.45L1413.44 2087.99C1412.93 2086.01 1408.83 2071.34 1404.41 2057.44C1402.21 2050.49 1399.89 2043.61 1397.87 2038.56C1396.87 2036.08 1395.87 2033.82 1394.91 2032.19C1394.47 2031.43 1393.83 2030.43 1392.97 2029.64C1392.54 2029.24 1391.76 2028.6 1390.63 2028.25C1389.31 2027.84 1387.68 2027.88 1386.2 2028.77L1391.35 2037.35ZM1403.74 2090.45C1407.49 2105.25 1410.56 2122.52 1417.95 2137.3L1426.9 2132.83C1420.15 2119.33 1417.44 2103.82 1413.44 2087.99L1403.74 2090.45ZM1361.26 2102.9C1367.51 2102.9 1375.96 2103.69 1385.29 2104.12C1394.15 2104.53 1403.76 2104.6 1410.81 2102.73L1408.25 2093.06C1402.88 2094.48 1394.73 2094.55 1385.75 2094.13C1377.22 2093.74 1367.75 2092.9 1361.26 2092.9V2102.9ZM1410.81 2102.73C1416.89 2101.12 1422.1 2100.48 1430.38 2096.93L1426.44 2087.74C1419.06 2090.91 1415.45 2091.16 1408.25 2093.06L1410.81 2102.73ZM1483.01 2057.68C1477.97 2057.68 1469.36 2058.69 1462.75 2060.54C1459.64 2061.41 1456.07 2062.7 1453.76 2064.75C1452.53 2065.84 1451.01 2067.73 1451 2070.42C1450.99 2073.12 1452.5 2075.1 1453.89 2076.36L1460.58 2068.92C1460.26 2068.64 1461.01 2069.16 1461 2070.47C1460.99 2071.77 1460.25 2072.36 1460.4 2072.22C1460.84 2071.83 1462.41 2071.02 1465.45 2070.17C1471.13 2068.58 1478.83 2067.68 1483.01 2067.68V2057.68ZM1453.89 2076.36C1456.72 2078.9 1460.83 2079.63 1464.12 2079.91C1467.69 2080.22 1471.79 2080.09 1475.67 2079.9C1479.69 2079.7 1483.45 2079.45 1486.86 2079.41C1490.37 2079.37 1492.73 2079.59 1494.02 2080.02L1497.18 2070.53C1494.15 2069.52 1490.29 2069.37 1486.74 2069.41C1483.09 2069.45 1478.92 2069.73 1475.18 2069.91C1471.3 2070.1 1467.81 2070.19 1464.97 2069.95C1463.57 2069.82 1462.48 2069.63 1461.68 2069.39C1461.29 2069.28 1461.01 2069.16 1460.82 2069.07C1460.64 2068.98 1460.57 2068.92 1460.58 2068.92L1453.89 2076.36ZM1494.02 2080.02C1497.5 2081.18 1499.17 2082.46 1499.91 2083.38C1500.53 2084.14 1500.69 2084.84 1500.54 2085.75C1500.16 2088.16 1497.54 2091.87 1492.52 2095.51C1487.72 2098.98 1481.88 2101.53 1477.02 2102.23C1471.95 2102.97 1469.84 2101.6 1469.03 2099.98L1460.08 2104.46C1463.83 2111.94 1471.86 2113.08 1478.45 2112.13C1485.24 2111.15 1492.57 2107.82 1498.38 2103.61C1503.97 2099.56 1509.39 2093.79 1510.42 2087.31C1510.98 2083.77 1510.19 2080.17 1507.68 2077.08C1505.3 2074.15 1501.68 2072.03 1497.18 2070.53L1494.02 2080.02ZM1506.46 2073.61C1507.6 2075.27 1509.14 2076.73 1511.24 2077.49C1513.33 2078.25 1515.36 2078.1 1517.07 2077.65C1520.12 2076.86 1523.36 2074.73 1526.19 2072.87L1520.71 2064.51C1519.17 2065.52 1517.92 2066.32 1516.82 2066.94C1515.7 2067.57 1514.98 2067.86 1514.54 2067.98C1514.15 2068.08 1514.29 2067.96 1514.65 2068.09C1515.03 2068.23 1515.01 2068.4 1514.71 2067.96L1506.46 2073.61ZM1526.19 2072.87C1530.19 2070.25 1532.11 2066.38 1532.39 2062.36C1532.66 2058.54 1531.47 2054.79 1529.75 2051.73L1521.04 2056.63C1522.08 2058.49 1522.51 2060.29 1522.42 2061.65C1522.33 2062.81 1521.9 2063.73 1520.71 2064.51L1526.19 2072.87ZM1529.75 2051.73C1525.6 2044.35 1517.6 2043.71 1511.81 2045.81C1506.2 2047.85 1500.49 2053.19 1500.4 2060.58L1510.4 2060.7C1510.42 2058.76 1512.16 2056.33 1515.23 2055.21C1518.15 2054.15 1520.08 2054.94 1521.04 2056.63L1529.75 2051.73ZM1500.4 2060.58C1500.33 2065.9 1500.6 2072.14 1502 2078.15C1503.41 2084.17 1506.03 2090.29 1510.92 2095L1517.86 2087.8C1514.82 2084.88 1512.88 2080.77 1511.74 2075.88C1510.6 2071 1510.34 2065.67 1510.4 2060.7L1500.4 2060.58ZM1510.92 2095C1514.59 2098.54 1519.36 2102.47 1524.8 2104.86C1530.35 2107.29 1536.93 2108.23 1543.6 2105.09L1539.34 2096.04C1536.01 2097.61 1532.56 2097.34 1528.82 2095.7C1524.97 2094.01 1521.2 2091.01 1517.86 2087.8L1510.92 2095ZM1543.6 2105.09C1557.64 2098.48 1562.31 2084.04 1564.28 2071.85L1554.41 2070.26C1552.54 2081.84 1548.59 2091.69 1539.34 2096.04L1543.6 2105.09ZM1564.28 2071.85C1567.18 2053.9 1566.47 2036.31 1564.88 2018.8L1554.92 2019.71C1556.49 2036.94 1557.11 2053.54 1554.41 2070.26L1564.28 2071.85ZM1564.88 2018.8C1564.64 2016.14 1564.18 2010.78 1563.84 2006.75C1563.66 2004.74 1563.52 2003.06 1563.45 2002.22C1563.43 2002.02 1563.42 2001.86 1563.41 2001.77C1563.41 2001.75 1563.41 2001.73 1563.41 2001.71C1563.41 2001.7 1563.41 2001.69 1563.41 2001.69C1563.41 2001.69 1563.41 2001.7 1563.41 2001.7C1563.41 2001.7 1563.41 2001.71 1563.41 2001.72C1563.41 2001.72 1563.41 2001.74 1563.41 2001.77C1563.41 2001.78 1563.42 2001.83 1563.42 2001.85C1563.42 2001.9 1563.42 2002.1 1563.42 2002.25C1562.42 2005.06 1555.95 2006.41 1553.54 2003.13C1553.5 2002.97 1553.47 2002.75 1553.46 2002.7C1553.45 2002.64 1553.45 2002.58 1553.45 2002.58C1553.45 2002.57 1553.45 2002.56 1553.44 2002.55C1553.44 2002.55 1553.44 2002.54 1553.44 2002.54C1553.44 2002.54 1553.45 2002.56 1553.45 2002.61C1553.45 2002.66 1553.46 2002.73 1553.47 2002.81C1553.48 2002.99 1553.5 2003.24 1553.53 2003.57L1563.5 2002.72C1563.44 2002.06 1563.41 2001.7 1563.4 2001.61C1563.4 2001.61 1563.4 2001.58 1563.39 2001.55C1563.39 2001.55 1563.39 2001.5 1563.38 2001.43C1563.37 2001.38 1563.34 2001.16 1563.31 2001C1560.89 1997.72 1554.42 1999.07 1553.42 2001.88C1553.42 2002.03 1553.42 2002.23 1553.43 2002.28C1553.43 2002.31 1553.43 2002.35 1553.43 2002.36C1553.43 2002.39 1553.43 2002.42 1553.43 2002.42C1553.44 2002.44 1553.44 2002.46 1553.44 2002.47C1553.44 2002.5 1553.44 2002.54 1553.45 2002.59C1553.46 2002.69 1553.47 2002.85 1553.49 2003.06C1553.56 2003.9 1553.7 2005.58 1553.87 2007.6C1554.22 2011.62 1554.68 2017.01 1554.92 2019.71L1564.88 2018.8ZM1553.53 2003.57C1554.19 2011.22 1555.59 2018.75 1557.01 2026.03C1558.45 2033.38 1559.9 2040.45 1560.77 2047.57L1570.7 2046.35C1569.77 2038.8 1568.23 2031.31 1566.83 2024.11C1565.41 2016.83 1564.1 2009.78 1563.5 2002.72L1553.53 2003.57ZM1560.77 2047.57C1561.48 2053.33 1561.81 2059.08 1562.32 2065.24C1562.82 2071.27 1563.5 2077.52 1564.93 2083.68L1574.67 2081.41C1573.4 2075.98 1572.78 2070.32 1572.28 2064.41C1571.8 2058.61 1571.44 2052.37 1570.7 2046.35L1560.77 2047.57ZM1564.93 2083.68C1565.01 2084.03 1565.61 2087.58 1566.49 2090.14C1566.93 2091.41 1567.7 2093.29 1569.09 2094.73C1569.85 2095.51 1571 2096.38 1572.58 2096.74C1574.23 2097.11 1575.81 2096.8 1577.1 2096.15L1572.63 2087.2C1573.07 2086.99 1573.85 2086.77 1574.78 2086.98C1575.64 2087.18 1576.13 2087.62 1576.28 2087.78C1576.47 2087.98 1576.28 2087.84 1575.94 2086.86C1575.65 2086.03 1575.41 2085.03 1575.19 2084.02C1575.09 2083.53 1575 2083.06 1574.92 2082.63C1574.84 2082.24 1574.75 2081.78 1574.67 2081.41L1564.93 2083.68ZM1577.1 2096.15C1581.54 2093.93 1584.99 2089.64 1587.52 2085.9C1590.02 2082.2 1592.44 2077.72 1593.89 2075.37L1585.36 2070.14C1583.39 2073.35 1581.65 2076.73 1579.24 2080.3C1576.85 2083.82 1574.62 2086.21 1572.63 2087.2L1577.1 2096.15ZM1593.89 2075.37C1600.81 2064.07 1605.23 2051.17 1608.12 2038.25L1598.37 2036.06C1595.62 2048.31 1591.52 2060.08 1585.36 2070.14L1593.89 2075.37ZM1608.12 2038.25C1609.97 2030.03 1611.2 2021.75 1612.06 2013.78L1602.11 2012.71C1601.29 2020.41 1600.11 2028.3 1598.37 2036.06L1608.12 2038.25ZM1612.06 2013.78C1613.12 2003.86 1614.03 1991.96 1611.65 1981.24L1601.89 1983.4C1603.87 1992.36 1603.18 2002.79 1602.11 2012.71L1612.06 2013.78ZM1611.65 1981.24C1611.42 1980.18 1611.05 1979.06 1610.48 1978.02C1609.94 1977.02 1609.03 1975.77 1607.56 1974.91C1605.92 1973.95 1603.96 1973.72 1602.07 1974.35C1600.38 1974.92 1599.11 1976.04 1598.19 1977.12L1605.78 1983.63C1606.05 1983.31 1605.9 1983.62 1605.24 1983.84C1604.87 1983.96 1604.4 1984.04 1603.86 1983.98C1603.32 1983.92 1602.87 1983.75 1602.52 1983.55C1602.18 1983.35 1601.97 1983.14 1601.86 1983.01C1601.8 1982.95 1601.76 1982.9 1601.74 1982.87C1601.72 1982.83 1601.71 1982.82 1601.71 1982.81C1601.71 1982.81 1601.71 1982.83 1601.73 1982.86C1601.74 1982.88 1601.75 1982.92 1601.77 1982.97C1601.81 1983.08 1601.85 1983.22 1601.89 1983.4L1611.65 1981.24ZM1598.19 1977.12C1591.55 1984.86 1590.2 1994.6 1590.75 2003.6C1591.29 2012.59 1593.78 2021.67 1595.62 2028.66L1605.29 2026.1C1603.38 2018.88 1601.2 2010.8 1600.73 2003C1600.26 1995.22 1601.55 1988.56 1605.78 1983.63L1598.19 1977.12ZM1595.62 2028.66C1596.5 2032 1597.46 2035.32 1598.46 2038.62L1608.03 2035.69C1607.05 2032.51 1606.14 2029.31 1605.29 2026.1L1595.62 2028.66ZM1598.46 2038.62C1601.58 2048.8 1605.21 2058.79 1608.79 2068.63C1612.39 2078.52 1615.95 2088.27 1619.01 2098.15L1628.56 2095.2C1625.42 2085.04 1621.77 2075.06 1618.19 2065.21C1614.59 2055.33 1611.05 2045.58 1608.03 2035.69L1598.46 2038.62ZM1619.01 2098.15C1623.45 2112.51 1627.51 2128.15 1632.33 2142.78L1641.83 2139.66C1636.96 2124.88 1633.27 2110.43 1628.56 2095.2L1619.01 2098.15ZM1632.33 2142.78C1632.95 2144.66 1633.4 2146.61 1633.89 2148.8C1634.36 2150.92 1634.87 2153.31 1635.6 2155.67L1645.16 2152.73C1644.57 2150.83 1644.14 2148.87 1643.65 2146.63C1643.17 2144.47 1642.62 2142.06 1641.83 2139.66L1632.33 2142.78ZM1635.6 2155.67C1635.69 2155.97 1635.88 2156.51 1636.26 2157.09C1636.62 2157.64 1637.46 2158.7 1639.02 2159.19C1640.75 2159.73 1642.25 2159.24 1643.15 2158.7C1643.94 2158.23 1644.42 2157.66 1644.64 2157.38C1645.08 2156.8 1645.34 2156.23 1645.45 2155.98C1645.59 2155.65 1645.71 2155.33 1645.8 2155.06C1646.13 2154.05 1646.42 2152.82 1646.54 2152.3L1636.79 2150.07C1636.67 2150.61 1636.47 2151.41 1636.31 2151.91C1636.27 2152.02 1636.26 2152.04 1636.27 2152C1636.28 2151.98 1636.32 2151.91 1636.37 2151.81C1636.42 2151.72 1636.53 2151.51 1636.72 2151.27C1636.88 2151.06 1637.31 2150.54 1638.05 2150.1C1638.88 2149.61 1640.33 2149.12 1642.01 2149.65C1643.52 2150.12 1644.32 2151.14 1644.63 2151.62C1644.96 2152.13 1645.11 2152.57 1645.16 2152.73L1635.6 2155.67ZM1646.54 2152.3C1647.82 2146.7 1648.6 2141.03 1649.04 2135.39L1639.07 2134.62C1638.66 2139.85 1637.94 2145.03 1636.79 2150.07L1646.54 2152.3ZM1649.04 2135.39C1650.76 2113.45 1646.09 2091.53 1638.8 2071.4L1629.39 2074.81C1636.39 2094.12 1640.64 2114.55 1639.07 2134.62L1649.04 2135.39ZM1638.8 2071.4C1635.72 2062.9 1630.69 2051.41 1623.13 2044.24L1616.25 2051.49C1621.97 2056.92 1626.35 2066.41 1629.39 2074.81L1638.8 2071.4ZM1623.13 2044.24C1622.54 2043.68 1621.87 2043.31 1621.67 2043.2C1621.33 2043.01 1620.96 2042.82 1620.61 2042.65C1619.91 2042.32 1619.09 2041.95 1618.35 2041.62C1617.55 2041.27 1616.94 2041.01 1616.42 2040.78C1616.16 2040.67 1616.03 2040.6 1615.98 2040.58C1615.93 2040.55 1616.04 2040.61 1616.22 2040.71C1616.24 2040.73 1616.61 2040.94 1617 2041.31C1617.12 2041.42 1617.82 2042.06 1618.24 2043.16C1618.49 2043.79 1618.75 2044.87 1618.43 2046.15C1618.09 2047.51 1617.27 2048.45 1616.5 2049L1610.66 2040.89C1609.88 2041.45 1609.06 2042.39 1608.72 2043.74C1608.4 2045.03 1608.66 2046.11 1608.91 2046.75C1609.33 2047.85 1610.04 2048.5 1610.16 2048.61C1610.57 2048.99 1610.97 2049.22 1611.02 2049.26C1611.26 2049.41 1611.49 2049.52 1611.58 2049.56C1611.82 2049.68 1612.1 2049.81 1612.36 2049.92C1612.87 2050.15 1613.67 2050.49 1614.33 2050.78C1615.06 2051.1 1615.74 2051.41 1616.26 2051.66C1616.53 2051.79 1616.7 2051.88 1616.79 2051.93C1617.03 2052.06 1616.67 2051.89 1616.25 2051.49L1623.13 2044.24ZM1616.5 2049C1616.03 2049.34 1615.59 2049.47 1615.33 2049.52C1615.1 2049.56 1614.99 2049.54 1615.14 2049.55C1615.2 2049.55 1615.29 2049.56 1615.43 2049.57C1615.5 2049.58 1615.57 2049.58 1615.65 2049.59C1615.73 2049.6 1615.83 2049.61 1615.93 2049.62C1616.29 2049.65 1616.9 2049.69 1617.56 2049.66L1617.09 2039.67C1617.13 2039.67 1617.08 2039.68 1616.78 2039.65C1616.6 2039.64 1616.05 2039.58 1615.59 2039.56C1614.68 2039.52 1612.59 2039.49 1610.66 2040.89L1616.5 2049ZM1617.56 2049.66C1621.22 2049.49 1623.86 2049.33 1627.86 2048.62L1626.1 2038.77C1622.74 2039.37 1620.61 2039.51 1617.09 2039.67L1617.56 2049.66ZM1627.86 2048.62C1636.75 2047.03 1646.24 2044.42 1654.55 2039.45L1649.41 2030.87C1642.58 2034.95 1634.44 2037.29 1626.1 2038.77L1627.86 2048.62ZM1654.55 2039.45C1665.03 2033.17 1676.3 2022.6 1680.71 2010.09L1671.29 2006.76C1667.94 2016.25 1658.79 2025.24 1649.41 2030.87L1654.55 2039.45ZM1409.27 2207.32C1411.54 2214.95 1413.69 2222.68 1415.7 2230.46L1425.38 2227.95C1423.34 2220.06 1421.16 2212.22 1418.86 2204.47L1409.27 2207.32ZM1415.7 2230.46C1419.36 2244.55 1422.58 2258.8 1425.32 2272.97L1435.14 2271.07C1432.35 2256.69 1429.09 2242.24 1425.38 2227.95L1415.7 2230.46ZM1425.32 2272.97C1426.71 2280.17 1427.86 2288.36 1429.66 2296L1439.39 2293.7C1437.63 2286.23 1436.69 2279.1 1435.14 2271.07L1425.32 2272.97ZM1429.66 2296C1429.91 2297.06 1430.09 2297.83 1430.21 2298.35C1430.35 2298.96 1430.37 2299.08 1430.36 2299C1430.35 2298.97 1430.34 2298.89 1430.33 2298.78C1430.32 2298.74 1430.29 2298.41 1430.31 2297.99C1430.32 2297.86 1430.36 2297.16 1430.7 2296.36C1430.87 2295.94 1431.3 2295.08 1432.24 2294.36C1433.34 2293.5 1434.75 2293.15 1436.12 2293.38C1437.28 2293.57 1438.05 2294.11 1438.4 2294.38C1438.79 2294.69 1439.05 2294.99 1439.18 2295.16C1439.45 2295.49 1439.62 2295.79 1439.68 2295.89C1439.81 2296.14 1439.89 2296.34 1439.91 2296.38C1439.94 2296.46 1439.96 2296.52 1439.97 2296.54C1439.99 2296.59 1440 2296.61 1439.99 2296.59C1439.95 2296.48 1439.88 2296.23 1439.75 2295.8C1439.34 2294.35 1438.39 2290.98 1437.8 2289.47L1428.49 2293.13C1428.86 2294.08 1429.62 2296.74 1430.15 2298.59C1430.27 2298.98 1430.38 2299.38 1430.47 2299.65C1430.49 2299.72 1430.53 2299.82 1430.57 2299.93C1430.58 2299.99 1430.62 2300.07 1430.65 2300.17C1430.68 2300.23 1430.77 2300.45 1430.91 2300.7C1430.97 2300.82 1431.14 2301.12 1431.41 2301.45C1431.55 2301.62 1431.81 2301.92 1432.2 2302.23C1432.55 2302.51 1433.33 2303.05 1434.48 2303.24C1435.85 2303.47 1437.26 2303.12 1438.37 2302.26C1439.3 2301.53 1439.73 2300.67 1439.91 2300.25C1440.25 2299.45 1440.29 2298.75 1440.29 2298.62C1440.32 2298.18 1440.28 2297.83 1440.28 2297.77C1440.26 2297.64 1440.25 2297.54 1440.24 2297.47C1440.16 2296.96 1439.86 2295.68 1439.39 2293.7L1429.66 2296ZM1437.8 2289.47C1436.17 2285.33 1434.28 2281.26 1432.58 2277.43C1430.84 2273.53 1429.25 2269.79 1428.03 2265.95L1418.5 2268.99C1419.9 2273.38 1421.68 2277.54 1423.44 2281.5C1425.23 2285.53 1426.97 2289.26 1428.49 2293.13L1437.8 2289.47ZM1428.03 2265.95C1424.33 2254.34 1423.9 2242.25 1425.5 2229.84L1415.59 2228.56C1413.85 2242 1414.24 2255.63 1418.5 2268.99L1428.03 2265.95ZM1425.5 2229.84C1425.55 2229.5 1425.59 2229.17 1425.64 2228.83L1415.73 2227.47C1415.68 2227.83 1415.63 2228.2 1415.59 2228.56L1425.5 2229.84ZM1425.64 2228.83C1426.51 2222.5 1427.42 2215.52 1429.79 2210.03C1430.95 2207.35 1432.32 2205.35 1433.92 2204.02C1435.44 2202.76 1437.37 2201.91 1440.12 2201.84L1439.87 2191.85C1434.92 2191.97 1430.81 2193.6 1427.53 2196.33C1424.33 2198.99 1422.15 2202.5 1420.61 2206.07C1417.59 2213.07 1416.54 2221.56 1415.73 2227.47L1425.64 2228.83ZM1440.12 2201.84C1441.64 2201.81 1443.83 2203.09 1445.46 2207.84C1446.99 2212.34 1447.02 2217.43 1446.11 2220.05L1455.55 2223.33C1457.38 2218.08 1456.98 2210.63 1454.92 2204.6C1452.94 2198.84 1448.34 2191.64 1439.87 2191.85L1440.12 2201.84ZM1446.11 2220.05C1445.94 2220.52 1445.31 2221.54 1443.77 2222.84C1442.32 2224.06 1440.41 2225.24 1438.33 2226.16C1436.24 2227.09 1434.18 2227.66 1432.47 2227.83C1430.67 2228 1429.8 2227.68 1429.51 2227.5L1424.17 2235.96C1427.08 2237.79 1430.5 2238.06 1433.43 2237.78C1436.45 2237.49 1439.55 2236.56 1442.38 2235.31C1445.21 2234.05 1447.95 2232.39 1450.22 2230.48C1452.4 2228.64 1454.55 2226.22 1455.55 2223.33L1446.11 2220.05ZM1498.11 2192.43C1492.89 2191.23 1486.03 2189.45 1478.85 2192.08L1482.29 2201.47C1486.22 2200.03 1490.07 2200.84 1495.86 2202.18L1498.11 2192.43ZM1478.85 2192.08C1467.57 2196.22 1458.16 2208.46 1459.27 2221.27L1469.23 2220.41C1468.57 2212.79 1474.56 2204.31 1482.29 2201.47L1478.85 2192.08ZM1459.27 2221.27C1459.85 2228.04 1463.12 2232.95 1468.22 2235.51C1472.98 2237.91 1478.63 2237.91 1483.68 2236.77C1488.8 2235.61 1493.91 2233.16 1498 2229.84C1502.04 2226.57 1505.54 2222.09 1506.51 2216.71L1496.67 2214.93C1496.27 2217.14 1494.65 2219.7 1491.71 2222.07C1488.83 2224.4 1485.12 2226.19 1481.47 2227.01C1477.75 2227.86 1474.69 2227.58 1472.71 2226.58C1471.07 2225.75 1469.55 2224.14 1469.23 2220.41L1459.27 2221.27ZM1506.51 2216.71C1507.39 2211.85 1507.64 2205.26 1505.48 2199.75L1496.17 2203.39C1497.37 2206.45 1497.39 2210.92 1496.67 2214.93L1506.51 2216.71ZM1505.48 2199.75C1505.41 2199.57 1505.36 2199.45 1505.32 2199.37C1505.3 2199.31 1505.31 2199.33 1505.31 2199.34C1505.32 2199.34 1505.32 2199.36 1505.33 2199.39C1505.34 2199.41 1505.36 2199.45 1505.38 2199.51C1505.39 2199.55 1505.44 2199.69 1505.49 2199.87C1505.52 2199.96 1505.57 2200.15 1505.61 2200.39C1505.63 2200.5 1505.75 2201.2 1505.6 2202.08C1505.52 2202.53 1505.28 2203.53 1504.45 2204.48C1503.45 2205.63 1502.06 2206.2 1500.69 2206.2C1499.55 2206.2 1498.72 2205.82 1498.36 2205.63C1497.95 2205.42 1497.66 2205.2 1497.51 2205.07C1497.2 2204.82 1496.99 2204.58 1496.92 2204.5C1496.82 2204.39 1496.75 2204.29 1496.71 2204.24C1496.63 2204.14 1496.57 2204.05 1496.55 2204.02C1496.52 2203.98 1496.5 2203.95 1496.49 2203.94C1496.49 2203.93 1496.45 2203.87 1496.5 2203.95C1496.55 2204.03 1496.64 2204.17 1496.77 2204.35C1497.16 2204.89 1498.27 2206.33 1500.24 2207.06L1503.73 2197.68C1504.19 2197.86 1504.48 2198.09 1504.62 2198.22C1504.77 2198.35 1504.85 2198.46 1504.89 2198.51C1504.9 2198.52 1504.91 2198.54 1504.91 2198.55C1504.92 2198.55 1504.92 2198.56 1504.92 2198.56C1504.93 2198.57 1504.93 2198.57 1504.93 2198.57C1504.93 2198.57 1504.93 2198.57 1504.92 2198.56C1504.92 2198.55 1504.9 2198.52 1504.88 2198.49C1504.86 2198.47 1504.84 2198.44 1504.81 2198.39C1504.79 2198.36 1504.73 2198.27 1504.65 2198.17C1504.61 2198.11 1504.53 2198.02 1504.44 2197.91C1504.36 2197.82 1504.15 2197.59 1503.84 2197.33C1503.69 2197.21 1503.4 2196.98 1502.99 2196.77C1502.63 2196.58 1501.8 2196.2 1500.66 2196.2C1499.29 2196.2 1497.9 2196.78 1496.9 2197.92C1496.07 2198.87 1495.83 2199.87 1495.75 2200.32C1495.6 2201.2 1495.72 2201.9 1495.74 2202.01C1495.78 2202.26 1495.83 2202.45 1495.86 2202.54C1495.91 2202.72 1495.96 2202.86 1495.97 2202.91C1496.01 2203.01 1496.05 2203.1 1496.05 2203.11C1496.07 2203.14 1496.08 2203.17 1496.08 2203.18C1496.09 2203.2 1496.09 2203.2 1496.1 2203.22C1496.11 2203.25 1496.13 2203.31 1496.17 2203.39L1505.48 2199.75ZM1500.24 2207.06C1503.59 2208.3 1507.19 2207.69 1509.45 2207.01L1506.55 2197.44C1505.95 2197.62 1505.31 2197.74 1504.74 2197.77C1504.15 2197.8 1503.83 2197.72 1503.73 2197.68L1500.24 2207.06ZM1509.45 2207.01C1512.51 2206.08 1515.64 2204.82 1518.6 2202.34L1512.16 2194.69C1510.68 2195.93 1509 2196.7 1506.55 2197.44L1509.45 2207.01ZM1518.6 2202.34C1519.38 2201.68 1520.22 2200.72 1520.81 2200.03C1521.54 2199.19 1522.19 2198.41 1522.91 2197.6C1523.63 2196.8 1524.22 2196.19 1524.68 2195.8C1524.91 2195.61 1525.01 2195.55 1524.99 2195.56C1524.97 2195.57 1524.89 2195.62 1524.74 2195.68C1524.59 2195.73 1524.33 2195.82 1523.97 2195.86L1522.82 2185.93C1520.64 2186.18 1518.95 2187.55 1518.2 2188.19C1517.21 2189.03 1516.26 2190.04 1515.46 2190.94C1514.67 2191.82 1513.83 2192.81 1513.25 2193.49C1512.93 2193.86 1512.67 2194.15 1512.46 2194.38C1512.22 2194.63 1512.14 2194.71 1512.16 2194.69L1518.6 2202.34ZM1523.97 2195.86C1522.47 2196.03 1521.31 2195.49 1520.69 2195.06C1520.09 2194.66 1519.74 2194.23 1519.59 2194.03C1519.43 2193.81 1519.33 2193.63 1519.29 2193.56C1519.24 2193.47 1519.22 2193.42 1519.22 2193.42C1519.22 2193.41 1519.23 2193.43 1519.24 2193.48C1519.26 2193.53 1519.29 2193.6 1519.32 2193.69C1519.37 2193.87 1519.45 2194.12 1519.53 2194.42L1529.18 2191.78C1528.96 2191.01 1528.71 2190.19 1528.41 2189.48C1528.28 2189.17 1528.02 2188.59 1527.58 2188.02C1527.37 2187.73 1526.95 2187.23 1526.29 2186.78C1525.59 2186.31 1524.38 2185.75 1522.82 2185.93L1523.97 2195.86ZM1519.53 2194.42C1520.72 2198.79 1522.63 2209.91 1524.31 2220.62C1525.98 2231.26 1527.33 2240.88 1527.45 2242.07L1537.4 2241.08C1537.25 2239.55 1535.85 2229.63 1534.19 2219.07C1532.55 2208.57 1530.55 2196.81 1529.18 2191.78L1519.53 2194.42ZM1527.45 2242.07C1527.53 2242.88 1527.55 2243.27 1527.55 2243.38C1527.55 2243.52 1527.53 2243.18 1527.65 2242.68C1527.68 2242.55 1527.88 2241.56 1528.7 2240.61C1529.19 2240.04 1530.05 2239.32 1531.33 2239.03C1532.64 2238.72 1533.77 2239 1534.54 2239.36C1535.8 2239.94 1536.41 2240.88 1536.49 2240.99C1536.68 2241.27 1536.79 2241.49 1536.82 2241.56C1536.89 2241.7 1536.9 2241.76 1536.86 2241.63C1536.78 2241.4 1536.65 2240.97 1536.48 2240.29C1535.78 2237.59 1534.69 2232.51 1533.56 2226.49C1532.44 2220.49 1531.3 2213.69 1530.49 2207.57C1529.65 2201.34 1529.21 2196.2 1529.35 2193.34L1519.36 2192.86C1519.17 2196.73 1519.75 2202.69 1520.57 2208.9C1521.42 2215.23 1522.59 2222.21 1523.73 2228.33C1524.87 2234.41 1526.01 2239.77 1526.8 2242.8C1526.99 2243.56 1527.19 2244.27 1527.39 2244.83C1527.48 2245.1 1527.61 2245.47 1527.79 2245.84C1527.87 2246.02 1528.03 2246.33 1528.26 2246.67C1528.38 2246.85 1529.04 2247.83 1530.33 2248.43C1531.12 2248.79 1532.27 2249.07 1533.59 2248.77C1534.89 2248.47 1535.76 2247.74 1536.27 2247.15C1537.12 2246.17 1537.35 2245.12 1537.39 2244.91C1537.55 2244.24 1537.55 2243.63 1537.55 2243.39C1537.55 2242.75 1537.49 2241.95 1537.4 2241.08L1527.45 2242.07ZM1529.35 2193.34C1529.33 2193.62 1529.17 2195.33 1527.43 2196.45C1526.68 2196.93 1525.98 2197.06 1525.58 2197.09C1525.2 2197.12 1524.95 2197.08 1524.94 2197.08C1524.91 2197.07 1524.96 2197.08 1525.13 2197.13C1525.3 2197.18 1525.52 2197.25 1525.81 2197.35C1526.5 2197.58 1527.07 2197.79 1528.11 2198.15C1531.95 2199.47 1537.99 2201.29 1546.22 2201.09L1545.97 2191.09C1539.42 2191.26 1534.67 2189.83 1531.37 2188.7C1530.64 2188.44 1529.65 2188.09 1529 2187.87C1528.33 2187.64 1527.43 2187.35 1526.54 2187.21C1525.84 2187.1 1523.9 2186.83 1522.03 2188.03C1519.82 2189.45 1519.41 2191.71 1519.36 2192.86L1529.35 2193.34ZM1546.22 2201.09C1554.3 2200.89 1560.24 2197.37 1564.33 2192.16C1568.25 2187.16 1570.31 2180.8 1571.44 2174.84C1572.57 2168.82 1572.83 2162.75 1572.84 2157.99C1572.85 2155.59 1572.79 2153.49 1572.74 2151.88C1572.72 2151.06 1572.7 2150.4 1572.69 2149.87C1572.69 2149.6 1572.68 2149.39 1572.68 2149.23C1572.68 2149.15 1572.69 2149.09 1572.69 2149.05C1572.69 2149 1572.69 2148.98 1572.69 2148.99L1562.71 2148.31C1562.65 2149.22 1562.71 2150.75 1562.75 2152.17C1562.8 2153.77 1562.85 2155.74 1562.84 2157.96C1562.83 2162.44 1562.59 2167.82 1561.61 2172.98C1560.62 2178.21 1558.97 2182.78 1556.46 2185.99C1554.1 2188.99 1550.89 2190.97 1545.97 2191.09L1546.22 2201.09ZM1572.69 2148.99C1572.76 2148.01 1572.82 2147.44 1572.86 2147.15C1572.89 2147 1572.89 2147.06 1572.84 2147.22C1572.81 2147.31 1572.75 2147.53 1572.61 2147.81C1572.5 2148.03 1572.18 2148.68 1571.47 2149.3C1570.64 2150.04 1569.1 2150.83 1567.19 2150.42C1565.61 2150.09 1564.72 2149.11 1564.43 2148.75C1564.08 2148.33 1563.89 2147.95 1563.82 2147.8C1563.74 2147.62 1563.69 2147.48 1563.67 2147.43C1563.63 2147.29 1563.66 2147.36 1563.74 2147.79C1564.04 2149.55 1564.26 2152.22 1564.46 2153.76L1574.38 2152.48C1574.28 2151.74 1573.93 2148.05 1573.59 2146.08C1573.5 2145.59 1573.37 2144.89 1573.16 2144.25C1573.09 2144.07 1572.82 2143.21 1572.15 2142.4C1571.82 2141.99 1570.89 2140.98 1569.26 2140.64C1567.31 2140.23 1565.73 2141.03 1564.86 2141.8C1564.11 2142.46 1563.74 2143.17 1563.6 2143.47C1563.42 2143.84 1563.31 2144.17 1563.25 2144.39C1563.12 2144.83 1563.04 2145.27 1562.98 2145.61C1562.87 2146.32 1562.79 2147.23 1562.71 2148.31L1572.69 2148.99ZM1564.46 2153.76C1566.44 2169.2 1566.22 2176.26 1566.37 2183.67C1566.53 2191.37 1567.1 2199.06 1570.67 2215.17L1580.43 2213.01C1576.99 2197.49 1576.51 2190.45 1576.37 2183.46C1576.22 2176.17 1576.44 2168.56 1574.38 2152.48L1564.46 2153.76ZM1570.67 2215.17C1571.98 2221.09 1574.2 2226.96 1577.53 2231.03C1579.22 2233.11 1581.39 2234.96 1584.13 2235.92C1586.99 2236.91 1590.02 2236.76 1592.94 2235.51L1589 2226.32C1588.21 2226.66 1587.76 2226.59 1587.42 2226.47C1586.96 2226.31 1586.21 2225.85 1585.28 2224.72C1583.36 2222.37 1581.59 2218.23 1580.43 2213.01L1570.67 2215.17ZM1594.42 2234.54C1600.09 2229.14 1603.32 2223.84 1605.23 2218.47C1607.09 2213.25 1607.62 2208.12 1608.16 2203.56L1598.22 2202.4C1597.66 2207.2 1597.22 2211.16 1595.81 2215.12C1594.45 2218.94 1592.11 2222.93 1587.52 2227.29L1594.42 2234.54ZM1608.16 2203.56C1608.28 2202.48 1608.41 2201.77 1608.51 2201.35C1608.64 2200.81 1608.66 2201.05 1608.33 2201.53C1608.14 2201.81 1607.68 2202.39 1606.83 2202.83C1605.88 2203.32 1604.79 2203.45 1603.77 2203.23C1602.88 2203.03 1602.29 2202.61 1602.04 2202.4C1601.77 2202.18 1601.63 2202 1601.61 2201.98C1601.57 2201.93 1601.66 2202.05 1601.87 2202.45C1602.06 2202.83 1602.28 2203.3 1602.54 2203.89C1602.79 2204.48 1603.06 2205.11 1603.34 2205.8C1603.62 2206.48 1603.93 2207.2 1604.23 2207.91L1613.39 2203.9C1613.13 2203.29 1612.86 2202.65 1612.58 2201.97C1612.3 2201.3 1612.01 2200.59 1611.71 2199.91C1611.2 2198.73 1610.45 2197.06 1609.51 2195.85C1609.16 2195.39 1607.99 2193.92 1605.93 2193.46C1604.69 2193.19 1603.38 2193.35 1602.22 2193.96C1601.16 2194.51 1600.49 2195.28 1600.1 2195.85C1599.37 2196.91 1599.01 2198.11 1598.8 2198.97C1598.56 2199.95 1598.37 2201.1 1598.22 2202.4L1608.16 2203.56ZM1604.23 2207.91C1605.41 2210.6 1606 2212.06 1606.81 2214.68L1616.36 2211.72C1615.4 2208.62 1614.66 2206.79 1613.39 2203.9L1604.23 2207.91ZM1606.81 2214.68C1606.8 2214.64 1606.82 2214.7 1606.86 2214.92C1606.9 2215.12 1606.94 2215.38 1606.99 2215.7C1607.07 2216.23 1607.2 2217.19 1607.31 2217.86C1607.37 2218.23 1607.44 2218.66 1607.54 2219.08C1607.62 2219.41 1607.8 2220.09 1608.14 2220.77C1608.31 2221.1 1608.68 2221.78 1609.39 2222.41C1610.19 2223.11 1611.62 2223.91 1613.47 2223.67C1615.13 2223.46 1616.16 2222.53 1616.61 2222.05C1617.09 2221.54 1617.39 2221.03 1617.55 2220.72L1608.69 2216.09C1608.74 2215.98 1608.94 2215.62 1609.33 2215.21C1609.68 2214.83 1610.63 2213.96 1612.19 2213.75C1613.96 2213.52 1615.31 2214.29 1616.03 2214.93C1616.66 2215.49 1616.96 2216.06 1617.06 2216.25C1617.27 2216.65 1617.31 2216.92 1617.27 2216.76C1617.25 2216.68 1617.22 2216.51 1617.17 2216.24C1617.07 2215.63 1617.01 2215.09 1616.88 2214.23C1616.79 2213.59 1616.63 2212.57 1616.36 2211.72L1606.81 2214.68ZM1617.55 2220.72C1618.22 2219.44 1618.25 2218.16 1618.25 2217.63C1618.25 2216.94 1618.17 2216.25 1618.08 2215.68C1617.9 2214.52 1617.59 2213.25 1617.29 2212.14C1616.98 2211.02 1616.64 2209.93 1616.38 2209.11C1616.25 2208.7 1616.13 2208.33 1616.05 2208.08C1615.94 2207.74 1615.94 2207.72 1615.96 2207.81L1606.28 2210.32C1606.35 2210.57 1606.47 2210.93 1606.53 2211.13C1606.62 2211.41 1606.72 2211.73 1606.85 2212.12C1607.09 2212.9 1607.38 2213.84 1607.64 2214.79C1607.91 2215.76 1608.11 2216.61 1608.2 2217.22C1608.25 2217.53 1608.25 2217.65 1608.25 2217.63C1608.25 2217.61 1608.25 2217.47 1608.29 2217.26C1608.32 2217.07 1608.41 2216.62 1608.69 2216.09L1617.55 2220.72ZM1615.96 2207.81C1614.71 2202.97 1613.44 2198.53 1612.45 2193.93L1602.67 2196.04C1603.72 2200.91 1605.11 2205.79 1606.28 2210.32L1615.96 2207.81ZM1612.45 2193.93C1612.2 2192.79 1612.38 2192.59 1612.29 2192.84C1612.15 2193.21 1611.88 2193.36 1612 2193.28C1612.25 2193.14 1612.79 2192.93 1613.92 2192.65C1614.46 2192.51 1615.02 2192.38 1615.7 2192.23C1616.36 2192.08 1617.1 2191.91 1617.86 2191.71L1615.33 2182.03C1614.74 2182.19 1614.14 2182.33 1613.48 2182.48C1612.86 2182.62 1612.15 2182.78 1611.48 2182.95C1610.18 2183.27 1608.52 2183.75 1607.01 2184.62C1605.37 2185.57 1603.77 2187.06 1602.91 2189.36C1602.11 2191.53 1602.19 2193.84 1602.67 2196.04L1612.45 2193.93ZM1617.86 2191.71C1621.22 2190.83 1624.22 2189.22 1626.79 2187.61C1628.09 2186.8 1629.34 2185.95 1630.5 2185.16C1631.69 2184.36 1632.76 2183.62 1633.82 2182.94L1628.44 2174.51C1627.23 2175.29 1626.01 2176.12 1624.87 2176.9C1623.71 2177.69 1622.6 2178.44 1621.5 2179.13C1619.26 2180.52 1617.27 2181.53 1615.33 2182.03L1617.86 2191.71ZM1633.82 2182.94C1633.8 2182.96 1633.78 2182.97 1633.77 2182.98C1633.76 2182.98 1633.75 2182.99 1633.75 2182.99C1633.74 2183 1633.73 2183 1633.73 2183C1633.73 2183 1633.73 2183 1633.75 2182.99L1628.63 2174.4C1628.61 2174.41 1628.59 2174.42 1628.57 2174.43C1628.57 2174.44 1628.51 2174.47 1628.44 2174.51L1633.82 2182.94ZM1633.75 2182.99C1634 2182.84 1635.43 2182 1636.65 2181.21C1637.22 2180.84 1637.96 2180.35 1638.53 2179.88C1638.68 2179.75 1638.89 2179.57 1639.11 2179.34C1639.26 2179.19 1639.74 2178.7 1640.11 2177.96C1640.37 2177.43 1641.59 2174.54 1639.19 2172.12C1638.27 2171.2 1637.25 2170.87 1636.71 2170.75C1636.14 2170.61 1635.67 2170.61 1635.39 2170.61L1635.64 2180.61C1635.43 2180.62 1635 2180.61 1634.47 2180.49C1633.97 2180.37 1632.98 2180.06 1632.08 2179.16C1629.72 2176.77 1630.93 2173.95 1631.16 2173.49C1631.49 2172.82 1631.9 2172.42 1631.94 2172.37C1632.01 2172.3 1632.06 2172.26 1632.09 2172.23C1632.12 2172.2 1632.14 2172.19 1632.14 2172.18C1632.15 2172.18 1632.13 2172.19 1632.08 2172.23C1632.03 2172.27 1631.96 2172.32 1631.87 2172.38C1631.7 2172.5 1631.48 2172.65 1631.23 2172.81C1630.2 2173.48 1628.97 2174.2 1628.63 2174.4L1633.75 2182.99ZM1635.39 2170.61C1630.76 2170.73 1628.12 2173.79 1626.76 2176.37L1635.62 2181.02C1635.73 2180.79 1635.83 2180.65 1635.9 2180.56C1635.97 2180.47 1636 2180.45 1635.97 2180.47C1635.94 2180.5 1635.87 2180.54 1635.78 2180.58C1635.68 2180.61 1635.63 2180.61 1635.64 2180.61L1635.39 2170.61ZM1626.76 2176.37C1625.92 2177.98 1625.39 2179.7 1625.01 2181.08C1624.53 2182.88 1624.45 2183.41 1624.12 2184.55L1633.72 2187.34C1633.99 2186.43 1634.46 2184.46 1634.66 2183.7C1634.98 2182.52 1635.29 2181.64 1635.62 2181.02L1626.76 2176.37ZM1624.12 2184.55C1621.58 2193.32 1621.35 2202.76 1622.23 2211.4L1632.18 2210.39C1631.38 2202.56 1631.65 2194.49 1633.72 2187.34L1624.12 2184.55ZM1622.23 2211.4C1622.37 2212.79 1622.96 2215.7 1625.85 2217.11C1628.61 2218.45 1631.18 2217.25 1632.19 2216.68C1634.53 2215.38 1636.86 2212.81 1638.74 2210.39C1642.66 2205.36 1647.02 2197.83 1648.44 2192.15L1638.73 2189.73C1637.79 2193.52 1634.34 2199.77 1630.85 2204.25C1629.04 2206.58 1627.76 2207.71 1627.32 2207.95C1626.95 2208.16 1628.33 2207.19 1630.22 2208.11C1632.22 2209.08 1632.23 2210.9 1632.18 2210.39L1622.23 2211.4ZM1648.44 2192.15C1648.71 2191.05 1648.91 2189.89 1648.94 2188.72L1638.94 2188.47C1638.94 2188.69 1638.89 2189.1 1638.73 2189.73L1648.44 2192.15ZM1648.94 2188.72C1649.04 2184.81 1647.12 2180.69 1645.96 2178.49C1645.31 2177.25 1644.7 2176.25 1644.34 2175.69C1644.25 2175.55 1644.16 2175.42 1644.09 2175.31C1644.05 2175.26 1643.99 2175.17 1643.91 2175.07C1643.89 2175.04 1643.78 2174.89 1643.62 2174.71C1643.61 2174.71 1643.28 2174.32 1642.77 2173.97C1642.6 2173.86 1642.18 2173.61 1641.91 2173.49C1641.49 2173.33 1640.34 2173.09 1639.62 2173.08C1638.57 2173.26 1636.63 2174.31 1635.85 2175.16C1635.41 2175.91 1634.98 2177.25 1634.92 2177.8C1634.87 2178.7 1635.09 2179.39 1635.12 2179.49C1635.19 2179.73 1635.26 2179.91 1635.3 2180C1635.38 2180.19 1635.45 2180.33 1635.48 2180.38C1635.54 2180.5 1635.6 2180.6 1635.62 2180.63C1635.67 2180.72 1635.72 2180.81 1635.76 2180.86C1635.83 2180.98 1635.93 2181.12 1636.04 2181.29L1644.34 2175.72C1644.26 2175.6 1644.22 2175.53 1644.2 2175.51C1644.19 2175.49 1644.21 2175.52 1644.24 2175.57C1644.25 2175.59 1644.3 2175.67 1644.36 2175.79C1644.38 2175.83 1644.45 2175.97 1644.53 2176.15C1644.57 2176.24 1644.64 2176.42 1644.71 2176.66C1644.74 2176.76 1644.96 2177.45 1644.91 2178.35C1644.85 2178.9 1644.42 2180.24 1643.98 2180.98C1643.2 2181.84 1641.26 2182.89 1640.21 2183.06C1639.49 2183.06 1638.34 2182.82 1637.92 2182.66C1637.65 2182.53 1637.23 2182.29 1637.06 2182.18C1636.55 2181.82 1636.22 2181.44 1636.22 2181.44C1636.06 2181.27 1635.96 2181.13 1635.95 2181.11C1635.91 2181.07 1635.89 2181.04 1635.88 2181.03C1635.87 2181.01 1635.87 2181 1635.86 2181C1635.86 2181 1635.89 2181.04 1635.95 2181.12C1636.16 2181.46 1636.61 2182.19 1637.11 2183.13C1638.24 2185.3 1638.97 2187.38 1638.94 2188.47L1648.94 2188.72ZM1636.04 2181.29C1635.79 2180.92 1635.84 2180.84 1636.1 2181.68C1636.3 2182.33 1636.54 2183.21 1636.82 2184.32C1637.3 2186.24 1638.07 2189.56 1638.74 2192.17L1648.43 2189.7C1647.67 2186.74 1647.17 2184.47 1646.52 2181.88C1646.23 2180.73 1645.94 2179.63 1645.65 2178.7C1645.42 2177.96 1645.01 2176.72 1644.34 2175.72L1636.04 2181.29ZM1638.74 2192.17C1639.54 2195.3 1640.49 2198.72 1641.61 2201.4C1642.16 2202.71 1642.87 2204.16 1643.81 2205.35C1644.63 2206.39 1646.51 2208.36 1649.5 2208.29L1649.26 2198.29C1651.12 2198.25 1651.91 2199.47 1651.67 2199.17C1651.56 2199.03 1651.26 2198.55 1650.84 2197.54C1650.03 2195.59 1649.22 2192.8 1648.43 2189.7L1638.74 2192.17ZM1649.5 2208.29C1653.51 2208.19 1656.66 2206.04 1658.92 2203.71C1661.2 2201.37 1663.03 2198.39 1664.5 2195.51C1667.42 2189.76 1669.44 2183.23 1670.43 2180.31L1660.95 2177.1C1659.84 2180.38 1658.09 2186.04 1655.58 2190.98C1654.33 2193.44 1653.03 2195.43 1651.75 2196.75C1650.46 2198.08 1649.64 2198.28 1649.26 2198.29L1649.5 2208.29ZM1670.43 2180.31C1671.82 2176.19 1672.84 2171.71 1673.46 2167.47L1663.56 2166.03C1663.02 2169.75 1662.13 2173.63 1660.95 2177.1L1670.43 2180.31ZM1673.46 2167.47C1673.5 2167.15 1673.53 2166.69 1673.54 2166.52C1673.56 2166.22 1673.59 2165.87 1673.62 2165.48C1673.68 2164.67 1673.76 2163.82 1673.86 2163.13C1673.92 2162.79 1673.96 2162.59 1673.98 2162.52C1674.05 2162.25 1673.95 2162.87 1673.37 2163.6C1673.05 2164 1672.14 2164.97 1670.55 2165.27C1668.77 2165.59 1667.41 2164.87 1666.73 2164.32C1666.13 2163.84 1665.84 2163.35 1665.78 2163.24C1665.68 2163.09 1665.66 2163.01 1665.69 2163.1L1674.99 2159.42C1674.85 2159.05 1674.65 2158.61 1674.4 2158.18C1674.17 2157.79 1673.73 2157.11 1672.97 2156.51C1672.15 2155.85 1670.65 2155.08 1668.75 2155.43C1667.02 2155.75 1665.99 2156.81 1665.55 2157.36C1664.74 2158.37 1664.43 2159.51 1664.33 2159.9C1664.17 2160.49 1664.06 2161.1 1663.98 2161.63C1663.82 2162.69 1663.71 2163.85 1663.65 2164.71C1663.56 2165.87 1663.55 2166.08 1663.56 2166.03L1673.46 2167.47ZM1665.69 2163.1C1668.24 2169.55 1669.91 2176.36 1671.75 2183.61C1673.55 2190.73 1675.51 2198.23 1678.63 2205.39L1687.8 2201.39C1685.04 2195.07 1683.26 2188.32 1681.44 2181.15C1679.65 2174.1 1677.83 2166.59 1674.99 2159.42L1665.69 2163.1ZM1678.63 2205.39C1678.67 2205.48 1679.71 2208.33 1680.8 2210.05C1681.12 2210.56 1681.56 2211.19 1682.15 2211.78C1682.71 2212.33 1683.69 2213.14 1685.11 2213.51C1686.74 2213.93 1688.4 2213.63 1689.76 2212.77C1690.95 2212.02 1691.7 2210.99 1692.16 2210.2L1683.52 2205.17C1683.52 2205.17 1683.53 2205.15 1683.56 2205.11C1683.58 2205.07 1683.63 2205.01 1683.7 2204.93C1683.82 2204.79 1684.06 2204.55 1684.43 2204.32C1685.3 2203.76 1686.47 2203.53 1687.63 2203.83C1688.58 2204.08 1689.09 2204.57 1689.2 2204.68C1689.34 2204.82 1689.36 2204.88 1689.26 2204.73C1689.08 2204.44 1688.84 2203.94 1688.55 2203.26C1688.42 2202.94 1688.3 2202.63 1688.18 2202.32C1688.07 2202.05 1687.93 2201.68 1687.8 2201.39L1678.63 2205.39ZM1692.16 2210.2C1696.63 2202.51 1697.47 2192.64 1698.22 2185.61L1688.27 2184.55C1687.45 2192.27 1686.69 2199.71 1683.52 2205.17L1692.16 2210.2ZM1698.22 2185.61C1700.33 2165.74 1699.93 2168.21 1700.71 2148.54L1690.72 2148.14C1689.93 2167.8 1690.35 2165.04 1688.27 2184.55L1698.22 2185.61ZM1700.71 2148.54C1700.71 2148.45 1700.71 2148.33 1700.71 2148.3C1700.71 2148.29 1700.71 2148.26 1700.71 2148.25C1700.71 2148.24 1700.71 2148.22 1700.71 2148.21C1700.71 2148.19 1700.71 2148.16 1700.71 2148.14C1700.71 2148.09 1700.7 2148.02 1700.7 2147.93C1700.7 2147.75 1700.69 2147.5 1700.68 2147.17C1700.66 2146.51 1700.64 2145.56 1700.61 2144.39C1700.55 2142.04 1700.46 2138.79 1700.38 2135.16C1700.21 2127.88 1700.05 2119.1 1700.04 2112.94C1700.04 2109.8 1700.08 2107.54 1700.16 2106.49C1700.18 2106.21 1700.19 2106.2 1700.17 2106.34C1700.16 2106.35 1700.1 2106.74 1699.88 2107.22C1699.78 2107.44 1699.49 2108.05 1698.89 2108.66C1698.22 2109.34 1696.78 2110.34 1694.77 2110.09C1693 2109.88 1691.97 2108.82 1691.62 2108.42C1691.21 2107.95 1691 2107.52 1690.92 2107.34C1690.74 2106.97 1690.67 2106.69 1690.67 2106.69C1690.65 2106.62 1690.68 2106.7 1690.73 2107.05C1691.17 2109.94 1691.97 2119.59 1693.27 2140.55L1703.25 2139.92C1701.96 2119.19 1701.14 2108.98 1700.62 2105.54C1700.55 2105.1 1700.46 2104.6 1700.34 2104.15C1700.29 2103.96 1700.18 2103.53 1699.95 2103.06C1699.85 2102.84 1699.61 2102.37 1699.19 2101.88C1698.81 2101.45 1697.76 2100.38 1695.97 2100.16C1693.94 2099.92 1692.48 2100.92 1691.79 2101.62C1691.17 2102.25 1690.86 2102.89 1690.75 2103.15C1690.49 2103.72 1690.39 2104.23 1690.35 2104.41C1690.26 2104.87 1690.22 2105.36 1690.19 2105.72C1690.07 2107.23 1690.04 2109.88 1690.04 2112.95C1690.05 2119.23 1690.22 2128.1 1690.38 2135.39C1690.47 2139.03 1690.55 2142.3 1690.61 2144.65C1690.64 2145.83 1690.67 2146.78 1690.69 2147.44C1690.69 2147.77 1690.7 2148.02 1690.71 2148.2C1690.72 2148.57 1690.71 2148.35 1690.72 2148.14L1700.71 2148.54ZM1693.29 2140.74C1693.86 2146.38 1694.11 2148.21 1694.54 2150.08C1694.92 2151.75 1695.34 2153.04 1696.37 2158.51L1706.2 2156.66C1705.12 2150.93 1704.6 2149.22 1704.29 2147.85C1704.02 2146.68 1703.82 2145.44 1703.24 2139.73L1693.29 2140.74ZM1696.37 2158.51C1698.18 2168.1 1700.43 2177.54 1702.9 2186.88L1712.57 2184.33C1710.14 2175.13 1707.95 2165.94 1706.2 2156.66L1696.37 2158.51ZM1702.9 2186.88C1703.43 2188.87 1704.09 2191.7 1705.01 2194.34C1705.93 2197 1707.27 2200.02 1709.47 2202.49L1716.95 2195.85C1716.02 2194.8 1715.2 2193.22 1714.46 2191.07C1713.71 2188.9 1713.2 2186.71 1712.57 2184.33L1702.9 2186.88ZM1709.47 2202.49C1711.44 2204.71 1714.03 2204.22 1714.79 2204C1715.64 2203.75 1716.27 2203.33 1716.54 2203.15C1717.16 2202.72 1717.74 2202.18 1718.18 2201.74C1719.14 2200.79 1720.33 2199.45 1721.62 2197.94C1724.23 2194.87 1727.59 2190.65 1730.99 2186.29C1737.79 2177.57 1744.91 2168.06 1746.7 2165.71L1738.74 2159.66C1736.89 2162.09 1729.85 2171.48 1723.1 2180.14C1719.72 2184.48 1716.47 2188.56 1714 2191.46C1712.75 2192.93 1711.79 2194 1711.15 2194.62C1710.8 2194.97 1710.73 2195 1710.86 2194.92C1710.87 2194.9 1711.3 2194.6 1711.99 2194.4C1712.59 2194.22 1715.05 2193.71 1716.95 2195.85L1709.47 2202.49ZM1672.28 2132.88C1697.75 2131.21 1722.2 2123.18 1745.7 2116.92L1743.13 2107.25C1718.85 2113.72 1695.82 2121.31 1671.62 2122.9L1672.28 2132.88ZM1668.22 2138.98L1668.31 2142.71L1678.31 2142.46L1678.22 2138.73L1668.22 2138.98ZM1544.09 2175.92C1567.22 2175.35 1591.43 2175.23 1614.9 2170.36L1612.87 2160.57C1590.49 2165.21 1567.33 2165.35 1543.84 2165.93L1544.09 2175.92Z" fill="#976393"/>
</svg>
