<svg width="175" height="31" viewBox="0 0 175 31" fill="none" xmlns="http://www.w3.org/2000/svg">
<path d="M2.54775 9.13824C2.54775 9.26222 2.42377 11.0618 2.20493 13.5367C2.13928 14.2791 2.04807 13.966 2.01614 13.7133C1.78747 11.9041 4.04679 9.20587 5.14195 8.07783C5.40656 7.80529 5.67357 7.6392 5.95628 7.5434C6.239 7.4476 6.54895 7.4476 6.8016 7.54058C7.90245 7.94573 8.11937 10.0061 8.21423 11.1689C8.35488 12.8929 8.49507 14.3905 8.80784 15.1485C9.76697 17.4729 13.3115 9.45759 14.1916 8.98233C14.3601 8.89135 14.5664 8.95039 14.7552 9.01238C14.9439 9.07437 15.1299 9.19835 15.2567 9.47919C16.1744 11.5117 15.7573 14.7023 16.4458 15.8041C16.6763 16.1729 17.2601 16.0887 17.7288 16.0577C18.6649 15.9958 19.5744 14.5295 20.7025 12.8708C21.7808 11.2851 21.5206 10.0812 21.5516 9.67267C21.6162 8.81999 21.9564 12.2565 22.4579 14.1106C22.6266 14.734 23.0215 15.0856 23.4272 15.3044C23.6379 15.418 23.895 15.4613 24.1467 15.4312C25.2731 15.2967 26.1492 13.6541 26.9034 12.2425C27.1423 11.7953 27.156 10.7744 27.249 9.83235C27.379 8.51518 28.5912 12.5083 29.5013 16.5405C30.06 19.0153 29.662 21.2771 29.2571 23.026C28.438 26.5647 26.2844 28.0434 24.3468 29.0785C23.3451 29.6135 22.3997 29.1762 21.838 28.9273C21.0639 28.5842 20.5832 27.8631 20.2704 27.1774C19.8246 26.2 20.1417 24.9232 20.5156 23.799C20.9209 22.5798 21.7685 21.8519 23.1361 20.7633C24.2314 19.8914 26.2393 18.4969 27.7882 17.4835C30.3322 15.8188 33.0883 14.7174 35.6544 13.7471C36.6086 13.3968 36.8566 13.3348 37.2323 13.2099C37.608 13.085 38.1039 12.899 38.6149 12.5195" stroke="#976393" stroke-width="3" stroke-linecap="round"/>
<path d="M55.7093 2C55.2752 2.21213 54.8412 3.75094 54.6903 11.4736M54.6903 11.4736C54.6675 12.6414 54.6512 13.9507 54.6423 15.4181C54.6279 17.7887 55.688 18.1455 56.2584 18.3375L56.2634 18.3392C56.8326 18.5308 57.2119 18.5308 57.9633 18.3375C58.7736 18.129 60.2175 17.028 60.2175 15.5252M54.6903 11.4736C54.6056 11.4892 54.5219 11.5054 54.4392 11.5221C53.1844 11.7757 52.1925 12.1476 51.2007 12.5196M54.6903 11.4736C55.8904 11.2521 57.2829 11.1361 58.7147 11.0168M62.6595 10.453C62.976 10.4685 63.3096 10.4729 63.6536 10.4664M63.6536 10.4664C66.1499 10.4196 69.2018 9.80214 70.3566 8.70509C70.6476 8.42868 70.6726 8.20791 70.704 7.93087L70.7051 7.92082C70.737 7.63905 70.737 7.2671 70.5511 7.01351C70.1557 6.47434 68.9464 6.50765 67.8273 6.53849L67.8019 6.53919C66.6198 6.57172 65.4209 7.75551 64.0731 9.72418C63.9061 9.96809 63.7674 10.2162 63.6536 10.4664ZM63.6536 10.4664C62.6425 12.6917 63.6074 15.0904 64.2525 16.2707C64.7294 17.1435 65.3294 17.4132 66.2287 17.7794C68.4758 18.6945 70.7896 16.9714 72.1112 15.7795C72.3018 15.5269 72.3638 15.3409 72.4277 15.1493M79.7538 8.76259C79.0024 8.76259 76.8213 8.87709 75.1626 10.7218C73.4085 12.6725 74.4299 15.3297 74.9606 16.4916C75.5688 17.823 76.9947 18.4334 78.5269 18.2179C79.4581 18.0869 80.1274 17.6553 80.6572 17.0955C81.6524 16.0438 82.3797 14.2815 83.0363 12.6256C83.6014 11.2004 83.7584 7.64899 83.9436 3.45786L83.9473 3.37404C84.0084 1.99373 84.2582 2.18401 84.385 2.3728C84.619 2.72115 84.7617 3.55907 84.9805 6.63699C85.155 9.09063 85.1374 13.3723 85.2313 15.3278C85.3252 17.2834 85.4492 16.7874 85.947 15.5091C88.2914 9.48884 89.394 8.32669 89.9247 7.98199C90.1753 7.81922 90.5174 7.94724 90.7081 8.07216C91.7166 8.73294 90.7959 12.1951 91.7741 14.5755C92.3729 16.0325 93.3389 17.7774 93.8076 18.0592C94.0283 18.155 94.2143 18.155 94.4059 18.155" stroke="#976393" stroke-width="3" stroke-linecap="round"/>
<path d="M116.01 9.70232C115.266 8.58649 113.457 7.88769 111.111 7.82382C109.783 7.78767 108.74 8.31112 108.307 9.51401C108.117 10.0426 108.006 10.4276 108.214 10.9496C108.377 11.3587 108.368 11.5132 108.959 11.7959C110.536 12.5505 113.611 12.9559 116.802 13.4865C118.696 13.8017 119.744 14.2595 119.983 15.7699C120.044 16.1569 120.027 16.3874 119.957 16.773C119.638 18.529 118.258 19.4483 116.572 20.0338C114.29 20.8264 111.394 21.2652 110.064 19.0666C109.585 18.273 109.449 16.9033 109.449 16.773M125.025 2.93945C124.839 3.55936 124.654 4.17926 124.31 6.17234C124.116 7.297 123.873 8.8529 123.653 10.3775M123.653 10.3775C123.483 11.5548 123.326 12.7133 123.215 13.6403C122.864 16.5637 123.145 18.0238 123.644 19.211C123.895 19.8082 124.391 20.2742 124.862 20.5297C125.334 20.7852 125.829 20.7852 126.24 20.6612C126.96 20.2892 127.838 19.2279 128.745 17.8519C129.094 17.2818 129.218 16.9718 129.346 16.6525M123.653 10.3775C123.527 10.4039 123.405 10.4305 123.29 10.4572C122.196 10.7089 121.638 10.9569 121.081 11.2048M123.653 10.3775C124.717 10.1543 126.092 9.94399 126.918 9.82978C127.841 9.70204 128.027 9.70204 128.219 9.70204M141.744 12.4217C141.911 10.7026 136.512 9.46386 134.42 11.4503C133.417 12.4024 133.005 13.2534 132.795 14.6202C132.582 16.011 132.63 17.0731 133.412 18.2429C134.121 19.3036 134.894 19.9095 136.167 19.9993C137.422 20.0878 138.433 19.7249 139.408 18.9304C140.812 17.7862 140.928 15.9662 141.335 14.6202C141.542 13.9357 141.656 13.2322 141.71 12.7943M141.744 12.4217C141.761 12.2454 141.756 12.4259 141.71 12.7943M141.744 12.4217C141.731 12.5481 141.72 12.6723 141.71 12.7943M141.71 12.7943C141.421 16.3915 142.205 18.1152 142.871 20.0338M154.705 10.8292C151.292 9.49756 147.194 11.7368 146.472 15.3291C146.198 16.6918 146.113 17.6714 146.814 18.872C147.547 20.1282 148.506 20.5617 149.91 20.9411C152.274 21.5798 155.517 19.3463 155.893 19.0655C156.02 18.9086 156.02 18.7226 156.02 18.531M161.093 4.44225C161.093 4.87618 161.093 5.31011 160.876 8.10626C160.659 10.9024 160.225 16.0476 160.032 18.5742C159.84 21.1008 159.902 20.8528 160.244 20.2291C161.147 18.5805 163.332 15.98 165.803 13.383C167.805 11.2794 169.103 10.5192 169.761 10.1425C171.834 8.95663 164.666 15.0821 163.85 16.8018C163.641 17.244 163.723 17.7082 163.816 18.0247C164.111 19.0311 165.594 19.4665 166.723 19.876C169.037 20.4696 170.921 20.973 171.452 21.004C171.734 21.035 172.044 21.097 172.739 21.1609" stroke="#976393" stroke-width="3" stroke-linecap="round"/>
</svg>
