<svg width="142" height="88" viewBox="0 0 142 88" fill="none" xmlns="http://www.w3.org/2000/svg">
<path d="M11.3131 16.2166C7.34198 12.2174 0.905656 15.8815 2.32332 23.3177C2.66207 25.0946 6.16557 26.0595 9.01456 25.7197C12.2588 25.3328 13.0314 22.6767 14.5379 19.916C15.3736 17.16 15.1755 15.3108 15.4189 13.058C15.6894 10.5552 15.7832 8.09174 16.4718 5.65308C16.7022 4.83707 16.7875 4.00846 16.9707 3.18218C17.0083 3.01245 17.2687 1.94102 17.2182 2.66933L16.4645 13.5448C16.2068 17.263 14.9713 28.3699 15.5572 24.6892C16.1699 20.8399 15.9815 22.2617 16.7515 18.4416C16.9487 17.4632 17.4703 15.6405 18.7212 15.1852C19.7078 14.8262 20.5173 14.8555 21.052 15.4825C22.2888 16.9328 22.3441 18.1211 22.3998 19.9509C22.4914 22.9549 22.4375 22.8603 22.2299 25.856M24.9902 19.4571C25.1523 19.5318 25.3251 19.6341 25.5058 19.7512M25.5058 19.7512C26.3572 20.303 27.3841 21.1822 28.2922 21.035C29.5492 20.8313 31.3064 20.0501 31.4692 18.5763C31.641 17.0206 31.6247 16.1639 30.2539 15.2542C26.9843 14.5575 25.9566 18.0996 25.5058 19.7512ZM25.5058 19.7512C25.459 19.9225 25.4184 20.0735 25.3822 20.1974C25.034 21.388 24.9428 22.8178 25.6303 23.8475C26.4844 25.1267 27.4383 25.5251 28.988 25.8726C30.0025 26.1001 31.2023 26.2513 32.2273 25.9911C33.0479 25.7828 33.4875 25.0268 34.013 24.4188M42.2095 16.3959C41.1294 15.2632 39.4815 15.2514 38.3062 16.1254C36.7864 17.2556 36.0319 18.353 35.8197 20.1612C35.7243 20.9749 35.5199 22.0552 35.7385 22.8634C36.0116 23.8736 36.9418 24.7538 37.7 25.4278C38.6538 26.2755 40.9043 26.8157 41.9991 25.9666C45.3494 23.3683 47.2692 19.5049 48.0479 15.7426C48.1698 15.1534 48.2673 14.5958 48.3469 14.0535M48.3469 14.0535C48.7058 11.6063 48.6991 9.47197 48.9219 6.16722M48.3469 14.0535C48.4894 11.9933 48.6608 9.93447 48.8033 7.87838L48.9219 6.16722M48.3469 14.0535C48.2176 15.9221 48.1121 17.7917 48.0734 19.6614C48.0373 21.4047 47.9193 23.1358 47.7988 24.8749C47.7408 25.7112 47.3773 27.3497 48.1266 25.7071C49.3953 22.9257 49.7183 21.2094 50.5215 19.3081M48.9219 6.16722C48.9308 6.03463 48.9401 5.90016 48.9499 5.76372M48.9219 6.16722L48.9499 5.76372M48.9499 5.76372C49.0528 5.44701 49.0382 4.48843 49.0612 4.15731L48.9499 5.76372ZM50.5215 19.3081C50.8451 18.5418 50.927 17.9082 51.5 17M50.5215 19.3081C50.3592 19.2433 50.2174 19.2103 50.0992 19.2139C49.8739 19.2208 48.4494 19.1922 48.5429 19.1446C49.7215 18.5441 50.5294 17.9506 51.5 17M50.5215 19.3081C52.1277 19.9498 55.7321 23.7165 58.144 26.0974M51.5 17C51.6582 16.7493 51.9452 16.4442 52.3355 16.0579M51.5 17C52.032 16.479 52 16.403 52.3355 16.0579M52.3355 16.0579C52.4223 15.9322 52.5125 15.8043 52.6061 15.674C52.7646 15.4533 52.924 15.1806 53.0934 14.899M52.3355 16.0579C52.5216 15.7788 52.042 16.5092 53.0934 14.899M53.0934 14.899C53.4493 14.3071 53.8489 13.6762 54.3747 13.4083C54.7022 13.2414 53.2563 14.661 53.115 14.8658C53.1077 14.877 53.1005 14.888 53.0934 14.899ZM79.495 18.1004C79.3041 20.8551 78.2698 24.7275 80.3003 27.0603C80.7935 27.627 82.0996 29.0082 82.9498 28.4581C84.1942 27.6529 84.6994 25.4142 84.8075 24.0385C84.9143 22.6805 84.7671 21.0317 85.1936 19.7192C85.2065 19.6797 85.4149 19.0831 85.4521 19.1878C85.782 20.1176 85.7177 21.3965 85.8287 22.3747C86.06 24.4136 86.1858 26.6283 86.7357 28.6145C86.9006 29.2102 87.011 29.7031 87.7059 29.7707C88.7792 29.8751 89.9281 28.7286 90.4211 27.8581C91.8734 25.2936 92.0343 22.0055 92.2588 19.1392C92.2908 18.7312 92.3449 18.2046 92.4133 17.612M92.4133 17.612C92.81 14.1771 93.6883 8.52484 93.5242 10.8913C93.3696 13.122 93.2047 15.3523 93.0566 17.5835M92.4133 17.612C91.1993 17.6515 89.9783 17.6128 88.7277 17.5261M92.4133 17.612C92.6279 17.605 92.8423 17.5955 93.0566 17.5835M93.0566 17.5835C93.0355 17.9006 93.0148 18.2177 92.9945 18.5349C92.8204 21.2549 93.0442 24.0083 93.2947 26.7178C93.3655 27.4839 93.1902 30.2601 94.1942 30.7022C95.2265 31.1567 96.6669 30.5175 97.4067 29.8166C98.395 28.8802 98.399 28.151 98.4874 26.8753M93.0566 17.5835C94.3363 17.5116 95.6128 17.3465 96.913 17.0526M107.245 21.6765C107.395 24.38 107.731 25.6619 108.043 28.3502C108.063 28.5278 108.349 31.3329 108.32 29.9143C108.284 28.1038 108.063 27.4021 108.188 25.5964C108.293 24.0746 108.261 22.8419 109.555 21.8654C110.559 21.1077 112.18 21.3613 113.281 21.7671C116.113 22.8104 115.699 26.9135 115.567 29.2492C115.554 29.4784 115.776 31.2362 115.842 30.2898L116.179 25.4274C116.31 23.532 116.754 21.7184 118.893 21.308C120.389 21.0208 120.822 23.9868 120.904 24.9647C121.021 26.3632 121.193 27.9248 121.46 29.3108C121.585 29.9574 121.543 30.5066 122.277 30.0419C124.191 28.8287 124.184 26.4246 124.41 24.4272C124.521 23.444 124.826 22.487 124.949 21.5158C125.14 20.0118 125.194 22.669 125.184 22.9968C125.137 24.5443 125.101 26.2218 125.384 27.7518C125.484 28.2933 126.081 29.9865 126.823 30.4242C127.565 30.8618 128.943 30.9949 130.309 30.2796C131.545 29.632 131.846 27.9499 132.117 26.4167M132.117 26.4167C132.141 26.2852 132.164 26.1548 132.187 26.0262C132.443 24.6184 132.407 23.1226 132.507 21.6926C132.639 19.7787 132.293 23.239 132.117 26.4167ZM132.117 26.4167C132.043 27.7667 131.999 29.0657 132.036 29.8799C132.104 31.4068 132.133 32.9454 131.992 34.4702M131.992 34.4702C131.936 35.0687 131.854 35.6651 131.738 36.2579C131.054 39.7459 129.099 47.4918 123.938 44.3805C122.684 43.6243 122.737 42.5182 122.828 41.2102C122.956 39.3632 124.093 38.6502 125.626 37.8194C127.704 36.6936 129.882 35.6368 131.992 34.4702ZM131.992 34.4702C134.874 32.8764 137.63 31.0777 139.832 28.6182M18.5533 37.5737C18.8155 42.1606 16.8405 47.2506 19.7042 51.2794L19.7112 51.2893C20.2312 52.021 20.8932 52.9524 21.9267 52.8597C23.3001 52.7365 24.2189 50.1912 24.52 49.0885M18.5038 43.2944C19.5839 43.51 20.6583 43.7906 21.7598 43.8669M25.4459 38.2252C25.3113 40.1674 25.171 42.0978 25.1774 44.0463C25.1832 45.8407 25.5954 47.6197 25.799 49.3991C25.9014 50.2943 26.031 51.1865 26.1334 52.0819C26.2396 53.0103 26.2531 54.1083 26.3731 52.378C26.5415 49.9471 26.4894 47.8336 28.3611 46.0786C28.8123 45.6556 29.4513 45.3869 30.0801 45.3305C31.9129 45.1661 32.9161 46.1415 33.6126 47.7531C34.2018 49.1164 34.4333 50.5621 34.5107 52.0361C34.5201 52.2155 34.6458 54.3678 35.0483 54.2898C35.2476 53.023 35.7087 52.1729 36.2825 51.5509M36.2825 51.5509C37.5335 50.1948 39.3199 49.9232 40.0947 48.7805C40.8262 47.7016 40.1724 46.6148 39.0789 45.771C38.5134 45.3346 37.3901 44.8255 36.6735 45.161C35.423 45.7466 35.6711 48.3618 35.5983 49.4133C35.5485 50.1309 35.8288 50.8684 36.2825 51.5509ZM36.2825 51.5509C36.9984 52.6282 38.1463 53.5689 39.1102 54.0798C42.1837 55.709 43.0451 51.2315 43.5659 49.0211C43.7992 48.0308 43.925 46.9802 44.1238 45.9761C44.1526 45.8311 44.2901 44.9157 44.3246 45.0264C44.6037 45.9234 44.5395 47.025 44.6321 47.9579C44.7115 48.7568 44.9093 49.5801 45.105 50.4082M45.105 50.4082C45.3668 51.5161 45.6248 52.6325 45.5901 53.7098M45.105 50.4082C45.2017 51.0022 45.3023 51.5918 45.3808 52.1727C45.4494 52.6808 45.5372 53.1946 45.5901 53.7098M45.105 50.4082C44.8637 48.9259 44.6466 47.4168 44.858 45.9499C45.1178 44.1476 51.2854 45.2197 52.3621 45.2943M45.5901 53.7098C45.5793 54.0456 45.6264 54.2749 45.6365 54.5669M45.5901 53.7098C45.6194 53.9953 45.6379 54.2812 45.6365 54.5669M45.6365 54.5669C45.6382 54.6144 45.6389 54.6637 45.6382 54.7153C45.6377 54.7517 45.6131 55.0776 45.6236 54.9263C45.6319 54.8066 45.636 54.6867 45.6365 54.5669ZM62.6131 45.0484C62.7327 47.7849 62.7417 50.2757 62.6513 52.7053M62.6513 52.7053C62.5051 56.6364 62.0987 60.4073 61.4788 64.8C61.6394 62.483 61.6495 57.164 62.6513 52.7053ZM62.6513 52.7053C62.8394 51.8682 63.0625 51.0614 63.3281 50.3105M63.3281 50.3105C64.2403 47.7313 65.6541 45.8114 67.8759 45.5866C70.1034 45.3611 70.7539 45.3382 71.4727 47.3584C71.8833 48.5121 71.437 50.715 70.5093 51.5225C69.1918 52.6692 64.735 51.5292 63.3281 50.3105ZM63.3281 50.3105C63.2528 50.2452 63.1862 50.1798 63.1293 50.1144M74.1431 47.2906C74.1408 47.949 74.3931 50.2784 74.3907 50.9368C74.3904 51.0476 74.5025 54.8183 74.5046 54.1974L74.5225 49.0989C74.5237 48.7596 74.4334 48.3647 74.7337 48.1381C75.5223 47.5431 76.8195 47.3 77.7884 47.3034C78.552 47.3061 78.7365 48.2013 79.346 48.6107M129.767 49.6405C129.736 48.8911 127.255 49.1046 126.836 49.1097C126.04 49.1195 124.963 49.3227 124.535 50.0488C123.581 51.6664 124.344 53.1414 126.115 53.5407C126.825 53.701 127.421 53.5522 127.699 54.4503C127.989 55.3849 128.384 57.158 127.841 58.1124C126.848 59.8538 123.382 60.2389 121.823 59.1504M113.377 49.7024C116.137 49.8936 118.671 49.4149 121.39 49.217M93.7924 46.9736C93.6418 49.1468 93.9389 51.2795 93.8547 53.4439C93.8347 53.9578 93.8219 54.5092 93.8051 55.0826M93.8051 55.0826C93.7264 57.7657 93.5596 60.9297 92.153 62.9817C91.4118 64.063 90.1029 64.1676 88.9141 63.692C85.9439 62.5037 87.4196 58.223 89.0633 56.5328C90.2431 55.3197 92.1596 55.2341 93.8051 55.0826ZM93.8051 55.0826C94.0739 55.0579 94.3355 55.0313 94.5854 54.9979C95.6898 54.85 96.7748 54.598 97.8243 54.241M97.8243 54.241C98.4195 54.0385 99.0033 53.8021 99.5727 53.5319C101.06 52.8261 102.177 51.1373 102.289 49.509C102.419 47.6351 99.1985 49.3362 98.6217 50.151C97.9959 51.035 97.9229 52.6257 97.838 53.6718C97.8211 53.881 97.8163 54.0694 97.8243 54.241ZM97.8243 54.241C97.8735 55.2991 98.4078 55.7148 99.5575 56.3928C100.712 57.0735 103.118 57.8842 104.067 56.8185M104.067 56.8185C104.285 56.5748 104.425 56.2329 104.458 55.7688C104.632 53.2451 106.429 50.1042 109.365 50.3078C109.601 50.3241 109.866 50.3657 110.131 50.4351M104.067 56.8185C104.047 56.7802 104.027 56.7411 104.007 56.7012C103.223 55.078 104.633 52.8642 105.516 51.6214C106.443 50.3172 108.737 49.6036 110.131 50.4351M104.067 56.8185C105.267 59.0377 108.942 58.8058 110.792 57.952C114.895 56.0581 115.389 50.8243 116.033 46.9731C116.25 45.6771 116.874 41.7922 116.783 43.1031L116.299 50.0945C116.146 52.304 115.892 54.2869 117.446 56.0715C119.159 58.0397 121.538 56.1568 123.226 55.2579M110.131 50.4351C110.636 50.5669 111.144 50.7988 111.466 51.1472C111.791 51.5004 110.439 50.6395 110.238 50.5032C110.203 50.4794 110.167 50.4567 110.131 50.4351ZM93.643 42.8002C93.6148 42.7845 93.5885 42.7691 93.5641 42.7541M93.5641 42.7541C92.9241 42.3614 93.5672 42.2457 93.5641 42.7541ZM93.5641 42.7541C93.5641 42.7672 93.5636 42.7807 93.5626 42.7946M44.9989 63.878C44.7928 66.8514 43.9206 74.6269 43.7145 77.6003C43.6864 78.0067 43.42 79.8699 43.2368 81.0394M43.2368 81.0394C43.1284 81.732 43.0491 82.1813 43.0658 81.9406C43.079 81.7499 43.1427 81.4292 43.2368 81.0394ZM43.2368 81.0394C43.5511 79.7378 44.2041 77.6647 44.4476 77.0793C45.0205 75.702 45.9207 74.3174 47.4394 73.8899C49.3343 73.3564 51.1801 74.0895 52.6525 75.319C53.7439 76.2303 54.5291 77.6626 53.9385 79.0824C53.5876 79.9261 53.0069 81.1201 52.2887 81.5688C51.1719 82.2665 49.7784 82.8066 48.4666 82.6518C46.491 82.4188 44.6646 81.7654 43.8665 80.2173M58.1613 77.5312C59.342 78.7519 63.5028 79.417 64.0742 77.1701C64.6695 74.8294 61.6787 74.9515 60.2133 74.8981C57.8299 74.8113 56.0876 77.4193 55.9409 79.5359C55.8406 80.983 56.2049 81.6793 56.9041 82.8555C57.845 84.4381 59.7092 84.9726 61.5196 84.6926C63.7718 84.3442 65.3038 81.2674 65.8828 79.2999C66.8283 76.0869 67.1573 72.7082 68.2361 69.5374C68.7264 68.0965 69.2715 66.6808 69.7298 65.2274C70.0959 64.0661 70.0641 63.9304 69.9278 65.2893C69.6083 68.4752 68.3428 71.4206 67.4041 74.4521C66.8281 76.3121 66.4397 78.2163 66.3052 80.1579C66.2169 81.4315 66.3886 81.928 67.434 82.7801C68.1801 83.3882 69.1681 84.0181 70.1573 84.0867C72.1525 84.225 73.869 80.6858 74.525 79.1857M86.5643 75.6834C85.6847 77.664 85.1019 79.8069 85.0961 81.9899C85.0936 82.9687 85.9962 84.1657 87.0841 83.7562C88.322 83.2903 88.7666 81.4489 88.8486 80.2648C88.8678 79.9888 88.9345 79.7941 89.0341 79.5357C89.2608 78.9472 89.2511 80.3424 89.3049 80.6337C89.5723 82.0827 89.8457 84.4348 91.2079 85.2948C92.1356 85.8805 93.7117 85.6826 94.3026 84.719C95.7884 82.296 94.4869 79.0086 93.0763 76.8285M75.9862 19.3669C75.303 18.6371 73.8512 18.0487 72.9127 17.9534C71.1678 17.7761 70.056 18.2363 68.862 19.4547C67.6945 20.6462 66.8072 23.3127 67.3367 24.9237C67.8497 26.4847 69.8997 27.4041 71.4444 27.7978C72.7622 28.1337 73.7806 27.9771 74.6702 27.0922C75.345 26.4211 75.8594 25.9572 76.1558 25.0323C76.5357 23.8473 76.5777 22.0831 76.4794 20.8356C76.4923 20.1779 76.2918 19.6933 75.9862 19.3669ZM14.5229 44.4112C13.5284 42.0436 10.2715 40.0002 8.50641 42.0632C7.23222 43.5525 6.34362 46.0962 7.42506 47.9902C8.09067 49.1559 8.85943 49.7743 9.98722 50.5094C11.423 51.4454 13.0118 51.3249 14.2191 50.0704C15.2434 49.0061 15.1269 45.6616 14.5229 44.4112ZM88.6691 48.3369C88.6737 47.6522 87.3755 47.238 86.839 47.073C85.2817 46.5939 83.3629 46.6537 82.4319 48.2323C81.5573 49.7154 82.2371 53.3737 84.2656 53.6347C85.4184 53.783 86.9738 54.0076 87.9942 53.0698C89.4008 51.7772 89.5284 50.1373 88.6691 48.3369ZM82.3002 77.1224C81.0545 75.6911 78.4984 74.6177 77.4163 76.9574C77.0679 77.7108 76.6571 78.7505 76.5794 79.5783C76.4891 80.5411 76.0311 82.4566 76.77 83.2245C78.0944 84.6008 80.6104 85.7716 82.3176 84.3799C83.3671 83.5243 83.9677 82.1064 83.8695 80.7581C83.8158 80.0203 83.1125 78.0556 82.3002 77.1224Z" stroke="#976393" stroke-width="2.75" stroke-linecap="round" stroke-linejoin="round"/>
</svg>
