<svg width="433" height="512" viewBox="0 0 433 512" fill="none" xmlns="http://www.w3.org/2000/svg">
<path d="M419.486 72.2064C394.144 49.5023 370.782 27.4226 345.44 4.71766C339.049 -2.27453 338.652 4.53932 338.012 6.52032C336.606 10.8738 332.32 14.18 328.51 16.22C325.206 17.9889 319.75 15.7823 316.084 15.5275C313.321 15.3356 308.748 17.0628 306.903 19.3671C306.296 20.1251 311.883 25.9169 312.942 26.8654C320.405 33.5515 327.85 40.8479 335.136 47.8513C348.853 61.0372 362.961 73.7668 377.169 86.496C384.312 92.8955 391.417 101.474 399.751 106.206C404.004 108.621 407.346 109.707 407.011 103.604C406.839 100.463 411.357 97.343 413.963 96.4921C418.383 95.0493 423.202 89.764 426.543 86.0352C430.086 82.0802 433.2 84.4935 428.492 80.2755L419.486 72.2064Z" stroke="#976393" stroke-width="3" stroke-linecap="round"/>
<path d="M120.17 468.18C89.849 451.642 62.4474 430.5 32.1974 414C20.7284 406.287 25.9426 428.174 20.8756 429.068C18.0002 429.575 16.4728 432.412 13.0777 431.895C11.9609 431.725 -1.56125 434.532 2.50073 436.748C14.6001 443.347 25.7786 452.896 37.5947 460.364C46.2433 465.831 54.4533 472.166 63.3764 477.033L122.149 509.09C127.468 511.992 125.828 509.577 128.262 504.458C129.81 501.202 127.487 497.751 129.31 494.409C131.115 491.101 135.516 487.213 137.29 483.96C142.534 474.346 137.413 479.553 120.17 468.18Z" stroke="#976393" stroke-width="3" stroke-linecap="round"/>
<path d="M69.7444 186.185C65.7166 138.338 54.5183 103.997 53.8477 56.0015C62.0301 59.5289 69.7483 56.5135 84.5938 57.0255C98.1856 57.0255 103.952 56.5135 109.666 56.5135C127.425 56.5135 132.649 54.9586 150.409 54.9586C177.953 54.9586 205.098 52.9482 232.568 52.5838C258.452 52.2405 284.53 53.4683 310.399 52.3802C328.305 51.6272 316.513 52.3797 350.229 52.3801C365.008 52.3802 374.191 56.7408 380.052 56.7408C384.217 56.7408 380.052 80.2593 380.052 83.1369C380.052 130.31 381.028 138.207 382.171 185.371C384.179 268.254 382.486 351.275 382.486 434.184C382.486 445.613 384.995 459.518 382.171 470.757C380.853 476.002 340.044 468.017 334.953 467.364C310.111 464.18 284.244 465.439 259.246 465.329C220.694 465.159 182.184 463.569 143.641 463.022C126.23 462.775 108.772 463.162 91.386 462.14C86.9774 461.88 68.0131 463.082 68.0131 456.508C68.0131 452.211 69.0967 448.162 69.3509 443.887C69.8774 435.035 69.4296 426.085 69.4296 417.221C69.4296 411.217 72.1607 405.443 72.2627 399.376C72.5213 383.991 74.9615 368.792 75.0958 353.508C75.5878 297.519 74.4476 242.054 69.7444 186.185Z" stroke="#976393" stroke-width="3" stroke-linecap="round"/>
<path d="M113.141 463.333C106.451 423.693 138.983 354.279 180.463 357.791C186.568 365.401 191 373.43 208.897 364.063C260.579 364.063 266.099 439.831 266.099 463.331M180.5 357.274C181.316 355.196 182.56 353.281 183.431 351.211C185.726 345.753 187.897 340.156 189.326 334.401M209.48 338.14C209.539 343.03 205.718 356.371 208.729 364.065M147.538 268.89C144.08 265.432 136.841 264.774 132.481 266.111C128.11 267.452 126.139 270.622 124.8 274.718C123.902 277.466 123.49 280.258 123.352 283.14C123.285 284.533 122.968 286.232 124.093 287.266C126.416 289.404 129.61 289.932 132.632 290.382C136.052 290.892 139.97 291.434 143.361 290.517C145.405 289.964 147.535 289.05 149.189 287.687C149.748 287.227 149.703 286.521 149.964 285.868M283.881 302.368C289.379 309.906 300.649 318.107 309.447 310.042C314.105 305.772 316.578 298.13 312.857 293.016C310.335 289.549 306.316 287.247 302.556 286.337C298.574 285.374 294.799 287.11 290.855 288.488M148.516 234.942C205.885 239.04 194.824 204.87 195.348 200.152M214.157 183.51C213.119 185.482 216.444 189.857 215.606 191.946C214.842 193.85 214.145 195.863 214.157 197.942C214.187 202.748 217.37 206.285 220.81 209.328C225.022 213.054 229.611 215.618 235.296 215.914C238.843 216.099 243.238 215.854 246.463 214.145C247.578 213.554 248.541 212.64 249.427 211.754C249.916 211.265 249.941 210.938 249.612 211.787C248.501 214.659 247.823 217.827 247.557 220.883C247.135 225.745 251.339 231.437 254.278 234.93C258.286 239.693 265.192 241.595 271.205 242.021C278.818 242.56 286.341 242.645 293.893 241.566M195.264 200.152C208.31 202.494 213.225 188.058 214.164 183.677M234.905 164.359C236.115 160.349 239.013 153.611 241.946 151.372C253.761 142.35 267.386 139.98 281.174 139.939C286.622 139.923 293.459 139.289 298.661 141.791C304.563 144.628 308.836 152.841 311.051 159.585C313.46 166.92 313.034 179.824 308.317 185.994C308.05 186.342 307.783 186.551 307.616 186.656M307.616 186.656C307.417 186.782 307.359 186.761 307.616 186.656ZM307.616 186.656C307.805 186.579 308.162 186.457 308.756 186.316C317.394 184.256 328.042 183.585 336.675 185.752C354.767 190.294 363.427 215.666 349.604 231.968C344.65 237.811 336.805 241.425 329.855 241.791C329.677 241.8 329.517 241.808 329.372 241.814M329.372 241.814C327.652 241.887 328.248 241.747 329.372 241.814ZM329.372 241.814C329.784 241.839 330.267 241.891 330.733 241.992C339.426 243.877 348.558 248.752 356.255 253.788C361.635 257.308 365.068 260.86 365.269 268.402C365.887 291.609 344.862 301.547 328.235 296.139M270.53 325.68C271.966 331.649 278.057 334.628 282.406 336.384C300.302 341.653 306.091 341.181 319.265 338.826C324.763 337.843 331.557 334.432 333.687 328.064C334.988 324.174 337.583 316.965 337.922 312.86C338.516 305.686 337.922 304.776 337.922 297.58M173.102 327.854C173.207 332.726 171.481 335.508 177.534 338.224C184.057 341.151 187.122 336.206 187.896 335.508C188.391 335.062 188.782 334.528 189.326 334.135M209.649 339.395C212.004 343.368 216.323 346.658 220.138 344.573C220.957 344.125 223.329 343.324 223.679 342.367C223.903 341.756 223.996 341.123 224.287 340.533M224.618 340.412C229.635 345.011 233.926 348.001 240.78 348.001C246.205 348.001 251.63 349.179 259.742 343.409C266.098 338.888 268.719 337.471 270.53 326.265M235.49 164.351C234.014 160.324 228.081 155.958 225.307 153.211C217.22 145.206 208.209 139.009 197.657 136.282C181.787 132.18 165.003 130.086 149.577 137.014C138.067 142.184 130.933 153.652 125.923 166.183C122.518 174.703 122.849 185.876 124.312 194.949C124.966 199.004 126.031 209.19 129.468 211.843C134.23 215.517 142.389 215.89 147.901 216.46M147.596 216.46C139.421 217.708 116.333 222.445 109.242 228.74C104.951 232.55 100.999 236.916 98.6007 243.739C95.6861 252.029 95.8757 262.908 96.6732 272.002C99.0458 299.052 120.604 302.765 134.801 302.765M134.719 302.766C128.444 302.765 124.505 310.258 124.065 312.211C122.328 319.934 125.194 323.746 130.939 328.112C138.53 333.882 152.628 340.053 162.424 336.095C167.299 334.125 170.017 332.521 173.067 327.718M214.938 268.554C214.178 275.497 210.94 282.342 207.624 288.372M192.884 299.696C193.001 301.746 195.748 305.014 197.244 306.557C198.743 308.103 203.166 309.888 205.123 310.148C207.969 310.526 212.939 308.928 214.928 306.985M193.471 248.071C193.117 251.962 191.669 255.787 190.497 259.47M243.14 259.445C242.812 264.359 241.053 269.118 239.671 273.817M148.766 234.524C145.421 277.76 149.606 325.97 199.194 336.718C250.121 347.757 309.245 297.162 293.946 241.716" stroke="#976393" stroke-width="3" stroke-linecap="round"/>
<path d="M278.908 411.066C278.673 411.566 278.887 412.161 279.387 412.397C279.886 412.632 280.482 412.417 280.717 411.918L278.908 411.066ZM281.813 403.216L282.782 403.461L281.813 403.216ZM283.97 395.607L284.943 395.836H284.943L283.97 395.607ZM285.127 391.254L284.612 390.396V390.396L285.127 391.254ZM288.441 400.647L289.411 400.402L288.441 400.647ZM289.861 408.762C290.108 409.256 290.708 409.456 291.202 409.209C291.696 408.962 291.896 408.362 291.65 407.868L289.861 408.762ZM280.525 401.098C279.973 401.098 279.525 401.546 279.525 402.098C279.525 402.651 279.973 403.098 280.525 403.098V401.098ZM288.598 402.098L288.342 401.132L288.598 402.098ZM292.151 402.088C292.659 401.87 292.894 401.282 292.676 400.775C292.459 400.267 291.871 400.032 291.363 400.249L292.151 402.088ZM300.89 397.209C301.442 397.209 301.89 396.761 301.89 396.209C301.89 395.657 301.442 395.209 300.89 395.209V397.209ZM296.58 397.874L297.249 397.131L296.58 397.874ZM302.996 398.315L303.313 397.366L302.996 398.315ZM298.699 402.374C298.452 401.88 297.851 401.68 297.357 401.927C296.863 402.174 296.663 402.775 296.91 403.269L298.699 402.374ZM306.328 396.999C306.016 396.544 305.394 396.427 304.938 396.739C304.482 397.051 304.366 397.673 304.678 398.129L306.328 396.999ZM307.655 397.214L307.106 396.378L307.655 397.214ZM307.98 394.787L308.851 394.297L307.98 394.787ZM304.635 395.867L305.635 395.879L304.635 395.867ZM306.139 401.012L305.445 401.732L306.139 401.012ZM310.668 402.545L311.094 403.45L310.668 402.545ZM313.659 397.609L314.646 397.769V397.769L313.659 397.609ZM313.752 388.945L312.756 389.036V389.036L313.752 388.945ZM313.519 386.251L314.516 386.165V386.165L313.519 386.251ZM314.727 393.579L315.72 393.457L314.727 393.579ZM315.407 399.531L314.433 399.758V399.758L315.407 399.531ZM316.254 401.058L316.702 401.953L316.702 401.953L316.254 401.058ZM318.722 397.894L317.87 397.371L317.87 397.371L318.722 397.894ZM321.643 387.941L320.649 387.834L321.643 387.941ZM321.591 382.767L320.615 382.983V382.983L321.591 382.767ZM320.79 382.442L321.549 383.092V383.092L320.79 382.442ZM320.534 390.304L321.501 390.049V390.049L320.534 390.304ZM324.436 401.894L325.392 401.599L324.436 401.894ZM326.66 409.345L325.711 409.658L326.66 409.345ZM327.212 411.516L328.168 411.222V411.222L327.212 411.516ZM327.427 411.011L328.402 411.234V411.234L327.427 411.011ZM327.828 408.305L328.824 408.383L327.828 408.305ZM326.161 397.952L325.221 398.292L326.161 397.952ZM323.751 393.73L324.439 393.004L323.751 393.73ZM322.729 393.242L322.145 392.431L322.145 392.431L322.729 393.242ZM323.356 393.196L323.309 392.197H323.309L323.356 393.196ZM324.971 393.033L324.795 392.049V392.049L324.971 393.033ZM329.151 391.605L328.637 390.747L329.151 391.605ZM334.113 387.466C334.297 386.946 334.023 386.374 333.503 386.191C332.982 386.007 332.411 386.28 332.227 386.801L334.113 387.466ZM290.314 419.877C290.156 419.347 289.599 419.046 289.07 419.203C288.541 419.361 288.239 419.917 288.397 420.447L290.314 419.877ZM292.059 431.222L291.077 431.412L292.059 431.222ZM292.778 435.04L291.805 435.271V435.271L292.778 435.04ZM292.546 434.447L291.616 434.813H291.616L292.546 434.447ZM290.894 430.461L291.847 430.157L290.894 430.461ZM290.463 423.884L289.472 423.748V423.748L290.463 423.884ZM293.692 418.649L293.717 419.648L293.692 418.649ZM295.505 422.805L296.449 423.132L295.505 422.805ZM292.027 423.638C291.56 423.343 290.942 423.482 290.647 423.949C290.352 424.416 290.492 425.034 290.959 425.329L292.027 423.638ZM302.998 419.7C303.536 419.824 304.073 419.489 304.198 418.95C304.322 418.412 303.986 417.875 303.448 417.751L302.998 419.7ZM300.478 418.637L300.823 419.576H300.823L300.478 418.637ZM297.748 422.662L296.752 422.748L297.748 422.662ZM303.994 421.822L303.01 421.645L303.994 421.822ZM303.866 419.439L304.797 419.074H304.797L303.866 419.439ZM304.06 419.573L303.712 420.51H303.712L304.06 419.573ZM305.066 419.548L304.777 418.591H304.777L305.066 419.548ZM306.301 418.927L305.657 418.162H305.657L306.301 418.927ZM307.641 417.653L307.756 418.646H307.756L307.641 417.653ZM309.152 426.13L310.147 426.031V426.031L309.152 426.13ZM311.438 418.522L311.413 417.523L311.438 418.522ZM315.052 410.587L316.049 410.655V410.655L315.052 410.587ZM315.339 411.335L314.347 411.462V411.462L315.339 411.335ZM316.364 421.533L315.388 421.75V421.75L316.364 421.533ZM318.944 424.347L319.338 425.266L319.503 425.195L319.633 425.071L318.944 424.347ZM320.987 419.674L319.994 419.558L320.987 419.674ZM321.928 420.163L321.012 420.564H321.012L321.928 420.163ZM322.392 421.384L323.347 421.088V421.088L322.392 421.384ZM322.648 422.254L321.762 421.791L321.762 421.791L322.648 422.254ZM322.314 420.692L323.282 420.441L323.282 420.441L322.314 420.692ZM321.718 418.337L320.741 418.548L320.741 418.548L321.718 418.337ZM323.229 416.98L322.977 416.013L323.229 416.98ZM325.661 415.618L325.139 414.765L325.131 414.77L325.123 414.775L325.661 415.618ZM326.394 415.097L326.419 416.097L326.394 415.097ZM325.291 416.825L324.331 416.547V416.547L325.291 416.825ZM325.004 420.998L325.999 420.897L325.004 420.998ZM327.803 417.268L328.803 417.293V417.293L327.803 417.268ZM327.176 415.581L328.007 415.024L327.176 415.581ZM328.713 419.726L328.689 418.727L328.713 419.726ZM331.441 415.614L332.388 415.935H332.388L331.441 415.614ZM331.912 413.615L332.902 413.759V413.759L331.912 413.615ZM332.22 412.696L333.15 412.329V412.329L332.22 412.696ZM334.373 419.743L335.289 419.343L335.289 419.343L334.373 419.743ZM335.145 420.461L334.281 419.958L335.145 420.461ZM336.05 416.681L335.056 416.575L336.05 416.681ZM336.462 410.535L337.462 410.575L337.462 410.575L336.462 410.535ZM336.889 409.18L335.891 409.242L335.892 409.262L335.894 409.281L336.889 409.18ZM337.395 412.082L338.377 411.897L337.395 412.082ZM338.474 416.768L339.441 416.513V416.513L338.474 416.768ZM339.389 419.037L338.642 419.702L338.642 419.702L339.389 419.037ZM345.12 413.54C345.455 413.101 345.369 412.473 344.93 412.139C344.49 411.805 343.863 411.89 343.528 412.33L345.12 413.54ZM332.424 406.117C331.873 406.153 331.456 406.629 331.492 407.18C331.528 407.731 332.004 408.149 332.555 408.113L332.424 406.117ZM344.867 405.438C345.401 405.296 345.718 404.748 345.576 404.214C345.434 403.681 344.886 403.363 344.353 403.505L344.867 405.438ZM333.702 408.924C333.688 408.372 333.23 407.935 332.677 407.949C332.125 407.963 331.689 408.421 331.702 408.973L333.702 408.924ZM331.718 409.598C331.732 410.15 332.19 410.587 332.742 410.573C333.294 410.559 333.731 410.101 333.717 409.549L331.718 409.598ZM311.059 413.313C310.507 413.327 310.07 413.786 310.084 414.338C310.098 414.89 310.556 415.326 311.108 415.313L311.059 413.313ZM322.981 414.378C323.522 414.266 323.87 413.737 323.757 413.196C323.645 412.655 323.116 412.308 322.575 412.42L322.981 414.378ZM280.717 411.918C281.366 410.539 281.716 409.035 281.987 407.596C282.267 406.111 282.455 404.757 282.782 403.461L280.843 402.972C280.497 404.344 280.278 405.869 280.022 407.225C279.758 408.627 279.444 409.926 278.908 411.066L280.717 411.918ZM282.782 403.461C283.098 402.21 283.478 400.975 283.864 399.706C284.247 398.446 284.634 397.155 284.943 395.836L282.996 395.379C282.703 396.627 282.334 397.862 281.95 399.125C281.569 400.378 281.173 401.664 280.843 402.972L282.782 403.461ZM284.943 395.836C285.002 395.586 285.056 395.185 285.109 394.804C285.167 394.394 285.231 393.937 285.312 393.494C285.394 393.044 285.486 392.648 285.59 392.353C285.642 392.206 285.687 392.113 285.718 392.061C285.755 392.001 285.74 392.052 285.641 392.111L284.612 390.396C284.322 390.571 284.132 390.821 284.009 391.022C283.881 391.233 283.783 391.465 283.704 391.688C283.547 392.132 283.433 392.65 283.344 393.135C283.255 393.625 283.185 394.122 283.129 394.528C283.068 394.965 283.028 395.243 282.996 395.379L284.943 395.836ZM285.641 392.111C285.386 392.265 285.105 392.27 284.89 392.202C284.712 392.147 284.608 392.054 284.579 392.027C284.52 391.972 284.518 391.949 284.569 392.035C284.657 392.185 284.783 392.458 284.943 392.856C285.255 393.636 285.627 394.735 285.993 395.887C286.724 398.19 287.399 400.606 287.472 400.893L289.411 400.402C289.325 400.066 288.638 397.609 287.899 395.282C287.53 394.12 287.14 392.964 286.8 392.114C286.633 391.696 286.461 391.309 286.295 391.025C286.219 390.895 286.102 390.712 285.94 390.562C285.86 390.487 285.708 390.363 285.486 390.293C285.226 390.212 284.905 390.221 284.612 390.396L285.641 392.111ZM287.472 400.893C288.094 403.351 288.615 406.27 289.861 408.762L291.65 407.868C290.531 405.631 290.085 403.067 289.411 400.402L287.472 400.893ZM280.525 403.098C281.567 403.098 282.964 403.231 284.536 403.303C286.017 403.371 287.648 403.384 288.854 403.065L288.342 401.132C287.473 401.362 286.133 401.375 284.628 401.305C283.215 401.24 281.614 401.098 280.525 401.098V403.098ZM288.854 403.065C289.853 402.801 290.751 402.687 292.151 402.088L291.363 400.249C290.142 400.773 289.564 400.808 288.342 401.132L288.854 403.065ZM300.89 395.209C300.034 395.209 298.579 395.379 297.459 395.692C296.936 395.838 296.306 396.062 295.889 396.432C295.667 396.629 295.375 396.987 295.373 397.503C295.371 398.019 295.661 398.392 295.911 398.618L297.249 397.131C297.213 397.099 297.374 397.226 297.373 397.511C297.372 397.646 297.333 397.756 297.292 397.828C297.255 397.894 297.219 397.925 297.218 397.927C297.215 397.929 297.229 397.917 297.269 397.893C297.308 397.87 297.362 397.842 297.434 397.811C297.58 397.748 297.769 397.682 297.997 397.618C298.933 397.356 300.206 397.209 300.89 397.209V395.209ZM295.911 398.618C296.427 399.082 297.163 399.205 297.717 399.253C298.326 399.305 299.021 399.283 299.671 399.252C300.347 399.219 300.97 399.176 301.536 399.17C302.123 399.163 302.492 399.201 302.68 399.264L303.313 397.366C302.777 397.188 302.107 397.163 301.513 397.17C300.897 397.177 300.194 397.224 299.573 397.254C298.925 397.285 298.35 397.3 297.888 397.26C297.371 397.216 297.235 397.119 297.249 397.131L295.911 398.618ZM302.68 399.264C303.245 399.452 303.493 399.653 303.591 399.774C303.663 399.863 303.679 399.933 303.662 400.041C303.608 400.377 303.215 400.965 302.385 401.566C301.6 402.135 300.647 402.549 299.865 402.662C299.041 402.781 298.786 402.549 298.699 402.374L296.91 403.269C297.584 404.616 299.024 404.804 300.151 404.641C301.318 404.473 302.569 403.903 303.558 403.186C304.502 402.503 305.455 401.505 305.637 400.354C305.738 399.718 305.594 399.069 305.144 398.514C304.719 397.991 304.081 397.623 303.313 397.366L302.68 399.264ZM304.678 398.129C304.882 398.427 305.165 398.698 305.557 398.84C305.947 398.981 306.322 398.951 306.628 398.871C307.171 398.73 307.737 398.356 308.203 398.05L307.106 396.378C306.849 396.546 306.644 396.678 306.466 396.778C306.283 396.881 306.177 396.922 306.123 396.936C306.079 396.947 306.139 396.923 306.239 396.96C306.342 396.997 306.365 397.053 306.328 396.999L304.678 398.129ZM308.203 398.05C308.918 397.581 309.262 396.885 309.313 396.166C309.361 395.487 309.15 394.828 308.851 394.297L307.108 395.277C307.272 395.568 307.332 395.838 307.318 396.025C307.308 396.171 307.259 396.278 307.106 396.378L308.203 398.05ZM308.851 394.297C308.104 392.969 306.667 392.864 305.652 393.233C304.672 393.59 303.651 394.529 303.635 395.855L305.635 395.879C305.638 395.644 305.863 395.284 306.336 395.112C306.548 395.035 306.728 395.032 306.847 395.064C306.944 395.089 307.032 395.141 307.108 395.277L308.851 394.297ZM303.635 395.855C303.624 396.751 303.669 397.809 303.908 398.834C304.147 399.857 304.597 400.915 305.445 401.732L306.833 400.292C306.356 399.832 306.043 399.178 305.856 398.379C305.669 397.58 305.625 396.705 305.635 395.879L303.635 395.855ZM305.445 401.732C306.065 402.329 306.879 403.003 307.815 403.413C308.772 403.832 309.924 404 311.094 403.45L310.243 401.64C309.74 401.876 309.214 401.842 308.618 401.581C308 401.31 307.386 400.824 306.833 400.292L305.445 401.732ZM311.094 403.45C313.521 402.307 314.315 399.817 314.646 397.769L312.672 397.45C312.36 399.378 311.711 400.949 310.243 401.64L311.094 403.45ZM314.646 397.769C315.135 394.745 315.014 391.787 314.748 388.855L312.756 389.036C313.017 391.913 313.12 394.674 312.672 397.45L314.646 397.769ZM314.748 388.855C314.707 388.409 314.63 387.514 314.573 386.84C314.544 386.503 314.52 386.223 314.508 386.083C314.505 386.048 314.503 386.022 314.502 386.007C314.502 386.003 314.501 386 314.501 385.998C314.501 385.995 314.501 385.995 314.501 385.995C314.501 385.995 314.501 385.996 314.501 385.997C314.501 385.997 314.501 385.998 314.501 386C314.501 386.001 314.502 386.005 314.502 386.011C314.502 386.014 314.503 386.022 314.503 386.027C314.503 386.038 314.504 386.078 314.503 386.108C314.303 386.672 313.008 386.939 312.527 386.284C312.52 386.251 312.513 386.208 312.512 386.197C312.51 386.184 312.509 386.173 312.509 386.173C312.509 386.17 312.509 386.168 312.509 386.167C312.508 386.166 312.508 386.165 312.508 386.165C312.508 386.164 312.509 386.167 312.509 386.176C312.51 386.184 312.511 386.195 312.512 386.209C312.515 386.238 312.518 386.28 312.523 386.336L314.516 386.165C314.506 386.056 314.501 385.994 314.5 385.979C314.5 385.978 314.499 385.973 314.499 385.968C314.499 385.967 314.497 385.956 314.496 385.943C314.494 385.932 314.487 385.889 314.481 385.857C314 385.202 312.705 385.469 312.505 386.032C312.504 386.062 312.504 386.103 312.505 386.113C312.505 386.118 312.505 386.127 312.506 386.13C312.506 386.135 312.506 386.14 312.506 386.141C312.507 386.145 312.507 386.148 312.507 386.15C312.507 386.155 312.508 386.163 312.509 386.171C312.51 386.188 312.512 386.215 312.515 386.25C312.527 386.391 312.551 386.673 312.58 387.01C312.637 387.683 312.715 388.584 312.756 389.036L314.748 388.855ZM312.523 386.336C312.634 387.625 312.87 388.891 313.108 390.109C313.348 391.342 313.589 392.518 313.735 393.701L315.72 393.457C315.563 392.187 315.305 390.928 315.07 389.726C314.833 388.508 314.616 387.336 314.516 386.165L312.523 386.336ZM313.735 393.701C313.853 394.661 313.906 395.615 313.992 396.649C314.076 397.661 314.19 398.715 314.433 399.758L316.381 399.305C316.172 398.408 316.068 397.471 315.986 396.484C315.905 395.52 315.844 394.468 315.72 393.457L313.735 393.701ZM314.433 399.758C314.441 399.795 314.547 400.417 314.699 400.854C314.774 401.072 314.912 401.415 315.171 401.683C315.313 401.829 315.532 401.996 315.836 402.064C316.155 402.136 316.456 402.075 316.702 401.953L315.807 400.164C315.909 400.113 316.078 400.069 316.276 400.113C316.459 400.155 316.568 400.25 316.609 400.292C316.648 400.333 316.655 400.355 316.641 400.328C316.629 400.305 316.611 400.263 316.589 400.199C316.544 400.07 316.504 399.91 316.469 399.744C316.452 399.663 316.437 399.587 316.424 399.514C316.411 399.451 316.396 399.369 316.381 399.305L314.433 399.758ZM316.702 401.953C317.485 401.561 318.08 400.813 318.506 400.184C318.927 399.562 319.343 398.796 319.575 398.416L317.87 397.371C317.532 397.922 317.251 398.469 316.85 399.063C316.453 399.649 316.099 400.018 315.807 400.164L316.702 401.953ZM319.575 398.416C320.745 396.506 321.49 394.329 321.977 392.157L320.025 391.72C319.569 393.757 318.889 395.707 317.87 397.371L319.575 398.416ZM321.977 392.157C322.286 390.776 322.494 389.384 322.638 388.048L320.649 387.834C320.511 389.116 320.314 390.43 320.025 391.72L321.977 392.157ZM322.638 388.048C322.816 386.388 322.971 384.373 322.567 382.551L320.615 382.983C320.94 384.453 320.827 386.174 320.649 387.834L322.638 388.048ZM322.567 382.551C322.526 382.364 322.46 382.161 322.355 381.97C322.255 381.787 322.085 381.551 321.806 381.387C321.49 381.203 321.113 381.159 320.752 381.28C320.431 381.387 320.195 381.598 320.03 381.791L321.549 383.092C321.584 383.051 321.535 383.127 321.386 383.177C321.196 383.24 320.974 383.218 320.796 383.114C320.654 383.03 320.602 382.933 320.6 382.929C320.593 382.916 320.603 382.932 320.615 382.983L322.567 382.551ZM320.03 381.791C318.881 383.131 318.655 384.811 318.747 386.337C318.839 387.859 319.26 389.395 319.567 390.559L321.501 390.049C321.181 388.837 320.821 387.502 320.744 386.217C320.666 384.936 320.881 383.872 321.549 383.092L320.03 381.791ZM319.567 390.559C319.716 391.122 319.876 391.679 320.045 392.231L321.957 391.646C321.795 391.115 321.642 390.583 321.501 390.049L319.567 390.559ZM320.045 392.231C320.567 393.939 321.175 395.613 321.775 397.26C322.378 398.915 322.971 400.541 323.481 402.19L325.392 401.599C324.865 399.895 324.253 398.222 323.654 396.576C323.052 394.922 322.462 393.296 321.957 391.646L320.045 392.231ZM323.481 402.19C324.219 404.577 324.905 407.213 325.711 409.658L327.61 409.032C326.795 406.558 326.184 404.16 325.392 401.599L323.481 402.19ZM325.711 409.658C325.811 409.962 325.885 410.281 325.966 410.648C326.044 411.001 326.132 411.407 326.256 411.811L328.168 411.222C328.072 410.911 328.002 410.59 327.918 410.214C327.838 409.853 327.746 409.443 327.61 409.032L325.711 409.658ZM326.256 411.811C326.274 411.868 326.311 411.974 326.386 412.088C326.456 412.197 326.625 412.409 326.936 412.506C327.281 412.615 327.581 412.516 327.759 412.41C327.917 412.316 328.012 412.202 328.054 412.148C328.141 412.035 328.191 411.923 328.211 411.878C328.237 411.818 328.257 411.759 328.273 411.712C328.332 411.535 328.382 411.321 328.402 411.234L326.452 410.788C326.431 410.88 326.4 411.006 326.375 411.081C326.37 411.096 326.37 411.095 326.375 411.083C326.378 411.076 326.385 411.06 326.397 411.038C326.408 411.018 326.432 410.976 326.471 410.925C326.503 410.883 326.589 410.778 326.738 410.69C326.907 410.59 327.198 410.493 327.534 410.598C327.837 410.693 327.997 410.898 328.06 410.995C328.127 411.097 328.157 411.187 328.168 411.222L326.256 411.811ZM328.402 411.234C328.618 410.288 328.75 409.332 328.824 408.383L326.831 408.227C326.763 409.097 326.643 409.954 326.452 410.788L328.402 411.234ZM328.824 408.383C329.114 404.681 328.326 400.992 327.101 397.611L325.221 398.292C326.386 401.509 327.091 404.902 326.831 408.227L328.824 408.383ZM327.101 397.611C326.585 396.187 325.735 394.233 324.439 393.004L323.063 394.456C323.99 395.334 324.713 396.89 325.221 398.292L327.101 397.611ZM324.439 393.004C324.324 392.895 324.195 392.825 324.163 392.807C324.102 392.773 324.037 392.74 323.977 392.711C323.857 392.653 323.717 392.591 323.593 392.537C323.458 392.477 323.358 392.434 323.27 392.396C323.251 392.387 323.235 392.38 323.222 392.374C323.216 392.371 323.211 392.369 323.208 392.367C323.204 392.366 323.202 392.365 323.203 392.365C323.203 392.365 323.204 392.365 323.205 392.366C323.207 392.367 323.209 392.368 323.213 392.37C323.218 392.373 323.234 392.381 323.255 392.394C323.261 392.397 323.335 392.441 323.414 392.515C323.437 392.536 323.577 392.664 323.662 392.884C323.711 393.012 323.763 393.227 323.699 393.484C323.632 393.755 323.468 393.943 323.313 394.054L322.145 392.431C321.99 392.542 321.826 392.73 321.758 393.002C321.695 393.258 321.746 393.475 321.796 393.603C321.881 393.823 322.022 393.952 322.046 393.974C322.128 394.051 322.206 394.097 322.217 394.104C322.264 394.132 322.307 394.153 322.323 394.161C322.366 394.182 322.416 394.205 322.46 394.224C322.545 394.262 322.681 394.32 322.79 394.368C322.91 394.421 323.022 394.471 323.107 394.512C323.151 394.533 323.176 394.546 323.187 394.553C323.227 394.575 323.151 394.539 323.063 394.456L324.439 393.004ZM323.313 394.054C323.212 394.127 323.114 394.156 323.051 394.168C322.996 394.178 322.964 394.175 322.983 394.176C322.99 394.176 323.002 394.177 323.024 394.179C323.035 394.18 323.047 394.181 323.061 394.182C323.075 394.183 323.091 394.185 323.108 394.186C323.142 394.189 323.186 394.193 323.233 394.195C323.281 394.197 323.339 394.198 323.403 394.195L323.309 392.197C323.327 392.196 323.328 392.198 323.279 392.194C323.253 392.191 323.155 392.182 323.073 392.178C322.912 392.171 322.516 392.164 322.145 392.431L323.313 394.054ZM323.403 394.195C324.018 394.166 324.467 394.139 325.146 394.018L324.795 392.049C324.244 392.147 323.896 392.169 323.309 392.197L323.403 394.195ZM325.146 394.018C326.642 393.751 328.252 393.31 329.666 392.463L328.637 390.747C327.521 391.416 326.181 391.802 324.795 392.049L325.146 394.018ZM329.666 392.463C331.436 391.401 333.357 389.608 334.113 387.466L332.227 386.801C331.684 388.339 330.19 389.817 328.637 390.747L329.666 392.463ZM288.397 420.447C288.776 421.722 289.134 423.012 289.471 424.311L291.407 423.81C291.065 422.488 290.7 421.175 290.314 419.877L288.397 420.447ZM289.471 424.311C290.081 426.664 290.619 429.045 291.077 431.412L293.04 431.032C292.574 428.624 292.027 426.203 291.407 423.81L289.471 424.311ZM291.077 431.412C291.307 432.602 291.502 433.99 291.805 435.271L293.751 434.81C293.456 433.563 293.303 432.389 293.04 431.032L291.077 431.412ZM291.805 435.271C291.896 435.656 291.92 435.767 291.918 435.759C291.917 435.753 291.915 435.737 291.913 435.715C291.912 435.707 291.904 435.64 291.91 435.554C291.911 435.529 291.919 435.39 291.987 435.229C292.022 435.145 292.107 434.974 292.294 434.829C292.516 434.657 292.798 434.587 293.071 434.632C293.302 434.671 293.457 434.779 293.527 434.834C293.605 434.895 293.656 434.955 293.684 434.989C293.738 435.056 293.771 435.115 293.783 435.136C293.81 435.186 293.826 435.226 293.83 435.235C293.836 435.251 293.841 435.263 293.843 435.268C293.846 435.278 293.848 435.284 293.847 435.281C293.842 435.265 293.83 435.225 293.809 435.153C293.741 434.918 293.58 434.343 293.477 434.081L291.616 434.813C291.674 434.962 291.797 435.396 291.889 435.711C291.908 435.777 291.928 435.846 291.943 435.894C291.948 435.907 291.954 435.925 291.961 435.946C291.965 435.956 291.971 435.972 291.979 435.991C291.984 436.004 292.001 436.047 292.03 436.099C292.042 436.121 292.075 436.18 292.13 436.248C292.157 436.282 292.209 436.342 292.287 436.403C292.357 436.459 292.512 436.567 292.743 436.605C293.017 436.651 293.299 436.581 293.521 436.409C293.708 436.263 293.793 436.092 293.829 436.008C293.897 435.847 293.904 435.707 293.906 435.681C293.911 435.593 293.904 435.524 293.902 435.513C293.9 435.487 293.897 435.466 293.895 435.454C293.88 435.36 293.828 435.137 293.751 434.81L291.805 435.271ZM293.477 434.081C293.203 433.384 292.884 432.698 292.601 432.061C292.311 431.41 292.049 430.79 291.847 430.157L289.941 430.765C290.178 431.508 290.479 432.211 290.774 432.874C291.075 433.551 291.363 434.17 291.616 434.813L293.477 434.081ZM291.847 430.157C291.237 428.244 291.165 426.247 291.431 424.188L289.447 423.933C289.155 426.197 289.22 428.502 289.941 430.765L291.847 430.157ZM291.431 424.188C291.438 424.132 291.445 424.076 291.453 424.02L289.472 423.748C289.463 423.809 289.455 423.871 289.447 423.933L291.431 424.188ZM291.453 424.02C291.6 422.955 291.751 421.813 292.136 420.918C292.323 420.485 292.54 420.175 292.781 419.974C293.006 419.788 293.294 419.659 293.717 419.648L293.667 417.649C292.804 417.67 292.08 417.956 291.502 418.437C290.941 418.904 290.564 419.515 290.3 420.127C289.784 421.323 289.607 422.766 289.472 423.748L291.453 424.02ZM293.717 419.648C293.858 419.645 294.184 419.763 294.451 420.541C294.7 421.268 294.697 422.081 294.56 422.477L296.449 423.132C296.769 422.211 296.696 420.925 296.343 419.893C296.007 418.912 295.197 417.611 293.667 417.649L293.717 419.648ZM294.56 422.477C294.546 422.516 294.465 422.662 294.218 422.87C293.989 423.064 293.682 423.254 293.347 423.402C293.01 423.552 292.683 423.641 292.418 423.667C292.287 423.68 292.188 423.675 292.118 423.664C292.049 423.652 292.025 423.637 292.027 423.638L290.959 425.329C291.487 425.662 292.101 425.707 292.61 425.658C293.136 425.607 293.673 425.445 294.157 425.231C294.643 425.016 295.116 424.73 295.508 424.399C295.884 424.082 296.268 423.654 296.449 423.132L294.56 422.477ZM303.448 417.751C302.584 417.552 301.388 417.238 300.134 417.698L300.823 419.576C301.426 419.355 302.022 419.474 302.998 419.7L303.448 417.751ZM300.134 417.698C298.189 418.412 296.56 420.52 296.752 422.748L298.745 422.576C298.642 421.386 299.587 420.03 300.823 419.576L300.134 417.698ZM296.752 422.748C296.854 423.93 297.429 424.804 298.338 425.262C299.181 425.686 300.168 425.681 301.034 425.485C301.914 425.286 302.793 424.865 303.497 424.295C304.191 423.733 304.807 422.951 304.978 422L303.01 421.645C302.953 421.962 302.711 422.358 302.239 422.74C301.777 423.114 301.179 423.402 300.593 423.535C299.992 423.671 299.523 423.619 299.238 423.476C299.019 423.365 298.794 423.149 298.745 422.576L296.752 422.748ZM304.978 422C305.127 421.173 305.174 420.037 304.797 419.074L302.935 419.803C303.119 420.274 303.129 420.987 303.01 421.645L304.978 422ZM304.797 419.074C304.785 419.044 304.776 419.021 304.77 419.007C304.765 418.996 304.767 419.001 304.768 419.003C304.768 419.003 304.775 419.018 304.782 419.038C304.785 419.047 304.795 419.074 304.805 419.111C304.81 419.128 304.82 419.166 304.828 419.214C304.831 419.237 304.857 419.377 304.826 419.552C304.809 419.642 304.762 419.842 304.596 420.033C304.397 420.262 304.116 420.377 303.842 420.377C303.615 420.377 303.449 420.301 303.378 420.263C303.296 420.221 303.238 420.176 303.207 420.15C303.145 420.1 303.104 420.053 303.089 420.036C303.07 420.014 303.055 419.995 303.047 419.985C303.031 419.964 303.019 419.947 303.015 419.941C303.01 419.933 303.006 419.927 303.004 419.924C303.003 419.923 302.994 419.908 303.005 419.925C303.014 419.94 303.032 419.967 303.054 419.998C303.126 420.098 303.336 420.37 303.712 420.51L304.408 418.635C304.594 418.704 304.673 418.824 304.678 418.831C304.685 418.84 304.689 418.847 304.69 418.849C304.697 418.858 304.684 418.839 304.681 418.834C304.679 418.83 304.674 418.824 304.669 418.815C304.664 418.809 304.652 418.791 304.636 418.77C304.628 418.759 304.613 418.741 304.593 418.718C304.579 418.701 304.537 418.654 304.475 418.604C304.444 418.578 304.386 418.533 304.304 418.491C304.233 418.453 304.067 418.377 303.84 418.377C303.566 418.377 303.285 418.492 303.086 418.721C302.92 418.912 302.872 419.112 302.856 419.202C302.825 419.377 302.851 419.518 302.854 419.54C302.862 419.589 302.872 419.626 302.877 419.644C302.887 419.681 302.898 419.709 302.901 419.718C302.908 419.739 302.916 419.756 302.917 419.759C302.919 419.764 302.921 419.769 302.922 419.771C302.923 419.775 302.923 419.775 302.924 419.777C302.926 419.783 302.93 419.791 302.935 419.803L304.797 419.074ZM303.712 420.51C304.32 420.736 304.964 420.624 305.356 420.505L304.777 418.591C304.687 418.618 304.593 418.635 304.513 418.639C304.428 418.644 304.398 418.632 304.408 418.635L303.712 420.51ZM305.356 420.505C305.879 420.347 306.426 420.129 306.945 419.692L305.657 418.162C305.433 418.35 305.177 418.47 304.777 418.591L305.356 420.505ZM306.945 419.692C307.087 419.572 307.236 419.401 307.333 419.288C307.457 419.145 307.563 419.018 307.683 418.884C307.801 418.751 307.895 418.656 307.963 418.598C307.996 418.57 308.004 418.567 307.99 418.575C307.983 418.579 307.899 418.63 307.756 418.646L307.525 416.66C307.107 416.708 306.793 416.967 306.666 417.075C306.492 417.223 306.327 417.4 306.192 417.551C306.058 417.701 305.916 417.869 305.82 417.981C305.697 418.122 305.655 418.164 305.657 418.162L306.945 419.692ZM307.756 418.646C307.455 418.681 307.223 418.572 307.096 418.486C306.976 418.405 306.905 418.317 306.875 418.277C306.84 418.231 306.819 418.193 306.81 418.176C306.799 418.156 306.794 418.143 306.792 418.139C306.791 418.138 306.807 418.178 306.837 418.286L308.766 417.758C308.73 417.628 308.686 417.481 308.631 417.353C308.607 417.296 308.557 417.185 308.472 417.073C308.43 417.018 308.348 416.918 308.216 416.829C308.079 416.736 307.836 416.623 307.525 416.66L307.756 418.646ZM306.837 418.286C307.034 419.006 307.351 420.855 307.633 422.65C307.913 424.432 308.138 426.035 308.157 426.229L310.147 426.031C310.121 425.769 309.886 424.105 309.609 422.34C309.334 420.588 308.999 418.611 308.766 417.758L306.837 418.286ZM308.157 426.229C308.163 426.291 308.167 426.34 308.17 426.377C308.171 426.395 308.172 426.409 308.172 426.419C308.172 426.429 308.172 426.433 308.172 426.432C308.172 426.431 308.172 426.429 308.173 426.424C308.173 426.42 308.173 426.412 308.174 426.402C308.175 426.387 308.178 426.34 308.193 426.278C308.199 426.251 308.24 426.052 308.405 425.861C308.504 425.747 308.676 425.603 308.932 425.544C309.193 425.483 309.421 425.539 309.575 425.61C309.827 425.727 309.95 425.916 309.966 425.938C310.005 425.995 310.028 426.042 310.035 426.056C310.05 426.09 310.055 426.106 310.048 426.086C310.037 426.054 310.017 425.986 309.988 425.873C309.872 425.428 309.691 424.583 309.503 423.576C309.316 422.575 309.126 421.44 308.99 420.421C308.85 419.377 308.778 418.531 308.8 418.07L306.802 417.974C306.771 418.638 306.869 419.648 307.007 420.686C307.149 421.748 307.345 422.919 307.537 423.944C307.728 424.963 307.918 425.863 308.052 426.377C308.085 426.504 308.12 426.627 308.154 426.728C308.17 426.775 308.194 426.843 308.227 426.913C308.243 426.947 308.274 427.008 308.321 427.076C308.344 427.109 308.474 427.304 308.732 427.424C308.889 427.497 309.12 427.553 309.384 427.492C309.642 427.432 309.817 427.286 309.918 427.17C310.088 426.973 310.133 426.765 310.142 426.724C310.172 426.594 310.172 426.475 310.172 426.434C310.172 426.318 310.162 426.177 310.147 426.031L308.157 426.229ZM308.8 418.07C308.797 418.139 308.761 418.491 308.404 418.72C308.251 418.818 308.107 418.845 308.021 418.853C307.939 418.86 307.883 418.851 307.873 418.849C307.859 418.847 307.884 418.85 307.993 418.887C308.108 418.926 308.197 418.959 308.377 419.021C309.028 419.246 310.058 419.557 311.463 419.522L311.413 417.523C310.346 417.549 309.572 417.318 309.029 417.131C308.911 417.09 308.739 417.028 308.632 416.992C308.518 416.954 308.357 416.902 308.194 416.875C308.068 416.855 307.69 416.802 307.324 417.037C306.89 417.315 306.813 417.759 306.802 417.974L308.8 418.07ZM311.463 419.522C312.866 419.487 313.905 418.874 314.616 417.966C315.295 417.099 315.647 416.006 315.837 414.998C316.03 413.977 316.074 412.951 316.076 412.149C316.076 411.746 316.067 411.393 316.059 411.122C316.055 410.985 316.051 410.876 316.05 410.788C316.049 410.744 316.049 410.711 316.049 410.686C316.049 410.658 316.05 410.651 316.049 410.655L314.054 410.519C314.043 410.681 314.053 410.949 314.06 411.181C314.067 411.448 314.076 411.775 314.076 412.145C314.074 412.889 314.033 413.777 313.872 414.627C313.709 415.489 313.44 416.225 313.042 416.732C312.677 417.198 312.184 417.504 311.413 417.523L311.463 419.522ZM316.049 410.655C316.06 410.492 316.071 410.403 316.077 410.362C316.081 410.34 316.079 410.357 316.068 410.395C316.062 410.414 316.048 410.46 316.02 410.518C315.999 410.563 315.932 410.694 315.791 410.819C315.623 410.967 315.316 411.125 314.933 411.044C314.615 410.977 314.437 410.78 314.378 410.708C314.307 410.622 314.269 410.545 314.255 410.514C314.237 410.477 314.227 410.448 314.223 410.435C314.211 410.4 314.214 410.4 314.227 410.472C314.277 410.762 314.313 411.192 314.347 411.462L316.331 411.208C316.317 411.096 316.255 410.463 316.198 410.13C316.183 410.047 316.159 409.919 316.119 409.8C316.108 409.768 316.055 409.599 315.922 409.438C315.856 409.357 315.671 409.156 315.347 409.087C314.957 409.005 314.642 409.165 314.468 409.319C314.32 409.45 314.246 409.591 314.218 409.65C314.183 409.722 314.162 409.787 314.15 409.828C314.125 409.912 314.11 409.993 314.101 410.054C314.081 410.18 314.066 410.337 314.054 410.519L316.049 410.655ZM314.347 411.462C314.677 414.036 314.64 415.207 314.666 416.448C314.692 417.748 314.789 419.045 315.388 421.75L317.341 421.317C316.767 418.73 316.689 417.564 316.665 416.407C316.64 415.19 316.677 413.907 316.331 411.208L314.347 411.462ZM315.388 421.75C315.61 422.751 315.989 423.761 316.568 424.47C316.863 424.832 317.251 425.166 317.746 425.338C318.265 425.519 318.814 425.491 319.338 425.266L318.549 423.428C318.453 423.469 318.42 423.455 318.404 423.449C318.363 423.435 318.261 423.382 318.118 423.206C317.821 422.842 317.532 422.178 317.341 421.317L315.388 421.75ZM319.633 425.071C320.599 424.152 321.154 423.244 321.483 422.321C321.801 421.427 321.892 420.549 321.981 419.79L319.994 419.558C319.9 420.365 319.827 421.008 319.598 421.65C319.38 422.264 319.004 422.909 318.255 423.622L319.633 425.071ZM321.981 419.79C322.001 419.613 322.022 419.502 322.037 419.44C322.058 419.355 322.054 419.42 321.982 419.525C321.94 419.585 321.845 419.704 321.673 419.794C321.479 419.895 321.257 419.922 321.05 419.876C320.867 419.835 320.746 419.75 320.691 419.705C320.634 419.658 320.602 419.618 320.594 419.607C320.579 419.588 320.588 419.597 320.622 419.661C320.651 419.719 320.686 419.795 320.729 419.892C320.771 419.989 320.814 420.094 320.862 420.21C320.909 420.322 320.96 420.445 321.012 420.564L322.844 419.762C322.801 419.663 322.756 419.557 322.709 419.442C322.663 419.331 322.613 419.21 322.563 419.096C322.479 418.901 322.345 418.602 322.174 418.382C322.111 418.3 321.885 418.012 321.482 417.923C321.237 417.869 320.978 417.9 320.749 418.02C320.541 418.128 320.411 418.28 320.336 418.388C320.196 418.591 320.131 418.815 320.094 418.966C320.052 419.138 320.02 419.338 319.994 419.558L321.981 419.79ZM321.012 420.564C321.208 421.012 321.303 421.249 321.437 421.68L323.347 421.088C323.184 420.561 323.058 420.25 322.844 419.762L321.012 420.564ZM321.437 421.68C321.433 421.668 321.443 421.701 321.461 421.826C321.474 421.91 321.496 422.077 321.514 422.19C321.525 422.253 321.538 422.329 321.556 422.405C321.57 422.464 321.603 422.592 321.67 422.724C321.702 422.788 321.776 422.921 321.916 423.046C322.074 423.187 322.359 423.345 322.729 423.298C323.058 423.255 323.264 423.07 323.352 422.977C323.446 422.876 323.504 422.776 323.534 422.718L321.762 421.791C321.775 421.766 321.816 421.691 321.894 421.607C321.967 421.53 322.157 421.355 322.472 421.314C322.828 421.268 323.099 421.422 323.244 421.551C323.371 421.664 323.433 421.78 323.453 421.82C323.497 421.905 323.508 421.965 323.502 421.941C323.5 421.933 323.495 421.91 323.488 421.866C323.471 421.765 323.461 421.681 323.439 421.533C323.424 421.426 323.396 421.244 323.347 421.088L321.437 421.68ZM323.534 422.718C323.666 422.467 323.67 422.22 323.67 422.125C323.67 421.997 323.656 421.874 323.64 421.773C323.608 421.57 323.554 421.35 323.503 421.164C323.45 420.972 323.394 420.788 323.35 420.65C323.294 420.474 323.281 420.436 323.282 420.441L321.346 420.943C321.359 420.991 321.38 421.057 321.39 421.087C321.405 421.135 321.423 421.188 321.443 421.253C321.484 421.382 321.532 421.537 321.574 421.693C321.618 421.853 321.649 421.988 321.664 422.082C321.671 422.13 321.67 422.14 321.67 422.124C321.67 422.115 321.671 422.083 321.678 422.036C321.686 421.993 321.705 421.9 321.762 421.791L323.534 422.718ZM323.282 420.441C323.071 419.626 322.861 418.891 322.695 418.126L320.741 418.548C320.918 419.366 321.151 420.19 321.346 420.943L323.282 420.441ZM322.695 418.126C322.658 417.953 322.693 417.953 322.663 418.035C322.647 418.078 322.621 418.12 322.59 418.154C322.561 418.185 322.54 418.197 322.543 418.195C322.565 418.182 322.635 418.152 322.821 418.105C322.909 418.083 323.002 418.062 323.117 418.036C323.227 418.011 323.352 417.982 323.482 417.948L322.977 416.013C322.881 416.038 322.782 416.061 322.673 416.086C322.569 416.109 322.449 416.136 322.334 416.165C322.115 416.22 321.818 416.304 321.545 416.462C321.245 416.634 320.946 416.911 320.787 417.339C320.638 417.743 320.657 418.162 320.741 418.548L322.695 418.126ZM323.482 417.948C324.068 417.795 324.586 417.515 325.022 417.243C325.242 417.106 325.454 416.962 325.648 416.83C325.847 416.694 326.024 416.573 326.199 416.461L325.123 414.775C324.917 414.907 324.711 415.048 324.522 415.177C324.327 415.309 324.145 415.433 323.963 415.546C323.595 415.776 323.277 415.935 322.977 416.013L323.482 417.948ZM325.661 415.618C326.182 416.472 326.182 416.472 326.182 416.472C326.182 416.472 326.182 416.472 326.182 416.472C326.182 416.472 326.182 416.472 326.182 416.472C326.182 416.472 326.182 416.472 326.182 416.472C326.182 416.472 326.182 416.472 326.182 416.472C326.182 416.472 326.182 416.472 326.182 416.472C326.182 416.472 326.182 416.472 326.182 416.472C326.182 416.472 326.182 416.472 326.182 416.472C326.182 416.472 326.182 416.472 326.182 416.472C326.182 416.472 326.182 416.472 326.182 416.472L325.159 414.753C325.154 414.756 325.149 414.759 325.146 414.761C325.144 414.762 325.143 414.763 325.141 414.764C325.141 414.764 325.14 414.764 325.14 414.765C325.14 414.765 325.14 414.765 325.139 414.765C325.139 414.765 325.139 414.765 325.139 414.765C325.139 414.765 325.139 414.765 325.139 414.765C325.139 414.765 325.139 414.765 325.139 414.765C325.139 414.765 325.139 414.765 325.139 414.765C325.139 414.765 325.139 414.765 325.139 414.765C325.139 414.765 325.139 414.765 325.661 415.618ZM326.182 416.472C326.224 416.447 326.465 416.305 326.674 416.171C326.768 416.109 326.899 416.022 327.002 415.937C327.031 415.913 327.071 415.879 327.113 415.835C327.141 415.806 327.235 415.71 327.308 415.562C327.361 415.457 327.604 414.882 327.124 414.397C326.942 414.213 326.739 414.148 326.632 414.123C326.518 414.097 326.423 414.096 326.37 414.097L326.419 416.097C326.375 416.098 326.289 416.097 326.182 416.072C326.081 416.049 325.883 415.986 325.704 415.805C325.23 415.327 325.473 414.761 325.519 414.668C325.587 414.534 325.668 414.452 325.68 414.441C325.705 414.415 325.723 414.399 325.725 414.398C325.73 414.394 325.721 414.401 325.691 414.422C325.664 414.441 325.629 414.464 325.588 414.491C325.419 414.6 325.217 414.719 325.159 414.753L326.182 416.472ZM326.37 414.097C325.512 414.118 325.026 414.688 324.785 415.147L326.556 416.077C326.572 416.047 326.583 416.03 326.588 416.024C326.593 416.019 326.588 416.026 326.571 416.039C326.553 416.053 326.526 416.069 326.494 416.081C326.46 416.093 326.434 416.096 326.419 416.097L326.37 414.097ZM324.785 415.147C324.635 415.433 324.543 415.735 324.479 415.969C324.393 416.286 324.387 416.352 324.331 416.547L326.252 417.103C326.294 416.957 326.38 416.602 326.41 416.492C326.462 416.298 326.51 416.166 326.556 416.077L324.785 415.147ZM324.331 416.547C323.898 418.04 323.86 419.641 324.009 421.1L325.999 420.897C325.867 419.6 325.913 418.274 326.252 417.103L324.331 416.547ZM324.009 421.1C324.034 421.346 324.143 421.911 324.705 422.184C325.244 422.446 325.739 422.209 325.918 422.109C326.341 421.873 326.747 421.421 327.063 421.015C327.725 420.164 328.469 418.884 328.714 417.902L326.773 417.418C326.623 418.021 326.062 419.046 325.485 419.786C325.348 419.962 325.223 420.105 325.117 420.211C325.064 420.264 325.02 420.303 324.987 420.33C324.952 420.358 324.938 420.366 324.944 420.363C324.945 420.362 324.999 420.331 325.095 420.314C325.199 420.295 325.381 420.289 325.58 420.385C325.782 420.484 325.895 420.637 325.948 420.744C325.973 420.794 325.985 420.835 325.991 420.859C325.997 420.883 325.999 420.897 325.999 420.897L324.009 421.1ZM328.714 417.902C328.761 417.712 328.798 417.504 328.803 417.293L326.804 417.243C326.803 417.264 326.798 417.32 326.773 417.418L328.714 417.902ZM328.803 417.293C328.821 416.593 328.48 415.871 328.287 415.502C328.175 415.29 328.071 415.119 328.008 415.022C327.992 414.997 327.977 414.974 327.962 414.953C327.956 414.944 327.944 414.927 327.929 414.907C327.925 414.902 327.903 414.872 327.871 414.837C327.87 414.835 327.803 414.759 327.701 414.687C327.668 414.665 327.582 414.617 327.529 414.592C327.445 414.56 327.215 414.512 327.07 414.51C326.86 414.546 326.472 414.756 326.317 414.927C326.229 415.076 326.144 415.344 326.131 415.453C326.121 415.634 326.165 415.772 326.171 415.793C326.185 415.84 326.2 415.877 326.207 415.894C326.223 415.931 326.237 415.959 326.242 415.969C326.255 415.994 326.266 416.013 326.27 416.02C326.28 416.037 326.29 416.053 326.296 416.062C326.31 416.084 326.326 416.11 326.345 416.137L328.007 415.024C327.993 415.004 327.987 414.994 327.986 414.992C327.984 414.99 327.989 414.997 327.995 415.008C327.997 415.012 328.007 415.028 328.019 415.051C328.024 415.061 328.038 415.088 328.053 415.124C328.06 415.141 328.075 415.178 328.089 415.225C328.095 415.245 328.138 415.383 328.128 415.564C328.116 415.673 328.031 415.942 327.943 416.09C327.788 416.262 327.4 416.472 327.19 416.507C327.045 416.505 326.815 416.458 326.731 416.425C326.678 416.401 326.593 416.352 326.56 416.33C326.457 416.259 326.391 416.182 326.391 416.182C326.36 416.148 326.338 416.119 326.336 416.116C326.329 416.107 326.324 416.101 326.322 416.098C326.32 416.094 326.319 416.092 326.318 416.091C326.317 416.09 326.32 416.094 326.329 416.108C326.362 416.16 326.435 416.278 326.515 416.431C326.705 416.793 326.807 417.107 326.804 417.243L328.803 417.293ZM326.345 416.137C326.289 416.054 326.291 416.018 326.336 416.161C326.368 416.265 326.407 416.409 326.453 416.593C326.532 416.904 326.665 417.476 326.775 417.907L328.713 417.413C328.585 416.912 328.504 416.549 328.393 416.106C328.345 415.913 328.295 415.724 328.245 415.565C328.207 415.443 328.133 415.213 328.007 415.024L326.345 416.137ZM326.775 417.907C326.908 418.432 327.071 419.012 327.263 419.473C327.357 419.698 327.483 419.955 327.653 420.172C327.799 420.357 328.158 420.74 328.738 420.726L328.689 418.727C328.882 418.722 329.03 418.788 329.115 418.842C329.156 418.868 329.184 418.893 329.2 418.908C329.216 418.924 329.224 418.934 329.225 418.936C329.227 418.938 329.214 418.922 329.191 418.878C329.168 418.835 329.14 418.777 329.109 418.702C328.977 418.388 328.845 417.931 328.713 417.413L326.775 417.907ZM328.738 420.726C329.468 420.708 330.033 420.317 330.427 419.911C330.823 419.502 331.139 418.987 331.387 418.499C331.883 417.524 332.225 416.417 332.388 415.935L330.494 415.293C330.306 415.848 330.018 416.78 329.604 417.592C329.398 417.998 329.189 418.314 328.992 418.518C328.792 418.724 328.693 418.727 328.689 418.727L328.738 420.726ZM332.388 415.935C332.625 415.235 332.798 414.477 332.902 413.759L330.923 413.471C330.834 414.085 330.687 414.723 330.494 415.293L332.388 415.935ZM332.902 413.759C332.911 413.698 332.916 413.612 332.918 413.588C332.922 413.537 332.925 413.48 332.93 413.414C332.941 413.281 332.954 413.142 332.97 413.035C332.974 413.009 332.977 412.989 332.981 412.973C332.984 412.957 332.986 412.95 332.986 412.95C332.985 412.95 332.984 412.955 332.982 412.962C332.98 412.969 332.975 412.981 332.969 412.997C332.959 413.021 332.926 413.099 332.853 413.19C332.787 413.273 332.605 413.469 332.283 413.528C331.926 413.593 331.652 413.447 331.513 413.337C331.39 413.238 331.33 413.137 331.314 413.111C331.293 413.075 331.286 413.055 331.289 413.064L333.15 412.329C333.123 412.261 333.087 412.18 333.038 412.098C332.996 412.025 332.91 411.892 332.762 411.774C332.599 411.644 332.301 411.491 331.923 411.56C331.579 411.623 331.376 411.834 331.29 411.942C331.132 412.14 331.073 412.36 331.055 412.427C331.026 412.534 331.007 412.642 330.993 412.733C330.965 412.918 330.947 413.117 330.936 413.262C330.921 413.465 330.921 413.487 330.923 413.471L332.902 413.759ZM331.289 413.064C331.711 414.131 331.987 415.26 332.295 416.474C332.597 417.664 332.927 418.931 333.456 420.143L335.289 419.343C334.834 418.301 334.538 417.183 334.234 415.983C333.936 414.808 333.628 413.54 333.15 412.329L331.289 413.064ZM333.456 420.143C333.493 420.226 333.481 420.214 333.57 420.428C333.627 420.564 333.715 420.762 333.829 420.944C333.887 421.035 333.969 421.152 334.079 421.262C334.183 421.365 334.372 421.522 334.648 421.594C334.966 421.677 335.29 421.618 335.555 421.451C335.785 421.306 335.926 421.109 336.01 420.964L334.281 419.958C334.282 419.957 334.34 419.853 334.488 419.759C334.67 419.644 334.913 419.596 335.152 419.658C335.349 419.71 335.46 419.814 335.489 419.843C335.524 419.878 335.534 419.898 335.523 419.88C335.499 419.843 335.463 419.769 335.417 419.658C335.395 419.607 335.375 419.556 335.355 419.504C335.337 419.46 335.312 419.396 335.289 419.343L333.456 420.143ZM336.01 420.964C336.779 419.641 336.92 417.952 337.044 416.787L335.056 416.575C334.917 417.878 334.791 419.082 334.281 419.958L336.01 420.964ZM337.044 416.787C337.399 413.458 337.331 413.866 337.462 410.575L335.463 410.495C335.332 413.784 335.403 413.318 335.056 416.575L337.044 416.787ZM337.462 410.575C337.462 410.557 337.462 410.534 337.462 410.528C337.462 410.525 337.462 410.521 337.462 410.519C337.462 410.515 337.462 410.512 337.462 410.51C337.462 410.506 337.462 410.502 337.462 410.498C337.462 410.489 337.461 410.477 337.461 410.463C337.46 410.433 337.459 410.39 337.457 410.335C337.454 410.225 337.45 410.066 337.445 409.87C337.435 409.478 337.421 408.934 337.407 408.327C337.379 407.109 337.351 405.642 337.35 404.615C337.35 404.089 337.357 403.717 337.37 403.548C337.373 403.503 337.374 403.51 337.368 403.542C337.367 403.547 337.353 403.626 337.309 403.725C337.289 403.77 337.231 403.892 337.11 404.014C336.976 404.15 336.689 404.349 336.285 404.301C335.93 404.258 335.724 404.046 335.654 403.965C335.573 403.871 335.529 403.784 335.513 403.748C335.477 403.673 335.462 403.614 335.461 403.61C335.456 403.59 335.459 403.597 335.468 403.654C335.54 404.128 335.672 405.733 335.891 409.242L337.887 409.118C337.671 405.653 337.534 403.937 337.445 403.353C337.433 403.277 337.418 403.187 337.396 403.103C337.386 403.067 337.364 402.985 337.32 402.893C337.299 402.849 337.252 402.756 337.167 402.658C337.093 402.572 336.884 402.359 336.526 402.315C336.119 402.266 335.828 402.467 335.691 402.606C335.566 402.731 335.505 402.859 335.482 402.91C335.432 403.023 335.412 403.123 335.406 403.156C335.389 403.244 335.38 403.333 335.376 403.395C335.356 403.655 335.35 404.104 335.35 404.617C335.351 405.668 335.38 407.154 335.408 408.372C335.422 408.983 335.435 409.529 335.446 409.923C335.451 410.12 335.455 410.279 335.458 410.389C335.46 410.444 335.461 410.487 335.462 410.516C335.463 410.585 335.461 410.539 335.463 410.495L337.462 410.575ZM335.894 409.281C335.99 410.223 336.033 410.54 336.107 410.863C336.172 411.148 336.24 411.355 336.412 412.268L338.377 411.897C338.196 410.935 338.108 410.641 338.057 410.417C338.014 410.232 337.981 410.035 337.884 409.079L335.894 409.281ZM336.412 412.268C336.715 413.875 337.093 415.458 337.507 417.024L339.441 416.513C339.034 414.977 338.669 413.443 338.377 411.897L336.412 412.268ZM337.507 417.024C337.593 417.351 337.707 417.834 337.862 418.283C338.019 418.736 338.253 419.264 338.642 419.702L340.136 418.373C340.002 418.221 339.874 417.98 339.752 417.629C339.629 417.273 339.547 416.917 339.441 416.513L337.507 417.024ZM338.642 419.702C339.035 420.144 339.549 420.045 339.699 420.002C339.867 419.952 339.99 419.871 340.039 419.837C340.155 419.757 340.26 419.658 340.336 419.583C340.501 419.42 340.704 419.192 340.92 418.937C341.359 418.421 341.923 417.713 342.492 416.984C343.63 415.524 344.823 413.931 345.12 413.54L343.528 412.33C343.219 412.737 342.043 414.307 340.915 415.754C340.35 416.478 339.807 417.159 339.396 417.642C339.188 417.887 339.031 418.06 338.93 418.16C338.873 418.216 338.869 418.214 338.902 418.191C338.91 418.186 338.998 418.123 339.139 418.081C339.261 418.046 339.756 417.945 340.136 418.373L338.642 419.702ZM332.555 408.113C336.837 407.832 340.95 406.481 344.867 405.438L344.353 403.505C340.279 404.59 336.451 405.853 332.424 406.117L332.555 408.113ZM331.702 408.973L331.718 409.598L333.717 409.549L333.702 408.924L331.702 408.973ZM311.108 415.313C314.972 415.217 319.038 415.196 322.981 414.378L322.575 412.42C318.849 413.193 314.994 413.216 311.059 413.313L311.108 415.313Z" fill="#976393"/>
</svg>
