<svg width="430" height="509" viewBox="0 0 430 509" fill="none" xmlns="http://www.w3.org/2000/svg">
<path d="M416.487 72.2064C391.146 49.5023 367.784 27.4226 342.442 4.71766C336.051 -2.27453 335.654 4.53932 335.014 6.52032C333.607 10.8738 329.322 14.18 325.512 16.22C322.208 17.9889 316.752 15.7823 313.085 15.5275C310.322 15.3356 305.75 17.0628 303.905 19.3671C303.298 20.1251 308.885 25.9169 309.944 26.8654C317.406 33.5515 324.852 40.8479 332.137 47.8513C345.855 61.0372 359.963 73.7668 374.171 86.496C381.313 92.8955 388.419 101.474 396.753 106.206C401.006 108.621 404.347 109.707 404.013 103.604C403.841 100.463 408.359 97.343 410.965 96.4921C415.384 95.0493 420.204 89.764 423.544 86.0352C427.088 82.0802 430.202 84.4935 425.494 80.2755L416.487 72.2064Z" stroke="#976393" stroke-width="3" vector-effect="non-scaling-stroke" stroke-linecap="round"/>
<path d="M120.672 465.189C90.3509 448.651 62.9494 427.509 32.6993 411.009C21.2304 403.297 26.4445 425.183 21.3776 426.077C18.5021 426.584 16.9747 429.421 13.5797 428.904C12.4629 428.734 -1.0593 431.541 3.00268 433.757C15.1021 440.356 26.2806 449.905 38.0967 457.373C46.7453 462.84 54.9553 469.175 63.8783 474.042L122.651 506.099C127.97 509.001 126.33 506.586 128.764 501.467C130.312 498.211 127.989 494.76 129.812 491.418C131.617 488.11 136.018 484.222 137.792 480.969C143.036 471.355 137.915 476.562 120.672 465.189Z" stroke="#976393" stroke-width="3" vector-effect="non-scaling-stroke" stroke-linecap="round"/>
<path d="M66.7464 186.185C62.7186 138.338 51.5203 103.997 50.8496 56.0015C59.0321 59.5289 66.7502 56.5135 81.5957 57.0255C95.1876 57.0255 100.954 56.5135 106.668 56.5135C124.427 56.5135 129.651 54.9586 147.411 54.9586C174.955 54.9586 202.1 52.9482 229.57 52.5838C255.453 52.2405 281.532 53.4683 307.401 52.3802C325.307 51.6272 313.515 52.3797 347.231 52.3801C362.01 52.3802 371.193 56.7408 377.054 56.7408C381.219 56.7408 377.054 80.2593 377.054 83.1369C377.054 130.31 378.03 138.207 379.173 185.371C381.181 268.254 379.488 351.275 379.488 434.184C379.488 445.613 381.997 459.518 379.173 470.757C377.855 476.002 337.046 468.017 331.955 467.364C307.113 464.18 281.246 465.439 256.248 465.329C217.696 465.159 179.186 463.569 140.643 463.022C123.232 462.775 105.774 463.162 88.388 462.14C83.9794 461.88 65.015 463.082 65.015 456.508C65.015 452.211 66.0986 448.162 66.3529 443.887C66.8794 435.035 66.4316 426.085 66.4316 417.221C66.4316 411.217 69.1627 405.443 69.2647 399.376C69.5233 383.991 71.9635 368.792 72.0978 353.508C72.5897 297.519 71.4495 242.054 66.7464 186.185Z" stroke="#976393" stroke-width="3" vector-effect="non-scaling-stroke" stroke-linecap="round"/>
<path d="M110.143 463.333C103.453 423.693 135.985 354.279 177.465 357.791C183.57 365.401 188.002 373.43 205.899 364.063C257.581 364.063 263.101 439.831 263.101 463.331M177.502 357.274C178.318 355.196 179.562 353.281 180.433 351.211C182.728 345.753 184.899 340.156 186.328 334.401M206.482 338.14C206.541 343.03 202.72 356.371 205.731 364.065M144.54 268.89C141.082 265.432 133.843 264.774 129.483 266.111C125.112 267.452 123.141 270.622 121.802 274.718C120.904 277.466 120.492 280.258 120.354 283.14C120.287 284.533 119.97 286.232 121.095 287.266C123.418 289.404 126.612 289.932 129.634 290.382C133.053 290.892 136.972 291.434 140.363 290.517C142.407 289.964 144.537 289.05 146.191 287.687C146.75 287.227 146.705 286.521 146.966 285.868M280.883 302.368C286.381 309.906 297.65 318.107 306.449 310.042C311.107 305.772 313.58 298.13 309.859 293.016C307.337 289.549 303.318 287.247 299.558 286.337C295.576 285.374 291.801 287.11 287.857 288.488M145.517 234.942C202.887 239.04 191.825 204.87 192.35 200.152M211.159 183.51C210.121 185.482 213.445 189.857 212.608 191.946C211.844 193.85 211.147 195.863 211.159 197.942C211.189 202.748 214.372 206.285 217.812 209.328C222.024 213.054 226.613 215.618 232.297 215.914C235.845 216.099 240.24 215.854 243.464 214.145C244.58 213.554 245.543 212.64 246.429 211.754C246.918 211.265 246.943 210.938 246.614 211.787C245.503 214.659 244.825 217.827 244.559 220.883C244.136 225.745 248.341 231.437 251.28 234.93C255.288 239.693 262.194 241.595 268.207 242.021C275.82 242.56 283.343 242.645 290.895 241.566M192.266 200.152C205.312 202.494 210.227 188.058 211.166 183.677M231.906 164.359C233.117 160.349 236.015 153.611 238.948 151.372C250.763 142.35 264.388 139.98 278.176 139.939C283.624 139.923 290.46 139.289 295.663 141.791C301.565 144.628 305.838 152.841 308.053 159.585C310.462 166.92 310.036 179.824 305.319 185.994C305.052 186.342 304.785 186.551 304.618 186.656M304.618 186.656C304.418 186.782 304.361 186.761 304.618 186.656ZM304.618 186.656C304.807 186.579 305.164 186.457 305.758 186.316C314.396 184.256 325.044 183.585 333.677 185.752C351.769 190.294 360.429 215.666 346.606 231.968C341.652 237.811 333.807 241.425 326.857 241.791C326.679 241.8 326.519 241.808 326.374 241.814M326.374 241.814C324.654 241.887 325.25 241.747 326.374 241.814ZM326.374 241.814C326.786 241.839 327.269 241.891 327.735 241.992C336.428 243.877 345.56 248.752 353.257 253.788C358.637 257.308 362.07 260.86 362.271 268.402C362.889 291.609 341.864 301.547 325.237 296.139M267.532 325.68C268.968 331.649 275.059 334.628 279.408 336.384C297.304 341.653 303.093 341.181 316.267 338.826C321.765 337.843 328.559 334.432 330.689 328.064C331.99 324.174 334.585 316.965 334.924 312.86C335.518 305.686 334.924 304.776 334.924 297.58M170.104 327.854C170.209 332.726 168.483 335.508 174.536 338.224C181.059 341.151 184.124 336.206 184.898 335.508C185.393 335.062 185.784 334.528 186.328 334.135M206.651 339.395C209.006 343.368 213.325 346.658 217.14 344.573C217.959 344.125 220.331 343.324 220.681 342.367C220.905 341.756 220.998 341.123 221.289 340.533M221.62 340.412C226.637 345.011 230.928 348.001 237.782 348.001C243.207 348.001 248.632 349.179 256.744 343.409C263.1 338.888 265.721 337.471 267.532 326.265M232.492 164.351C231.016 160.324 225.083 155.958 222.309 153.211C214.222 145.206 205.211 139.009 194.659 136.282C178.789 132.18 162.005 130.086 146.579 137.014C135.069 142.184 127.935 153.652 122.925 166.183C119.52 174.703 119.851 185.876 121.314 194.949C121.968 199.004 123.033 209.19 126.47 211.843C131.232 215.517 139.391 215.89 144.903 216.46M144.598 216.46C136.423 217.708 113.335 222.445 106.244 228.74C101.953 232.55 98.0012 236.916 95.6027 243.739C92.6881 252.029 92.8776 262.908 93.6752 272.002C96.0477 299.052 117.606 302.765 131.803 302.765M131.721 302.766C125.446 302.765 121.506 310.258 121.067 312.211C119.33 319.934 122.196 323.746 127.94 328.112C135.531 333.882 149.63 340.053 159.425 336.095C164.301 334.125 167.019 332.521 170.069 327.718M211.94 268.554C211.18 275.497 207.942 282.342 204.626 288.372M189.886 299.696C190.003 301.746 192.75 305.014 194.246 306.557C195.745 308.103 200.168 309.888 202.125 310.148C204.97 310.526 209.941 308.928 211.93 306.985M190.473 248.071C190.119 251.962 188.671 255.787 187.499 259.47M240.142 259.445C239.814 264.359 238.055 269.118 236.673 273.817M145.768 234.524C142.423 277.76 146.608 325.97 196.196 336.718C247.123 347.757 306.247 297.162 290.948 241.716" stroke="#976393" stroke-width="3" vector-effect="non-scaling-stroke" stroke-linecap="round"/>
<path d="M275.91 411.066C275.674 411.566 275.889 412.161 276.389 412.397C276.888 412.632 277.484 412.417 277.719 411.918L275.91 411.066ZM278.815 403.216L279.784 403.461L279.784 403.461L278.815 403.216ZM280.972 395.607L281.945 395.836L281.945 395.836L280.972 395.607ZM282.129 391.254L281.614 390.396L281.614 390.396L282.129 391.254ZM285.443 400.647L286.412 400.402L286.412 400.402L285.443 400.647ZM286.863 408.762C287.11 409.256 287.71 409.456 288.204 409.209C288.698 408.962 288.898 408.362 288.651 407.868L286.863 408.762ZM277.527 401.098C276.975 401.098 276.527 401.546 276.527 402.098C276.527 402.651 276.975 403.098 277.527 403.098V401.098ZM285.6 402.098L285.344 401.132L285.344 401.132L285.6 402.098ZM289.153 402.088C289.661 401.87 289.896 401.282 289.678 400.775C289.461 400.267 288.873 400.032 288.365 400.249L289.153 402.088ZM297.892 397.209C298.444 397.209 298.892 396.761 298.892 396.209C298.892 395.657 298.444 395.209 297.892 395.209V397.209ZM293.582 397.874L294.251 397.131L294.251 397.131L293.582 397.874ZM299.998 398.315L300.315 397.366L300.315 397.366L299.998 398.315ZM295.701 402.374C295.454 401.88 294.853 401.68 294.359 401.927C293.865 402.174 293.665 402.775 293.912 403.269L295.701 402.374ZM303.33 396.999C303.018 396.544 302.396 396.427 301.94 396.739C301.484 397.051 301.368 397.673 301.68 398.129L303.33 396.999ZM304.657 397.214L304.108 396.378L304.108 396.378L304.657 397.214ZM304.982 394.787L305.853 394.297L305.853 394.297L304.982 394.787ZM301.637 395.867L302.637 395.879L301.637 395.867ZM303.141 401.012L302.447 401.732L302.447 401.732L303.141 401.012ZM307.67 402.545L308.096 403.45L308.096 403.45L307.67 402.545ZM310.661 397.609L311.648 397.769L311.648 397.769L310.661 397.609ZM310.754 388.945L309.758 389.036L309.758 389.036L310.754 388.945ZM310.521 386.251L311.518 386.165L311.518 386.165L310.521 386.251ZM311.729 393.579L312.722 393.457L312.722 393.457L311.729 393.579ZM312.409 399.531L311.435 399.758L311.435 399.758L312.409 399.531ZM313.256 401.058L313.704 401.953L313.704 401.953L313.256 401.058ZM315.724 397.894L314.872 397.371L314.872 397.371L315.724 397.894ZM318.645 387.941L317.651 387.834L317.651 387.834L318.645 387.941ZM318.593 382.767L317.617 382.983L317.617 382.983L318.593 382.767ZM317.792 382.442L318.551 383.092L318.551 383.092L317.792 382.442ZM317.536 390.304L318.503 390.049L318.503 390.049L317.536 390.304ZM321.438 401.894L322.394 401.599L322.394 401.599L321.438 401.894ZM323.662 409.345L322.713 409.658L322.713 409.658L323.662 409.345ZM324.214 411.516L325.17 411.222L325.17 411.222L324.214 411.516ZM324.429 411.011L325.404 411.234L325.404 411.234L324.429 411.011ZM324.829 408.305L325.826 408.383L325.826 408.383L324.829 408.305ZM323.163 397.952L322.223 398.292L322.223 398.292L323.163 397.952ZM320.753 393.73L321.441 393.004L321.441 393.004L320.753 393.73ZM319.731 393.242L319.147 392.431L319.147 392.431L319.731 393.242ZM320.358 393.196L320.311 392.197L320.311 392.197L320.358 393.196ZM321.973 393.033L321.797 392.049L321.797 392.049L321.973 393.033ZM326.153 391.605L325.639 390.747L325.639 390.747L326.153 391.605ZM331.115 387.466C331.299 386.946 331.025 386.374 330.505 386.191C329.984 386.007 329.413 386.28 329.229 386.801L331.115 387.466ZM287.316 419.877C287.158 419.347 286.601 419.046 286.072 419.203C285.543 419.361 285.241 419.917 285.399 420.447L287.316 419.877ZM289.061 431.222L288.079 431.412L288.079 431.412L289.061 431.222ZM289.78 435.04L288.807 435.271L288.807 435.271L289.78 435.04ZM289.548 434.447L288.618 434.813L288.618 434.813L289.548 434.447ZM287.896 430.461L288.849 430.157L288.849 430.157L287.896 430.461ZM287.465 423.884L286.474 423.748L286.474 423.748L287.465 423.884ZM290.694 418.649L290.719 419.648L290.694 418.649ZM292.507 422.805L293.451 423.132L293.451 423.132L292.507 422.805ZM289.029 423.638C288.562 423.343 287.944 423.482 287.649 423.949C287.354 424.416 287.494 425.034 287.961 425.329L289.029 423.638ZM300 419.7C300.538 419.824 301.075 419.489 301.2 418.95C301.324 418.412 300.988 417.875 300.45 417.751L300 419.7ZM297.48 418.637L297.825 419.576L297.825 419.576L297.48 418.637ZM294.75 422.662L293.754 422.748L293.754 422.748L294.75 422.662ZM300.996 421.822L300.012 421.645L300.012 421.645L300.996 421.822ZM300.868 419.439L301.799 419.074L301.799 419.074L300.868 419.439ZM301.062 419.573L300.714 420.51L300.714 420.51L301.062 419.573ZM302.068 419.548L301.779 418.591L301.779 418.591L302.068 419.548ZM303.303 418.927L302.659 418.162L302.659 418.162L303.303 418.927ZM304.643 417.653L304.758 418.646L304.758 418.646L304.643 417.653ZM306.154 426.13L307.149 426.031L307.149 426.031L306.154 426.13ZM308.44 418.522L308.415 417.523L308.44 418.522ZM312.054 410.587L313.051 410.655L313.051 410.655L312.054 410.587ZM312.341 411.335L311.349 411.462L311.349 411.462L312.341 411.335ZM313.366 421.533L312.39 421.75L312.39 421.75L313.366 421.533ZM315.946 424.347L316.34 425.266L316.505 425.195L316.635 425.071L315.946 424.347ZM317.989 419.674L316.996 419.558L316.996 419.558L317.989 419.674ZM318.93 420.163L318.014 420.564L318.014 420.564L318.93 420.163ZM319.394 421.384L320.349 421.088L320.349 421.088L319.394 421.384ZM319.65 422.254L318.764 421.791L318.764 421.791L319.65 422.254ZM319.316 420.692L320.284 420.441L320.284 420.441L319.316 420.692ZM318.72 418.337L317.743 418.548L317.743 418.548L318.72 418.337ZM320.231 416.98L319.979 416.013L319.979 416.013L320.231 416.98ZM322.663 415.618L322.141 414.765L322.133 414.77L322.125 414.775L322.663 415.618ZM323.396 415.097L323.421 416.097L323.396 415.097ZM322.293 416.825L321.333 416.547L321.333 416.547L322.293 416.825ZM322.006 420.998L323.001 420.897L323.001 420.897L322.006 420.998ZM324.805 417.268L325.805 417.293L325.805 417.293L324.805 417.268ZM324.178 415.581L325.009 415.024L325.009 415.024L324.178 415.581ZM325.715 419.726L325.69 418.727L325.715 419.726ZM328.443 415.614L329.39 415.935L329.39 415.935L328.443 415.614ZM328.914 413.615L329.904 413.759L329.904 413.759L328.914 413.615ZM329.221 412.696L330.152 412.329L330.152 412.329L329.221 412.696ZM331.375 419.743L332.291 419.343L332.291 419.343L331.375 419.743ZM332.147 420.461L331.283 419.958L331.283 419.958L332.147 420.461ZM333.052 416.681L332.058 416.575L332.058 416.575L333.052 416.681ZM333.464 410.535L334.464 410.575L334.464 410.575L333.464 410.535ZM333.891 409.18L332.893 409.242L332.894 409.262L332.896 409.281L333.891 409.18ZM334.397 412.082L335.379 411.897L335.379 411.897L334.397 412.082ZM335.476 416.768L336.443 416.513L336.443 416.513L335.476 416.768ZM336.391 419.037L335.644 419.702L335.644 419.702L336.391 419.037ZM342.122 413.54C342.457 413.101 342.371 412.473 341.932 412.139C341.492 411.805 340.865 411.89 340.53 412.33L342.122 413.54ZM329.426 406.117C328.875 406.153 328.457 406.629 328.494 407.18C328.53 407.731 329.006 408.149 329.557 408.113L329.426 406.117ZM341.869 405.438C342.403 405.296 342.72 404.748 342.578 404.214C342.436 403.681 341.888 403.363 341.355 403.505L341.869 405.438ZM330.704 408.924C330.69 408.372 330.232 407.935 329.679 407.949C329.127 407.963 328.691 408.421 328.704 408.973L330.704 408.924ZM328.72 409.598C328.734 410.15 329.192 410.587 329.744 410.573C330.296 410.559 330.733 410.101 330.719 409.549L328.72 409.598ZM308.061 413.313C307.509 413.327 307.072 413.786 307.086 414.338C307.1 414.89 307.558 415.326 308.11 415.313L308.061 413.313ZM319.983 414.378C320.524 414.266 320.871 413.737 320.759 413.196C320.647 412.655 320.118 412.308 319.577 412.42L319.983 414.378ZM277.719 411.918C278.368 410.539 278.718 409.035 278.989 407.596C279.269 406.111 279.457 404.757 279.784 403.461L277.845 402.972C277.499 404.344 277.28 405.869 277.024 407.225C276.76 408.627 276.446 409.926 275.91 411.066L277.719 411.918ZM279.784 403.461C280.1 402.21 280.48 400.975 280.866 399.706C281.249 398.446 281.636 397.155 281.945 395.836L279.998 395.379C279.705 396.627 279.336 397.862 278.952 399.125C278.571 400.378 278.175 401.664 277.845 402.972L279.784 403.461ZM281.945 395.836C282.004 395.586 282.058 395.185 282.111 394.804C282.169 394.394 282.233 393.937 282.314 393.494C282.396 393.044 282.488 392.648 282.592 392.353C282.644 392.206 282.689 392.113 282.72 392.061C282.757 392.001 282.742 392.052 282.643 392.111L281.614 390.396C281.324 390.571 281.134 390.821 281.011 391.022C280.883 391.233 280.784 391.465 280.706 391.688C280.549 392.132 280.435 392.65 280.346 393.135C280.257 393.625 280.187 394.122 280.13 394.528C280.07 394.965 280.03 395.243 279.998 395.379L281.945 395.836ZM282.643 392.111C282.388 392.265 282.107 392.27 281.892 392.202C281.714 392.147 281.61 392.054 281.581 392.027C281.522 391.972 281.52 391.949 281.571 392.035C281.658 392.185 281.785 392.458 281.945 392.856C282.257 393.636 282.629 394.735 282.995 395.887C283.726 398.19 284.401 400.606 284.474 400.893L286.412 400.402C286.327 400.066 285.64 397.609 284.901 395.282C284.532 394.12 284.142 392.964 283.802 392.114C283.635 391.696 283.463 391.309 283.297 391.025C283.221 390.895 283.104 390.712 282.942 390.562C282.862 390.487 282.71 390.363 282.488 390.293C282.228 390.212 281.907 390.221 281.614 390.396L282.643 392.111ZM284.474 400.893C285.096 403.351 285.616 406.27 286.863 408.762L288.651 407.868C287.533 405.631 287.087 403.067 286.412 400.402L284.474 400.893ZM277.527 403.098C278.569 403.098 279.966 403.231 281.538 403.303C283.019 403.371 284.65 403.384 285.856 403.065L285.344 401.132C284.475 401.362 283.135 401.375 281.63 401.305C280.217 401.24 278.616 401.098 277.527 401.098V403.098ZM285.856 403.065C286.855 402.801 287.753 402.687 289.153 402.088L288.365 400.249C287.144 400.773 286.566 400.808 285.344 401.132L285.856 403.065ZM297.892 395.209C297.036 395.209 295.581 395.379 294.461 395.692C293.938 395.838 293.308 396.062 292.891 396.432C292.669 396.629 292.377 396.987 292.375 397.503C292.373 398.019 292.662 398.392 292.913 398.618L294.251 397.131C294.215 397.099 294.376 397.226 294.375 397.511C294.374 397.646 294.335 397.756 294.294 397.828C294.257 397.894 294.221 397.925 294.22 397.927C294.217 397.929 294.231 397.917 294.271 397.893C294.31 397.87 294.364 397.842 294.436 397.811C294.582 397.748 294.771 397.682 294.999 397.618C295.935 397.356 297.208 397.209 297.892 397.209V395.209ZM292.913 398.618C293.429 399.082 294.165 399.205 294.719 399.253C295.328 399.305 296.023 399.283 296.673 399.252C297.349 399.219 297.972 399.176 298.538 399.17C299.125 399.163 299.494 399.201 299.682 399.264L300.315 397.366C299.779 397.188 299.109 397.163 298.515 397.17C297.899 397.177 297.196 397.224 296.575 397.254C295.927 397.285 295.352 397.3 294.89 397.26C294.373 397.216 294.237 397.119 294.251 397.131L292.913 398.618ZM299.682 399.264C300.247 399.452 300.495 399.653 300.593 399.774C300.665 399.863 300.681 399.933 300.664 400.041C300.61 400.377 300.217 400.965 299.387 401.566C298.602 402.135 297.649 402.549 296.867 402.662C296.043 402.781 295.788 402.549 295.701 402.374L293.912 403.269C294.585 404.616 296.026 404.804 297.153 404.641C298.32 404.473 299.57 403.903 300.56 403.186C301.504 402.503 302.457 401.505 302.639 400.354C302.74 399.718 302.596 399.069 302.146 398.514C301.721 397.991 301.083 397.623 300.315 397.366L299.682 399.264ZM301.68 398.129C301.883 398.427 302.167 398.698 302.559 398.84C302.948 398.981 303.324 398.951 303.63 398.871C304.173 398.73 304.739 398.356 305.205 398.05L304.108 396.378C303.851 396.546 303.646 396.678 303.468 396.778C303.285 396.881 303.179 396.922 303.125 396.936C303.081 396.947 303.141 396.923 303.241 396.96C303.344 396.997 303.366 397.053 303.33 396.999L301.68 398.129ZM305.205 398.05C305.92 397.581 306.264 396.885 306.315 396.166C306.363 395.487 306.152 394.828 305.853 394.297L304.11 395.277C304.274 395.568 304.334 395.838 304.32 396.025C304.31 396.171 304.261 396.278 304.108 396.378L305.205 398.05ZM305.853 394.297C305.106 392.969 303.669 392.864 302.654 393.233C301.674 393.59 300.653 394.529 300.637 395.855L302.637 395.879C302.64 395.644 302.865 395.284 303.338 395.112C303.55 395.035 303.73 395.032 303.849 395.064C303.946 395.089 304.034 395.141 304.11 395.277L305.853 394.297ZM300.637 395.855C300.626 396.751 300.671 397.809 300.91 398.834C301.149 399.857 301.599 400.915 302.447 401.732L303.835 400.292C303.358 399.832 303.044 399.178 302.858 398.379C302.671 397.58 302.627 396.705 302.637 395.879L300.637 395.855ZM302.447 401.732C303.067 402.329 303.881 403.003 304.817 403.413C305.774 403.832 306.926 404 308.096 403.45L307.244 401.64C306.742 401.876 306.216 401.842 305.62 401.581C305.002 401.31 304.388 400.824 303.835 400.292L302.447 401.732ZM308.096 403.45C310.523 402.307 311.317 399.817 311.648 397.769L309.674 397.45C309.362 399.378 308.713 400.949 307.244 401.64L308.096 403.45ZM311.648 397.769C312.136 394.745 312.016 391.787 311.75 388.855L309.758 389.036C310.019 391.913 310.122 394.674 309.674 397.45L311.648 397.769ZM311.75 388.855C311.709 388.409 311.632 387.514 311.574 386.84C311.546 386.503 311.522 386.223 311.51 386.083C311.507 386.048 311.505 386.022 311.504 386.007C311.504 386.003 311.503 386 311.503 385.998C311.503 385.995 311.503 385.995 311.503 385.995C311.503 385.995 311.503 385.996 311.503 385.997C311.503 385.997 311.503 385.998 311.503 386C311.503 386.001 311.504 386.005 311.504 386.011C311.504 386.014 311.505 386.022 311.505 386.027C311.505 386.038 311.506 386.078 311.505 386.108C311.305 386.672 310.01 386.939 309.529 386.284C309.522 386.251 309.515 386.208 309.514 386.197C309.512 386.184 309.511 386.173 309.511 386.173C309.511 386.17 309.511 386.168 309.511 386.167C309.51 386.166 309.51 386.165 309.51 386.165C309.51 386.164 309.51 386.167 309.511 386.176C309.512 386.184 309.513 386.195 309.514 386.209C309.517 386.238 309.52 386.28 309.525 386.336L311.518 386.165C311.508 386.056 311.503 385.994 311.502 385.979C311.502 385.978 311.501 385.973 311.501 385.968C311.5 385.967 311.499 385.956 311.498 385.943C311.496 385.932 311.489 385.889 311.483 385.857C311.002 385.202 309.707 385.469 309.506 386.032C309.506 386.062 309.506 386.103 309.507 386.113C309.507 386.118 309.507 386.127 309.508 386.13C309.508 386.135 309.508 386.14 309.508 386.141C309.509 386.145 309.509 386.148 309.509 386.15C309.509 386.155 309.51 386.163 309.511 386.171C309.512 386.188 309.514 386.215 309.517 386.25C309.529 386.391 309.553 386.673 309.582 387.01C309.639 387.683 309.717 388.584 309.758 389.036L311.75 388.855ZM309.525 386.336C309.636 387.625 309.872 388.891 310.109 390.109C310.35 391.342 310.591 392.518 310.737 393.701L312.722 393.457C312.565 392.187 312.307 390.928 312.072 389.726C311.835 388.508 311.618 387.336 311.518 386.165L309.525 386.336ZM310.737 393.701C310.855 394.661 310.908 395.615 310.994 396.649C311.078 397.661 311.192 398.715 311.435 399.758L313.383 399.305C313.174 398.408 313.07 397.471 312.987 396.484C312.907 395.52 312.846 394.468 312.722 393.457L310.737 393.701ZM311.435 399.758C311.443 399.795 311.549 400.417 311.701 400.854C311.776 401.072 311.914 401.415 312.173 401.683C312.315 401.829 312.534 401.996 312.838 402.064C313.157 402.136 313.458 402.075 313.704 401.953L312.809 400.164C312.911 400.113 313.08 400.069 313.278 400.113C313.461 400.155 313.57 400.25 313.611 400.292C313.65 400.333 313.657 400.355 313.643 400.328C313.631 400.305 313.613 400.263 313.591 400.199C313.546 400.07 313.506 399.91 313.471 399.744C313.454 399.663 313.439 399.586 313.425 399.514C313.413 399.451 313.398 399.369 313.383 399.305L311.435 399.758ZM313.704 401.953C314.487 401.561 315.082 400.813 315.508 400.184C315.929 399.562 316.345 398.796 316.577 398.416L314.872 397.371C314.534 397.922 314.253 398.469 313.852 399.063C313.455 399.649 313.101 400.018 312.809 400.164L313.704 401.953ZM316.577 398.416C317.747 396.506 318.492 394.329 318.979 392.157L317.027 391.72C316.571 393.757 315.891 395.707 314.872 397.371L316.577 398.416ZM318.979 392.157C319.288 390.776 319.496 389.384 319.639 388.048L317.651 387.834C317.513 389.116 317.316 390.43 317.027 391.72L318.979 392.157ZM319.639 388.048C319.818 386.388 319.973 384.373 319.569 382.551L317.617 382.983C317.942 384.453 317.829 386.174 317.651 387.834L319.639 388.048ZM319.569 382.551C319.528 382.364 319.462 382.161 319.357 381.97C319.257 381.787 319.087 381.551 318.808 381.387C318.492 381.203 318.115 381.159 317.754 381.28C317.433 381.387 317.197 381.598 317.032 381.791L318.551 383.092C318.586 383.051 318.537 383.127 318.388 383.177C318.198 383.24 317.976 383.218 317.798 383.114C317.656 383.03 317.604 382.933 317.602 382.929C317.595 382.916 317.605 382.932 317.617 382.983L319.569 382.551ZM317.032 381.791C315.883 383.131 315.657 384.811 315.749 386.337C315.841 387.859 316.262 389.395 316.569 390.559L318.503 390.049C318.183 388.837 317.823 387.502 317.746 386.217C317.668 384.936 317.883 383.872 318.551 383.092L317.032 381.791ZM316.569 390.559C316.718 391.122 316.878 391.679 317.047 392.231L318.959 391.646C318.797 391.115 318.644 390.583 318.503 390.049L316.569 390.559ZM317.047 392.231C317.569 393.939 318.177 395.613 318.777 397.26C319.38 398.915 319.973 400.541 320.483 402.19L322.394 401.599C321.867 399.895 321.255 398.222 320.656 396.576C320.054 394.922 319.464 393.296 318.959 391.646L317.047 392.231ZM320.483 402.19C321.221 404.577 321.907 407.213 322.713 409.658L324.612 409.032C323.797 406.558 323.186 404.16 322.394 401.599L320.483 402.19ZM322.713 409.658C322.813 409.962 322.886 410.281 322.968 410.648C323.046 411.001 323.134 411.407 323.258 411.811L325.17 411.222C325.074 410.911 325.004 410.59 324.92 410.214C324.84 409.853 324.748 409.443 324.612 409.032L322.713 409.658ZM323.258 411.811C323.276 411.868 323.313 411.974 323.388 412.088C323.458 412.197 323.627 412.409 323.938 412.506C324.283 412.615 324.583 412.516 324.761 412.41C324.919 412.316 325.014 412.202 325.056 412.148C325.143 412.035 325.193 411.923 325.212 411.878C325.239 411.818 325.259 411.759 325.275 411.712C325.334 411.535 325.384 411.321 325.404 411.234L323.454 410.788C323.433 410.88 323.402 411.006 323.377 411.081C323.372 411.096 323.372 411.095 323.377 411.083C323.38 411.076 323.387 411.06 323.399 411.038C323.41 411.018 323.434 410.976 323.473 410.925C323.505 410.883 323.591 410.778 323.74 410.69C323.909 410.59 324.2 410.493 324.536 410.598C324.839 410.693 324.999 410.898 325.062 410.995C325.129 411.097 325.159 411.187 325.17 411.222L323.258 411.811ZM325.404 411.234C325.62 410.288 325.752 409.332 325.826 408.383L323.833 408.227C323.764 409.097 323.645 409.954 323.454 410.788L325.404 411.234ZM325.826 408.383C326.116 404.681 325.328 400.992 324.103 397.611L322.223 398.292C323.388 401.509 324.093 404.902 323.833 408.227L325.826 408.383ZM324.103 397.611C323.587 396.187 322.736 394.233 321.441 393.004L320.065 394.456C320.992 395.334 321.715 396.89 322.223 398.292L324.103 397.611ZM321.441 393.004C321.326 392.895 321.197 392.825 321.165 392.807C321.104 392.773 321.039 392.74 320.979 392.711C320.859 392.653 320.719 392.591 320.595 392.537C320.46 392.477 320.36 392.434 320.272 392.396C320.253 392.387 320.237 392.38 320.224 392.374C320.218 392.371 320.213 392.369 320.21 392.367C320.206 392.366 320.204 392.365 320.205 392.365C320.205 392.365 320.206 392.365 320.207 392.366C320.209 392.367 320.211 392.368 320.215 392.37C320.22 392.373 320.236 392.381 320.257 392.394C320.263 392.397 320.337 392.441 320.416 392.515C320.439 392.536 320.579 392.664 320.664 392.884C320.713 393.012 320.765 393.227 320.701 393.484C320.634 393.755 320.47 393.943 320.315 394.054L319.147 392.431C318.992 392.542 318.828 392.73 318.76 393.002C318.697 393.258 318.748 393.475 318.798 393.603C318.883 393.823 319.024 393.952 319.048 393.974C319.13 394.051 319.208 394.097 319.219 394.104C319.266 394.132 319.309 394.153 319.325 394.161C319.368 394.182 319.418 394.205 319.462 394.224C319.547 394.262 319.683 394.32 319.792 394.368C319.912 394.421 320.024 394.471 320.109 394.512C320.153 394.533 320.178 394.546 320.189 394.553C320.229 394.575 320.153 394.539 320.065 394.456L321.441 393.004ZM320.315 394.054C320.214 394.127 320.116 394.156 320.053 394.168C319.998 394.178 319.966 394.175 319.985 394.176C319.992 394.176 320.004 394.177 320.026 394.179C320.037 394.18 320.049 394.181 320.063 394.182C320.077 394.183 320.093 394.185 320.11 394.186C320.144 394.189 320.187 394.193 320.235 394.195C320.283 394.197 320.341 394.198 320.405 394.195L320.311 392.197C320.329 392.196 320.33 392.198 320.281 392.194C320.255 392.191 320.157 392.182 320.075 392.178C319.914 392.171 319.518 392.164 319.147 392.431L320.315 394.054ZM320.405 394.195C321.02 394.166 321.469 394.139 322.148 394.018L321.797 392.049C321.246 392.147 320.898 392.169 320.311 392.197L320.405 394.195ZM322.148 394.018C323.644 393.751 325.254 393.31 326.667 392.463L325.639 390.747C324.523 391.416 323.183 391.802 321.797 392.049L322.148 394.018ZM326.667 392.463C328.438 391.401 330.359 389.608 331.115 387.466L329.229 386.801C328.686 388.339 327.192 389.817 325.639 390.747L326.667 392.463ZM285.399 420.447C285.778 421.722 286.136 423.012 286.473 424.311L288.409 423.81C288.066 422.488 287.702 421.175 287.316 419.877L285.399 420.447ZM286.473 424.311C287.083 426.664 287.621 429.045 288.079 431.412L290.042 431.032C289.576 428.624 289.029 426.203 288.409 423.81L286.473 424.311ZM288.079 431.412C288.309 432.602 288.504 433.99 288.807 435.271L290.753 434.81C290.458 433.563 290.305 432.389 290.042 431.032L288.079 431.412ZM288.807 435.271C288.898 435.656 288.921 435.767 288.92 435.759C288.919 435.753 288.917 435.737 288.915 435.715C288.914 435.707 288.906 435.64 288.912 435.554C288.913 435.529 288.92 435.39 288.989 435.229C289.024 435.145 289.109 434.974 289.296 434.829C289.518 434.657 289.8 434.587 290.073 434.632C290.304 434.671 290.459 434.779 290.529 434.834C290.606 434.895 290.658 434.955 290.686 434.989C290.74 435.056 290.773 435.115 290.785 435.136C290.812 435.186 290.828 435.226 290.832 435.235C290.838 435.251 290.843 435.263 290.845 435.268C290.848 435.278 290.85 435.284 290.849 435.281C290.844 435.265 290.832 435.225 290.811 435.153C290.743 434.918 290.582 434.343 290.479 434.081L288.618 434.813C288.676 434.962 288.799 435.396 288.891 435.711C288.91 435.777 288.93 435.846 288.945 435.894C288.95 435.907 288.956 435.925 288.963 435.946C288.967 435.956 288.973 435.972 288.981 435.991C288.986 436.004 289.003 436.047 289.031 436.099C289.044 436.121 289.077 436.18 289.132 436.248C289.159 436.282 289.211 436.342 289.289 436.403C289.359 436.459 289.514 436.567 289.745 436.605C290.019 436.651 290.301 436.581 290.523 436.409C290.71 436.263 290.795 436.092 290.831 436.008C290.899 435.847 290.906 435.707 290.908 435.681C290.913 435.593 290.906 435.524 290.904 435.513C290.902 435.487 290.899 435.466 290.897 435.454C290.882 435.36 290.83 435.137 290.753 434.81L288.807 435.271ZM290.479 434.081C290.205 433.384 289.886 432.698 289.603 432.061C289.313 431.41 289.051 430.79 288.849 430.157L286.943 430.765C287.18 431.508 287.481 432.211 287.776 432.874C288.077 433.551 288.365 434.17 288.618 434.813L290.479 434.081ZM288.849 430.157C288.239 428.244 288.167 426.247 288.433 424.188L286.449 423.933C286.157 426.197 286.222 428.502 286.943 430.765L288.849 430.157ZM288.433 424.188C288.44 424.132 288.447 424.076 288.455 424.02L286.474 423.748C286.465 423.809 286.457 423.871 286.449 423.933L288.433 424.188ZM288.455 424.02C288.602 422.955 288.753 421.813 289.138 420.918C289.325 420.485 289.542 420.175 289.783 419.974C290.008 419.788 290.296 419.659 290.719 419.648L290.669 417.649C289.806 417.67 289.082 417.956 288.504 418.437C287.943 418.904 287.566 419.515 287.302 420.127C286.786 421.323 286.609 422.766 286.474 423.748L288.455 424.02ZM290.719 419.648C290.86 419.645 291.186 419.763 291.453 420.541C291.702 421.268 291.699 422.081 291.562 422.477L293.451 423.132C293.771 422.211 293.698 420.925 293.345 419.893C293.009 418.912 292.199 417.611 290.669 417.649L290.719 419.648ZM291.562 422.477C291.548 422.516 291.467 422.662 291.22 422.87C290.991 423.064 290.684 423.254 290.349 423.402C290.012 423.552 289.685 423.641 289.42 423.667C289.289 423.68 289.19 423.675 289.12 423.664C289.051 423.652 289.027 423.637 289.029 423.638L287.961 425.329C288.489 425.662 289.103 425.707 289.612 425.658C290.138 425.607 290.675 425.445 291.159 425.231C291.645 425.016 292.118 424.73 292.51 424.399C292.886 424.082 293.27 423.654 293.451 423.132L291.562 422.477ZM300.45 417.751C299.586 417.552 298.39 417.238 297.136 417.698L297.825 419.576C298.428 419.355 299.023 419.474 300 419.7L300.45 417.751ZM297.136 417.698C295.191 418.412 293.562 420.52 293.754 422.748L295.747 422.576C295.644 421.386 296.589 420.03 297.825 419.576L297.136 417.698ZM293.754 422.748C293.856 423.93 294.431 424.804 295.34 425.262C296.183 425.686 297.17 425.681 298.036 425.485C298.916 425.286 299.795 424.865 300.499 424.295C301.193 423.733 301.809 422.951 301.98 422L300.012 421.645C299.955 421.962 299.713 422.358 299.241 422.74C298.779 423.114 298.181 423.402 297.595 423.535C296.994 423.671 296.525 423.619 296.24 423.476C296.021 423.365 295.796 423.149 295.747 422.576L293.754 422.748ZM301.98 422C302.129 421.173 302.176 420.037 301.799 419.074L299.937 419.803C300.121 420.274 300.131 420.987 300.012 421.645L301.98 422ZM301.799 419.074C301.787 419.044 301.778 419.021 301.772 419.007C301.767 418.996 301.769 419.001 301.77 419.003C301.77 419.003 301.777 419.018 301.784 419.038C301.787 419.047 301.797 419.074 301.807 419.111C301.812 419.128 301.822 419.166 301.83 419.214C301.833 419.237 301.859 419.377 301.827 419.552C301.811 419.642 301.764 419.842 301.598 420.033C301.399 420.262 301.118 420.377 300.844 420.377C300.617 420.377 300.451 420.301 300.38 420.263C300.298 420.221 300.24 420.176 300.209 420.15C300.147 420.1 300.106 420.053 300.091 420.036C300.072 420.014 300.057 419.995 300.049 419.985C300.033 419.964 300.021 419.947 300.017 419.941C300.012 419.933 300.008 419.927 300.006 419.924C300.005 419.923 299.996 419.908 300.007 419.925C300.016 419.94 300.033 419.967 300.056 419.998C300.128 420.098 300.338 420.37 300.714 420.51L301.41 418.635C301.596 418.704 301.675 418.824 301.68 418.831C301.686 418.84 301.691 418.847 301.692 418.849C301.699 418.858 301.686 418.839 301.683 418.834C301.681 418.83 301.676 418.824 301.671 418.815C301.666 418.809 301.654 418.791 301.638 418.77C301.63 418.759 301.615 418.741 301.595 418.718C301.581 418.701 301.539 418.654 301.477 418.604C301.446 418.578 301.388 418.533 301.306 418.491C301.235 418.453 301.069 418.377 300.842 418.377C300.568 418.377 300.287 418.492 300.088 418.721C299.922 418.912 299.874 419.112 299.858 419.202C299.827 419.377 299.853 419.518 299.856 419.54C299.864 419.589 299.874 419.626 299.879 419.644C299.889 419.681 299.9 419.709 299.903 419.718C299.91 419.739 299.917 419.756 299.919 419.759C299.921 419.764 299.923 419.769 299.924 419.771C299.925 419.775 299.925 419.775 299.926 419.777C299.928 419.783 299.932 419.791 299.937 419.803L301.799 419.074ZM300.714 420.51C301.322 420.736 301.966 420.624 302.358 420.505L301.779 418.591C301.689 418.618 301.595 418.635 301.515 418.639C301.43 418.644 301.4 418.632 301.41 418.635L300.714 420.51ZM302.358 420.505C302.881 420.347 303.428 420.129 303.947 419.692L302.659 418.162C302.435 418.35 302.179 418.47 301.779 418.591L302.358 420.505ZM303.947 419.692C304.089 419.572 304.238 419.401 304.335 419.288C304.459 419.145 304.565 419.018 304.685 418.884C304.803 418.751 304.897 418.656 304.965 418.598C304.998 418.57 305.006 418.567 304.992 418.575C304.985 418.579 304.901 418.63 304.758 418.646L304.527 416.66C304.109 416.708 303.795 416.967 303.668 417.075C303.494 417.223 303.329 417.4 303.194 417.551C303.06 417.701 302.918 417.869 302.822 417.981C302.699 418.122 302.657 418.164 302.659 418.162L303.947 419.692ZM304.758 418.646C304.457 418.681 304.225 418.572 304.098 418.486C303.978 418.405 303.907 418.317 303.877 418.277C303.842 418.231 303.821 418.193 303.812 418.176C303.801 418.156 303.796 418.143 303.794 418.139C303.793 418.138 303.809 418.178 303.839 418.286L305.768 417.758C305.732 417.628 305.688 417.481 305.633 417.353C305.609 417.296 305.559 417.185 305.474 417.073C305.432 417.018 305.35 416.918 305.218 416.829C305.081 416.736 304.838 416.623 304.527 416.66L304.758 418.646ZM303.839 418.286C304.036 419.006 304.353 420.855 304.635 422.65C304.915 424.432 305.14 426.035 305.159 426.229L307.149 426.031C307.123 425.769 306.888 424.105 306.611 422.34C306.336 420.588 306.001 418.611 305.768 417.758L303.839 418.286ZM305.159 426.229C305.165 426.291 305.169 426.34 305.172 426.377C305.173 426.395 305.174 426.409 305.174 426.419C305.174 426.429 305.174 426.433 305.174 426.432C305.174 426.431 305.174 426.429 305.174 426.424C305.175 426.42 305.175 426.412 305.176 426.402C305.177 426.387 305.18 426.34 305.195 426.278C305.201 426.251 305.242 426.052 305.407 425.861C305.506 425.747 305.678 425.603 305.934 425.544C306.195 425.483 306.423 425.539 306.577 425.61C306.829 425.727 306.952 425.916 306.968 425.938C307.007 425.995 307.03 426.042 307.037 426.056C307.052 426.09 307.057 426.106 307.05 426.086C307.039 426.054 307.019 425.986 306.99 425.873C306.874 425.428 306.693 424.583 306.505 423.576C306.318 422.575 306.128 421.44 305.992 420.421C305.852 419.377 305.78 418.531 305.802 418.07L303.804 417.974C303.773 418.638 303.871 419.648 304.009 420.686C304.151 421.748 304.347 422.919 304.539 423.944C304.73 424.963 304.92 425.863 305.054 426.377C305.087 426.504 305.121 426.627 305.156 426.728C305.172 426.775 305.196 426.843 305.229 426.913C305.245 426.947 305.276 427.008 305.323 427.076C305.346 427.109 305.476 427.304 305.734 427.424C305.891 427.497 306.122 427.553 306.386 427.492C306.644 427.432 306.819 427.286 306.92 427.17C307.09 426.973 307.135 426.765 307.144 426.724C307.174 426.594 307.174 426.475 307.174 426.434C307.174 426.318 307.164 426.177 307.149 426.031L305.159 426.229ZM305.802 418.07C305.799 418.139 305.763 418.491 305.406 418.72C305.253 418.818 305.109 418.845 305.023 418.853C304.941 418.86 304.885 418.851 304.875 418.849C304.861 418.847 304.886 418.85 304.995 418.887C305.11 418.926 305.199 418.959 305.379 419.021C306.03 419.246 307.06 419.557 308.465 419.522L308.415 417.523C307.348 417.549 306.573 417.318 306.031 417.131C305.913 417.09 305.741 417.028 305.633 416.992C305.52 416.954 305.359 416.902 305.196 416.875C305.07 416.855 304.692 416.802 304.326 417.037C303.892 417.315 303.815 417.759 303.804 417.974L305.802 418.07ZM308.465 419.522C309.868 419.487 310.907 418.874 311.618 417.966C312.297 417.099 312.649 416.006 312.839 414.998C313.032 413.977 313.076 412.951 313.078 412.149C313.078 411.746 313.069 411.393 313.061 411.122C313.057 410.985 313.053 410.876 313.052 410.788C313.051 410.744 313.051 410.711 313.051 410.686C313.051 410.658 313.052 410.651 313.051 410.655L311.056 410.519C311.045 410.681 311.055 410.949 311.062 411.181C311.069 411.448 311.078 411.775 311.078 412.145C311.076 412.889 311.035 413.777 310.874 414.627C310.711 415.489 310.442 416.225 310.044 416.732C309.679 417.198 309.186 417.504 308.415 417.523L308.465 419.522ZM313.051 410.655C313.062 410.492 313.073 410.403 313.079 410.362C313.083 410.34 313.081 410.357 313.07 410.395C313.064 410.414 313.05 410.46 313.022 410.518C313 410.563 312.934 410.694 312.793 410.819C312.625 410.967 312.317 411.125 311.935 411.044C311.617 410.977 311.439 410.78 311.38 410.708C311.309 410.622 311.271 410.545 311.257 410.514C311.239 410.477 311.229 410.448 311.225 410.435C311.213 410.4 311.216 410.4 311.229 410.472C311.279 410.762 311.315 411.192 311.349 411.462L313.333 411.208C313.319 411.096 313.257 410.463 313.2 410.13C313.185 410.047 313.161 409.919 313.121 409.8C313.11 409.768 313.057 409.599 312.924 409.438C312.858 409.357 312.673 409.156 312.349 409.087C311.959 409.005 311.644 409.165 311.47 409.319C311.322 409.45 311.248 409.591 311.22 409.65C311.185 409.722 311.164 409.787 311.152 409.828C311.127 409.912 311.112 409.993 311.103 410.054C311.083 410.18 311.068 410.337 311.056 410.519L313.051 410.655ZM311.349 411.462C311.679 414.036 311.642 415.207 311.668 416.448C311.694 417.748 311.791 419.045 312.39 421.75L314.343 421.317C313.769 418.73 313.691 417.564 313.667 416.407C313.642 415.19 313.679 413.907 313.333 411.208L311.349 411.462ZM312.39 421.75C312.612 422.751 312.991 423.761 313.57 424.47C313.865 424.832 314.253 425.166 314.748 425.338C315.267 425.519 315.816 425.491 316.34 425.266L315.551 423.428C315.455 423.469 315.422 423.455 315.406 423.449C315.365 423.435 315.263 423.382 315.12 423.206C314.823 422.842 314.534 422.178 314.343 421.317L312.39 421.75ZM316.635 425.071C317.601 424.152 318.156 423.244 318.485 422.321C318.803 421.427 318.894 420.549 318.983 419.79L316.996 419.558C316.902 420.365 316.829 421.008 316.6 421.65C316.382 422.264 316.006 422.909 315.257 423.622L316.635 425.071ZM318.983 419.79C319.003 419.613 319.024 419.502 319.039 419.44C319.059 419.355 319.056 419.42 318.984 419.525C318.942 419.585 318.847 419.704 318.675 419.794C318.481 419.895 318.259 419.922 318.052 419.876C317.869 419.835 317.748 419.75 317.693 419.705C317.636 419.658 317.604 419.618 317.596 419.607C317.581 419.588 317.59 419.597 317.623 419.661C317.653 419.719 317.688 419.795 317.73 419.892C317.772 419.989 317.816 420.094 317.864 420.21C317.911 420.322 317.962 420.445 318.014 420.564L319.846 419.762C319.803 419.663 319.758 419.557 319.711 419.442C319.665 419.331 319.615 419.21 319.565 419.096C319.481 418.901 319.347 418.602 319.176 418.382C319.113 418.3 318.887 418.012 318.484 417.923C318.239 417.869 317.98 417.9 317.751 418.02C317.543 418.128 317.413 418.28 317.338 418.388C317.198 418.591 317.133 418.815 317.096 418.966C317.054 419.138 317.022 419.338 316.996 419.558L318.983 419.79ZM318.014 420.564C318.21 421.012 318.305 421.249 318.439 421.68L320.349 421.088C320.186 420.561 320.06 420.25 319.846 419.762L318.014 420.564ZM318.439 421.68C318.435 421.668 318.445 421.701 318.463 421.826C318.476 421.91 318.498 422.077 318.516 422.19C318.527 422.253 318.54 422.329 318.558 422.405C318.572 422.464 318.605 422.592 318.672 422.724C318.704 422.788 318.778 422.921 318.918 423.046C319.076 423.187 319.361 423.345 319.73 423.298C320.06 423.255 320.266 423.07 320.354 422.977C320.448 422.876 320.506 422.776 320.536 422.718L318.764 421.791C318.777 421.766 318.818 421.691 318.896 421.607C318.969 421.53 319.159 421.355 319.474 421.314C319.83 421.268 320.101 421.422 320.246 421.551C320.373 421.664 320.435 421.78 320.455 421.82C320.499 421.905 320.51 421.965 320.504 421.941C320.502 421.933 320.497 421.91 320.49 421.866C320.473 421.765 320.463 421.681 320.441 421.533C320.426 421.426 320.398 421.244 320.349 421.088L318.439 421.68ZM320.536 422.718C320.667 422.467 320.672 422.22 320.672 422.125C320.672 421.997 320.658 421.874 320.642 421.773C320.61 421.57 320.556 421.35 320.505 421.164C320.452 420.972 320.396 420.788 320.352 420.65C320.296 420.474 320.283 420.436 320.284 420.441L318.348 420.943C318.361 420.991 318.382 421.057 318.392 421.087C318.407 421.135 318.424 421.188 318.445 421.253C318.486 421.382 318.534 421.537 318.576 421.693C318.62 421.853 318.651 421.988 318.666 422.082C318.673 422.13 318.672 422.14 318.672 422.124C318.672 422.115 318.673 422.083 318.68 422.036C318.687 421.993 318.707 421.9 318.764 421.791L320.536 422.718ZM320.284 420.441C320.073 419.626 319.863 418.891 319.697 418.126L317.743 418.548C317.919 419.366 318.153 420.19 318.348 420.943L320.284 420.441ZM319.697 418.126C319.66 417.953 319.695 417.953 319.665 418.035C319.649 418.078 319.623 418.12 319.592 418.154C319.563 418.185 319.542 418.197 319.545 418.195C319.567 418.182 319.637 418.152 319.823 418.105C319.911 418.083 320.004 418.062 320.119 418.036C320.229 418.011 320.354 417.982 320.484 417.948L319.979 416.013C319.883 416.038 319.784 416.061 319.675 416.086C319.571 416.109 319.451 416.136 319.336 416.165C319.117 416.22 318.82 416.304 318.547 416.462C318.247 416.634 317.948 416.911 317.789 417.339C317.64 417.743 317.659 418.162 317.743 418.548L319.697 418.126ZM320.484 417.948C321.07 417.795 321.588 417.515 322.024 417.243C322.244 417.106 322.456 416.962 322.65 416.83C322.849 416.694 323.026 416.573 323.201 416.461L322.125 414.775C321.919 414.907 321.713 415.048 321.524 415.177C321.329 415.309 321.147 415.433 320.965 415.546C320.597 415.776 320.279 415.935 319.979 416.013L320.484 417.948ZM322.663 415.618C323.184 416.472 323.184 416.472 323.184 416.472C323.184 416.472 323.184 416.472 323.184 416.472C323.184 416.472 323.184 416.472 323.184 416.472C323.184 416.472 323.184 416.472 323.184 416.472C323.184 416.472 323.184 416.472 323.184 416.472C323.184 416.472 323.184 416.472 323.184 416.472C323.184 416.472 323.184 416.472 323.184 416.472C323.184 416.472 323.184 416.472 323.184 416.472C323.183 416.472 323.184 416.472 323.184 416.472C323.184 416.472 323.184 416.472 323.184 416.472L322.161 414.753C322.156 414.756 322.151 414.759 322.148 414.761C322.146 414.762 322.144 414.763 322.143 414.764C322.143 414.764 322.142 414.764 322.142 414.765C322.142 414.765 322.142 414.765 322.141 414.765C322.141 414.765 322.141 414.765 322.141 414.765C322.141 414.765 322.141 414.765 322.141 414.765C322.141 414.765 322.141 414.765 322.141 414.765C322.141 414.765 322.141 414.765 322.141 414.765C322.141 414.765 322.141 414.765 322.141 414.765C322.141 414.765 322.141 414.765 322.663 415.618ZM323.184 416.472C323.226 416.447 323.467 416.305 323.675 416.171C323.77 416.109 323.901 416.022 324.004 415.937C324.032 415.913 324.073 415.879 324.115 415.835C324.143 415.806 324.237 415.71 324.31 415.562C324.363 415.457 324.606 414.882 324.126 414.397C323.944 414.213 323.741 414.148 323.634 414.123C323.52 414.097 323.425 414.096 323.371 414.097L323.421 416.097C323.377 416.098 323.291 416.097 323.184 416.072C323.083 416.049 322.885 415.986 322.706 415.805C322.232 415.327 322.475 414.761 322.521 414.668C322.589 414.534 322.67 414.452 322.682 414.441C322.707 414.415 322.725 414.399 322.727 414.398C322.732 414.394 322.723 414.401 322.693 414.422C322.666 414.441 322.631 414.464 322.59 414.491C322.421 414.6 322.219 414.719 322.161 414.753L323.184 416.472ZM323.371 414.097C322.514 414.118 322.028 414.688 321.787 415.147L323.558 416.077C323.574 416.047 323.585 416.03 323.59 416.024C323.595 416.019 323.59 416.026 323.573 416.039C323.555 416.053 323.528 416.069 323.495 416.081C323.462 416.093 323.435 416.096 323.421 416.097L323.371 414.097ZM321.787 415.147C321.637 415.433 321.545 415.735 321.481 415.969C321.395 416.286 321.389 416.352 321.333 416.547L323.254 417.103C323.296 416.957 323.382 416.602 323.412 416.492C323.464 416.298 323.511 416.166 323.558 416.077L321.787 415.147ZM321.333 416.547C320.9 418.04 320.862 419.641 321.011 421.1L323.001 420.897C322.869 419.6 322.915 418.274 323.254 417.103L321.333 416.547ZM321.011 421.1C321.036 421.346 321.145 421.911 321.707 422.184C322.246 422.446 322.74 422.209 322.92 422.109C323.343 421.873 323.749 421.421 324.065 421.015C324.727 420.164 325.471 418.884 325.716 417.902L323.775 417.418C323.625 418.021 323.064 419.046 322.487 419.786C322.35 419.962 322.225 420.105 322.118 420.211C322.066 420.264 322.022 420.303 321.989 420.33C321.954 420.358 321.94 420.366 321.945 420.363C321.947 420.362 322.001 420.331 322.097 420.314C322.201 420.295 322.383 420.289 322.582 420.385C322.784 420.484 322.897 420.637 322.95 420.744C322.975 420.794 322.987 420.835 322.993 420.859C322.999 420.883 323.001 420.897 323.001 420.897L321.011 421.1ZM325.716 417.902C325.763 417.712 325.8 417.504 325.805 417.293L323.806 417.243C323.805 417.264 323.8 417.32 323.775 417.418L325.716 417.902ZM325.805 417.293C325.823 416.593 325.482 415.871 325.288 415.502C325.177 415.29 325.073 415.119 325.01 415.022C324.994 414.997 324.979 414.974 324.964 414.953C324.958 414.944 324.946 414.927 324.931 414.907C324.927 414.902 324.904 414.872 324.872 414.837C324.872 414.835 324.805 414.759 324.703 414.687C324.669 414.665 324.584 414.617 324.531 414.592C324.447 414.56 324.217 414.512 324.072 414.51C323.862 414.546 323.474 414.756 323.319 414.927C323.23 415.076 323.145 415.344 323.133 415.453C323.123 415.634 323.167 415.772 323.173 415.793C323.187 415.84 323.202 415.877 323.209 415.894C323.224 415.931 323.239 415.959 323.244 415.969C323.257 415.994 323.268 416.013 323.272 416.02C323.282 416.037 323.292 416.053 323.298 416.062C323.312 416.084 323.328 416.11 323.347 416.137L325.009 415.024C324.995 415.004 324.989 414.994 324.988 414.992C324.986 414.99 324.99 414.997 324.997 415.008C324.999 415.012 325.009 415.028 325.021 415.051C325.026 415.061 325.04 415.088 325.055 415.124C325.062 415.141 325.077 415.178 325.091 415.225C325.097 415.245 325.14 415.383 325.13 415.564C325.118 415.673 325.033 415.942 324.945 416.09C324.79 416.262 324.402 416.472 324.192 416.507C324.047 416.505 323.817 416.458 323.732 416.425C323.68 416.401 323.595 416.352 323.562 416.33C323.459 416.259 323.393 416.182 323.393 416.182C323.361 416.148 323.34 416.119 323.338 416.116C323.331 416.107 323.326 416.101 323.324 416.098C323.322 416.094 323.32 416.092 323.32 416.091C323.319 416.09 323.322 416.094 323.331 416.108C323.364 416.16 323.437 416.278 323.517 416.431C323.707 416.793 323.809 417.107 323.806 417.243L325.805 417.293ZM323.347 416.137C323.291 416.054 323.293 416.018 323.338 416.161C323.37 416.265 323.409 416.409 323.455 416.593C323.533 416.904 323.667 417.476 323.777 417.907L325.715 417.413C325.587 416.912 325.506 416.549 325.395 416.106C325.347 415.913 325.297 415.724 325.247 415.565C325.209 415.443 325.135 415.213 325.009 415.024L323.347 416.137ZM323.777 417.907C323.91 418.432 324.073 419.012 324.265 419.473C324.359 419.698 324.485 419.955 324.655 420.172C324.801 420.357 325.159 420.74 325.74 420.726L325.69 418.727C325.884 418.722 326.032 418.788 326.117 418.842C326.158 418.868 326.185 418.893 326.201 418.908C326.218 418.924 326.226 418.934 326.227 418.936C326.229 418.938 326.216 418.922 326.192 418.878C326.169 418.835 326.142 418.777 326.111 418.702C325.979 418.388 325.847 417.931 325.715 417.413L323.777 417.907ZM325.74 420.726C326.47 420.708 327.035 420.317 327.429 419.911C327.825 419.502 328.141 418.987 328.389 418.499C328.885 417.524 329.227 416.417 329.39 415.935L327.496 415.293C327.308 415.848 327.02 416.78 326.606 417.592C326.4 417.998 326.191 418.314 325.994 418.518C325.794 418.724 325.695 418.727 325.69 418.727L325.74 420.726ZM329.39 415.935C329.627 415.235 329.8 414.477 329.904 413.759L327.925 413.471C327.836 414.085 327.689 414.723 327.496 415.293L329.39 415.935ZM329.904 413.759C329.913 413.698 329.918 413.612 329.92 413.588C329.923 413.537 329.927 413.48 329.932 413.414C329.943 413.281 329.956 413.142 329.972 413.035C329.976 413.009 329.979 412.989 329.983 412.973C329.986 412.957 329.988 412.95 329.988 412.95C329.987 412.95 329.986 412.955 329.984 412.962C329.982 412.969 329.977 412.981 329.971 412.997C329.961 413.021 329.928 413.099 329.855 413.19C329.789 413.273 329.607 413.469 329.285 413.528C328.928 413.593 328.654 413.447 328.515 413.337C328.392 413.238 328.332 413.137 328.316 413.111C328.295 413.075 328.288 413.055 328.291 413.064L330.152 412.329C330.125 412.261 330.089 412.18 330.04 412.098C329.998 412.025 329.912 411.892 329.764 411.774C329.601 411.644 329.303 411.491 328.925 411.56C328.581 411.623 328.378 411.834 328.292 411.942C328.134 412.14 328.075 412.36 328.057 412.427C328.028 412.534 328.009 412.642 327.995 412.733C327.967 412.918 327.949 413.117 327.938 413.262C327.923 413.465 327.922 413.487 327.925 413.471L329.904 413.759ZM328.291 413.064C328.713 414.131 328.989 415.26 329.297 416.474C329.599 417.664 329.929 418.931 330.458 420.143L332.291 419.343C331.836 418.301 331.54 417.183 331.236 415.983C330.938 414.808 330.63 413.54 330.152 412.329L328.291 413.064ZM330.458 420.143C330.494 420.226 330.483 420.214 330.572 420.428C330.629 420.564 330.717 420.762 330.831 420.944C330.889 421.035 330.971 421.152 331.081 421.262C331.185 421.365 331.374 421.522 331.65 421.594C331.968 421.677 332.292 421.618 332.557 421.451C332.787 421.306 332.928 421.109 333.012 420.964L331.283 419.958C331.284 419.957 331.342 419.853 331.49 419.759C331.672 419.644 331.915 419.596 332.154 419.658C332.351 419.71 332.462 419.814 332.491 419.843C332.526 419.878 332.536 419.898 332.525 419.88C332.501 419.843 332.465 419.769 332.418 419.658C332.397 419.607 332.377 419.556 332.357 419.504C332.339 419.46 332.314 419.396 332.291 419.343L330.458 420.143ZM333.012 420.964C333.781 419.641 333.922 417.952 334.046 416.787L332.058 416.575C331.919 417.878 331.793 419.082 331.283 419.958L333.012 420.964ZM334.046 416.787C334.401 413.458 334.333 413.866 334.464 410.575L332.465 410.495C332.334 413.784 332.405 413.318 332.058 416.575L334.046 416.787ZM334.464 410.575C334.464 410.557 334.464 410.534 334.464 410.528C334.464 410.525 334.464 410.521 334.464 410.519C334.464 410.515 334.464 410.512 334.464 410.51C334.464 410.506 334.464 410.502 334.464 410.498C334.464 410.489 334.463 410.477 334.463 410.463C334.462 410.433 334.461 410.39 334.459 410.335C334.456 410.225 334.452 410.066 334.447 409.87C334.437 409.478 334.423 408.934 334.409 408.327C334.381 407.109 334.353 405.642 334.352 404.615C334.352 404.089 334.359 403.717 334.372 403.548C334.375 403.503 334.376 403.51 334.37 403.542C334.369 403.547 334.355 403.626 334.311 403.725C334.291 403.77 334.233 403.892 334.112 404.014C333.978 404.15 333.69 404.349 333.287 404.301C332.932 404.258 332.726 404.046 332.656 403.965C332.575 403.871 332.531 403.784 332.514 403.748C332.479 403.673 332.464 403.614 332.463 403.61C332.458 403.59 332.461 403.597 332.469 403.654C332.542 404.128 332.674 405.733 332.893 409.242L334.889 409.118C334.673 405.653 334.536 403.937 334.447 403.353C334.435 403.277 334.42 403.187 334.398 403.103C334.388 403.067 334.366 402.985 334.322 402.893C334.301 402.849 334.254 402.756 334.169 402.658C334.095 402.572 333.886 402.359 333.528 402.315C333.121 402.266 332.83 402.467 332.693 402.606C332.568 402.731 332.507 402.859 332.484 402.91C332.434 403.023 332.414 403.123 332.408 403.156C332.39 403.244 332.382 403.333 332.378 403.395C332.358 403.655 332.352 404.104 332.352 404.617C332.353 405.668 332.382 407.154 332.41 408.372C332.424 408.983 332.437 409.529 332.448 409.923C332.453 410.12 332.457 410.279 332.46 410.389C332.462 410.444 332.463 410.487 332.464 410.516C332.465 410.585 332.463 410.539 332.465 410.495L334.464 410.575ZM332.896 409.281C332.992 410.223 333.035 410.54 333.109 410.863C333.174 411.148 333.242 411.355 333.414 412.268L335.379 411.897C335.198 410.935 335.11 410.641 335.059 410.417C335.016 410.232 334.983 410.035 334.886 409.079L332.896 409.281ZM333.414 412.268C333.717 413.875 334.095 415.458 334.509 417.024L336.443 416.513C336.036 414.977 335.671 413.443 335.379 411.897L333.414 412.268ZM334.509 417.024C334.595 417.351 334.709 417.834 334.864 418.283C335.021 418.736 335.254 419.264 335.644 419.702L337.138 418.373C337.004 418.221 336.876 417.98 336.754 417.629C336.631 417.273 336.549 416.917 336.443 416.513L334.509 417.024ZM335.644 419.702C336.037 420.144 336.551 420.045 336.701 420.002C336.869 419.952 336.992 419.871 337.04 419.837C337.156 419.757 337.262 419.658 337.338 419.583C337.503 419.42 337.706 419.192 337.922 418.937C338.361 418.421 338.925 417.713 339.494 416.984C340.632 415.524 341.825 413.931 342.122 413.54L340.53 412.33C340.221 412.737 339.045 414.307 337.917 415.754C337.352 416.478 336.809 417.159 336.398 417.642C336.19 417.887 336.033 418.06 335.932 418.16C335.875 418.216 335.871 418.214 335.904 418.191C335.912 418.186 336 418.123 336.141 418.081C336.263 418.046 336.758 417.945 337.138 418.373L335.644 419.702ZM329.557 408.113C333.839 407.832 337.952 406.481 341.869 405.438L341.355 403.505C337.281 404.59 333.453 405.853 329.426 406.117L329.557 408.113ZM328.704 408.973L328.72 409.598L330.719 409.549L330.704 408.924L328.704 408.973ZM308.11 415.313C311.974 415.217 316.04 415.196 319.983 414.378L319.577 412.42C315.851 413.193 311.996 413.216 308.061 413.313L308.11 415.313Z" fill="#976393"/>
</svg>
