<svg width="225" height="94" viewBox="0 0 225 94" fill="none" xmlns="http://www.w3.org/2000/svg">
<path d="M39.1764 25.3154C38.8629 22.8858 38.7091 22.3632 35.7338 22.7471C33.2543 23.067 32.6085 23.4271 31.0948 25.8665C30.1412 27.4033 29.3855 28.6539 29.9276 30.2589C30.6647 32.4415 31.6398 32.6836 33.7078 32.6535C36.2871 32.616 38.6251 28.9582 39.1007 25.9836M39.1764 25.3154C39.1626 25.5329 39.1371 25.7562 39.1007 25.9836M39.1764 25.3154C39.1447 25.0698 39.1126 25.4838 39.1007 25.9836M39.1007 25.9836C39.0912 26.3861 39.0948 26.8443 39.1223 27.058L39.6357 31.0363C40.4848 32.217 40.4848 32.217 42.0364 32.521M62.392 20.0296C62.0392 18.6211 59.177 18.4709 58.0853 18.9581C57.2457 19.3328 57.0296 20.7104 57.3118 21.4909C57.6066 22.3059 59.2854 22.8774 60.0024 23.1272C61.8803 23.7817 66.2851 24.4328 64.5437 27.5776C62.5507 31.1769 58.2344 31.0532 54.9841 29.6324M67.7578 19.0863L68.5629 25.3259M68.5629 25.3259L68.8775 27.7647C69.204 30.2946 68.5932 25.8797 68.5629 25.3259ZM68.5629 25.3259C68.5627 25.3236 68.5626 25.3214 68.5625 25.3193C68.4202 22.4158 69.3273 19.1633 72.9305 17.9943C75.6293 17.1187 77.0975 21.0054 77.2743 22.6612C77.3649 23.5097 77.6846 26.4092 77.7928 27.2477M81.5214 21.121C83.5457 21.0506 85.6022 23.092 87.2779 21.4547C87.9888 20.76 88.0673 19.0007 87.2425 18.3231C85.8423 17.3213 85.0779 17.305 83.4667 17.6342C81.33 18.0707 80.7275 23.7402 82.0153 24.9494C83.0711 25.9406 84.4581 26.4217 85.699 26.3626C88.5399 26.2273 89.8518 24.2587 90.4776 23.3939M99.8646 18.6469C97.7071 28.3312 93.4043 22.3328 93.3404 21.8369C92.3967 18.4297 96.5402 15.3743 98.4988 15.7542C100.267 16.91 99.7779 17.9814 99.8637 18.6464C99.8632 18.6414 99.8635 18.6417 99.8646 18.6469ZM99.8646 18.6469C99.8647 18.6467 99.8646 18.6472 99.8646 18.6469ZM99.8646 18.6469C99.8954 18.7875 100.535 22.4756 102.154 23.7245M101.368 6.21189C101.62 8.1645 102.224 9.94641 102.805 11.8222C103.676 14.6357 104.171 17.547 105.024 20.3688C105.284 21.2316 105.75 23.8711 105.762 22.9699C105.78 21.6789 105.237 17.6321 105.662 16.313M105.662 16.313C105.67 16.2883 105.679 16.2645 105.687 16.2416M105.662 16.313C105.648 16.2784 105.656 16.2542 105.687 16.2416M105.662 16.313C105.903 16.901 112.428 20.5077 114.973 21.7815M105.687 16.2416C106.734 13.4889 107.162 13.9086 109.143 11.7627M127.511 13.458C128.571 14.4416 128.863 16.9797 129.249 18.2855C130.277 21.7578 131.029 25.4095 132.37 28.7769C133.578 31.8128 130.653 22.4527 130.206 19.2158C129.928 17.2032 127.614 14.2608 131.617 11.5335C134.21 10.889 135.697 10.6971 137.184 12.5218C138.67 14.3465 136.406 17.0521 135.601 17.7675C134.337 18.8911 130.832 18.4509 129.854 16.9966M142.379 12.7627C143.707 13.7951 144.95 14.3656 146.647 14.4238C147.65 14.4582 149.545 14.4512 150.287 13.6159C151.4 12.3633 149.253 9.81522 148.036 9.57391C144.402 8.85329 140.62 11.71 140.885 15.4925C141.015 17.3462 143.332 20.1511 149.661 17.6414M161.828 10.61C161.362 8.57445 160.738 7.64666 158.982 7.8526C156.544 8.16709 155.366 9.62594 154.18 11.5178C152.787 13.7395 154.787 17.5959 157.594 17.5154C159.781 17.4527 161.662 12.4257 161.833 10.6542C162.708 12.4337 164.635 16.2353 165.728 17.8606M163.37 2.24487C164.422 5.72566 166.1 9.124 167.365 12.5459C167.783 13.6757 168.155 14.8362 168.477 15.9977C168.703 16.8143 168.826 14.3391 169.008 13.5116C169.042 13.3602 169.076 13.2106 169.111 13.063M169.111 13.063C169.354 12.0281 169.638 11.0858 170.041 10.2293M169.111 13.063C168.482 12.811 168.081 12.5727 168.056 12.3793C168.018 12.0783 169.476 10.9831 169.672 10.7296C169.799 10.5654 169.921 10.3982 170.041 10.2293M169.111 13.063C171.365 13.967 176.549 15.049 177.832 14.8835M170.041 10.2293C170.604 9.03268 171.4 8.00336 172.647 7.12252C172.931 6.92194 171.803 7.85119 171.756 7.90383C171.108 8.6225 170.6 9.44374 170.041 10.2293ZM20.0008 49.9593C19.7459 49.2542 20.3349 47.0688 17.1375 47.3039C12.4613 50.4995 14.4399 55.7147 15.3805 60.1758C15.51 60.7897 15.6228 61.4093 15.7237 62.0326M15.7237 62.0326C16.1105 64.4223 16.3212 66.8667 16.6137 69.2526C16.8995 71.5838 17.0528 74.0503 16.4131 76.3448C16.171 77.213 16.056 77.5635 15.1868 77.6498C13.6986 77.7975 13.5817 76.0191 13.4412 74.9307C12.8874 70.6385 14.6061 66.2904 15.7237 62.0326ZM15.7237 62.0326C15.9562 61.1469 16.1626 60.2651 16.3172 59.3886C16.6967 57.2368 21.7371 57.843 22.6249 58.5747M35.0115 52.6386C35.0794 53.7362 34.6767 61.2238 37.2743 60.3272C38.6841 59.8407 39.4597 57.325 39.3483 55.9841C39.3274 55.7323 39.6496 54.6521 39.9546 55.0381C40.291 55.4638 42.3854 62.0918 43.396 60.4516C45.0252 57.8074 44.8702 53.7611 45.3667 50.7446M48.0197 45.3608L49.5439 57.1738C49.6274 57.821 49.9233 58.4761 50.133 59.0968C50.5932 60.4596 50.2836 56.8522 50.2766 56.3665C50.2578 55.0777 50.3854 53.7918 50.7609 52.5538C50.8792 52.1638 51.8064 50.3009 52.3024 50.4489C53.4029 50.7772 54.0204 53.4031 54.1802 54.3131C54.4935 56.0987 54.835 57.7403 55.4187 59.4686M61.8933 49.1215C63.2602 47.1163 59.4101 47.5155 58.5409 48.8413C57.3182 50.7062 56.528 53.8766 58.5212 55.4143C60.2559 56.7524 62.2576 54.8016 62.8319 53.1534C63.0553 52.5125 63.2401 51.7368 63.243 51.0549C63.2506 49.268 63.5207 51.7539 63.6447 52.3667C63.898 53.6187 64.249 58.0517 65.876 58.3704M70.6826 39.4117C70.9823 41.7339 70.9688 44.1474 70.9651 46.5639M70.9651 46.5639C70.9604 49.6698 70.9718 52.7805 71.6852 55.7085C71.9436 56.769 75.9426 57.6137 76.2054 56.272M70.9651 46.5639C69.989 46.6235 68.9986 46.6482 68.0009 46.7311M70.9651 46.5639C72.6742 46.4596 74.3393 46.2483 75.9222 45.4301M90.3041 38.9216C92.5537 43.9621 92.9704 49.5524 94.3133 54.8615M97.1369 39.9925C98.4044 41.168 98.6577 43.1308 98.8684 44.764L98.8717 44.7896M103.226 52.5958C104.952 52.1753 101.576 45.5564 103.586 45.2971C105.159 45.094 105.918 46.6634 106.775 47.6749C107.377 48.3865 107.721 50.0481 108.008 48.5851C108.195 47.629 108.4 41.7916 110.863 43.6917C112.894 45.2587 113.385 48.6886 114.439 50.87M131.478 39.8761C131.097 39.1568 128.136 37.3289 126.001 40.9183C124.836 43.2138 125.591 51.1114 128.651 50.8249C132.003 50.5111 136.316 48.2702 135.881 44.7225C135.8 44.0628 135.383 40.8017 135.843 41.2867C136.737 42.23 136.953 44.4537 137.444 45.5944C141.562 52.6714 144.654 45.2219 144.816 43.6172C144.876 43.027 145.124 41.5458 145.055 40.9628C145.054 40.9534 145.053 40.9439 145.052 40.9343M145.052 40.9343C144.957 40.1856 144.531 39.0136 144.839 40.1594C144.905 40.4057 144.976 40.6651 145.052 40.9343ZM145.052 40.9343C145.624 42.9729 146.459 45.5662 147.543 47.174M150.2 39.3418C151.111 39.5555 151.34 43.81 151.594 44.7407C151.738 45.2664 152.01 46.8792 151.94 46.3387C151.783 45.1195 151.61 43.9014 151.468 42.6805C151.109 39.5934 153.257 37.8317 156.095 37.4655M159.478 36.2621C160.032 39.0696 160.834 41.9144 161.541 44.6893C162.376 47.9606 161.688 42.5825 161.581 41.7553C161.447 40.7177 160.641 37.6325 161.968 37.1036C165.702 35.6153 166.072 36.5741 166.991 36.9597M169.373 38.5919C169.383 38.5993 169.394 38.6068 169.404 38.6142M169.404 38.6142C170.327 39.2882 171.475 39.6852 172.562 39.9299C174.142 40.2857 175.703 37.9608 174.85 36.4818C174.206 35.3666 172.791 35.3815 171.711 35.4537C170.607 35.5274 169.812 36.7171 169.541 37.7697C169.474 38.0289 169.428 38.3142 169.404 38.6142ZM169.404 38.6142C169.279 40.1598 169.734 42.094 170.902 42.8422C172.335 43.7603 174.333 43.1111 175.868 42.9131M178.762 34.0819C179.054 36.3498 179.782 38.3862 180.293 40.5951M180.293 40.5951C180.296 40.6079 180.299 40.6208 180.302 40.6337C180.336 40.7798 180.416 41.3118 180.496 41.8679M180.293 40.5951C180.357 41.0179 180.428 41.4424 180.496 41.8679M180.293 40.5951C179.978 38.5155 179.82 36.4781 180.94 34.5852C181.395 33.8158 183.364 32.9387 184.113 32.8421C185.084 32.7167 186.306 33.2888 187.015 34.1514C188.392 35.825 188.349 38.5631 188.615 40.6255M180.496 41.8679C180.639 42.8587 180.783 43.926 180.666 43.0237C180.616 42.6381 180.557 42.2526 180.496 41.8679ZM190.555 26.9694C190.809 28.3347 191.102 29.6908 191.415 31.0424M191.415 31.0424C191.676 32.1668 191.95 33.288 192.228 34.4088C192.735 36.4597 193.063 38.4011 194.33 40.1346C195.869 42.2394 196.203 39.9564 197.396 38.9176M191.415 31.0424L188.501 31.4185M191.415 31.0424L194.762 30.6105M198.047 27.2524C198.416 30.112 199.201 32.809 199.959 35.5906C200.395 37.1876 200.657 38.963 201.667 40.2981C202.133 40.9142 202.614 41.4289 203.358 40.7927C205.117 39.2888 205.317 36.6967 205.253 34.5821C205.22 33.4881 205.393 32.3028 205.255 31.2346C205.063 29.7508 206.111 34.1046 206.643 35.5031C207.243 37.0816 208.752 40.562 211.021 38.6883C213.164 36.9185 213.34 33.3634 213.01 30.8074C212.712 28.4945 213.917 35.4023 214.722 37.5908C215.08 38.5636 215.459 39.5251 215.83 40.4869M215.83 40.4869C216.73 42.8205 217.581 45.1566 217.959 47.6642C218.227 49.4453 219.722 54.8595 216.858 55.229C214.365 55.5507 213.819 54.2006 213.51 51.973C213.001 48.3099 212.635 44.6017 215.025 41.5032C215.289 41.1614 215.558 40.823 215.83 40.4869ZM215.83 40.4869C218.217 37.5411 220.866 34.769 222.563 31.3414M53.6654 72.832C54.2989 74.7293 55.8409 82.2043 57.9382 80.8936C60.0019 79.179 59.6427 77.8304 61.3191 74.9151C61.6487 74.342 63.5464 77.5003 63.8383 77.8979C64.6587 79.0154 65.6969 80.273 66.8969 80.9921C67.2933 81.2297 68.7058 73.692 68.7051 72.3839M79.2202 73.2584C78.3618 72.2447 76.2124 72.0019 74.9532 72.1354C73.4503 72.2947 73.0431 73.0947 73.0494 74.6745C73.055 76.1017 73.1285 78.4135 75.0584 78.4753C78.6924 78.5919 79.8325 75.8421 79.4237 72.6743M82.5642 71.1522C82.9392 72.0129 83.2117 73.0481 83.4226 74.1194M83.4226 74.1194C83.4956 74.4906 83.5613 74.8662 83.6213 75.2403M83.4226 74.1194C83.4616 74.4892 83.5472 74.8762 83.6213 75.2403M83.4226 74.1194C83.3393 73.3315 83.4668 72.6215 84.3648 72.3765C86.1721 71.8835 86.048 70.4356 89.8039 71.0548M83.6213 75.2403C83.7913 76.3014 83.9154 77.351 84.0324 78.2578C84.3043 80.3644 83.7799 76.2503 83.7266 75.8371C83.7025 75.6507 83.6638 75.4493 83.6213 75.2403ZM90.8503 65.0416C92.1748 66.5629 92.6285 69.2512 93.2764 71.1131C93.9293 72.9895 94.5052 74.7566 94.8808 76.7017C95.153 78.1115 95.5894 75.1021 95.6665 74.8647C95.8236 74.3811 96.0247 73.9168 96.2606 73.4702M96.2606 73.4702C96.4349 73.1399 96.6283 72.8194 96.8367 72.508M96.2606 73.4702C96.2749 73.1916 96.5074 72.8576 96.8367 72.508M96.2606 73.4702C96.2114 74.423 101.019 75.7551 102.103 75.7698M96.8367 72.508C97.5044 71.5106 98.327 70.607 99.1787 69.7781C100.253 68.7325 99.5416 69.788 99.1768 70.3289L99.16 70.3539C98.8322 70.8403 97.5846 71.7142 96.8367 72.508ZM104.503 70.5962C104.639 71.6446 105.073 75.1181 105.964 75.4286M103.008 65.4895L103.078 66.0382M110.334 67.569C110.638 68.9846 111.497 75.2502 111.666 73.8122C111.777 72.8607 110.76 69.0871 112.342 68.8437C119.932 63.8098 117.929 71.7312 118.236 74.1116M130.03 65.1494C128.433 64.3586 124.945 64.0406 123.292 65.1103C120.767 66.7446 123.535 72.5243 126.175 72.7965C126.79 72.86 129.118 69.8044 127.84 66.848C126.863 64.0457 128.954 68.6394 129.161 69.157C130.409 72.283 131.629 75.5321 132.331 78.8689M132.331 78.8689C132.494 79.6421 132.628 80.42 132.729 81.2021C133.425 86.5915 127.878 92.8977 122.193 91.658C120.91 91.3782 120.387 90.2177 120.165 89.0373C119.745 86.7933 123.113 84.0732 124.636 82.8508C126.899 81.0337 129.676 80.0509 132.331 78.8689ZM132.331 78.8689C133.934 78.1553 135.493 77.369 136.867 76.2827M154.065 67.3329L153.608 63.7879M153.608 63.7879L153.464 62.6687C153.223 60.8006 153.413 63.0939 153.608 63.7879ZM153.608 63.7879C153.617 63.8189 153.626 63.8467 153.634 63.8709C153.768 64.2399 154.197 62.5181 154.32 62.3412C154.829 61.6129 155.556 61.004 156.427 60.8917C157.953 60.6947 159.679 65.6859 160.944 66.4322M9.39023 55.729C7.86381 54.1323 5.36536 54.8848 4.31829 55.1399C1.98585 55.7081 1.12706 60.4192 1.81554 62.4052C2.24977 63.6577 4.41635 64.7141 5.63406 64.8568C7.84757 65.1162 11.0966 63.7638 11.0858 61.0559C11.0779 59.0426 10.7395 56.7699 9.39023 55.729ZM149.139 60.8974C147.796 60.4968 145.173 60.5272 144.754 62.181C144.453 63.3696 144.316 65.6153 145.316 66.4322C146.106 67.078 147.859 66.6082 148.355 66.5442C151.139 64.6726 149.199 61.363 149.139 60.8974Z" stroke="#976393" stroke-width="2.75" stroke-linecap="round" stroke-linejoin="round"/>
</svg>
