<svg width="94" height="33" viewBox="0 0 94 33" fill="none" xmlns="http://www.w3.org/2000/svg">
<path d="M5.27206 15.7078C5.13004 14.5895 5.06037 14.3489 3.71251 14.5257C2.58926 14.6729 2.2967 14.8386 1.61097 15.9614C1.17898 16.6688 0.836633 17.2444 1.08221 17.9832C1.41613 18.9878 1.85787 19.0992 2.7947 19.0853C3.96317 19.0681 5.02232 17.3845 5.23777 16.0153M5.27206 15.7078C5.26581 15.8079 5.25426 15.9107 5.23777 16.0153M5.27206 15.7078C5.2577 15.5947 5.24316 15.7853 5.23777 16.0153M5.23777 16.0153C5.23347 16.2006 5.2351 16.4115 5.24756 16.5099L5.48014 18.341C5.86479 18.8844 5.86479 18.8844 6.56769 19.0243M15.7891 13.2748C15.6293 12.6265 14.3327 12.5574 13.8381 12.7817C13.4577 12.9541 13.3598 13.5882 13.4877 13.9475C13.6212 14.3226 14.3818 14.5856 14.7066 14.7006C15.5573 15.0019 17.5527 15.3015 16.7639 16.749C15.861 18.4057 13.9056 18.3488 12.4332 17.6948M18.2199 12.8407L18.5846 15.7126M18.5846 15.7126L18.7271 16.8351C18.875 17.9996 18.5983 15.9675 18.5846 15.7126ZM18.5846 15.7126L18.5844 15.7096C18.52 14.3732 18.9309 12.8761 20.5632 12.338C21.7858 11.935 22.4509 13.724 22.531 14.4861C22.5721 14.8767 22.7169 16.2112 22.7659 16.5972M24.455 13.7772C25.3721 13.7448 26.3037 14.6844 27.0628 13.9308C27.3849 13.611 27.4204 12.8013 27.0468 12.4894C26.4125 12.0283 26.0662 12.0208 25.3363 12.1723C24.3683 12.3732 24.0954 14.9827 24.6788 15.5393C25.1571 15.9955 25.7854 16.217 26.3475 16.1898C27.6345 16.1275 28.2288 15.2214 28.5123 14.8234M32.7648 12.6384C31.7874 17.0959 29.8382 14.335 29.8092 14.1067C29.3817 12.5385 31.2588 11.1321 32.1461 11.307C32.9471 11.839 32.7259 12.3323 32.7648 12.6384ZM32.7648 12.6384C32.7646 12.6361 32.7643 12.636 32.7648 12.6384ZM32.7648 12.6384C32.7787 12.7031 33.0685 14.4007 33.8019 14.9755M33.4459 6.91488C33.56 7.81362 33.8336 8.63379 34.0968 9.49717C34.4914 10.7922 34.7157 12.1322 35.1021 13.431C35.2199 13.8281 35.431 15.043 35.4364 14.6282C35.4446 14.034 35.1986 12.1713 35.3911 11.5642M35.3911 11.5642C35.3947 11.5528 35.3988 11.5419 35.4024 11.5313M35.3911 11.5642C35.3848 11.5483 35.3884 11.5371 35.4024 11.5313M35.3911 11.5642C35.5003 11.8348 38.4562 13.4949 39.6091 14.0812M35.4024 11.5313C35.8767 10.2643 36.0706 10.4575 36.9681 9.46978M45.289 10.2501C45.7692 10.7028 45.9015 11.8711 46.0764 12.4721C46.5421 14.0703 46.8828 15.7511 47.4902 17.301C48.0375 18.6984 46.7124 14.3901 46.5099 12.9003C46.384 11.9739 45.3357 10.6196 47.1491 9.36429C48.3238 9.06764 48.9974 8.97931 49.6711 9.81918C50.3443 10.659 49.3186 11.9044 48.9539 12.2337C48.3813 12.7508 46.7935 12.5482 46.3505 11.8788M52.0245 9.93006C52.6261 10.4052 53.1892 10.6678 53.958 10.6946C54.4123 10.7105 55.2708 10.7072 55.6069 10.3228C56.1112 9.74623 55.1385 8.5734 54.5872 8.46233C52.9409 8.13065 51.2276 9.44553 51.3477 11.1865C51.4066 12.0397 52.4562 13.3308 55.3234 12.1756M60.8352 8.93922C60.6241 8.00231 60.3414 7.57527 59.5459 7.67005C58.4415 7.81481 57.9078 8.48628 57.3705 9.35706C56.7395 10.3797 57.6455 12.1547 58.9171 12.1176C59.9079 12.0888 60.76 9.77495 60.8375 8.95957C61.2338 9.77863 62.1068 11.5284 62.602 12.2765M61.5337 5.08895C62.0103 6.69107 62.7705 8.25525 63.3435 9.83027C63.5329 10.3503 63.7014 10.8844 63.8473 11.4191C63.9497 11.7949 64.0054 10.6556 64.0878 10.2748C64.1033 10.2051 64.1187 10.1362 64.1345 10.0683M64.1345 10.0683C64.2446 9.59194 64.3732 9.15822 64.5558 8.764M64.1345 10.0683C63.8496 9.95229 63.6679 9.84261 63.6566 9.75359C63.6394 9.61505 64.2999 9.11095 64.3887 8.99427C64.4462 8.91869 64.5015 8.84174 64.5558 8.764M64.1345 10.0683C65.1556 10.4844 67.504 10.9824 68.0853 10.9062M64.5558 8.764C64.8109 8.21322 65.1715 7.73945 65.7364 7.33402C65.865 7.24169 65.354 7.66941 65.3327 7.69364C65.0392 8.02442 64.809 8.40242 64.5558 8.764ZM82.0525 2.23032C81.9371 1.90578 82.2039 0.899891 80.7554 1.0081C78.637 2.47896 79.5333 4.8794 79.9594 6.93274C80.0181 7.2153 80.0692 7.50049 80.1149 7.78738M80.1149 7.78738C80.2902 8.8873 80.3856 10.0124 80.5181 11.1106C80.6476 12.1836 80.717 13.3188 80.4272 14.3749C80.3176 14.7746 80.2655 14.9359 79.8717 14.9756C79.1975 15.0436 79.1446 14.225 79.0809 13.7241C78.83 11.7485 79.6086 9.74714 80.1149 7.78738ZM80.1149 7.78738C80.2203 7.37971 80.3138 6.97384 80.3838 6.57041C80.5557 5.57998 82.8391 5.859 83.2413 6.19579M3.3853 28.284C3.41606 28.7892 3.23363 32.2356 4.41038 31.8229C5.04905 31.599 5.40041 30.441 5.34994 29.8239C5.34047 29.708 5.48643 29.2108 5.6246 29.3884C5.777 29.5844 6.72579 32.6351 7.18361 31.8801C7.92167 30.6631 7.85145 28.8007 8.07637 27.4122M9.27822 24.9342L9.96871 30.3715C10.0065 30.6693 10.1406 30.9709 10.2356 31.2566C10.4441 31.8838 10.3038 30.2234 10.3006 29.9999C10.2921 29.4067 10.3499 28.8148 10.52 28.245C10.5736 28.0655 10.9937 27.208 11.2184 27.2761C11.7169 27.4272 11.9966 28.6359 12.069 29.0547C12.211 29.8766 12.3657 30.6322 12.6301 31.4277M15.5632 26.6652C16.1824 25.7422 14.4383 25.926 14.0445 26.5362C13.4906 27.3946 13.1326 28.8538 14.0356 29.5616C14.8214 30.1775 15.7282 29.2796 15.9884 28.521C16.0896 28.226 16.1733 27.8689 16.1746 27.5551C16.1781 26.7326 16.3004 27.8768 16.3566 28.1589C16.4713 28.7351 16.6304 30.7755 17.3674 30.9222M19.5449 22.196C19.6806 23.2648 19.6745 24.3757 19.6729 25.488M19.6729 25.488C19.6707 26.9175 19.6759 28.3493 19.9991 29.697C20.1161 30.1851 21.9277 30.5739 22.0468 29.9564M19.6729 25.488C19.2307 25.5154 18.782 25.5268 18.33 25.5649M19.6729 25.488C20.4471 25.44 21.2014 25.3427 21.9185 24.9661M28.4337 21.9704C29.4528 24.2904 29.6416 26.8635 30.25 29.3072M31.5291 22.4633C32.1033 23.0044 32.218 23.9078 32.3135 24.6595L32.315 24.6713M34.2876 28.2643C35.0695 28.0708 33.5401 25.0242 34.4506 24.9049C35.1632 24.8114 35.5071 25.5338 35.8953 25.9993C36.168 26.3269 36.3239 27.0917 36.4539 26.4183C36.5386 25.9782 36.6315 23.2914 37.7472 24.166C38.6673 24.8872 38.8897 26.4659 39.3672 27.47M44.4011 20.8964C44.6881 21.7697 45.3866 25.2103 46.3367 24.607C47.2716 23.8178 47.1089 23.1971 47.8683 21.8552C48.0176 21.5914 48.8773 23.0451 49.0096 23.2281C49.3812 23.7425 49.8515 24.3213 50.3952 24.6523C50.5747 24.7617 51.2146 21.2923 51.2143 20.6902M55.9778 21.0927C55.5889 20.6261 54.6152 20.5143 54.0448 20.5758C53.364 20.6491 53.1795 21.0173 53.1823 21.7445C53.1849 22.4014 53.2182 23.4655 54.0925 23.4939C55.7387 23.5476 56.2552 22.2819 56.07 20.8238M57.4927 20.1233C57.6626 20.5194 57.786 20.9959 57.8816 21.489M57.8816 21.489C57.9146 21.6598 57.9444 21.8327 57.9716 22.0049M57.8816 21.489C57.8992 21.6592 57.938 21.8373 57.9716 22.0049M57.8816 21.489C57.8438 21.1263 57.9016 20.7995 58.3084 20.6868C59.1271 20.4599 59.0709 19.7934 60.7724 20.0784M57.9716 22.0049C58.0486 22.4933 58.1048 22.9764 58.1578 23.3938C58.281 24.3634 58.0434 22.4698 58.0193 22.2796C58.0084 22.1938 57.9908 22.1011 57.9716 22.0049ZM61.2464 17.3107C61.8465 18.0109 62.052 19.2483 62.3455 20.1053C62.6413 20.9689 62.9022 21.7823 63.0723 22.6776C63.1956 23.3265 63.3933 21.9413 63.4282 21.832C63.4994 21.6094 63.5905 21.3957 63.6974 21.1902M63.6974 21.1902C63.7763 21.0381 63.864 20.8906 63.9584 20.7473M63.6974 21.1902C63.7039 21.0619 63.8092 20.9082 63.9584 20.7473M63.6974 21.1902C63.6751 21.6287 65.853 22.2419 66.3441 22.2486M63.9584 20.7473C64.2609 20.2882 64.6335 19.8723 65.0193 19.4908C65.506 19.0095 65.1837 19.4953 65.0185 19.7443L65.0109 19.7558C64.8624 19.9797 64.2972 20.3819 63.9584 20.7473ZM67.4313 19.8673C67.4929 20.3499 67.6895 21.9487 68.0932 22.0916M66.7541 17.5168L66.7858 17.7694M70.0729 18.474C70.2106 19.1256 70.5997 22.0095 70.6763 21.3476C70.7266 20.9096 70.2658 19.1727 70.9825 19.0607C74.4209 16.7437 73.5135 20.3898 73.6526 21.4854M78.9955 17.3603C78.272 16.9963 76.6919 16.85 75.943 17.3423C74.7992 18.0945 76.0531 20.7548 77.2491 20.8801C77.5277 20.9093 78.5823 19.5029 78.0034 18.1421C77.5608 16.8523 78.508 18.9667 78.6018 19.2049C79.1672 20.6437 79.7198 22.1392 80.0378 23.6751M80.0378 23.6751C80.1117 24.031 80.1724 24.389 80.2182 24.749C80.5335 27.2296 78.0206 30.1322 75.4452 29.5616C74.864 29.4328 74.627 28.8987 74.5265 28.3553C74.3362 27.3225 75.862 26.0705 76.5519 25.5078C77.5771 24.6715 78.8351 24.2191 80.0378 23.6751ZM80.0378 23.6751C80.764 23.3466 81.4703 22.9847 82.0927 22.4847M89.8837 18.3653L89.6767 16.7336M89.6767 16.7336L89.6114 16.2185C89.5023 15.3587 89.5883 16.4142 89.6767 16.7336ZM89.6767 16.7336C89.6808 16.7479 89.6848 16.7607 89.6885 16.7718C89.7492 16.9417 89.9435 16.1492 89.9992 16.0678C90.2298 15.7325 90.5592 15.4523 90.9537 15.4006C91.645 15.3099 92.4269 17.6072 93 17.9507M77.2458 4.88598C76.5543 4.15105 75.4224 4.49741 74.9481 4.61483C73.8915 4.87636 73.5024 7.04477 73.8143 7.95888C74.011 8.53537 74.9925 9.02161 75.5442 9.08729C76.5469 9.20668 78.0188 8.58421 78.0139 7.33782C78.0103 6.41115 77.857 5.36508 77.2458 4.88598ZM87.6522 15.4032C87.0438 15.2188 85.8555 15.2328 85.6657 15.994C85.5293 16.5411 85.4672 17.5747 85.9203 17.9507C86.2781 18.248 87.0723 18.0318 87.297 18.0023C88.5582 17.1408 87.6793 15.6175 87.6522 15.4032Z" stroke="#976393" stroke-width="3" stroke-linecap="round" stroke-linejoin="round" vector-effect="non-scaling-stroke" />
</svg>
