<svg width="115" height="55" viewBox="0 0 115 55" fill="none" xmlns="http://www.w3.org/2000/svg">
<path d="M5.81073 12.7327C5.81073 14.9855 5.54597 21.3824 9.10732 21.3824C11.0574 21.3824 12.3731 19.0614 13.4322 17.7532C16.7998 11.416 14.8869 15.2429 15.1863 18.9024C15.613 24.1174 19.2731 34.6523 12.1015 36.3834C9.46385 37.0201 7.22411 36.6308 5.38732 34.5083C4.24139 33.1841 3.3269 29.7278 2 29.0644" stroke="#976393" stroke-width="3" stroke-linecap="round" stroke-linejoin="round"/>
<path d="M22.918 14.4387C17.7207 13.9887 18.1633 20.3728 20.317 21.9392C21.9779 23.147 25.9193 23.0778 26.1844 20.427C26.3493 18.7779 24.5576 17.167 23.4624 16.0718" stroke="#976393" stroke-width="3" stroke-linecap="round" stroke-linejoin="round"/>
<path d="M30.2998 13.416C30.2998 15.5909 29.198 19.3351 30.2997 21.416C31.3967 23.4882 36.7621 22.886 36.7998 13.916C37.2497 11.4417 38.478 21.255 39.8 21.916" stroke="#976393" stroke-width="3" stroke-linecap="round" stroke-linejoin="round"/>
<path d="M53.4385 11.6439C53.5305 14.2219 54.4161 19.8712 54.5575 22.416C54.6632 24.3185 54.2678 15.4325 54.5575 13.5493C54.8271 11.7969 55.4692 10.916 56.7998 10.916C59.0572 10.916 59.7187 14.5885 60.6043 16.2712C61.5043 17.9812 61.4356 20.7972 61.7234 17.6322C61.8268 16.4942 62.6873 10.0804 63.8707 10.0107C68.595 9.73285 67.8468 20.306 68.7702 23.0761" stroke="#976393" stroke-width="3" stroke-linecap="round" stroke-linejoin="round"/>
<path d="M73.1257 11.0996C74.5131 14.2214 73.6701 18.5806 73.6701 21.9874M72.0378 3.47803C72.0378 3.58978 72.0288 3.66067 72.0148 3.70232M72.0148 3.70232C71.936 3.93708 71.6984 3.24273 72.0148 3.70232ZM72.0148 3.70232C72.022 3.71271 72.0294 3.72369 72.0372 3.73529" stroke="#976393" stroke-width="3" stroke-linecap="round" stroke-linejoin="round"/>
<path d="M85.7996 12.9161C84.2996 10.916 80.8933 11.6535 80.0814 13.2773C79.3808 14.6785 78.7848 17.3776 79.1439 18.9934C79.4474 20.3593 80.0814 20.9628 80.7996 21.4161C83.3431 22.5466 84.9406 22.2032 85.9185 20.0519C86.6771 18.383 86.2153 12.3317 86.7956 17.8441C87.3326 22.9457 89.1834 28.8204 88.9127 33.9641C88.7302 37.4319 80.2998 40.916 79.2998 31.416" stroke="#976393" stroke-width="3" stroke-linecap="round" stroke-linejoin="round"/>
<path d="M87.2798 3.47803C90.0526 4.17122 88.3329 16.4326 90.0017 19.1444C91.042 20.8347 91.0041 16.7427 91.0905 15.5756C91.1434 14.8622 91.8721 13.3888 92.3003 12.8536C96.8721 7.1389 99.8008 16.7191 99.8008 20.8985" stroke="#976393" stroke-width="3" stroke-linecap="round" stroke-linejoin="round"/>
<path d="M105.789 1.84473C105.789 6.78176 105.294 12.0004 106.364 16.8155C106.709 18.3682 107.8 24.416 112.8 19.416M101.979 10.7328C104.348 10.5174 106.714 9.09961 109.056 9.09961" stroke="#976393" stroke-width="3" stroke-linecap="round" stroke-linejoin="round"/>
<path d="M22.0407 43.5552C18.2495 41.6596 16.5968 42.2245 15.629 45.6118C15.347 46.599 14.1543 50.916 16.0524 52.1445C18.1294 53.2441 19.7819 51.4042 20.9519 50.0879C21.8356 49.0938 22.7335 42.9857 23.1597 46.8216C23.3486 48.5216 24.4207 54.591 25.8515 51.1162C27.7041 46.6169 28.9524 41.5393 29.9041 36.7806C30.2195 35.2038 30.1137 33.7025 30.2066 32.123C30.264 31.1469 30.7412 36.2738 30.7812 37.1133C30.9978 41.662 31.39 47.5553 33.4729 51.7211" stroke="#976393" stroke-width="3" stroke-linecap="round" stroke-linejoin="round"/>
<path d="M40.5673 42.1642C41.1544 39.916 35.9715 39.1818 35.1543 42.4158C34.6326 44.4812 35.8212 45.7493 36.6542 45.9159C39.1539 46.416 40.6539 46.416 41.6539 47.416C44.6539 54.916 36.6539 52.416 36.1539 50.416" stroke="#976393" stroke-width="3" stroke-linecap="round" stroke-linejoin="round"/>
<path d="M51.9819 43.5552C51.6278 42.1391 47.6543 40.916 45.6544 43.916C44.7136 46.0327 44.4157 50.0685 46.2658 51.5074C47.4008 52.3902 50.6543 52.916 52.1543 51.416C53.6543 49.416 53.6543 47.916 53.0706 45.7328" stroke="#976393" stroke-width="3" stroke-linecap="round" stroke-linejoin="round"/>
<path d="M73.8545 34C74.1592 40.3988 75.3688 46.4709 76.5764 52.5093M79.8426 43.2546C79.6327 45.3532 75.509 47.1613 78.6328 48.4566C80.0912 49.0613 83.4679 48.872 84.1977 50.3317" stroke="#976393" stroke-width="3" stroke-linecap="round" stroke-linejoin="round"/>
<path d="M85.7227 44.4546C86.0569 47.463 92.5235 46.4008 93.3545 44.0001C93.6431 43.1663 93.4363 41.616 92.8545 41C91.7403 39.8203 89.8946 40.3067 88.8545 41C87.3545 42 86.126 44.5773 86.267 48.3863C86.4046 52.1008 92.8545 52.5 95.3545 50" stroke="#976393" stroke-width="3" stroke-linecap="round" stroke-linejoin="round"/>
<path d="M70.3547 37.3774H70.48M63.4025 34.6558C63.4025 39.8165 61.9751 47.6034 65.5498 51.7738C69.1973 56.0292 70.2534 46.0378 70.4796 44.4548C70.4796 46.8294 71.1543 50.416 72.6543 52.916" stroke="#976393" stroke-width="3" stroke-linecap="round" stroke-linejoin="round"/>
</svg>
