<svg width="755" height="1000" viewBox="0 0 755 1000" fill="none" xmlns="http://www.w3.org/2000/svg">
<path d="M685.754 871.308C632.195 923.779 433.245 999.193 378.551 1000H377.264C322.594 999.193 123.62 923.779 70.0855 871.308C47.1026 848.82 57.1687 665.839 60.9529 607.967V608.32C147.385 597.064 287.704 587.927 373.48 419.434C466.799 589.189 607.951 598.906 695.619 609.986C695.745 612.333 695.82 614.731 695.846 617.103C695.846 617.154 707.602 849.88 685.754 871.308Z" fill="url(#paint0_radial_445_1218)"/>
<path d="M753.219 751.549C745.473 777.772 716.688 798.771 697.944 791.451V791.325L697.792 773.254L697.363 722.701V721.767C697.363 721.086 697.565 720.43 697.893 719.723C699.81 715.71 706.723 711.621 709.801 709.097C714.418 705.261 719.135 700.794 730.614 703.419C742.572 706.17 759.273 731.055 753.244 751.549H753.219Z" fill="#926039"/>
<path d="M697.564 736.636C697.564 736.636 706.47 726.137 716.586 730.806C726.728 735.45 730.311 744.965 729.251 754.051C728.191 763.137 719.563 770.481 713.71 772.021C706.445 773.914 697.766 773.283 697.766 773.283L697.539 736.661L697.564 736.636Z" fill="#754D2D"/>
<path d="M58.1481 721.439C58.1481 716.77 48.2839 712.076 44.7015 709.097C40.0847 705.261 35.3671 700.794 23.8882 703.419C11.9048 706.17 -4.77101 731.055 1.28375 751.574C9.00358 777.772 37.3601 798.644 56.1046 791.325L58.1481 721.464V721.439Z" fill="#926039"/>
<path d="M57.6921 736.863C57.6921 736.863 48.0044 726.136 37.8627 730.78C27.721 735.424 24.1386 744.939 25.1982 754.025C26.2578 763.111 34.8858 770.456 40.7387 771.995C48.0045 773.888 56.6325 773.257 56.6325 773.257L57.7173 736.863H57.6921Z" fill="#754D2D"/>
<path d="M287.677 784.863C297.472 784.863 305.412 753.924 305.412 715.759C305.412 677.594 297.472 646.655 287.677 646.655C277.882 646.655 269.941 677.594 269.941 715.759C269.941 753.924 277.882 784.863 287.677 784.863Z" fill="black"/>
<path d="M466.798 784.863C476.593 784.863 484.533 753.924 484.533 715.759C484.533 677.594 476.593 646.655 466.798 646.655C457.003 646.655 449.062 677.594 449.062 715.759C449.062 753.924 457.003 784.863 466.798 784.863Z" fill="black"/>
<path d="M287.677 784.863C297.472 784.863 305.412 753.924 305.412 715.759C305.412 677.594 297.472 646.655 287.677 646.655C277.882 646.655 269.941 677.594 269.941 715.759C269.941 753.924 277.882 784.863 287.677 784.863Z" fill="black"/>
<g opacity="0.2">
<path d="M297.417 723.051C297.417 723.051 298.098 723.101 298.25 723.101C298.073 722.95 297.24 723.051 297.417 723.051Z" fill="#79522C"/>
<path d="M295.718 721.541L296.021 721.566L295.264 721.313L295.718 721.541Z" fill="#79522C"/>
<path d="M295.776 720.073C294.489 720.174 295.952 720.603 295.498 720.856H295.195L296.23 721.032C296.078 720.704 295.397 720.275 295.776 720.073Z" fill="#79522C"/>
<path d="M298.573 719.414C298.068 719.414 298.144 719.238 298.421 719.591C298.472 719.591 298.497 719.591 298.548 719.566C298.548 719.54 298.548 719.49 298.573 719.414Z" fill="#79522C"/>
<path d="M298.545 719.567C298.57 719.717 298.972 719.491 298.545 719.567V719.567Z" fill="#79522C"/>
<path d="M298.291 718.839L298.72 719.066C299.023 719.041 299.098 718.864 299.3 718.94C299.073 718.713 298.77 718.738 298.291 718.839Z" fill="#79522C"/>
<path d="M297.363 718.608L297.541 718.736C297.541 718.736 297.72 718.71 297.363 718.608Z" fill="#79522C"/>
<path d="M297.949 718.963L297.57 718.711C297.369 718.711 296.94 718.711 297.697 718.812C297.318 718.787 297.697 718.837 297.949 718.938V718.963Z" fill="#79522C"/>
<path d="M297.744 719.087C297.467 719.188 297.265 719.314 296.836 719.087C296.987 719.491 297.896 719.465 297.744 719.087Z" fill="#79522C"/>
<path d="M294.46 719.946L294.082 720.098L294.511 720.249C294.309 720.173 294.864 719.972 294.46 719.972V719.946Z" fill="#79522C"/>
<path d="M299.024 717.624C298.747 717.598 298.293 717.624 297.939 717.624L298.242 717.8C298.444 717.724 298.621 717.598 299.024 717.624Z" fill="#79522C"/>
<path d="M297.939 717.65L297.485 717.397C297.41 717.599 297.637 717.65 297.939 717.65Z" fill="#79522C"/>
<path d="M295.947 718.508L296.906 718.912L295.947 718.433V718.508Z" fill="#79522C"/>
<path d="M299.102 716.791L299.732 716.943L298.799 716.665L299.102 716.791Z" fill="#79522C"/>
<path d="M299.053 716.21C299.557 716.337 299.936 716.135 300.264 716.261C300.188 716.109 299.734 715.933 299.355 715.781C299.583 715.933 299.507 716.059 299.053 716.21Z" fill="#79522C"/>
<path d="M298.75 715.557C298.75 715.557 299.078 715.708 299.33 715.809C299.204 715.733 299.053 715.658 298.75 715.557Z" fill="#79522C"/>
<path d="M297.637 717.021C297.813 717.021 298.242 717.021 298.419 716.895H297.637V717.021Z" fill="#79522C"/>
<path d="M297.637 716.946H297.662C297.662 716.946 297.713 716.794 297.713 716.743C297.713 716.743 297.688 716.819 297.637 716.946Z" fill="#79522C"/>
<path d="M296.685 717.95C296.257 717.799 295.828 717.496 295.146 717.723C295.676 717.849 296.055 717.723 296.685 717.95Z" fill="#79522C"/>
<path d="M296.681 717.095L296.504 717.323C296.706 717.323 297.009 717.323 297.21 717.373L296.681 717.07V717.095Z" fill="#79522C"/>
<path d="M296.455 716.973L296.682 717.099L296.758 717.023L296.455 716.973Z" fill="#79522C"/>
<path d="M298.023 715.906C297.695 715.78 297.67 715.654 297.645 715.527C297.494 715.654 297.393 715.78 297.393 715.931C297.62 715.956 298.048 716.057 298.048 715.931L298.023 715.906Z" fill="#79522C"/>
<path d="M297.215 715.933C297.063 716.034 297.24 716.109 297.467 716.185C297.391 716.109 297.341 716.008 297.341 715.933C297.24 715.933 297.164 715.933 297.189 715.933H297.215Z" fill="#79522C"/>
<path d="M298.417 715.176C298.266 715.226 298.114 715.277 297.988 715.327C298.241 715.302 298.619 715.201 298.417 715.176Z" fill="#79522C"/>
<path d="M297.944 716.363C297.944 716.363 297.642 716.237 297.49 716.187C297.541 716.262 297.616 716.313 297.743 716.388C297.793 716.388 297.869 716.388 297.944 716.388V716.363Z" fill="#79522C"/>
<path d="M292.842 713.485C293.548 713.561 294.179 713.889 293.397 714.065C293.901 714.343 296.248 714.368 297.585 714.267C297.282 714.242 296.979 714.217 296.601 713.939C296.197 713.99 295.642 714.393 295.037 714.141C294.683 713.788 295.314 713.889 295.693 713.762C294.81 713.813 294.431 713.258 293.145 713.232L293.573 713.561C293.372 713.561 293.069 713.434 292.867 713.485H292.842Z" fill="#79522C"/>
<path d="M297.461 714.721L297.537 714.822C297.663 714.721 297.965 714.671 298.521 714.57C298.193 714.393 297.915 714.317 297.688 714.292L297.562 714.772L297.461 714.721Z" fill="#79522C"/>
<path d="M297.513 715.278C296.756 715.151 296.428 714.874 295.596 714.975C295.621 715.278 296.226 715.227 296.554 715.429C296.403 714.95 296.983 715.606 297.437 715.278C297.564 715.379 297.589 715.454 297.614 715.555C297.715 715.48 297.841 715.404 297.992 715.353H297.942C297.942 715.353 297.791 715.353 297.841 715.353C297.841 715.353 297.639 715.303 297.564 715.303C297.74 715.177 297.765 715.303 297.841 715.353H297.967L297.589 714.849C297.589 714.849 297.488 715.076 297.564 715.278H297.513Z" fill="#79522C"/>
<path d="M293.506 717.373C293.506 717.373 293.633 717.373 293.683 717.373C293.582 717.348 293.531 717.322 293.506 717.373Z" fill="#79522C"/>
<path d="M293.984 717.195C293.984 717.195 294.388 717.296 294.312 717.397C294.085 717.472 293.934 717.397 293.682 717.371C293.883 717.447 294.211 717.649 294.615 717.447L294.514 717.397C294.792 717.22 295.776 717.043 295.876 717.094C295.17 717.094 294.691 717.119 293.984 717.195Z" fill="#79522C"/>
<path d="M295.546 716.186L295.193 715.757L294.512 715.908H294.915C294.739 716.135 295.243 716.135 295.546 716.161V716.186Z" fill="#79522C"/>
<path d="M298.121 714.245L298.928 714.371L297.793 714.043L298.121 714.245Z" fill="#79522C"/>
<path d="M298.047 713.739L298.753 713.814L298.35 713.638L298.047 713.739Z" fill="#79522C"/>
<path d="M291.177 684.563L290.977 684.463C290.977 684.463 291.102 684.538 291.177 684.563Z" fill="#79522C"/>
<path d="M291.133 685.343H291.486C291.284 685.343 291.158 685.318 291.133 685.343Z" fill="#79522C"/>
<path d="M299.078 701.195C299.759 701.094 300.793 700.968 299.986 700.942H299.204C299.33 701.069 299.229 701.144 299.053 701.195H299.078Z" fill="#79522C"/>
<path d="M295.071 692.158H294.844C295.096 692.259 295.348 692.31 295.575 692.36C295.424 692.31 295.247 692.234 295.071 692.158Z" fill="#79522C"/>
<path d="M291.865 691.882L292.37 691.68C292.193 691.73 292.017 691.781 291.865 691.882Z" fill="#79522C"/>
<path d="M290.016 680.373L289.209 680.322C289.209 680.524 289.613 680.398 290.016 680.373Z" fill="#79522C"/>
<path d="M298.224 708.517C298.552 708.39 298.678 708.289 298.729 708.188C298.274 708.315 297.593 708.416 298.224 708.517Z" fill="#79522C"/>
<path d="M299.434 684.691C299.283 684.615 299.132 684.59 298.955 684.59C299.081 684.666 299.233 684.716 299.434 684.691Z" fill="#79522C"/>
<path d="M298.747 707.784C298.747 707.784 298.621 707.835 298.545 707.835C298.671 707.961 298.772 708.062 298.696 708.188C299.049 708.087 299.251 707.961 298.721 707.759L298.747 707.784Z" fill="#79522C"/>
<path d="M287.349 665.684C287.349 665.684 287.401 665.632 287.427 665.605C287.322 665.658 287.322 665.658 287.349 665.684Z" fill="#79522C"/>
<path d="M291.26 657.329C291.26 657.329 291.41 657.43 291.511 657.505C291.511 657.43 291.461 657.379 291.26 657.329Z" fill="#79522C"/>
<path d="M295.447 711.995C295.447 711.995 295.245 711.944 295.068 711.919C295.245 711.919 295.371 711.969 295.447 711.995Z" fill="#79522C"/>
<path d="M298.193 711.869C298.193 711.869 298.369 711.793 298.444 711.743C298.394 711.743 298.294 711.793 298.193 711.869Z" fill="#79522C"/>
<path d="M298.552 711.87C298.552 711.87 298.502 711.921 298.477 711.946C298.603 711.946 298.678 711.946 298.552 711.87Z" fill="#79522C"/>
<path d="M298.519 711.567C298.519 711.567 298.494 711.694 298.418 711.745C298.469 711.745 298.519 711.745 298.545 711.745C298.545 711.719 298.545 711.669 298.519 711.593V711.567Z" fill="#79522C"/>
<path d="M291.735 672.65C291.735 672.65 291.76 672.65 291.811 672.624C291.48 672.573 291.531 672.624 291.735 672.65Z" fill="#79522C"/>
<path d="M291.23 697.686L291.283 697.712L291.309 697.686H291.23Z" fill="#79522C"/>
<path d="M290.703 697.261C291.662 697.513 291.536 697.589 291.309 697.69L293.554 697.74L290.703 697.261Z" fill="#79522C"/>
<path d="M290.854 682.799L290.173 683.102C289.012 682.9 289.391 682.698 288.432 682.976C290.854 682.824 288.735 683.834 291.156 683.733L290.652 683.91C290.652 683.91 290.526 683.859 290.551 683.809C289.39 684.162 292.342 683.96 291.989 684.389C291.812 684.541 291.459 684.667 291.156 684.566L291.762 684.869C291.762 684.869 291.283 684.945 291.333 684.869L291.535 685.374H291.459C291.838 685.424 292.443 685.601 292.695 685.676C292.342 685.803 292.443 685.626 292.14 685.651L292.746 685.929C292.115 686.055 291.51 685.803 291.585 685.626C289.163 685.904 292.216 685.853 290.778 686.408L290.475 686.156C289.088 686.307 289.592 686.535 288.709 686.812C289.163 686.762 290.904 686.232 291.484 686.535C291.308 686.61 291.207 686.736 291.686 686.913C290.829 686.913 291.03 687.065 291.081 687.267H289.92C290.248 687.468 290.829 687.443 291.358 687.595C291.232 687.847 290.349 687.872 289.592 687.897C289.416 688.276 291.03 687.67 291.232 688.125C290.778 688.427 291.232 688.68 291.913 689.109C291.51 689.336 291.207 689.033 290.879 689.109L291.787 689.336C291.787 689.336 291.484 689.336 291.333 689.336C291.686 689.513 292.468 689.387 292.771 689.689C294.032 689.816 290.904 690.169 292.317 690.573C291.989 690.649 291.611 690.497 291.182 690.497C292.115 691.002 291.863 690.926 293.099 691.38L292.317 691.658C293.2 691.456 294.184 691.835 295.016 692.138C295.445 692.062 295.798 692.011 295.975 691.986L296.555 692.466C296.353 692.516 295.975 692.466 295.496 692.339C295.597 692.365 295.672 692.415 295.773 692.44C295.344 692.567 294.688 692.44 294.058 692.314C294.285 692.289 294.537 692.239 294.764 692.188C294.083 692.037 293.301 691.91 292.645 691.885C292.771 691.91 292.897 691.986 292.948 692.037C292.771 691.986 292.595 691.961 292.468 691.986C292.342 691.986 292.594 692.062 292.897 692.138H291.611L292.115 692.213L291.283 692.718C292.544 693.198 294.411 693.677 294.89 694.359C293.957 694.131 293.351 694.232 292.241 694.131C293.427 694.031 291.787 693.601 292.039 693.299C291.913 693.475 291.384 693.4 291.207 693.324L292.241 693.98C291.333 693.904 291.56 694.056 291.156 694.182C292.948 694.182 292.317 694.712 292.847 694.99C292.241 694.964 291.636 694.863 291.787 694.586C290.425 694.813 293.856 695.166 292.695 695.393C292.695 695.318 292.771 695.292 292.468 695.242C292.998 695.444 292.544 695.822 292.014 695.696V695.621C291.762 696.075 291.888 697.084 293.402 697.261C293.2 697.261 291.585 697.034 291.257 697.009L296.303 698.271C294.991 698.094 291.863 698.119 291.156 697.665C290.955 697.766 290.728 697.892 291.156 698.17C291.358 698.119 293.074 698.119 293.175 698.245C291.686 698.422 292.393 698.397 291.106 698.649C291.384 698.548 293.427 698.851 293.351 699.028C293.049 698.977 291.333 698.876 291.106 698.801L293.074 699.432C292.721 699.28 291.358 699.28 290.803 699.331C291.207 699.331 290.728 699.734 290.929 699.861L291.409 699.709C291.056 700.214 294.184 700.466 294.032 700.971C293.629 700.87 291.484 700.593 291.207 700.845C292.216 701.047 296.126 701.804 296.858 702.334H296.253L296.883 702.788C295.344 702.435 292.14 701.526 290.904 701.097C290.425 701.249 290.198 701.097 290.223 701.375C289.668 701.425 289.391 701.148 289.365 701.047L288.962 701.703C290.173 701.779 290.122 702.334 291.131 702.385L289.946 701.552C291.156 701.627 293.326 702.284 293.074 702.738C292.594 702.814 290.929 702.46 290.551 702.435C290.955 702.536 291.308 702.965 291.005 702.99L290.374 702.738C289.895 702.965 291.939 703.318 290.753 703.545C290.677 703.646 289.163 703.747 289.895 703.823C291.283 703.773 295.521 704.101 296.555 704.328C296.454 704.353 295.193 704.807 294.512 704.858C293.427 704.934 291.964 704.353 291.03 704.429C291.358 704.454 291.762 704.605 291.888 704.656C291.585 704.757 290.879 704.505 291.005 704.782C292.216 704.934 290.854 705.287 292.014 704.984C292.342 705.262 291.737 705.236 291.762 705.514C292.569 705.514 294.411 706.019 294.739 706.296C294.436 706.246 294.032 706.296 293.831 706.296C293.679 706.801 293.099 707.028 293.049 707.483C292.746 707.483 292.367 707.685 291.863 707.558C292.065 707.634 292.468 707.735 292.494 707.887C291.409 708.063 292.367 707.533 291.081 707.659C291.787 707.735 292.014 708.114 292.443 708.366C293.553 708.391 292.695 707.912 292.267 707.659C293.78 707.786 295.319 708.29 295.975 708.846C296.328 709.275 294.991 708.921 295.193 709.022C294.865 709.729 297.766 709.88 296.631 710.41C295.647 710.562 294.714 710.259 294.007 710.259C293.679 709.906 294.663 709.83 294.638 709.603L294.159 709.83C293.856 709.704 293.629 709.451 293.906 709.376C293.023 709.502 293.629 710.612 292.771 711.117C293.074 711.243 293.402 711.445 293.805 711.395L293.679 711.193C294.461 711.092 294.714 711.622 295.092 711.42C295.622 711.698 296.454 712.051 295.975 712.354H294.865C295.193 712.354 295.546 712.152 295.218 712.026C295.698 712.202 293.679 712.43 295.117 712.707L295.899 712.53C296.429 712.808 297.564 713.212 297.211 713.49C298.296 713.439 297.085 713.414 298.372 713.288C296.782 713.338 298.498 712.53 296.808 712.682C298.296 712.581 297.464 712.354 298.75 712.177C298.397 712.177 298.044 712.228 298.246 711.975C298.145 711.95 298.019 711.925 297.943 711.899C297.943 711.899 297.943 711.899 297.968 711.899H297.918C297.766 711.95 297.564 711.975 297.363 711.975C296.53 711.773 296.606 711.369 296.177 711.218C296.354 711.092 296.581 711.319 296.984 711.269L296.353 711.016C297.161 711.067 297.716 710.739 298.17 711.117L298.246 710.814C298.725 710.663 298.927 710.436 298.599 710.234C298.775 710.108 297.741 709.779 298.372 709.956L297.918 709.426H298.119C298.271 708.947 296.883 708.316 298.372 707.861C298.195 707.685 297.943 707.483 298.195 707.23H298.902C298.675 707.003 299.658 706.65 298.927 706.498C300.819 706.448 299.431 705.489 299.785 705.161L298.876 705.06C298.952 704.807 298.725 704.53 298.372 704.176L297.564 704.126C296.934 703.798 298.195 703.47 298.145 703.015C298.447 703.066 298.347 703.167 298.145 703.243C300.012 702.889 296.934 702.006 298.296 701.653C298.019 701.501 298.119 701.425 298.321 701.375C298.321 701.375 298.321 701.375 298.372 701.4C298.372 701.4 298.372 701.375 298.372 701.35C298.523 701.299 298.674 701.249 298.801 701.224C298.599 701.249 298.447 701.299 298.347 701.324C298.347 701.223 298.246 701.072 298.069 700.921H298.927C299.255 700.82 298.523 700.769 297.867 700.794C297.741 700.719 297.564 700.643 297.363 700.567C298.75 700.567 296.934 700.163 298.422 700.138C297.716 699.987 297.943 699.406 296.429 699.204C296.631 699.204 296.732 699.204 296.732 699.255C296.909 699.129 297.11 698.977 296.681 698.801H297.792L296.353 698.372C297.035 698.22 297.438 698.17 298.271 698.447C297.009 697.867 297.817 698.018 296.555 697.488L297.262 697.564C297.262 697.412 296.328 697.11 296.909 697.059C298.271 696.832 297.211 695.444 298.523 694.687C296.429 694.687 299.482 694.359 297.867 694.207C298.372 694.207 298.649 694.081 299.078 694.258C298.624 693.778 299.911 693.652 298.548 693.248C299.053 693.248 299.255 693.374 299.557 693.349C299.457 693.299 299.129 693.172 299.431 693.147C299.734 693.122 299.835 693.248 300.062 693.324C300.012 692.87 298.473 692.743 297.06 692.617C297.741 692.44 297.665 692.314 296.732 692.087C297.211 692.037 297.691 691.936 297.842 692.213C297.918 692.062 298.574 691.305 297.438 691.229C297.741 691.204 297.539 691.027 297.413 690.977C297.489 690.623 297.59 690.598 297.514 690.245L297.312 690.32C295.925 690.118 297.009 690.017 296.858 689.74H297.009C298.044 689.159 296.53 689.462 297.716 688.882H296.858C295.016 688.781 297.968 688.377 297.262 687.973L296.757 688.099C296.126 687.897 299.28 687.595 299.532 687.393C299.684 687.342 299.785 687.468 299.911 687.544C301.021 687.014 298.775 687.468 298.523 687.065C299.129 686.989 300.062 687.191 300.188 686.913C300.693 686.787 298.22 686.131 299.381 685.752C298.902 685.828 298.447 685.929 298.094 685.752C297.918 685.475 299.86 684.945 298.372 684.717C298.498 684.667 298.624 684.667 298.75 684.667C298.372 684.465 298.119 683.96 297.287 683.859C300.239 683.506 295.748 682.572 298.498 682.395L298.296 681.714H298.574C298.725 681.285 298.044 681.184 297.388 681.108C297.564 681.007 297.817 681.033 297.968 681.033C298.473 680.376 298.347 680.326 296.934 679.947L297.817 679.796C297.287 679.72 299.129 678.786 298.019 678.281C298.119 678.281 298.296 678.281 298.422 678.281C297.312 677.726 300.693 676.363 297.438 676.515L296.581 676.161C296.404 676.767 295.168 676.262 294.663 676.565C294.436 676.363 295.546 675.859 295.748 676.111L295.597 676.187C297.287 676.06 296.101 675.404 297.236 675.253C297.009 674.142 297.741 672.855 297.615 671.745L296.353 672.123V671.745C296.631 671.593 297.337 671.417 297.337 671.694C298.044 671.417 296.631 671.366 296.353 671.417C296.757 670.786 297.892 671.316 297.892 671.164L297.741 670.962L297.59 671.038C297.035 670.962 296.454 671.063 296.454 670.735C296.656 670.483 297.211 670.457 297.262 670.357C297.363 670.357 297.388 670.306 297.262 670.23V669.726L296.303 670.155C295.748 670.054 296.253 669.7 295.168 670.18C296.858 669.448 295.37 668.262 295.849 667.934C295.042 667.858 294.966 667.555 294.941 667.176C294.764 667.328 293.654 667.732 293.705 667.378C296.026 666.747 294.537 666.52 296.076 665.687C295.067 666.293 295.471 664.905 294.083 665.814C294.184 665.485 294.915 665.485 295.37 665.107C294.285 664.829 295.37 663.517 294.764 662.861C294.461 662.987 294.083 663.315 293.578 663.34L294.815 662.28C294.588 662.204 293.099 662.936 293.957 662.179C293.73 662.331 293.402 662.558 293.276 662.507C293.604 661.447 292.922 660.841 292.367 660.236C291.787 659.58 291.459 658.999 291.863 657.232C291.585 657.863 291.409 657.737 291.257 657.586C291.257 657.788 290.652 658.091 290.349 658.393C290.475 657.939 290.576 657.434 290.627 656.955C289.693 657.687 289.845 656.374 289.063 657.207H289.391C288.306 658.065 287.801 659.756 286.565 660.968C287.145 660.463 286.893 660.993 286.615 661.422C286.363 661.851 286.111 662.179 287.095 661.649C286.868 661.927 286.615 661.927 286.338 662.23C286.969 661.826 287.17 661.851 287.019 662.23L286.868 662.305C287.372 662.709 286.918 663.391 286.868 664.224L287.574 663.744C287.574 663.946 287.347 664.097 287.196 664.274C288.407 663.794 287.044 663.845 288.356 663.264C286.969 664.324 288.911 664.299 287.221 665.334C287.322 665.561 288.079 664.829 288.154 665.056L287.7 665.359L288.331 665.107C288.306 665.309 287.725 665.662 287.322 665.864C287.347 665.814 287.17 665.814 287.12 665.814C286.641 666.268 287.549 666.217 287.397 666.369L287.599 666.041C288.331 666.445 288.003 667.429 289.214 667.656L289.567 667.479C290.45 667.706 289.315 668.009 289.794 668.438H289.693C290.097 668.438 290.349 668.514 290.349 668.691C289.87 668.691 289.567 669.221 289.012 669.196C289.946 669.473 289.693 669.271 291.232 669.196L290.627 669.473C291.232 669.423 291.56 669.347 291.787 669.599C291.182 669.524 290.854 670.054 290.046 669.978C288.81 670.912 291.712 670.483 289.693 671.265C291.56 671.114 290.576 670.508 290.98 670.558C291.535 670.281 292.367 670.457 292.241 670.685C292.241 670.887 290.021 671.543 290.173 672.022C290.173 671.972 290.046 672.022 290.021 671.947C289.592 672.224 290.728 672.148 290.021 672.527C291.131 672.426 290.021 672.83 291.409 672.578L291.005 672.199C291.409 672.376 293.099 672.275 292.393 672.88C292.115 672.88 291.712 672.855 291.484 672.805C291.106 673.007 291.812 672.981 291.409 673.209C289.996 673.436 291.005 672.729 289.87 672.679C289.315 672.931 290.98 672.981 289.441 673.133C291.409 672.956 289.29 673.638 290.803 673.688L289.971 673.814C290.122 673.839 290.526 673.865 290.526 673.966H289.416C290.4 674.092 288.684 674.622 289.239 674.799C289.138 674.269 290.223 674.521 290.803 674.193C292.039 674.672 288.659 674.925 289.189 675.581C289.063 675.505 289.643 675.127 290.046 675.228C289.895 675.404 289.592 675.631 289.163 675.783C289.416 676.237 290.021 675.581 290.576 675.707C289.567 676.035 291.03 675.884 291.384 676.061L290.526 676.187C290.046 676.818 292.342 676.086 291.737 676.691L290.526 676.641L290.879 676.868L289.895 676.944C290.652 677.146 290.475 677.247 290.248 677.575C290.854 677.423 291.812 677.423 291.863 677.676C291.384 677.903 291.03 677.676 291.207 678.029C290.652 678.029 289.971 678.004 290.753 677.751C290.475 677.751 290.198 677.751 289.92 677.751C289.365 678.004 289.845 678.231 289.87 678.357C289.895 678.307 289.946 678.231 290.046 678.206L291.308 678.584C291.005 678.711 290.728 678.66 290.475 678.635C290.576 678.736 290.98 678.761 291.081 678.912C290.374 678.938 289.668 679.039 289.29 678.862L290.122 679.266C289.819 679.342 289.315 679.619 289.037 679.569C288.659 679.872 290.475 680.099 289.971 680.528C290.097 680.528 290.248 680.553 290.349 680.629C290.223 680.982 289.391 681.386 290.4 681.714L289.163 682.067C289.491 682.37 290.728 681.588 291.232 682.093C291.661 682.446 290.173 682.345 289.845 682.496C290.501 682.648 291.812 682.799 290.803 683.203C290.551 683.127 290.753 683.026 290.652 682.925L290.854 682.799ZM291.535 686.509C291.358 686.434 290.803 686.282 291.308 686.232C292.292 686.333 291.812 686.383 291.535 686.509ZM293.377 692.668C293.099 692.592 293.25 692.516 293.578 692.415C293.654 692.491 293.604 692.567 293.377 692.668ZM297.943 710.486H297.892C298.246 710.335 298.094 710.385 297.943 710.486ZM297.539 710.814C297.539 710.814 297.766 710.865 297.892 710.865C297.665 710.814 297.665 710.738 297.741 710.638C297.514 710.638 297.363 710.688 297.539 710.814ZM297.186 670.306L296.984 670.432C296.707 670.306 296.934 670.306 297.186 670.306Z" fill="#79522C"/>
<path d="M292.236 691.908C292.388 691.908 292.539 691.908 292.716 691.908C292.564 691.857 292.413 691.857 292.236 691.908Z" fill="#79522C"/>
<path d="M290.752 704.476C290.878 704.4 291.055 704.375 291.206 704.375C291.004 704.375 290.802 704.375 290.752 704.476Z" fill="#79522C"/>
<path d="M298.854 712.879L298.652 712.627C298.652 712.627 298.501 712.778 298.35 712.804C298.551 712.804 298.854 712.804 298.854 712.879Z" fill="#79522C"/>
<path d="M293.35 714.471C293.35 714.471 293.35 714.547 293.451 714.597H293.854C293.854 714.471 293.526 714.345 293.35 714.471Z" fill="#79522C"/>
<path d="M295.972 712.855C295.241 712.805 295.468 712.982 295.594 713.158C295.594 713.158 295.594 713.158 295.594 713.133C296.603 713.259 296.275 713.057 295.972 712.855Z" fill="#79522C"/>
<path d="M295.625 713.184C295.625 713.184 295.676 713.285 295.625 713.336C296.032 713.387 295.727 713.285 295.625 713.184Z" fill="#79522C"/>
<path d="M297.998 711.316C297.796 711.366 298.931 711.442 298.629 711.467C299.537 711.644 297.544 710.861 297.998 711.316Z" fill="#79522C"/>
<path d="M293.555 712.803H294.463L293.757 712.651L293.555 712.803Z" fill="#79522C"/>
<path d="M294.34 711.543L294.062 711.795C294.214 711.795 294.29 711.846 294.365 711.896C294.416 711.745 294.592 711.568 294.34 711.568V711.543Z" fill="#79522C"/>
<path d="M294.365 711.895C294.365 711.895 294.365 712.073 294.493 712.124C294.493 712.073 294.467 711.971 294.365 711.895Z" fill="#79522C"/>
<path d="M293.33 712.399L293.531 712.349L293.606 712.173L293.33 712.399Z" fill="#79522C"/>
<path d="M294.735 708.74L294.508 708.437C294.206 708.387 294.004 708.437 294.13 708.563C294.332 708.639 294.458 708.765 294.761 708.74H294.735Z" fill="#79522C"/>
<path d="M292.216 709.395C292.418 709.345 292.62 709.345 292.897 709.32L291.787 709.219L292.216 709.395Z" fill="#79522C"/>
<path d="M292.041 708.513C291.738 708.462 291.183 708.008 291.234 708.387C291.536 708.437 291.763 708.765 292.041 708.513Z" fill="#79522C"/>
<path d="M293.828 704.321V704.397L295.645 704.548L293.828 704.321Z" fill="#79522C"/>
<path d="M289.791 700.137C289.337 700.44 290.901 700.313 290.346 700.566C290.775 700.692 290.8 700.364 291.178 700.465C290.75 700.212 291.002 700.137 289.791 700.137Z" fill="#79522C"/>
<path d="M291.182 700.464C291.182 700.464 291.332 700.539 291.458 700.589C291.357 700.514 291.257 700.489 291.182 700.464Z" fill="#79522C"/>
<path d="M291.034 655.74L290.983 655.21L290.781 655.841L291.034 655.74Z" fill="#79522C"/>
<path d="M289.673 656.395L290.304 655.41L289.521 656.142C289.521 656.142 289.799 656.142 289.673 656.369V656.395Z" fill="#79522C"/>
<path d="M289.16 687.061H289.438C289.74 687.061 289.766 687.01 289.816 686.909L289.16 687.061Z" fill="#79522C"/>
<path d="M290.025 684.363L290 684.388L291.06 684.287L290.025 684.363Z" fill="#79522C"/>
<path d="M288.555 682.292C288.555 682.292 288.757 682.494 288.731 682.595C288.529 682.393 289.867 682.141 288.555 682.292Z" fill="#79522C"/>
</g>
<path d="M466.798 784.863C476.593 784.863 484.533 753.924 484.533 715.759C484.533 677.594 476.593 646.655 466.798 646.655C457.003 646.655 449.062 677.594 449.062 715.759C449.062 753.924 457.003 784.863 466.798 784.863Z" fill="black"/>
<g opacity="0.2">
<path d="M476.567 723.051C476.567 723.051 477.249 723.101 477.4 723.101C477.223 722.95 476.391 723.051 476.567 723.051Z" fill="#79522C"/>
<path d="M474.853 721.541L475.181 721.566L474.424 721.313L474.853 721.541Z" fill="#79522C"/>
<path d="M474.936 720.073C473.649 720.174 475.112 720.603 474.658 720.856H474.355L475.39 721.032C475.238 720.704 474.557 720.275 474.936 720.073Z" fill="#79522C"/>
<path d="M477.733 719.414C477.228 719.414 477.304 719.238 477.582 719.591C477.632 719.591 477.657 719.591 477.708 719.566C477.708 719.54 477.708 719.49 477.733 719.414Z" fill="#79522C"/>
<path d="M477.686 719.567C477.711 719.717 478.112 719.491 477.686 719.567V719.567Z" fill="#79522C"/>
<path d="M477.432 718.839L477.861 719.066C478.163 719.041 478.239 718.864 478.441 718.94C478.214 718.713 477.911 718.738 477.432 718.839Z" fill="#79522C"/>
<path d="M476.523 718.608L476.702 718.736C476.702 718.736 476.88 718.71 476.523 718.608Z" fill="#79522C"/>
<path d="M477.08 718.963L476.701 718.711C476.499 718.711 476.071 718.711 476.827 718.812C476.449 718.787 476.827 718.837 477.08 718.938V718.963Z" fill="#79522C"/>
<path d="M476.875 719.087C476.597 719.188 476.396 719.314 475.967 719.087C476.118 719.491 477.026 719.465 476.875 719.087Z" fill="#79522C"/>
<path d="M473.601 719.946L473.223 720.098L473.652 720.249C473.45 720.173 474.005 719.972 473.601 719.972V719.946Z" fill="#79522C"/>
<path d="M478.165 717.624C477.887 717.598 477.433 717.624 477.08 717.624L477.383 717.8C477.585 717.724 477.761 717.598 478.165 717.624Z" fill="#79522C"/>
<path d="M477.1 717.65L476.646 717.397C476.57 717.599 476.797 717.65 477.1 717.65Z" fill="#79522C"/>
<path d="M475.088 718.508L476.047 718.912L475.088 718.433V718.508Z" fill="#79522C"/>
<path d="M478.258 716.791L478.863 716.943L477.93 716.665L478.258 716.791Z" fill="#79522C"/>
<path d="M478.184 716.21C478.688 716.337 479.067 716.135 479.395 716.261C479.319 716.109 478.865 715.933 478.486 715.781C478.713 715.933 478.638 716.059 478.184 716.21Z" fill="#79522C"/>
<path d="M477.91 715.557C477.91 715.557 478.238 715.708 478.49 715.809C478.364 715.733 478.213 715.658 477.91 715.557Z" fill="#79522C"/>
<path d="M476.797 717.021C476.973 717.021 477.402 717.021 477.579 716.895H476.797V717.021Z" fill="#79522C"/>
<path d="M476.773 716.946C476.773 716.946 476.824 716.794 476.824 716.743C476.824 716.743 476.799 716.819 476.748 716.946H476.773Z" fill="#79522C"/>
<path d="M475.816 717.95C475.387 717.799 474.959 717.496 474.277 717.723C474.807 717.849 475.186 717.723 475.816 717.95Z" fill="#79522C"/>
<path d="M475.811 717.095L475.635 717.323C475.837 717.323 476.139 717.323 476.341 717.373L475.811 717.07V717.095Z" fill="#79522C"/>
<path d="M475.586 716.973L475.813 717.099L475.889 717.023L475.586 716.973Z" fill="#79522C"/>
<path d="M477.154 715.906C476.826 715.78 476.801 715.654 476.776 715.527C476.624 715.654 476.523 715.78 476.523 715.931C476.75 715.956 477.179 716.057 477.179 715.931L477.154 715.906Z" fill="#79522C"/>
<path d="M476.365 715.933C476.214 716.034 476.39 716.109 476.617 716.185C476.542 716.109 476.491 716.008 476.491 715.933C476.39 715.933 476.315 715.933 476.34 715.933H476.365Z" fill="#79522C"/>
<path d="M477.577 715.176C477.426 715.226 477.275 715.277 477.148 715.327C477.401 715.302 477.779 715.201 477.577 715.176Z" fill="#79522C"/>
<path d="M477.075 716.363C477.075 716.363 476.772 716.237 476.621 716.187C476.672 716.262 476.747 716.313 476.873 716.388C476.924 716.388 476.999 716.388 477.075 716.388V716.363Z" fill="#79522C"/>
<path d="M471.982 713.485C472.689 713.561 473.32 713.889 472.537 714.065C473.042 714.343 475.388 714.368 476.725 714.267C476.423 714.242 476.12 714.217 475.741 713.939C475.338 713.99 474.783 714.393 474.177 714.141C473.849 713.788 474.455 713.889 474.833 713.762C473.95 713.813 473.572 713.258 472.285 713.232L472.714 713.561C472.512 713.561 472.21 713.434 472.008 713.485H471.982Z" fill="#79522C"/>
<path d="M476.621 714.721L476.697 714.822C476.823 714.721 477.126 714.671 477.681 714.57C477.353 714.393 477.075 714.317 476.848 714.292L476.722 714.772L476.621 714.721Z" fill="#79522C"/>
<path d="M476.673 715.278C475.916 715.151 475.588 714.874 474.756 714.975C474.781 715.278 475.387 715.227 475.715 715.429C475.563 714.95 476.143 715.606 476.598 715.278C476.724 715.379 476.749 715.454 476.774 715.555C476.875 715.48 477.001 715.404 477.153 715.353H477.102C477.102 715.353 476.951 715.353 477.001 715.353C477.001 715.353 476.799 715.303 476.724 715.303C476.9 715.177 476.925 715.303 477.001 715.353H477.127L476.749 714.849C476.749 714.849 476.648 715.076 476.724 715.278H476.673Z" fill="#79522C"/>
<path d="M472.637 717.373C472.637 717.373 472.763 717.373 472.814 717.373C472.713 717.348 472.662 717.322 472.637 717.373Z" fill="#79522C"/>
<path d="M473.115 717.195C473.115 717.195 473.519 717.296 473.443 717.397C473.216 717.472 473.065 717.397 472.812 717.371C473.014 717.447 473.342 717.649 473.746 717.447L473.645 717.397C473.923 717.22 474.906 717.043 475.007 717.094C474.301 717.094 473.822 717.119 473.115 717.195Z" fill="#79522C"/>
<path d="M474.706 716.186L474.353 715.757L473.672 715.908H474.076C473.899 716.135 474.404 716.135 474.706 716.161V716.186Z" fill="#79522C"/>
<path d="M477.252 714.245L478.059 714.371L476.924 714.043L477.252 714.245Z" fill="#79522C"/>
<path d="M477.197 713.739L477.904 713.814L477.475 713.638L477.197 713.739Z" fill="#79522C"/>
<path d="M470.318 684.563L470.117 684.463C470.117 684.463 470.243 684.538 470.318 684.563Z" fill="#79522C"/>
<path d="M470.293 685.343H470.646C470.444 685.343 470.318 685.318 470.293 685.343Z" fill="#79522C"/>
<path d="M478.209 701.195C478.89 701.094 479.924 700.968 479.117 700.942H478.335C478.461 701.069 478.36 701.144 478.184 701.195H478.209Z" fill="#79522C"/>
<path d="M474.221 692.158H473.994C474.246 692.259 474.499 692.31 474.726 692.36C474.574 692.31 474.398 692.234 474.221 692.158Z" fill="#79522C"/>
<path d="M471.025 691.882L471.53 691.68C471.353 691.73 471.177 691.781 471.025 691.882Z" fill="#79522C"/>
<path d="M469.176 680.373L468.369 680.322C468.394 680.524 468.773 680.398 469.176 680.373Z" fill="#79522C"/>
<path d="M477.355 708.517C477.683 708.39 477.809 708.289 477.859 708.188C477.405 708.315 476.724 708.416 477.355 708.517Z" fill="#79522C"/>
<path d="M478.585 684.691C478.433 684.615 478.282 684.59 478.105 684.59C478.232 684.666 478.383 684.716 478.585 684.691Z" fill="#79522C"/>
<path d="M477.882 707.784C477.882 707.784 477.756 707.835 477.705 707.835C477.831 707.961 477.932 708.062 477.857 708.188C478.21 708.087 478.411 707.961 477.882 707.759V707.784Z" fill="#79522C"/>
<path d="M466.479 665.684C466.479 665.684 466.532 665.632 466.558 665.605C466.453 665.658 466.453 665.658 466.479 665.684Z" fill="#79522C"/>
<path d="M470.42 657.329C470.42 657.329 470.571 657.43 470.671 657.505C470.671 657.43 470.621 657.379 470.42 657.329Z" fill="#79522C"/>
<path d="M474.578 711.995C474.578 711.995 474.376 711.944 474.199 711.919C474.376 711.919 474.502 711.969 474.578 711.995Z" fill="#79522C"/>
<path d="M477.324 711.869C477.324 711.869 477.5 711.793 477.575 711.743C477.525 711.743 477.425 711.793 477.324 711.869Z" fill="#79522C"/>
<path d="M477.703 711.87C477.703 711.87 477.652 711.921 477.627 711.946C477.753 711.946 477.829 711.946 477.703 711.87Z" fill="#79522C"/>
<path d="M477.68 711.567C477.68 711.567 477.654 711.694 477.578 711.745C477.629 711.745 477.679 711.745 477.705 711.745C477.705 711.719 477.705 711.669 477.68 711.593V711.567Z" fill="#79522C"/>
<path d="M470.875 672.65C470.875 672.65 470.901 672.65 470.952 672.624C470.621 672.573 470.672 672.624 470.875 672.65Z" fill="#79522C"/>
<path d="M470.391 697.686L470.417 697.712L470.469 697.686H470.391Z" fill="#79522C"/>
<path d="M469.834 697.261C470.793 697.513 470.667 697.589 470.44 697.69L472.685 697.74L469.834 697.261Z" fill="#79522C"/>
<path d="M470.012 682.799L469.331 683.102C468.171 682.9 468.549 682.698 467.59 682.976C470.012 682.824 467.893 683.834 470.34 683.733L469.836 683.91C469.836 683.91 469.71 683.859 469.735 683.809C468.574 684.162 471.526 683.96 471.173 684.389C470.996 684.541 470.643 684.667 470.34 684.566L470.946 684.869C470.946 684.869 470.466 684.945 470.517 684.869L470.719 685.374H470.643C471.021 685.424 471.627 685.601 471.879 685.676C471.526 685.803 471.627 685.626 471.324 685.651L471.93 685.929C471.299 686.055 470.693 685.803 470.769 685.626C468.347 685.904 471.4 685.853 469.962 686.408L469.659 686.156C468.272 686.307 468.776 686.535 467.893 686.812C468.347 686.762 470.088 686.232 470.668 686.535C470.492 686.61 470.391 686.736 470.87 686.913C470.012 686.913 470.214 687.065 470.265 687.267H469.104C469.432 687.468 470.012 687.443 470.542 687.595C470.416 687.847 469.533 687.872 468.776 687.897C468.599 688.276 470.214 687.67 470.416 688.125C469.962 688.427 470.416 688.68 471.097 689.109C470.693 689.336 470.391 689.033 470.063 689.109L470.971 689.336C470.971 689.336 470.668 689.336 470.517 689.336C470.87 689.513 471.652 689.387 471.955 689.689C473.216 689.816 470.088 690.169 471.501 690.573C471.173 690.649 470.794 690.497 470.365 690.497C471.299 691.002 471.047 690.926 472.283 691.38L471.501 691.658C472.384 691.456 473.368 691.835 474.2 692.138C474.629 692.062 474.982 692.011 475.159 691.986L475.739 692.466C475.537 692.516 475.159 692.466 474.679 692.339C474.78 692.365 474.856 692.415 474.957 692.44C474.528 692.567 473.872 692.44 473.241 692.314C473.468 692.289 473.721 692.239 473.948 692.188C473.267 692.037 472.485 691.91 471.829 691.885C471.955 691.91 472.081 691.986 472.131 692.037C471.955 691.986 471.778 691.961 471.652 691.986C471.526 691.986 471.778 692.062 472.081 692.138H470.794L471.299 692.213L470.466 692.718C471.728 693.198 473.595 693.677 474.074 694.359C473.141 694.131 472.535 694.232 471.425 694.131C472.611 694.031 470.971 693.601 471.223 693.299C471.097 693.475 470.567 693.4 470.391 693.324L471.425 693.98C470.517 693.904 470.744 694.056 470.34 694.182C472.131 694.182 471.501 694.712 472.03 694.99C471.425 694.964 470.82 694.863 470.971 694.586C469.609 694.813 473.04 695.166 471.879 695.393C471.879 695.318 471.955 695.292 471.652 695.242C472.182 695.444 471.728 695.822 471.198 695.696V695.621C470.946 696.075 471.072 697.084 472.585 697.261C472.384 697.261 470.769 697.034 470.441 697.009L475.487 698.271C474.175 698.094 471.047 698.119 470.34 697.665C470.138 697.766 469.911 697.892 470.34 698.17C470.542 698.119 472.258 698.119 472.358 698.245C470.87 698.422 471.551 698.397 470.29 698.649C470.567 698.548 472.611 698.851 472.535 699.028C472.232 698.977 470.517 698.876 470.29 698.801L472.258 699.432C471.904 699.28 470.542 699.28 469.987 699.331C470.391 699.331 469.911 699.734 470.113 699.861L470.593 699.709C470.239 700.214 473.368 700.466 473.216 700.971C472.813 700.87 470.668 700.593 470.391 700.845C471.4 701.047 475.31 701.804 476.042 702.334H475.436L476.067 702.788C474.528 702.435 471.324 701.526 470.088 701.097C469.609 701.249 469.382 701.097 469.407 701.375C468.852 701.425 468.574 701.148 468.549 701.047L468.145 701.703C469.356 701.779 469.306 702.334 470.315 702.385L469.129 701.552C470.34 701.627 472.51 702.284 472.258 702.738C471.778 702.814 470.138 702.46 469.735 702.435C470.138 702.536 470.492 702.965 470.189 702.99L469.558 702.738C469.079 702.965 471.122 703.318 469.937 703.545C469.861 703.646 468.347 703.747 469.079 703.823C470.466 703.773 474.705 704.101 475.739 704.328C475.638 704.353 474.377 704.807 473.696 704.858C472.611 704.934 471.148 704.353 470.214 704.429C470.542 704.454 470.946 704.605 471.072 704.656C470.769 704.757 470.063 704.505 470.189 704.782C471.4 704.934 470.037 705.287 471.198 704.984C471.526 705.262 470.92 705.236 470.946 705.514C471.753 705.514 473.595 706.019 473.923 706.296C473.62 706.246 473.216 706.296 473.014 706.296C472.863 706.801 472.283 707.028 472.232 707.483C471.93 707.483 471.551 707.685 471.047 707.558C471.248 707.634 471.652 707.735 471.677 707.887C470.592 708.063 471.551 707.533 470.265 707.659C470.971 707.735 471.198 708.114 471.627 708.366C472.737 708.391 471.879 707.912 471.45 707.659C472.964 707.786 474.503 708.29 475.159 708.846C475.487 709.275 474.175 708.921 474.377 709.022C474.049 709.729 476.95 709.88 475.815 710.41C474.831 710.562 473.897 710.259 473.191 710.259C472.863 709.906 473.847 709.83 473.822 709.603L473.342 709.83C473.04 709.704 472.813 709.451 473.09 709.376C472.207 709.502 472.813 710.612 471.955 711.117C472.258 711.243 472.585 711.445 472.989 711.395L472.863 711.193C473.645 711.092 473.897 711.622 474.276 711.42C474.806 711.698 475.638 712.051 475.159 712.354H474.049C474.377 712.354 474.73 712.152 474.402 712.026C474.881 712.202 472.863 712.43 474.301 712.707L475.083 712.53C475.613 712.808 476.748 713.212 476.395 713.49C477.48 713.439 476.269 713.414 477.555 713.288C475.966 713.338 477.682 712.53 475.991 712.682C477.48 712.581 476.647 712.354 477.934 712.177C477.581 712.177 477.228 712.228 477.429 711.975C477.328 711.95 477.202 711.925 477.127 711.899C477.127 711.899 477.127 711.899 477.152 711.899H477.101C476.95 711.95 476.748 711.975 476.546 711.975C475.714 711.773 475.789 711.369 475.361 711.218C475.537 711.092 475.764 711.319 476.168 711.269L475.537 711.016C476.345 711.067 476.9 710.739 477.354 711.117L477.429 710.814C477.909 710.663 478.085 710.436 477.783 710.234C477.959 710.108 476.925 709.779 477.555 709.956L477.101 709.426H477.303C477.455 708.947 476.067 708.316 477.555 707.861C477.379 707.685 477.127 707.483 477.379 707.23H478.085C477.858 707.003 478.842 706.65 478.11 706.498C480.003 706.448 478.615 705.489 478.968 705.161L478.06 705.06C478.136 704.807 477.909 704.53 477.555 704.176L476.748 704.126C476.117 703.798 477.379 703.47 477.328 703.015C477.631 703.066 477.53 703.167 477.328 703.243C479.195 702.889 476.117 702.006 477.48 701.653C477.202 701.501 477.303 701.425 477.505 701.375C477.505 701.375 477.505 701.375 477.555 701.4C477.555 701.4 477.555 701.375 477.555 701.35C477.707 701.299 477.858 701.249 478.01 701.224C477.808 701.249 477.656 701.299 477.555 701.324C477.555 701.223 477.455 701.072 477.278 700.921H478.136C478.464 700.82 477.732 700.769 477.076 700.794C476.95 700.719 476.773 700.643 476.572 700.567C477.959 700.567 476.143 700.163 477.631 700.138C476.925 699.987 477.152 699.406 475.638 699.204C475.84 699.204 475.941 699.204 475.941 699.255C476.117 699.129 476.319 698.977 475.89 698.801H477L475.562 698.372C476.244 698.22 476.647 698.17 477.48 698.447C476.218 697.867 477.026 698.018 475.764 697.488L476.471 697.564C476.471 697.412 475.537 697.11 476.117 697.059C477.48 696.832 476.42 695.444 477.732 694.687C475.638 694.687 478.691 694.359 477.076 694.207C477.581 694.207 477.858 694.081 478.287 694.258C477.833 693.778 479.12 693.652 477.757 693.248C478.262 693.248 478.489 693.374 478.766 693.349C478.666 693.299 478.338 693.172 478.64 693.147C478.943 693.122 479.044 693.248 479.271 693.324C479.221 692.87 477.707 692.743 476.269 692.617C476.95 692.44 476.874 692.314 475.941 692.087C476.42 692.037 476.9 691.936 477.051 692.213C477.127 692.062 477.783 691.305 476.647 691.229C476.95 691.204 476.748 691.027 476.622 690.977C476.698 690.623 476.799 690.598 476.723 690.245L476.521 690.32C475.134 690.118 476.218 690.017 476.067 689.74H476.218C477.253 689.159 475.739 689.462 476.925 688.882H476.067C474.225 688.781 477.177 688.377 476.471 687.973L475.966 688.099C475.335 687.897 478.489 687.595 478.741 687.393C478.893 687.342 478.994 687.468 479.12 687.544C480.23 687.014 477.984 687.468 477.732 687.065C478.338 686.989 479.271 687.191 479.397 686.913C479.902 686.787 477.429 686.131 478.59 685.752C478.11 685.828 477.656 685.929 477.303 685.752C477.127 685.475 479.069 684.945 477.581 684.717C477.707 684.667 477.833 684.667 477.959 684.667C477.581 684.465 477.328 683.96 476.496 683.859C479.448 683.506 474.957 682.572 477.707 682.395L477.505 681.714H477.783C477.934 681.285 477.253 681.184 476.597 681.108C476.773 681.007 477.026 681.033 477.177 681.033C477.682 680.376 477.555 680.326 476.143 679.947L477.026 679.796C476.496 679.72 478.338 678.786 477.228 678.281C477.328 678.281 477.505 678.281 477.631 678.281C476.521 677.726 479.902 676.363 476.647 676.515L475.79 676.161C475.613 676.767 474.377 676.262 473.872 676.565C473.645 676.363 474.755 675.859 474.957 676.111L474.806 676.187C476.496 676.06 475.31 675.404 476.445 675.253C476.218 674.142 476.95 672.855 476.824 671.745L475.562 672.123V671.745C475.84 671.593 476.546 671.417 476.546 671.694C477.253 671.417 475.84 671.366 475.562 671.417C475.966 670.786 477.101 671.316 477.101 671.164L476.95 670.962L476.799 671.038C476.244 670.962 475.663 671.063 475.663 670.735C475.865 670.483 476.445 670.457 476.471 670.357C476.572 670.357 476.597 670.306 476.471 670.23V669.726L475.512 670.155C474.957 670.054 475.462 669.7 474.377 670.18C476.067 669.448 474.579 668.262 475.058 667.934C474.251 667.858 474.175 667.555 474.15 667.176C473.973 667.328 472.863 667.732 472.913 667.378C475.234 666.747 473.746 666.52 475.285 665.687C474.276 666.293 474.679 664.905 473.292 665.814C473.393 665.485 474.124 665.485 474.579 665.107C473.494 664.829 474.579 663.517 473.973 662.861C473.67 662.987 473.292 663.315 472.787 663.34L474.024 662.28C473.822 662.204 472.308 662.936 473.166 662.179C472.939 662.331 472.611 662.558 472.485 662.507C472.813 661.447 472.131 660.841 471.576 660.236C470.996 659.58 470.668 658.999 471.072 657.232C470.794 657.863 470.618 657.737 470.466 657.586C470.466 657.788 469.861 658.091 469.558 658.393C469.684 657.939 469.785 657.434 469.836 656.955C468.902 657.687 469.054 656.374 468.271 657.207H468.599C467.515 658.065 467.01 659.756 465.774 660.968C466.354 660.463 466.102 660.993 465.824 661.422C465.572 661.851 465.32 662.179 466.304 661.649C466.077 661.927 465.824 661.927 465.547 662.23C466.178 661.826 466.379 661.851 466.228 662.23L466.077 662.305C466.581 662.709 466.127 663.391 466.077 664.224L466.783 663.744C466.783 663.946 466.556 664.097 466.405 664.274C467.616 663.794 466.253 663.845 467.565 663.264C466.178 664.324 468.12 664.299 466.43 665.334C466.531 665.561 467.288 664.829 467.363 665.056L466.909 665.359L467.54 665.107C467.515 665.309 466.934 665.662 466.531 665.864C466.556 665.814 466.379 665.814 466.329 665.814C465.85 666.268 466.758 666.217 466.606 666.369L466.808 666.041C467.54 666.445 467.212 667.429 468.423 667.656L468.776 667.479C469.659 667.706 468.524 668.009 469.003 668.438H468.902C469.306 668.438 469.558 668.514 469.558 668.691C469.079 668.691 468.776 669.221 468.221 669.196C469.155 669.473 468.902 669.271 470.441 669.196L469.836 669.473C470.441 669.423 470.769 669.347 470.996 669.599C470.391 669.524 470.063 670.054 469.255 669.978C468.019 670.912 470.895 670.483 468.902 671.265C470.769 671.114 469.785 670.508 470.189 670.558C470.744 670.281 471.576 670.457 471.45 670.685C471.45 670.887 469.23 671.543 469.382 672.022C469.382 671.972 469.255 672.022 469.23 671.947C468.801 672.224 469.937 672.148 469.23 672.527C470.34 672.426 469.23 672.83 470.618 672.578L470.214 672.199C470.618 672.376 472.308 672.275 471.602 672.88C471.324 672.88 470.92 672.855 470.693 672.805C470.315 673.007 471.021 672.981 470.618 673.209C469.205 673.436 470.214 672.729 469.079 672.679C468.524 672.931 470.189 672.981 468.65 673.133C470.618 672.956 468.499 673.638 470.012 673.688L469.18 673.814C469.331 673.839 469.735 673.865 469.735 673.966H468.625C469.609 674.092 467.918 674.622 468.448 674.799C468.347 674.269 469.432 674.521 470.012 674.193C471.248 674.672 467.868 674.925 468.398 675.581C468.272 675.505 468.852 675.127 469.255 675.228C469.104 675.404 468.801 675.631 468.372 675.783C468.625 676.237 469.23 675.581 469.785 675.707C468.776 676.035 470.239 675.884 470.593 676.061L469.735 676.187C469.255 676.818 471.551 676.086 470.946 676.691L469.735 676.641L470.088 676.868L469.104 676.944C469.861 677.146 469.684 677.247 469.457 677.575C470.063 677.423 471.021 677.423 471.072 677.676C470.593 677.903 470.239 677.676 470.416 678.029C469.861 678.029 469.18 678.004 469.962 677.751C469.684 677.751 469.407 677.751 469.129 677.751C468.574 678.004 469.054 678.231 469.079 678.357C469.104 678.307 469.155 678.231 469.255 678.206L470.517 678.584C470.214 678.711 469.937 678.66 469.684 678.635C469.785 678.736 470.189 678.761 470.29 678.912C469.583 678.938 468.852 679.039 468.499 678.862L469.331 679.266C469.028 679.342 468.524 679.619 468.246 679.569C467.868 679.872 469.684 680.099 469.18 680.528C469.306 680.528 469.457 680.553 469.558 680.629C469.432 680.982 468.599 681.386 469.609 681.714L468.372 682.067C468.7 682.37 469.937 681.588 470.441 682.093C470.87 682.446 469.382 682.345 469.054 682.496C469.709 682.648 470.996 682.799 470.012 683.203C469.76 683.127 469.962 683.026 469.861 682.925L470.012 682.799ZM470.693 686.509C470.517 686.434 469.962 686.282 470.466 686.232C471.45 686.333 470.971 686.383 470.693 686.509ZM472.535 692.668C472.258 692.592 472.409 692.516 472.737 692.415C472.813 692.491 472.762 692.567 472.535 692.668ZM477.101 710.486H477.051C477.404 710.335 477.253 710.385 477.101 710.486ZM476.698 710.814C476.698 710.814 476.925 710.865 477.051 710.865C476.824 710.814 476.824 710.738 476.9 710.638C476.673 710.638 476.521 710.688 476.698 710.814ZM476.345 670.306L476.143 670.432C475.865 670.306 476.092 670.306 476.345 670.306Z" fill="#79522C"/>
<path d="M471.377 691.908C471.528 691.908 471.68 691.908 471.856 691.908C471.705 691.857 471.554 691.857 471.377 691.908Z" fill="#79522C"/>
<path d="M469.883 704.476C470.009 704.4 470.186 704.375 470.337 704.375C470.135 704.375 469.933 704.375 469.883 704.476Z" fill="#79522C"/>
<path d="M478.005 712.879L477.803 712.627C477.803 712.627 477.651 712.778 477.5 712.804C477.702 712.804 478.005 712.804 478.005 712.879Z" fill="#79522C"/>
<path d="M472.48 714.471C472.48 714.471 472.48 714.547 472.581 714.597H472.985C472.985 714.471 472.657 714.345 472.48 714.471Z" fill="#79522C"/>
<path d="M475.113 712.855C474.381 712.805 474.609 712.982 474.735 713.158C474.735 713.158 474.735 713.158 474.735 713.133C475.744 713.259 475.416 713.057 475.113 712.855Z" fill="#79522C"/>
<path d="M474.756 713.184C474.756 713.184 474.807 713.285 474.756 713.336C475.163 713.387 474.858 713.285 474.756 713.184Z" fill="#79522C"/>
<path d="M477.129 711.316C476.927 711.366 478.062 711.442 477.76 711.467C478.668 711.644 476.675 710.861 477.129 711.316Z" fill="#79522C"/>
<path d="M472.715 712.803H473.623L472.891 712.651L472.715 712.803Z" fill="#79522C"/>
<path d="M473.471 711.543L473.193 711.795C473.345 711.795 473.42 711.846 473.496 711.896C473.547 711.745 473.723 711.568 473.471 711.568V711.543Z" fill="#79522C"/>
<path d="M473.496 711.895C473.496 711.895 473.496 712.073 473.623 712.124C473.623 712.073 473.598 711.971 473.496 711.895Z" fill="#79522C"/>
<path d="M472.461 712.399L472.662 712.349L472.737 712.173L472.461 712.399Z" fill="#79522C"/>
<path d="M473.896 708.74L473.669 708.437C473.366 708.387 473.164 708.437 473.29 708.563C473.492 708.639 473.618 708.765 473.921 708.74H473.896Z" fill="#79522C"/>
<path d="M471.376 709.395C471.578 709.345 471.78 709.345 472.057 709.32L470.947 709.219L471.376 709.395Z" fill="#79522C"/>
<path d="M471.172 708.513C470.869 708.462 470.314 708.008 470.365 708.387C470.667 708.437 470.894 708.765 471.172 708.513Z" fill="#79522C"/>
<path d="M472.969 704.321L472.994 704.397L474.81 704.548L472.969 704.321Z" fill="#79522C"/>
<path d="M468.951 700.137C468.497 700.44 470.061 700.313 469.506 700.566C469.935 700.692 469.96 700.364 470.339 700.465C469.91 700.212 470.162 700.137 468.951 700.137Z" fill="#79522C"/>
<path d="M470.342 700.464C470.342 700.464 470.492 700.539 470.618 700.589C470.517 700.514 470.417 700.489 470.342 700.464Z" fill="#79522C"/>
<path d="M470.168 655.74L470.143 655.21L469.941 655.841L470.168 655.74Z" fill="#79522C"/>
<path d="M468.804 656.395L469.434 655.41L468.652 656.142C468.652 656.142 468.93 656.142 468.804 656.369V656.395Z" fill="#79522C"/>
<path d="M468.32 687.061H468.598C468.901 687.061 468.926 687.01 468.976 686.909L468.32 687.061Z" fill="#79522C"/>
<path d="M469.176 684.363L469.15 684.388L470.185 684.287L469.176 684.363Z" fill="#79522C"/>
<path d="M467.695 682.292C467.695 682.292 467.897 682.494 467.872 682.595C467.67 682.393 469.007 682.141 467.695 682.292Z" fill="#79522C"/>
</g>
<path d="M401.602 804.424C396.733 807.15 377.257 806.544 377.257 806.544C377.257 806.544 357.756 807.175 352.887 804.424C348.724 802.052 360.707 789.912 371.833 784.511C375.239 782.845 379.225 782.845 382.631 784.511C393.782 789.937 405.765 802.077 401.577 804.424H401.602Z" fill="#754D2D"/>
<path d="M695.634 609.987C607.966 598.908 466.814 589.241 373.445 419.435C287.669 587.954 147.35 597.065 60.918 608.347C60.918 452.018 163.647 345.662 283.052 305.381C312.746 295.336 344.331 289.985 377.052 289.985C409.773 289.985 439.013 295.008 467.773 304.447C589.903 344.451 699.469 460.776 695.609 610.013L695.634 609.987Z" fill="black"/>
<path d="M418.779 46.304C418.779 46.304 382.702 -15.9347 304.369 3.90292C235.723 21.2672 239.658 69.1451 239.658 69.1451C239.658 69.1451 177.446 43.7297 142.807 77.7767C93.7891 125.957 129.285 202.027 129.285 202.027C129.285 202.027 93.7638 219.391 93.7891 266.26C93.8648 355.327 189.505 360.274 189.505 360.274C189.505 360.274 153.025 409.439 192.457 448.887C241.752 498.229 365.598 386.951 365.598 386.951C365.598 386.951 603.499 499.44 547.72 360.829C547.72 360.829 650.045 357.422 661.6 271.358C673.609 181.811 597.394 164.85 597.394 164.85C597.394 164.85 613.137 77.6505 558.972 41.1048C493.681 -2.93677 418.779 46.3293 418.779 46.3293V46.304Z" fill="black"/>
<g opacity="0.2">
<path d="M578.666 137.714C578.591 137.915 579.575 137.84 579.751 137.865C579.524 137.537 578.389 137.714 578.666 137.714Z" fill="#79522C"/>
<path d="M576.371 134.486L576.8 134.562L575.791 134.082L576.371 134.486Z" fill="#79522C"/>
<path d="M576.369 131.455C574.653 131.758 576.646 132.54 576.041 133.096L575.662 133.197L577.05 133.424C576.823 132.768 575.915 131.909 576.394 131.455H576.369Z" fill="#79522C"/>
<path d="M580.051 129.814C579.395 129.915 579.471 129.46 579.849 130.192C579.925 130.167 579.975 130.142 580.026 130.117C580.026 130.041 580.026 129.965 580.051 129.814Z" fill="#79522C"/>
<path d="M580.029 130.115C580.079 130.442 580.581 129.915 580.029 130.115V130.115Z" fill="#79522C"/>
<path d="M579.629 128.63L580.234 129.059C580.638 128.958 580.714 128.58 580.991 128.731C580.663 128.302 580.26 128.403 579.629 128.655V128.63Z" fill="#79522C"/>
<path d="M578.389 128.252L578.641 128.479C578.818 128.429 578.868 128.378 578.389 128.252Z" fill="#79522C"/>
<path d="M579.171 128.931L578.642 128.477C578.364 128.552 577.809 128.552 578.843 128.678C578.339 128.653 578.843 128.729 579.197 128.931H579.171Z" fill="#79522C"/>
<path d="M578.92 129.185C578.542 129.437 578.315 129.74 577.734 129.311C577.987 130.118 579.172 129.992 578.92 129.185Z" fill="#79522C"/>
<path d="M574.606 131.328L574.102 131.656L574.682 131.934C574.404 131.808 575.136 131.328 574.606 131.353V131.328Z" fill="#79522C"/>
<path d="M580.481 125.977C580.128 125.977 579.522 126.128 579.043 126.178L579.472 126.481C579.724 126.305 579.951 126.002 580.481 125.977Z" fill="#79522C"/>
<path d="M579.041 126.182L578.41 125.728C578.334 126.157 578.637 126.207 579.041 126.182Z" fill="#79522C"/>
<path d="M576.465 128.203L577.802 128.96L576.465 128.052V128.203Z" fill="#79522C"/>
<path d="M580.503 124.186L581.335 124.439L580.049 123.984L580.503 124.186Z" fill="#79522C"/>
<path d="M580.332 122.999C581.038 123.176 581.518 122.696 581.947 122.898C581.82 122.57 581.215 122.318 580.66 122.065C580.963 122.318 580.887 122.621 580.332 122.974V122.999Z" fill="#79522C"/>
<path d="M579.844 121.66C580.02 121.786 580.323 121.913 580.626 122.064C580.474 121.938 580.222 121.786 579.844 121.66Z" fill="#79522C"/>
<path d="M578.584 124.92C578.811 124.869 579.366 124.793 579.618 124.541L578.609 124.743C578.609 124.743 578.609 124.869 578.609 124.92H578.584Z" fill="#79522C"/>
<path d="M578.564 124.74H578.59C578.59 124.538 578.64 124.386 578.64 124.336C578.64 124.386 578.615 124.513 578.564 124.74Z" fill="#79522C"/>
<path d="M578.59 124.967V124.917C578.59 124.917 578.466 124.942 578.59 124.967Z" fill="#79522C"/>
<path d="M577.371 126.967C576.791 126.689 576.186 126.134 575.303 126.715C576.009 126.891 576.488 126.588 577.371 126.967Z" fill="#79522C"/>
<path d="M577.297 125.221L577.07 125.725C577.348 125.725 577.726 125.624 578.029 125.725L577.297 125.195V125.221Z" fill="#79522C"/>
<path d="M576.973 124.966L577.301 125.218L577.376 125.042L576.973 124.966Z" fill="#79522C"/>
<path d="M578.918 122.548C578.464 122.346 578.439 122.118 578.338 121.841C578.136 122.118 578.035 122.421 578.06 122.699C578.388 122.724 578.969 122.85 578.918 122.548Z" fill="#79522C"/>
<path d="M578.661 123.631L578.608 123.579C578.608 123.579 578.504 123.631 578.661 123.631Z" fill="#79522C"/>
<path d="M578.283 119.214C578.283 119.214 578.156 119.239 578.105 119.265H578.283V119.214Z" fill="#79522C"/>
<path d="M577.885 122.775C577.683 123.002 577.935 123.128 578.263 123.229C578.162 123.078 578.086 122.901 578.086 122.725C577.935 122.725 577.834 122.725 577.885 122.775Z" fill="#79522C"/>
<path d="M579.373 120.957C579.172 121.083 578.995 121.209 578.818 121.336C579.146 121.209 579.651 120.982 579.373 120.957Z" fill="#79522C"/>
<path d="M578.867 123.506H578.918C579.146 123.455 579.019 123.48 578.867 123.506Z" fill="#79522C"/>
<path d="M578.863 123.505C578.712 123.404 578.459 123.328 578.232 123.228C578.308 123.354 578.434 123.48 578.586 123.581C578.661 123.556 578.762 123.53 578.863 123.505Z" fill="#79522C"/>
<path d="M571.699 118.632C572.658 118.632 573.541 119.162 572.532 119.692C573.263 120.146 576.366 119.742 578.107 119.263C577.704 119.263 577.3 119.263 576.745 118.809C576.24 119.011 575.559 119.944 574.701 119.541C574.197 118.91 575.029 119.011 575.509 118.657C574.348 118.96 573.768 117.9 572.027 118.102L572.658 118.657C572.38 118.657 571.952 118.481 571.699 118.657V118.632Z" fill="#79522C"/>
<path d="M578.037 120.226L578.163 120.428C578.315 120.201 578.693 120.024 579.425 119.696C578.945 119.368 578.592 119.317 578.289 119.292L578.188 120.302L578.037 120.226Z" fill="#79522C"/>
<path d="M578.184 121.334C577.15 121.208 576.696 120.728 575.586 121.057C575.662 121.637 576.469 121.46 576.923 121.789C576.646 120.829 577.503 122.041 578.084 121.334C578.26 121.511 578.311 121.688 578.361 121.839C578.487 121.662 578.639 121.486 578.815 121.334H578.739V121.359C578.613 121.41 578.538 121.41 578.613 121.359C578.462 121.359 578.336 121.359 578.235 121.334C578.437 121.057 578.512 121.284 578.613 121.359H578.765L578.184 120.4C578.058 120.602 578.084 120.855 578.21 121.309L578.184 121.334Z" fill="#79522C"/>
<path d="M573.115 126.232C573.115 126.232 573.293 126.207 573.344 126.207C573.217 126.156 573.141 126.13 573.115 126.232Z" fill="#79522C"/>
<path d="M573.718 125.825C573.87 125.901 574.273 125.952 574.172 126.179C573.87 126.381 573.668 126.179 573.34 126.179C573.617 126.305 574.097 126.633 574.576 126.204L574.425 126.128C574.778 125.75 576.065 125.22 576.191 125.295C575.257 125.422 574.601 125.523 573.693 125.8L573.718 125.825Z" fill="#79522C"/>
<path d="M575.69 123.556L575.16 122.773L574.277 123.202H574.807C574.605 123.632 575.261 123.505 575.69 123.556Z" fill="#79522C"/>
<path d="M578.794 119.113L579.879 119.189L578.34 118.76L578.794 119.113Z" fill="#79522C"/>
<path d="M578.633 118.08H579.566L578.986 117.827L578.633 118.08Z" fill="#79522C"/>
<path d="M555.66 64.5972L555.332 64.5215C555.332 64.5215 555.559 64.5972 555.66 64.5972Z" fill="#79522C"/>
<path d="M556.311 66.036L556.74 65.8594C556.487 65.9099 556.285 65.9603 556.311 66.036Z" fill="#79522C"/>
<path d="M576.27 92.2055C577.102 91.726 578.389 91.095 577.329 91.3222L576.32 91.5998C576.547 91.8017 576.446 92.0289 576.27 92.2055Z" fill="#79522C"/>
<path d="M566.303 76.3827L566.025 76.5593C566.379 76.5341 566.732 76.5089 567.035 76.4836C566.807 76.4584 566.555 76.4079 566.303 76.3574V76.3827Z" fill="#79522C"/>
<path d="M562.109 77.4221L562.614 76.8164C562.412 76.9678 562.261 77.1698 562.109 77.4221Z" fill="#79522C"/>
<path d="M550.404 57.8613L549.395 58.2399C549.596 58.568 549.95 58.1137 550.404 57.8613Z" fill="#79522C"/>
<path d="M577.679 107.355C578.058 107.027 578.209 106.774 578.234 106.572C577.679 106.976 576.796 107.329 577.679 107.355Z" fill="#79522C"/>
<path d="M565.773 60.1809C565.546 60.1305 565.319 60.1809 565.117 60.2819C565.344 60.3324 565.571 60.3324 565.773 60.1809Z" fill="#79522C"/>
<path d="M578.186 105.688C578.186 105.688 578.035 105.815 577.959 105.865C578.161 106.067 578.312 106.269 578.262 106.547C578.691 106.244 578.943 105.916 578.186 105.688Z" fill="#79522C"/>
<path d="M529.09 37.1086C529.09 37.1086 529.09 37.0333 529.09 36.958C529.015 37.0835 529.04 37.1086 529.09 37.1086Z" fill="#79522C"/>
<path d="M523.945 23.9363C523.945 23.9363 524.223 23.9363 524.399 23.9616C524.349 23.8606 524.223 23.8354 523.945 23.9363Z" fill="#79522C"/>
<path d="M578.916 113.843C578.996 114.083 579.049 113.869 578.916 113.843V113.843Z" fill="#79522C"/>
<path d="M574.86 115.1C574.86 115.1 574.583 115.024 574.355 115.024C574.608 115.024 574.759 115.05 574.86 115.1Z" fill="#79522C"/>
<path d="M571.549 104.043C571.347 104.119 571.398 104.093 571.549 104.043V104.043Z" fill="#79522C"/>
<path d="M578.467 114.194C578.467 114.194 578.694 113.993 578.77 113.892C578.694 113.942 578.593 114.043 578.467 114.194Z" fill="#79522C"/>
<path d="M578.939 114.116C578.939 114.116 578.863 114.269 578.838 114.319C579.016 114.319 579.117 114.319 578.939 114.116Z" fill="#79522C"/>
<path d="M578.841 113.535C578.841 113.661 578.841 113.788 578.74 113.888C578.816 113.838 578.866 113.813 578.892 113.838C578.892 113.762 578.841 113.687 578.816 113.535H578.841Z" fill="#79522C"/>
<path d="M544.003 44.4808C544.003 44.4808 544.003 44.4304 544.028 44.3799C543.574 44.5566 543.7 44.5566 544.003 44.4808Z" fill="#79522C"/>
<path d="M564.639 88.5221H564.691L564.717 88.4961L564.639 88.5221Z" fill="#79522C"/>
<path d="M563.73 87.9436C565.068 87.9941 564.941 88.196 564.74 88.4989L567.616 87.666L563.73 87.9436Z" fill="#79522C"/>
<path d="M553.587 61.4683L553.032 62.3769C551.392 62.604 551.644 61.9731 550.736 63.0331C553.587 61.4683 551.972 64.5222 554.848 63.0331L554.419 63.6388C554.419 63.6388 554.218 63.6388 554.218 63.5126C553.158 64.7998 556.513 62.8312 556.513 63.8155C556.438 64.1941 556.11 64.5979 555.656 64.5979L556.665 64.825C556.69 65.0269 556.16 65.2289 556.135 65.027L556.816 65.8093H556.715C557.245 65.7589 558.103 65.7084 558.481 65.7084C558.178 66.1375 558.103 65.7336 557.775 65.986L558.733 66.1627C558.077 66.718 557.119 66.6675 557.068 66.2636C554.369 68.1313 558.027 66.3141 556.766 68.1566L556.185 67.8537C554.646 68.939 555.403 69.0147 554.596 69.999C555.101 69.6456 556.766 67.7527 557.749 67.9546C557.598 68.207 557.573 68.4594 558.304 68.4847C557.245 68.9642 557.649 69.1409 557.85 69.469L556.438 70.0495C557.018 70.2514 557.724 69.9233 558.456 69.898C558.506 70.4028 557.472 70.9328 556.564 71.4124C556.614 72.22 558.128 70.2009 558.733 70.9328C558.431 71.7405 559.162 71.9171 560.298 72.3209C559.97 72.9267 559.389 72.5733 559.036 72.8762L560.323 72.8257C560.323 72.8257 559.97 73.0276 559.793 73.0781C560.348 73.2295 561.231 72.5733 561.811 72.9267C563.476 72.4976 559.869 74.7943 561.887 74.7943C561.534 75.0972 560.979 75.0215 560.424 75.2739C561.912 75.7282 561.534 75.7282 563.375 75.9048L562.618 76.8134C563.552 76.0058 565.066 76.1825 566.302 76.3591C566.781 76.031 567.185 75.7534 567.387 75.5767L568.421 76.1825C568.219 76.3591 567.689 76.4349 567.033 76.4853C567.16 76.4853 567.311 76.5106 567.437 76.5358C566.983 77.0154 566.1 77.0911 565.217 77.1415C565.469 76.9649 565.747 76.763 566.024 76.5611C565.066 76.6368 564.031 76.7377 563.199 77.0658C563.375 77.0658 563.577 77.1163 563.678 77.2173C563.426 77.2173 563.199 77.2677 563.047 77.3435C562.896 77.4192 563.249 77.3939 563.653 77.4192L562.063 78.1006L562.719 77.9492L561.988 79.3121C563.855 79.5897 566.504 79.5645 567.513 80.6497C566.226 80.6497 565.52 81.104 564.082 81.4826C565.52 80.7255 563.174 80.7254 563.3 80.0188C563.224 80.3973 562.543 80.4983 562.265 80.4983L563.956 81.2302C562.77 81.5078 563.148 81.7098 562.719 82.1136C564.99 81.2807 564.485 82.5426 565.293 82.8203C564.511 83.0474 563.703 83.1231 563.754 82.5174C562.164 83.5774 566.68 82.6184 565.343 83.6027C565.293 83.4765 565.394 83.3755 564.99 83.4008C565.772 83.5522 565.419 84.486 564.687 84.4608L564.637 84.3346C564.612 85.2937 565.217 87.1108 567.26 86.8332C567.008 86.8837 564.839 87.2118 564.41 87.2623C566.756 87.338 569.102 87.4137 571.474 87.5651C569.733 87.7671 565.772 89.1299 564.637 88.5495C564.435 88.8271 564.208 89.13 564.914 89.4833C565.141 89.2814 567.336 88.6252 567.513 88.8019C565.696 89.7357 566.554 89.4076 565.066 90.3919C565.394 90.089 568.144 89.8366 568.118 90.2152C567.715 90.2152 565.469 90.72 565.167 90.6443L567.967 91.0481C567.437 90.8967 565.722 91.4014 564.99 91.7295C565.495 91.5529 565.066 92.4867 565.394 92.6886L565.949 92.2091C565.722 93.2691 569.859 92.5877 569.859 93.6224C569.279 93.572 566.428 93.8496 566.176 94.4048C567.563 94.4048 572.886 94.4553 574.072 95.2377L573.315 95.5154L574.299 96.0958C572.18 95.9192 567.664 95.3135 565.898 94.9349C565.343 95.4144 564.99 95.1872 565.141 95.7173C564.435 96.0201 563.981 95.5658 563.93 95.4144L563.653 96.7773C565.242 96.4997 565.394 97.5597 566.706 97.3325L564.864 96.1463C566.428 95.8435 569.531 96.323 569.354 97.3325C568.749 97.6606 566.504 97.5345 565.974 97.6102C566.529 97.6606 567.134 98.3673 566.756 98.4935L565.848 98.2159C565.318 98.7964 568.068 98.7964 566.63 99.604C566.554 99.8312 564.662 100.487 565.595 100.412C567.387 99.8564 573.013 99.1245 574.4 99.2002C574.299 99.3012 572.811 100.588 571.928 100.942C570.54 101.446 568.471 100.765 567.26 101.219C567.689 101.194 568.27 101.32 568.446 101.396C568.093 101.674 567.084 101.446 567.336 101.926C568.976 101.85 567.311 102.961 568.724 102.027C569.228 102.481 568.446 102.582 568.572 103.137C569.607 102.86 572.205 103.314 572.71 103.768C572.306 103.768 571.776 103.945 571.524 104.021C571.474 105.056 570.767 105.661 570.843 106.595C570.464 106.721 570.01 107.201 569.304 107.075C569.607 107.176 570.162 107.277 570.237 107.554C568.875 108.21 569.96 106.923 568.32 107.479C569.279 107.453 569.682 108.135 570.313 108.488C571.776 108.261 570.515 107.504 569.884 107.15C571.902 106.999 574.072 107.554 575.081 108.513C575.636 109.27 573.795 108.942 574.097 109.069C573.845 110.583 577.705 110.129 576.317 111.466C575.056 112.047 573.769 111.643 572.836 111.794C572.306 111.189 573.593 110.76 573.517 110.33L572.937 110.911C572.508 110.734 572.155 110.33 572.508 110.053C571.373 110.532 572.458 112.577 571.423 113.763C571.852 113.94 572.331 114.268 572.836 114.091L572.634 113.738C573.668 113.359 574.097 114.343 574.551 113.864C575.308 114.318 576.469 114.823 575.914 115.53L574.451 115.732C574.879 115.706 575.308 115.252 574.854 115.075C575.51 115.328 572.912 116.211 574.854 116.464L575.838 115.934C576.595 116.388 578.184 116.943 577.73 117.599C579.168 117.271 577.554 117.473 579.244 116.968C577.15 117.423 579.244 115.378 577.074 116.085C579.017 115.555 577.882 115.277 579.521 114.596C579.042 114.646 578.613 114.848 578.815 114.318C578.664 114.318 578.487 114.243 578.386 114.217H578.411H578.361C578.26 114.217 578.285 114.217 578.361 114.217C578.159 114.343 577.907 114.47 577.629 114.52C576.519 114.318 576.494 113.485 575.914 113.233C576.141 112.905 576.469 113.334 576.973 113.132L576.09 112.753C577.175 112.652 577.831 111.845 578.487 112.526V111.87C579.067 111.441 579.294 110.911 578.815 110.608C579.017 110.28 577.579 109.901 578.437 110.103L577.705 109.119H577.982C578.058 108.059 576.04 107.125 577.907 105.813C577.604 105.485 577.251 105.157 577.503 104.576L578.411 104.374C578.058 103.97 579.219 102.961 578.235 102.86C580.682 102.153 578.563 100.639 578.916 99.8312L577.705 99.9321C577.705 99.3769 577.301 98.9226 576.746 98.3168L575.687 98.4935C574.753 98.0392 576.267 96.954 576.04 96.0454C576.444 96.0454 576.368 96.2978 576.141 96.4997C578.411 95.0863 574.072 94.4806 575.687 93.2439C575.258 93.0672 575.359 92.8653 575.611 92.6634C575.611 92.6634 575.636 92.7138 575.687 92.7138C575.687 92.6886 575.687 92.6381 575.687 92.6129C575.863 92.4867 576.04 92.3353 576.191 92.1838C575.939 92.3353 575.762 92.4615 575.661 92.5624C575.611 92.3857 575.434 92.1081 575.132 91.881L576.242 91.5781C576.242 91.5781 576.242 91.5276 576.191 91.5276C576.57 91.1743 575.611 91.4014 574.778 91.6791C574.577 91.5781 574.324 91.4771 574.022 91.4267C575.813 90.8967 573.265 90.8209 575.182 90.1647C574.198 90.1647 574.223 88.9028 572.18 89.13C572.432 89.0795 572.558 88.9785 572.584 89.13C572.76 88.7766 572.937 88.4233 572.306 88.2718L573.719 87.868L571.65 87.5904C572.432 87.0099 572.912 86.7323 574.097 86.9342C572.18 86.3032 573.29 86.278 571.423 85.7984L572.357 85.647C572.256 85.3694 570.919 85.1675 571.65 84.8141C573.29 83.7541 571.12 81.5079 572.331 79.413C569.733 80.4478 573.34 78.3025 571.221 78.8073C571.827 78.5297 572.13 78.2016 572.76 78.3278C571.877 77.6463 573.391 76.7377 571.474 76.6368C572.079 76.3591 572.458 76.5611 572.811 76.3591C572.659 76.3339 572.18 76.233 572.533 76.031C572.886 75.8291 573.113 76.0058 573.416 76.0563C573.038 75.1982 571.07 75.6777 569.228 76.1825C569.96 75.4758 569.783 75.2991 568.471 75.3496C569.026 75.0215 569.556 74.5672 569.96 75.0215C569.96 74.6934 570.212 72.8762 568.749 73.3305C569.077 73.1033 568.724 72.8762 568.522 72.851C568.396 72.1443 568.497 72.0433 568.143 71.4376L567.967 71.7152C566.15 72.0686 567.387 71.3114 566.983 70.8571L567.16 70.8066C567.942 69.1409 566.378 70.529 567.336 68.7875L566.302 69.2671C563.956 70.0747 567.26 67.677 566.1 67.3489L565.595 67.8537C564.662 67.8032 568.244 65.5317 568.345 65.0017C568.497 64.825 568.724 65.0017 568.926 65.0522C569.809 63.4621 567.488 65.5065 566.832 64.926C567.513 64.4717 568.799 64.2698 568.724 63.7145C569.203 63.1845 565.696 63.336 566.781 62.0235C566.302 62.4526 565.797 62.8564 565.217 62.7302C564.763 62.3264 566.63 60.2821 564.637 60.7111C564.763 60.5597 564.889 60.4587 565.015 60.4083C564.359 60.2568 563.628 59.5249 562.568 59.8025C565.873 57.5563 559.566 58.3892 562.745 56.6224L561.912 55.5372L562.24 55.3858C562.038 54.5024 561.08 54.7043 560.171 54.9315C560.272 54.6286 560.651 54.5781 560.827 54.4772C560.777 53.0385 560.55 52.9881 558.481 53.1143L559.415 52.3571C558.708 52.5085 559.944 49.7827 558.052 49.5808C558.178 49.5051 558.38 49.4042 558.557 49.3789C556.665 49.0761 559.162 44.634 555.403 46.9055L553.99 46.8551C554.47 47.9656 552.426 47.8898 552.174 48.7227C551.695 48.546 552.452 47.0065 552.981 47.2841L552.88 47.486C554.747 46.2241 552.578 45.8455 553.789 44.8864C552.149 43.2207 551.569 40.6211 549.979 39.031L548.945 40.4697L548.466 39.8639C548.617 39.4349 549.222 38.6777 549.576 39.132C550.055 38.2234 548.339 39.0815 548.062 39.3591C547.784 38.0972 549.777 38.1729 549.55 37.9205L549.121 37.6934L549.046 37.9205C548.289 38.1982 547.759 38.7029 547.33 38.1982C547.255 37.6682 547.885 37.2643 547.81 37.0877C547.885 36.9867 547.885 36.911 547.658 36.8858L547.002 36.1286L546.397 37.4158C545.615 37.6429 545.766 36.7596 545.06 38.2486C546.17 35.9772 542.89 35.2705 542.991 34.4628C541.906 34.8919 541.452 34.5385 540.922 34.0085C540.922 34.3619 540.064 35.6743 539.686 35.1443C541.73 32.6456 539.56 33.3271 540.392 31.1566C539.938 32.6709 538.652 30.4751 538.072 32.6961C537.769 32.1913 538.702 31.6613 538.753 30.8032C537.062 31.1313 536.76 28.6327 535.12 28.2289C534.893 28.5822 534.817 29.2889 534.237 29.6675L534.464 27.396C534.085 27.4212 533.127 29.4151 533.253 27.8503C533.177 28.2036 533.051 28.7336 532.799 28.7589C531.84 27.2193 530.2 26.8912 528.661 26.4874C527.072 26.1593 525.684 25.5283 524.65 23.2568C524.852 24.1402 524.549 24.1654 524.221 24.0897C524.373 24.3421 523.918 25.0993 523.818 25.6545L522.96 23.7868C522.329 25.2507 521.547 23.5345 521.068 24.9731L521.522 24.8216C520.588 26.4369 521.32 28.8851 520.664 31.0808C521.724 29.2637 521.219 34.3366 522.884 31.7623C522.935 32.2671 522.506 32.4185 522.455 32.9737C522.96 32.0904 523.263 31.9894 523.616 32.5952L523.49 32.7971C524.877 33.0495 525.155 34.1095 526.29 35.2957L526.618 34.2104C526.87 34.4881 526.794 34.8414 526.82 35.1695C527.854 33.7561 526.012 34.69 527.047 33.0999C526.567 35.4219 529.242 34.1347 528.384 36.6081C528.838 36.8353 528.813 35.3714 529.267 35.5733L529.09 36.2548L529.62 35.4976C529.847 35.8005 529.62 36.6586 529.342 37.2139C529.317 37.1129 529.065 37.2643 528.964 37.2643C528.964 38.2234 530.15 37.5924 530.15 37.8953L529.923 37.2896C531.462 37.3653 532.446 38.9553 534.338 38.5263L534.54 38.0215C535.978 37.7691 534.918 38.9806 536.154 39.2077L536.053 39.2834C536.558 38.9806 536.961 38.9553 537.163 39.1825C536.558 39.5106 536.886 40.4949 536.179 40.823C537.718 40.6463 537.113 40.4697 538.929 39.3591L538.526 40.1668C539.232 39.6873 539.51 39.3591 540.115 39.5358C539.257 39.8387 539.585 40.823 538.526 41.3025C538.273 43.5235 541.149 40.9492 539.762 43.4731C541.78 41.9587 539.837 41.7316 540.418 41.5549C540.72 40.7473 541.957 40.4444 542.108 40.8987C542.386 41.2016 540.569 43.7254 541.326 44.3059C541.25 44.2302 541.124 44.3564 541.074 44.3059C540.922 45.0126 542.184 44.1293 541.805 45.2145C542.991 44.3059 542.158 45.6688 543.521 44.3564L542.562 44.0283C543.269 44.0283 545.135 42.7664 545.034 44.1545C544.706 44.3817 544.177 44.5583 543.874 44.634C543.672 45.2145 544.479 44.7098 544.252 45.2903C542.865 46.6027 543.168 44.8107 541.805 45.4922C541.427 46.2493 543.47 45.2145 541.856 46.5017C543.95 44.8864 542.285 47.3851 544.177 46.426L543.344 47.1832C543.546 47.1327 544.076 46.9055 544.202 47.057L542.915 47.8394C544.202 47.3094 542.84 49.3032 543.647 49.2023C542.915 48.4451 544.479 48.0918 544.782 47.1832C546.775 47.1327 543.117 49.7828 544.479 50.4642C544.227 50.439 544.479 49.4546 545.085 49.3285C545.085 49.6818 545.009 50.2623 544.681 50.7671C545.489 51.3223 545.463 49.8837 546.271 49.7323C545.438 50.8933 547.027 49.7323 547.633 49.7323L546.75 50.4894C546.876 51.8271 548.768 49.177 548.743 50.5399L547.229 51.2214L547.885 51.3728L546.8 52.13C547.91 51.9533 547.835 52.2562 547.885 52.9124C548.44 52.3066 549.576 51.6757 549.929 52.029C549.601 52.7104 548.945 52.559 549.525 53.0133C548.844 53.3162 548.037 53.7452 548.667 52.8619C548.339 53.0638 547.986 53.19 547.683 53.3919C547.28 54.1491 548.112 54.1743 548.264 54.4014C548.264 54.3005 548.238 54.1743 548.314 54.0229L550.181 53.8967C549.929 54.2752 549.576 54.3762 549.222 54.5024C549.449 54.6033 549.954 54.4014 550.206 54.5781C549.399 55.0577 548.617 55.6634 548.037 55.5877L549.424 55.7391C549.121 56.042 548.793 56.7739 548.44 56.8748C548.264 57.6068 550.711 56.8748 550.484 57.8844C550.66 57.8087 550.837 57.7834 551.039 57.8339C551.215 58.5154 550.559 59.6259 552.073 59.6006L550.887 60.8626C551.543 61.1654 552.376 59.2473 553.461 59.7773C554.293 60.1306 552.376 60.7616 552.098 61.2159C553.007 61.0897 554.798 60.7868 553.965 62.0488C553.587 62.0235 553.713 61.7459 553.511 61.6197L553.587 61.4683ZM557.749 67.9294C557.472 67.9042 556.665 67.9294 557.245 67.5508C558.506 67.147 558.002 67.5508 557.749 67.9294ZM564.485 78.1763C564.082 78.1763 564.208 77.9492 564.586 77.6211C564.712 77.722 564.712 77.8987 564.485 78.1763ZM577.831 111.466C577.831 111.466 577.806 111.466 577.781 111.466C578.21 111.088 578.033 111.214 577.831 111.466ZM577.377 112.249C577.554 112.324 577.705 112.299 577.856 112.249C577.554 112.223 577.528 112.047 577.604 111.845C577.301 111.921 577.099 112.021 577.377 112.223V112.249ZM547.583 37.1886L547.507 37.5167C547.027 37.5167 547.305 37.3653 547.583 37.1886Z" fill="#79522C"/>
<path d="M562.617 77.3227C562.794 77.2217 562.996 77.146 563.197 77.0703C562.996 77.0703 562.769 77.146 562.617 77.3227Z" fill="#79522C"/>
<path d="M550.611 57.7839V57.7588L550.41 57.8592L550.611 57.7839Z" fill="#79522C"/>
<path d="M566.729 101.623C566.88 101.446 567.082 101.345 567.284 101.27C567.006 101.27 566.779 101.396 566.729 101.623Z" fill="#79522C"/>
<path d="M579.548 116.109L579.22 115.63C579.296 115.857 579.044 115.958 578.867 116.084C579.145 116.084 579.523 115.958 579.548 116.084V116.109Z" fill="#79522C"/>
<path d="M572.529 120.504C572.681 120.58 572.529 120.655 572.706 120.706H573.236C573.185 120.378 572.756 120.176 572.529 120.504Z" fill="#79522C"/>
<path d="M575.709 116.714C574.75 116.79 575.078 117.067 575.28 117.395V117.345C576.643 117.395 576.188 117.042 575.709 116.714Z" fill="#79522C"/>
<path d="M575.303 117.471C575.303 117.471 575.378 117.673 575.328 117.774C575.883 117.774 575.429 117.647 575.303 117.471Z" fill="#79522C"/>
<path d="M578.088 113.154C577.836 113.331 579.324 113.205 578.946 113.306C580.182 113.432 577.407 112.321 578.088 113.154Z" fill="#79522C"/>
<path d="M572.529 117.095L573.715 116.943L572.756 116.792L572.529 117.095Z" fill="#79522C"/>
<path d="M573.291 114.443L572.988 114.999C573.19 114.999 573.316 115.049 573.392 115.125C573.417 114.797 573.644 114.418 573.291 114.469V114.443Z" fill="#79522C"/>
<path d="M573.418 115.127C573.418 115.304 573.418 115.455 573.645 115.556C573.645 115.455 573.569 115.278 573.418 115.127Z" fill="#79522C"/>
<path d="M572.129 116.389L572.381 116.238L572.457 115.859L572.129 116.389Z" fill="#79522C"/>
<path d="M573.21 108.741L572.832 108.186C572.428 108.161 572.176 108.337 572.352 108.539C572.655 108.666 572.831 108.867 573.21 108.741Z" fill="#79522C"/>
<path d="M570.039 110.684C570.266 110.507 570.544 110.482 570.922 110.381L569.434 110.457L570.014 110.684H570.039Z" fill="#79522C"/>
<path d="M569.58 109.044C569.176 109.019 568.343 108.313 568.495 109.019C568.898 109.044 569.277 109.6 569.58 109.044Z" fill="#79522C"/>
<path d="M570.693 100.288L570.744 100.44L573.166 100.137L570.693 100.288Z" fill="#79522C"/>
<path d="M563.903 93.6718C563.424 94.4037 565.417 93.5961 564.786 94.2775C565.367 94.3532 565.291 93.697 565.821 93.7727C565.165 93.4698 565.467 93.2175 563.903 93.6465V93.6718Z" fill="#79522C"/>
<path d="M565.82 93.7744C565.82 93.7744 566.047 93.8754 566.224 93.9259C566.047 93.8249 565.921 93.7997 565.82 93.7744Z" fill="#79522C"/>
<path d="M522.556 22.2219L522.178 21.6162L522.304 22.4743L522.556 22.2219Z" fill="#79522C"/>
<path d="M521.222 23.7612L521.449 22.2217L520.869 23.5341C520.869 23.5341 521.222 23.4079 521.222 23.7865V23.7612Z" fill="#79522C"/>
<path d="M555.352 70.2257L555.705 70.0995C556.058 69.8724 556.033 69.7714 556.033 69.5947L555.352 70.2257Z" fill="#79522C"/>
<path d="M554.092 64.8522V64.9531L555.252 64.1455L554.092 64.8522Z" fill="#79522C"/>
<path d="M550.312 61.7956C550.363 61.9723 550.716 61.9975 550.767 62.1994C550.363 61.9975 551.776 60.8365 550.312 61.7956Z" fill="#79522C"/>
</g>
<defs>
<radialGradient id="paint0_radial_445_1218" cx="0" cy="0" r="1" gradientUnits="userSpaceOnUse" gradientTransform="translate(377.239 709.704) scale(306.371 306.499)">
<stop stop-color="#B17F4A"/>
<stop offset="0.95" stop-color="#926039"/>
</radialGradient>
</defs>
</svg>
