<svg width="34" height="85" viewBox="0 0 34 85" fill="none" xmlns="http://www.w3.org/2000/svg">
<path d="M2.34009 2C3.86896 3.64648 4.80048 5.84825 5.84439 7.80894C9.06693 13.8615 11.5683 20.0531 13.4213 26.6564C16.3631 37.1399 18.2108 48.0616 16.9887 58.9529C16.5695 62.689 16.0492 66.6219 14.9367 70.2235C14.1851 72.6564 13.3993 75.0593 12.9793 77.5794C12.6956 79.2818 12.7017 81.0258 12.2847 82.6938M2 66.868C4.09976 69.1427 6.67554 74.134 8.53418 76.6122C8.9672 77.1896 9.60904 78.5454 10.0342 79.1122C10.4039 79.6051 10.7585 80.9746 11.0342 81.6122C11.1203 81.8114 11.6724 83.4779 11.7189 83.5012C11.9578 83.6206 13.7229 81.9873 13.7868 81.9385C15.7575 80.4315 17.7987 79.011 19.9588 77.787C22.7252 76.2194 25.6733 74.8271 28.5933 73.5566C29.6798 73.0838 30.6631 72.641 31.845 72.641" stroke="#895285" stroke-width="3" stroke-linecap="round"/>
</svg>
