<svg width="1920" height="2100" viewBox="0 0 1920 2100" fill="none" xmlns="http://www.w3.org/2000/svg">
<path d="M998.689 270.243C978.489 251.659 944.689 249.743 934.689 256.743C929.706 260.231 915.189 272.743 915.189 289.243C915.189 295.743 919.189 307.243 917.606 305.332C916.644 305.332 910.754 292.98 909.868 291.404C904.161 281.258 892.189 266.016 878.672 263.466C872.189 262.243 854.609 261.989 845.277 267.865C834.721 274.511 827.068 285.741 822.715 297.35C818.697 308.065 818.567 322.553 820.435 333.759C820.845 336.223 823.624 341.407 820.353 339.623C817.21 337.909 818.189 338.425 812.189 333.759C792.968 318.809 755.403 321.424 738.25 339.053C729.983 347.55 734.164 366.889 740.857 374.892C753.337 389.814 771.564 395.448 789.972 399.816C823.481 407.767 859.336 410.755 893.634 413.613L894.23 413.663C927.332 416.421 960.296 418.875 993.519 418.875C1025.28 418.875 1057.45 419.561 1089.14 421.482C1113.3 422.946 1137.14 422.743 1163.69 422.743C1166.64 422.743 1181.69 420.743 1184.77 411.545C1186.04 407.743 1188.69 398.743 1181.69 387.743C1173.69 376.743 1147.83 368.972 1131.5 366.421C1127.52 365.799 1110.39 364.606 1111.79 363.488C1115.28 360.691 1126.69 340.743 1121.69 327.743C1116.69 314.743 1102.69 289.243 1053.19 289.243C1028.19 289.243 1012.04 311.053 1010.95 308.59C1009.84 306.105 1013.69 307.243 1012.19 291.743C1009.69 282.243 1003.92 275.059 998.689 270.243Z" stroke="white" stroke-width="3" stroke-linecap="round" stroke-linejoin="round"/>
<path d="M-85.4077 514.987C-104.888 497.059 -133.986 505.619 -151.755 522.168C-156.36 526.457 -165.369 533.965 -165.369 541.1C-165.369 544.742 -155.942 549.041 -156.914 551.254C-157.877 553.447 -181.15 551.545 -184.284 551.545C-194.039 551.545 -208.151 552.274 -217.028 556.767C-226.791 561.709 -235.127 565.372 -243.467 573.232C-246.297 575.9 -262.525 588.184 -256.722 593.324C-253.482 596.195 -248.692 597.652 -245.616 600.143C-244.387 601.138 -259.458 602.201 -262.955 602.754C-277.321 605.026 -304.592 610.66 -308.525 628.576C-309.558 633.285 -310.383 638.044 -309.814 642.938C-309.406 646.45 -294.26 650.045 -291.759 650.481C-270.74 654.15 -246.945 653.091 -225.698 651.787C-197.818 650.077 -169.516 649.466 -141.581 649.466C-112.356 649.466 -83.3593 647.28 -54.2401 644.824C-23.9109 642.265 7.82384 639.615 37.4714 632.493C53.664 628.603 69.6974 623.586 80.6762 610.297C86.5635 603.171 90.2416 585.949 82.9689 578.382C67.8802 562.683 35.9652 560.427 19.0575 573.74C16.5781 575.692 13.5107 577.363 10.7461 578.89C7.86888 580.479 10.3131 575.862 10.6745 573.668C12.3173 563.689 12.203 550.787 8.66829 541.245C4.83898 530.907 -1.89267 520.906 -11.1787 514.987C-19.3872 509.755 -31.2796 510.862 -40.555 511.07C-51.7844 511.323 -62.9765 526.915 -67.9968 535.95C-68.7764 537.353 -73.9573 548.353 -74.8035 548.353C-75.3881 548.353 -75.0309 532.562 -75.0901 530.945C-75.384 522.911 -82.8801 521.41 -85.4077 516.293" stroke="white" stroke-width="3" stroke-linecap="round"/>
<path d="M945.982 705.818C946.47 692.649 956.353 674.529 964.59 664.731C980.516 645.788 999.715 633.871 1024.41 629.576C1045.67 625.88 1098 629.576 1108.39 700.074C1145.5 663 1175.2 681.439 1184.39 688.959C1189.97 693.529 1192.76 697.408 1196.63 703.321C1198.89 706.789 1201.59 714.244 1202.25 718.182C1270.5 702 1286.76 783.378 1211.5 779C1200.43 777.155 1040.27 778.5 1029 778.5C993 778.5 980.5 783.5 905.498 773C800.5 752 855 654 945.983 705.818" stroke="white" stroke-width="3" stroke-linecap="round"/>
<path d="M1525.31 156.65C1511.59 158.484 1485 161 1474.08 192.957C1464.5 185.5 1448.53 179.389 1441.83 179.389C1429.87 179.389 1417.8 181.446 1406.9 186.456C1392.29 193.171 1372 221 1441.58 230.709C1457.98 232.13 1474.49 232.441 1490.95 232.97C1525.24 234.072 1553.82 236.223 1588.12 236.5C1596.79 236.57 1649.04 240.043 1657.66 241.01C1674.23 243.126 1691.63 243.602 1708.32 242.675C1715.12 242.297 1720.74 241.192 1726.82 238.466C1729.92 237.076 1738 231.5 1733.5 216C1719 182 1691.62 191.906 1680.4 194.967C1675.65 196.263 1671.7 198.251 1667.27 200.181C1665.88 200.786 1664.98 191.776 1662 185.5C1652.5 165.5 1624.5 149 1588.12 186.613C1569 151.5 1533.64 155.536 1525.31 156.65Z" stroke="white" stroke-width="3" stroke-linecap="round" stroke-linejoin="round"/>
<path d="M313.001 22.9999C333.201 4.41586 367.001 2.50032 377.001 9.5003C381.983 12.9879 396.501 25.5001 396.501 42.0001C396.501 48.5001 392.501 60.0001 394.083 58.089C395.045 58.089 400.935 45.7364 401.821 44.1608C407.528 34.015 419.501 18.7726 433.017 16.223C439.501 15 457.081 14.746 466.412 20.6214C476.969 27.2679 484.621 38.4983 488.974 50.1068C492.992 60.822 493.123 75.3099 491.255 86.5155C490.844 88.9801 488.065 94.1641 491.336 92.38C494.479 90.6658 493.501 91.1822 499.501 86.5155C518.721 71.5661 556.286 74.1805 573.439 91.8099C581.707 100.307 577.526 119.646 570.833 127.648C558.352 142.571 540.125 148.205 521.718 152.573C488.208 160.524 452.353 163.512 418.055 166.37L417.46 166.419C384.357 169.178 351.393 171.632 318.171 171.632C286.414 171.632 254.24 172.318 222.547 174.239C198.393 175.703 174.551 175.5 148 175.5C145.052 175.5 130.001 173.5 126.923 164.302C125.651 160.5 123 151.5 130.001 140.5C138.001 129.5 163.861 121.729 180.192 119.178C184.168 118.556 201.301 117.363 199.903 116.245C196.407 113.448 185.001 93.5 190.001 80.5C195.001 67.5 209 42.0001 258.5 42.0001C283.5 42.0001 299.646 63.8096 300.74 61.3471C301.845 58.8617 298.001 60 299.501 44.5C302.001 35 307.766 27.8157 313.001 22.9999Z" stroke="white" stroke-width="3" stroke-linecap="round" stroke-linejoin="round"/>
<path d="M1817.64 475.243C1837.84 456.659 1871.64 454.743 1881.64 461.743C1886.63 465.231 1901.14 477.743 1901.14 494.243C1901.14 500.743 1897.14 512.243 1898.73 510.332C1899.69 510.332 1905.58 497.98 1906.46 496.404C1912.17 486.258 1924.14 471.016 1937.66 468.466C1944.14 467.243 1961.72 466.989 1971.05 472.865C1981.61 479.511 1989.26 490.741 1993.62 502.35C1997.64 513.065 1997.77 527.553 1995.9 538.759C1995.49 541.223 1992.71 546.407 1995.98 544.623C1999.12 542.909 1998.14 543.425 2004.14 538.759C2023.36 523.809 2060.93 526.424 2078.08 544.053C2086.35 552.55 2082.17 571.889 2075.48 579.892C2062.99 594.814 2044.77 600.448 2026.36 604.816C1992.85 612.767 1957 615.755 1922.7 618.613L1922.1 618.663C1889 621.421 1856.04 623.875 1822.81 623.875C1791.06 623.875 1758.88 624.561 1727.19 626.482C1703.04 627.946 1679.19 627.743 1652.64 627.743C1649.69 627.743 1634.64 625.743 1631.57 616.545C1630.29 612.743 1627.64 603.743 1634.64 592.743C1642.64 581.743 1668.5 573.972 1684.83 571.421C1688.81 570.799 1705.94 569.606 1704.55 568.488C1701.05 565.691 1689.64 545.743 1694.64 532.743C1699.64 519.743 1713.64 494.243 1763.14 494.243C1788.14 494.243 1804.29 516.053 1805.38 513.59C1806.49 511.105 1802.64 512.243 1804.14 496.743C1806.64 487.243 1812.41 480.059 1817.64 475.243Z" stroke="white" stroke-width="3" stroke-linecap="round" stroke-linejoin="round"/>
<path d="M1170.5 38.4999C1148.01 60.985 1163.79 86.4999 1165 95.9999C1146.5 72.4999 1123.34 85.5607 1116.69 92.2087C1108.37 100.53 1093 138.5 1163.79 148.695C1170.43 149.137 1177.04 149.769 1183.66 150.37C1212.52 152.994 1241.69 150.113 1270.5 152.572C1292.3 154.434 1313.68 154.679 1335.6 154.679C1356.17 154.679 1377.21 155.958 1397.73 154.248C1413.31 152.95 1429.25 152.094 1444.89 152.094C1453.61 152.094 1464.3 149 1471.5 140C1479.5 130 1481 83.9997 1418.03 101.065C1439 74.4997 1426.26 49.5 1410 44C1385.5 35.715 1374 44 1359.5 57.4997C1359.5 47.3775 1354.94 35.3967 1349.29 27.1537C1340.06 13.6857 1327.98 7.64338 1312.5 7.5C1302.89 7.41099 1289.95 14.585 1281.5 27.1537C1279.81 25.9907 1273 7.0589 1256 3.49999C1254.5 3.18596 1219.5 -7.00008 1209.51 34.7171C1203.62 30.0043 1200.37 29.6564 1193.5 29.9999C1188.08 30.2711 1176 32.9999 1170.5 38.4999Z" stroke="white" stroke-width="3" stroke-linecap="round" stroke-linejoin="round"/>
<path d="M-26.1468 248.207C-25.659 235.037 -15.7762 216.918 -7.53893 207.12C8.38715 188.176 27.5856 176.26 52.2811 171.965C73.5367 168.268 125.869 171.965 136.266 242.462C173.369 205.389 203.067 223.827 212.258 231.348C217.843 235.917 220.631 239.797 224.497 245.709C226.765 249.178 229.46 256.632 230.117 260.571C298.369 244.389 314.63 325.767 239.369 321.389C228.3 319.544 68.1383 320.889 56.8696 320.889C20.8711 320.889 8.37109 325.889 -66.631 315.388C-171.629 294.389 -117.129 196.389 -26.1457 248.207" stroke="white" stroke-width="3" stroke-linecap="round" stroke-linejoin="round"/>
<path d="M1767.23 1244.32C1744.75 1266.8 1760.53 1292.32 1761.74 1301.82C1743.23 1278.32 1720.07 1291.38 1713.43 1298.03C1705.1 1306.35 1689.74 1344.32 1760.53 1354.51C1767.16 1354.95 1773.78 1355.59 1780.4 1356.19C1809.25 1358.81 1838.42 1355.93 1867.23 1358.39C1889.04 1360.25 1910.42 1360.5 1932.33 1360.5C1952.9 1360.5 1973.94 1361.78 1994.47 1360.06C2010.05 1358.77 2025.99 1357.91 2041.62 1357.91C2050.34 1357.91 2061.03 1354.82 2068.23 1345.82C2076.23 1335.82 2077.73 1289.82 2014.77 1306.88C2035.73 1280.32 2023 1255.32 2006.73 1249.82C1982.23 1241.53 1970.73 1249.82 1956.23 1263.32C1956.23 1253.19 1951.67 1241.21 1946.02 1232.97C1936.8 1219.5 1924.72 1213.46 1909.23 1213.32C1899.62 1213.23 1886.68 1220.4 1878.23 1232.97C1876.54 1231.81 1869.73 1212.88 1852.73 1209.32C1851.23 1209 1816.23 1198.82 1806.24 1240.53C1800.35 1235.82 1797.1 1235.47 1790.23 1235.82C1784.81 1236.09 1772.73 1238.82 1767.23 1244.32Z" stroke="white" stroke-width="3" stroke-linecap="round" stroke-linejoin="round"/>
<path d="M828.92 761.317C851.405 783.802 835.625 809.317 834.419 818.817C852.92 795.317 876.081 808.378 882.729 815.026C891.05 823.347 906.417 861.317 835.625 871.512C828.995 871.954 822.378 872.586 815.759 873.187C786.903 875.811 757.733 872.93 728.923 875.389C707.117 877.251 685.738 877.496 663.821 877.496C643.25 877.496 622.21 878.775 601.686 877.065C586.108 875.767 570.169 874.911 554.534 874.911C545.813 874.911 535.12 871.817 527.92 862.817C519.92 852.817 518.42 806.817 581.389 823.881C560.42 797.317 573.156 772.317 589.42 766.817C613.92 758.532 625.42 766.817 639.92 780.317C639.92 770.194 644.482 758.214 650.13 749.971C659.358 736.503 671.435 730.46 686.92 730.317C696.533 730.228 709.47 737.402 717.92 749.971C719.612 748.808 726.42 729.876 743.42 726.317C744.92 726.003 779.92 715.817 789.91 757.534C795.801 752.821 799.049 752.473 805.92 752.817C811.345 753.088 823.42 755.817 828.92 761.317Z" stroke="white" stroke-width="3" stroke-linecap="round" stroke-linejoin="round"/>
<path d="M-90.1468 1233.21C-89.659 1220.04 -79.7762 1201.92 -71.5389 1192.12C-55.6128 1173.18 -36.4144 1161.26 -11.7189 1156.96C9.53668 1153.27 61.8691 1156.97 72.2659 1227.46C109.369 1190.39 139.067 1208.83 148.258 1216.35C153.843 1220.92 156.631 1224.8 160.497 1230.71C162.765 1234.18 165.46 1241.63 166.117 1245.57C234.369 1229.39 250.63 1310.77 175.369 1306.39C164.3 1304.54 4.13831 1305.89 -7.13039 1305.89C-43.1289 1305.89 -55.6289 1310.89 -130.631 1300.39C-235.629 1279.39 -181.129 1181.39 -90.1457 1233.21" stroke="white" stroke-width="3" stroke-linecap="round"/>
<path d="M-55.1468 2024.21C-54.659 2011.04 -44.7762 1992.92 -36.5389 1983.12C-20.6128 1964.18 -1.41435 1952.26 23.2811 1947.96C44.5367 1944.27 96.8691 1947.97 107.266 2018.46C144.369 1981.39 174.067 1999.83 183.258 2007.35C188.843 2011.92 191.631 2015.8 195.497 2021.71C197.765 2025.18 200.46 2032.63 201.117 2036.57C269.369 2020.39 285.63 2101.77 210.369 2097.39C199.3 2095.54 39.1383 2096.89 27.8696 2096.89C-8.12891 2096.89 -20.6289 2101.89 -95.631 2091.39C-200.629 2070.39 -146.129 1972.39 -55.1457 2024.21" stroke="white" stroke-width="3" stroke-linecap="round"/>
<path d="M-72.3567 1775.24C-52.1567 1756.66 -18.3567 1754.74 -8.3567 1761.74C-3.37445 1765.23 11.1433 1777.74 11.1433 1794.24C11.1433 1800.74 7.14331 1812.24 8.72598 1810.33C9.68793 1810.33 15.5776 1797.98 16.4639 1796.4C22.1709 1786.26 34.1433 1771.02 47.6597 1768.47C54.1433 1767.24 71.7233 1766.99 81.0548 1772.86C91.6111 1779.51 99.2637 1790.74 103.617 1802.35C107.635 1813.07 107.765 1827.55 105.897 1838.76C105.487 1841.22 102.708 1846.41 105.979 1844.62C109.122 1842.91 108.143 1843.43 114.143 1838.76C133.364 1823.81 170.929 1826.42 188.082 1844.05C196.349 1852.55 192.168 1871.89 185.475 1879.89C172.995 1894.81 154.768 1900.45 136.36 1904.82C102.851 1912.77 66.9957 1915.75 32.6976 1918.61L32.1025 1918.66C-1.00024 1921.42 -33.9641 1923.88 -67.1867 1923.88C-98.9436 1923.88 -131.117 1924.56 -162.811 1926.48C-186.964 1927.95 -210.806 1927.74 -237.357 1927.74C-240.306 1927.74 -255.357 1925.74 -258.435 1916.54C-259.707 1912.74 -262.358 1903.74 -255.356 1892.74C-247.356 1881.74 -221.496 1873.97 -205.165 1871.42C-201.189 1870.8 -184.057 1869.61 -185.454 1868.49C-188.951 1865.69 -200.357 1845.74 -195.357 1832.74C-190.357 1819.74 -176.357 1794.24 -126.857 1794.24C-101.857 1794.24 -85.7118 1816.05 -84.6173 1813.59C-83.5127 1811.1 -87.3567 1812.24 -85.8567 1796.74C-83.3567 1787.24 -77.5913 1780.06 -72.3567 1775.24Z" stroke="white" stroke-width="3" stroke-linecap="round" stroke-linejoin="round"/>
<path d="M2080.13 708.207C2079.64 695.037 2069.76 676.918 2061.52 667.12C2045.59 648.176 2026.39 636.26 2001.7 631.965C1980.44 628.268 1928.11 631.965 1917.71 702.462C1880.61 665.389 1850.91 683.827 1841.72 691.348C1836.14 695.917 1833.35 699.797 1829.48 705.709C1827.22 709.178 1824.52 716.632 1823.86 720.571C1755.61 704.389 1739.35 785.767 1814.61 781.389C1825.68 779.544 1985.84 780.889 1997.11 780.889C2033.11 780.889 2045.61 785.889 2120.61 775.388C2225.61 754.389 2171.11 656.389 2080.13 708.207" stroke="white" stroke-width="3" stroke-linecap="round"/>
<path d="M1687.65 1399.26C1674.08 1401.97 1647.7 1406.2 1638.87 1438.8C1628.83 1431.97 1612.5 1426.91 1605.81 1427.34C1593.87 1428.11 1581.97 1430.95 1571.41 1436.65C1557.26 1444.29 1538.82 1473.37 1608.87 1478.57C1625.34 1478.93 1641.83 1478.17 1658.29 1477.64C1692.58 1476.52 1721.24 1476.82 1755.49 1474.88C1764.14 1474.39 1816.51 1474.49 1825.17 1474.89C1841.84 1475.93 1859.24 1475.29 1875.83 1473.28C1882.6 1472.47 1888.13 1471 1894.02 1467.89C1897.03 1466.3 1904.73 1460.21 1899.24 1445.04C1882.57 1412.04 1855.89 1423.7 1844.89 1427.48C1840.23 1429.08 1836.42 1431.32 1832.12 1433.53C1830.78 1434.22 1829.3 1425.29 1825.92 1419.22C1815.15 1399.87 1786.14 1385.22 1752.27 1425.1C1730.92 1391.3 1695.89 1397.61 1687.65 1399.26Z" stroke="white" stroke-width="3" stroke-linecap="round" stroke-linejoin="round"/>
<path d="M-127.353 1344.26C-140.925 1346.97 -167.295 1351.2 -176.126 1383.8C-186.17 1376.97 -202.504 1371.91 -209.19 1372.34C-221.127 1373.11 -233.03 1375.95 -243.586 1381.65C-257.737 1389.29 -276.181 1418.37 -206.127 1423.57C-189.662 1423.93 -173.173 1423.17 -156.711 1422.64C-122.415 1421.52 -93.7611 1421.82 -59.5116 1419.88C-50.8567 1419.39 1.51139 1419.49 10.1706 1419.89C26.843 1420.93 44.2394 1420.29 60.8325 1418.28C67.598 1417.47 73.1292 1416 79.021 1412.89C82.0268 1411.3 89.7316 1405.21 84.2399 1390.04C67.5742 1357.04 40.8913 1368.7 29.8883 1372.48C25.2296 1374.08 21.4224 1376.32 17.1242 1378.53C15.7755 1379.22 14.2997 1370.29 10.9193 1364.22C0.147376 1344.87 -28.8599 1330.22 -62.7337 1370.1C-84.0841 1336.3 -119.11 1342.61 -127.353 1344.26Z" stroke="white" stroke-width="3" stroke-linecap="round" stroke-linejoin="round"/>
<path d="M1852.85 1938.21C1853.34 1925.04 1863.22 1906.92 1871.46 1897.12C1887.39 1878.18 1906.59 1866.26 1931.28 1861.96C1952.54 1858.27 2004.87 1861.97 2015.27 1932.46C2052.37 1895.39 2082.07 1913.83 2091.26 1921.35C2096.84 1925.92 2099.63 1929.8 2103.5 1935.71C2105.76 1939.18 2108.46 1946.63 2109.12 1950.57C2177.37 1934.39 2193.63 2015.77 2118.37 2011.39C2107.3 2009.54 1947.14 2010.89 1935.87 2010.89C1899.87 2010.89 1887.37 2015.89 1812.37 2005.39C1707.37 1984.39 1761.87 1886.39 1852.85 1938.21" stroke="white" stroke-width="3" stroke-linecap="round"/>
</svg>
