<svg width="144" height="90" viewBox="0 0 144 90" fill="none" xmlns="http://www.w3.org/2000/svg">
<path d="M13.3135 16.2166C9.34241 12.2174 2.90608 15.8816 4.32375 23.3177C4.66249 25.0946 8.166 26.0595 11.015 25.7198C14.2592 25.3328 15.0319 22.6767 16.5383 19.916C17.374 17.1601 17.1759 15.3108 17.4194 13.058C17.6898 10.5552 17.7836 8.09175 18.4722 5.6531C18.7026 4.83708 18.788 4.00847 18.9711 3.18219C19.0087 3.01246 19.2691 1.94104 19.2186 2.66934C18.9674 6.29451 18.7161 9.91968 18.4649 13.5449C18.2072 17.263 16.9717 28.3699 17.5576 24.6892C18.1703 20.8399 17.9819 22.2618 18.7519 18.4416C18.9491 17.4632 19.4707 15.6405 20.7216 15.1852C21.7083 14.8262 22.5177 14.8555 23.0525 15.4826C24.2892 16.9328 24.3445 18.1211 24.4003 19.9509C24.4918 22.955 24.438 22.8603 24.2304 25.856" stroke="#895285" stroke-width="3" stroke-linecap="round"/>
<path d="M26.9907 19.4571C27.9165 19.8837 29.1918 21.2135 30.2926 21.035C31.5496 20.8313 33.3068 20.0501 33.4696 18.5763C33.6414 17.0206 33.6251 16.1639 32.2544 15.2542C28.6455 14.4852 27.7679 18.8802 27.3826 20.1974C27.0344 21.388 26.9433 22.8178 27.6308 23.8475C28.4848 25.1267 29.4387 25.5251 30.9884 25.8726C32.0029 26.1001 33.2028 26.2513 34.2277 25.9911C35.0483 25.7828 35.488 25.0268 36.0134 24.4188" stroke="#895285" stroke-width="3" stroke-linecap="round"/>
<path d="M44.21 16.3959C43.1299 15.2632 41.4819 15.2514 40.3066 16.1254C38.7868 17.2556 38.0323 18.3531 37.8202 20.1612C37.7247 20.9749 37.5204 22.0552 37.7389 22.8635C38.012 23.8736 38.9422 24.7539 39.7005 25.4278C40.6543 26.2755 42.9047 26.8157 43.9995 25.9666C47.3498 23.3683 49.2697 19.5049 50.0483 15.7426C50.7426 12.3881 50.6447 10.0548 50.9503 5.76373C51.0532 5.44702 51.0387 4.48844 51.0616 4.15732C51.0616 4.15732 50.8897 6.63804 50.8037 7.87839C50.532 11.7993 50.1552 15.7303 50.0738 19.6614C50.0378 21.4047 49.9198 23.1358 49.7992 24.8749C49.7413 25.7112 49.3778 27.3497 50.127 25.7071C52.1141 21.3511 51.7813 19.6074 54.6065 15.674C55.0982 14.9895 55.5992 13.8036 56.3751 13.4083C56.7026 13.2414 55.2567 14.661 55.1155 14.8658C53.6679 17.0827 55.0377 14.9925 53.8202 16.8374C52.8496 17.7879 51.7219 18.5441 50.5433 19.1446C50.4499 19.1922 51.8744 19.2208 52.0996 19.214C53.3878 19.1747 57.4889 23.476 60.1445 26.0974" stroke="#895285" stroke-width="3" stroke-linecap="round" stroke-linejoin="round"/>
<path d="M74.9133 17.9533C75.8518 18.0487 77.3036 18.637 77.9868 19.3669C78.2923 19.6933 78.4928 20.1779 78.48 20.8356C78.5783 22.0831 78.5362 23.8473 78.1564 25.0323C77.86 25.9572 77.3456 26.421 76.6708 27.0922C75.7812 27.977 74.7627 28.1336 73.4449 27.7977C71.9003 27.404 69.8503 26.4846 69.3372 24.9237C68.8077 23.3126 69.6951 20.6461 70.8626 19.4547C72.0565 18.2362 73.1683 17.776 74.9133 17.9533Z" stroke="#895285" stroke-width="3" stroke-linecap="round"/>
<path d="M81.4956 18.1003C81.3047 20.855 80.2704 24.7274 82.3008 27.0602C82.794 27.6269 84.1002 29.0082 84.9503 28.458C86.1947 27.6529 86.7 25.4141 86.8081 24.0384C86.9149 22.6804 86.7677 21.0316 87.1942 19.7191C87.207 19.6796 87.4155 19.083 87.4527 19.1877C87.7825 20.1176 87.7183 21.3965 87.8292 22.3746C88.0606 24.4135 88.1864 26.6282 88.7363 28.6144C88.9012 29.2101 89.0115 29.703 89.7065 29.7706C90.7797 29.875 91.9286 28.7285 92.4216 27.858C93.874 25.2935 94.0349 22.0054 94.2594 19.1391C94.4765 16.3662 95.7171 8.11648 95.5248 10.8913C95.3482 13.439 95.1582 15.9862 94.9951 18.5348C94.8209 21.2549 95.0448 24.0083 95.2952 26.7177C95.3661 27.4839 95.1908 30.2601 96.1947 30.7021C97.2271 31.1566 98.6674 30.5175 99.4072 29.8165C100.396 28.8802 100.4 28.1509 100.488 26.8752M90.7283 17.526C93.52 17.7195 96.1639 17.674 98.9136 17.0526" stroke="#895285" stroke-width="3" stroke-linecap="round"/>
<path d="M109.246 21.6765C109.395 24.38 109.731 25.6619 110.043 28.3502C110.063 28.5278 110.349 31.333 110.321 29.9143C110.285 28.1038 110.063 27.4021 110.188 25.5964C110.294 24.0746 110.261 22.8419 111.555 21.8654C112.559 21.1077 114.18 21.3614 115.281 21.7672C118.113 22.8104 117.7 26.9136 117.567 29.2493C117.554 29.4784 117.776 31.2362 117.842 30.2898C117.954 28.669 118.067 27.0482 118.179 25.4275C118.31 23.5321 118.754 21.7184 120.893 21.308C122.39 21.0208 122.822 23.9868 122.904 24.9647C123.021 26.3632 123.193 27.9248 123.46 29.3108C123.585 29.9574 123.544 30.5066 124.277 30.042C126.192 28.8287 126.184 26.4246 126.41 24.4272C126.522 23.444 126.826 22.4871 126.949 21.5158C127.14 20.0118 127.194 22.669 127.184 22.9968C127.138 24.5444 127.101 26.2218 127.384 27.7518C127.485 28.2933 128.081 29.9866 128.823 30.4242C129.565 30.8618 130.943 30.995 132.309 30.2796C133.652 29.5764 133.891 27.6537 134.187 26.0262C134.443 24.6185 134.408 23.1226 134.507 21.6927C134.696 18.9656 133.913 27.1491 134.036 29.8799C134.132 32.0062 134.15 34.1552 133.738 36.2579C133.055 39.7459 131.099 47.4918 125.938 44.3805C124.684 43.6243 124.738 42.5183 124.828 41.2103C124.956 39.3632 126.093 38.6503 127.627 37.8194C132.544 35.1554 138.019 32.878 141.832 28.6182" stroke="#895285" stroke-width="3" stroke-linecap="round"/>
<path d="M10.5066 42.0632C12.2717 40.0002 15.5286 42.0435 16.5232 44.4111C17.1271 45.6616 17.2436 49.006 16.2194 50.0703C15.0121 51.3249 13.4232 51.4453 11.9874 50.5094C10.8597 49.7742 10.0909 49.1559 9.42529 47.9902C8.34385 46.0962 9.23245 43.5525 10.5066 42.0632Z" stroke="#895285" stroke-width="3" stroke-linecap="round"/>
<path d="M20.5537 37.5737C20.816 42.1606 18.8409 47.2506 21.7046 51.2794L21.7116 51.2894C22.2317 52.021 22.8936 52.9524 23.9271 52.8597C25.3006 52.7365 26.2193 50.1912 26.5205 49.0885M20.5042 43.2944C21.5843 43.51 22.6587 43.7906 23.7602 43.8669" stroke="#895285" stroke-width="3" stroke-linecap="round"/>
<path d="M27.4463 38.2251C27.3117 40.1673 27.1715 42.0977 27.1778 44.0462C27.1837 45.8406 27.5958 47.6195 27.7994 49.399C27.9018 50.2942 28.0314 51.1864 28.1338 52.0818C28.2401 53.0102 28.2536 54.1082 28.3735 52.3779C28.542 49.947 28.4898 47.8335 30.3615 46.0785C30.8127 45.6555 31.4517 45.3867 32.0805 45.3303C33.9133 45.1659 34.9165 46.1414 35.613 47.753C36.2022 49.1163 36.4337 50.562 36.5111 52.036C36.5205 52.2154 36.6462 54.3677 37.0487 54.2897C37.6826 50.2606 40.9651 50.4471 42.0951 48.7804C42.8266 47.7015 42.1728 46.6147 41.0793 45.7709C40.5138 45.3345 39.3905 44.8254 38.6739 45.1609C37.4234 45.7465 37.6716 48.3617 37.5987 49.4132C37.4705 51.2634 39.5359 53.245 41.1106 54.0797C44.1841 55.7089 45.0455 51.2314 45.5663 49.021C45.7997 48.0307 45.9254 46.9801 46.1243 45.976C46.153 45.831 46.2905 44.9156 46.325 45.0263C46.6041 45.9232 46.5399 47.0249 46.6326 47.9578C46.8181 49.8255 47.6511 51.8272 47.5905 53.7097C47.578 54.1002 47.6437 54.3466 47.6386 54.7152C47.6381 54.7516 47.6135 55.0775 47.624 54.9262C47.6877 54.0064 47.5038 53.0804 47.3812 52.1726C47.1068 50.1422 46.5623 48.0045 46.8584 45.9498C47.1182 44.1475 53.2859 45.2196 54.3625 45.2942" stroke="#895285" stroke-width="3" stroke-linecap="round"/>
<path d="M66.1121 44.9829C66.0759 44.1553 65.3757 43.5137 64.5481 43.5498C63.7204 43.586 63.0788 44.2862 63.115 45.1139L66.1121 44.9829ZM63.4792 64.8L61.9828 64.6963C61.927 65.5021 62.5192 66.2074 63.3225 66.2918C64.1258 66.3762 64.8517 65.8094 64.9645 65.0096L63.4792 64.8ZM69.8763 45.5866L70.0273 47.079L69.8763 45.5866ZM73.4732 47.3584L74.8864 46.8556L74.8864 46.8556L73.4732 47.3584ZM66.2612 49.1296C65.7173 48.5047 64.7698 48.4391 64.1449 48.9829C63.52 49.5268 63.4544 50.4743 63.9983 51.0992L66.2612 49.1296ZM63.115 45.1139C63.4228 52.1598 62.9884 57.5435 61.9939 64.5904L64.9645 65.0096C65.976 57.8414 66.4302 52.2654 66.1121 44.9829L63.115 45.1139ZM64.9756 64.9037C65.1328 62.6362 65.1426 58.195 65.8955 54.1127C66.2701 52.0813 66.8061 50.2953 67.5509 49.0157C68.2843 47.7555 69.0984 47.173 70.0273 47.079L69.7252 44.0942C67.4972 44.3197 65.97 45.7679 64.958 47.5066C63.9574 49.226 63.3439 51.4072 62.9453 53.5686C62.1517 57.8717 62.12 62.7177 61.9828 64.6963L64.9756 64.9037ZM70.0273 47.079C70.5999 47.021 70.9847 46.986 71.2858 46.9842C71.4284 46.9834 71.5241 46.9906 71.5882 46.9999C71.6498 47.0088 71.6713 47.0182 71.6693 47.0174C71.5613 46.9729 71.7193 46.9039 72.06 47.8613L74.8864 46.8556C74.5082 45.7928 73.9815 44.7251 72.8116 44.2434C72.2823 44.0254 71.7425 43.9815 71.268 43.9843C70.7982 43.9871 70.2664 44.0394 69.7252 44.0942L70.0273 47.079ZM72.06 47.8613C72.1343 48.0701 72.173 48.5948 72.0288 49.2461C71.8811 49.913 71.635 50.2953 71.525 50.391L73.4946 52.6539C74.3122 51.9422 74.7531 50.8193 74.9578 49.8946C75.1661 48.9541 75.2226 47.8005 74.8864 46.8556L72.06 47.8613ZM71.525 50.391C71.5715 50.3505 71.4361 50.4729 70.8723 50.494C70.3683 50.5129 69.728 50.4423 69.0461 50.2899C68.3699 50.1388 67.7105 49.9202 67.1764 49.6794C66.5977 49.4186 66.3243 49.2022 66.2612 49.1296L63.9983 51.0992C64.4948 51.6697 65.2503 52.1019 65.9434 52.4144C66.6811 52.7469 67.5366 53.0265 68.3919 53.2177C69.2415 53.4075 70.1497 53.5232 70.9847 53.4919C71.7598 53.4629 72.754 53.2984 73.4946 52.6539L71.525 50.391Z" fill="#895285"/>
<path d="M76.1436 47.2906C76.1413 47.949 76.3935 50.2784 76.3912 50.9368C76.3908 51.0476 76.5029 54.8183 76.5051 54.1974C76.5078 53.4156 76.5202 49.8807 76.5229 49.0989C76.5241 48.7596 76.4338 48.3647 76.7342 48.1381C77.5227 47.5432 78.8199 47.3 79.7888 47.3034C80.5524 47.3061 80.7369 48.2013 81.3465 48.6107" stroke="#895285" stroke-width="3" stroke-linecap="round" stroke-linejoin="round"/>
<path d="M88.8395 47.073C89.3759 47.238 90.6742 47.6522 90.6695 48.3369C91.5288 50.1373 91.4012 51.7772 89.9946 53.0699C88.9742 54.0076 87.4188 53.783 86.266 53.6347C84.2376 53.3737 83.5577 49.7154 84.4324 48.2323C85.3633 46.6538 87.2821 46.594 88.8395 47.073Z" stroke="#895285" stroke-width="3" stroke-linecap="round"/>
<path d="M131.768 49.6405C131.737 48.8912 129.256 49.1046 128.836 49.1097C128.04 49.1195 126.964 49.3227 126.536 50.0488C125.582 51.6664 126.345 53.1414 128.115 53.5407C128.826 53.701 129.422 53.5522 129.7 54.4504C129.989 55.385 130.385 57.158 129.841 58.1124C128.849 59.8538 125.382 60.239 123.823 59.1504" stroke="#895285" stroke-width="3" stroke-linecap="round"/>
<path d="M115.377 49.7024C118.137 49.8937 120.672 49.4149 123.39 49.217" stroke="#895285" stroke-width="3" stroke-linecap="round"/>
<path d="M95.7928 46.9736C95.6422 49.1468 95.9394 51.2795 95.8551 53.444C95.8351 53.9579 95.8223 54.5093 95.8055 55.0826M95.8055 55.0826C95.7269 57.7657 95.56 60.9297 94.1534 62.9818C93.4122 64.063 92.1034 64.1677 90.9145 63.692C87.9443 62.5037 89.42 58.223 91.0637 56.5328C92.2435 55.3197 94.16 55.2341 95.8055 55.0826ZM95.8055 55.0826C96.0743 55.0579 96.3359 55.0314 96.5858 54.9979C97.6902 54.85 98.7752 54.598 99.8247 54.241M99.8247 54.241C100.42 54.0385 101.004 53.8022 101.573 53.5319C103.06 52.8261 104.177 51.1373 104.29 49.509C104.42 47.6351 101.199 49.3362 100.622 50.151C99.9963 51.0351 99.9233 52.6258 99.8385 53.6718C99.8215 53.881 99.8167 54.0694 99.8247 54.241ZM99.8247 54.241C99.8739 55.2991 100.408 55.7148 101.558 56.3929C102.712 57.0735 105.119 57.8842 106.068 56.8185M106.068 56.8185C106.285 56.5748 106.426 56.2329 106.458 55.7688C106.633 53.2451 108.429 50.1043 111.366 50.3078C111.601 50.3241 111.866 50.3658 112.131 50.4351M106.068 56.8185C106.047 56.7802 106.027 56.7411 106.008 56.7013C105.224 55.078 106.633 52.8642 107.516 51.6214C108.443 50.3172 110.737 49.6036 112.131 50.4351M106.068 56.8185C107.268 59.0377 110.942 58.8058 112.792 57.952C116.895 56.0581 117.39 50.8243 118.034 46.9732C118.251 45.6771 118.875 41.7922 118.784 43.1031L118.299 50.0945C118.146 52.304 117.893 54.2869 119.446 56.0715C121.159 58.0397 123.539 56.1568 125.227 55.2579M112.131 50.4351C112.636 50.5669 113.145 50.7988 113.466 51.1472C113.792 51.5004 112.44 50.6395 112.239 50.5032C112.204 50.4794 112.168 50.4567 112.131 50.4351ZM95.6435 42.8002C95.6152 42.7845 95.589 42.7691 95.5646 42.7542M95.5646 42.7542C94.9246 42.3614 95.5676 42.2457 95.5646 42.7542ZM95.5646 42.7542C95.5645 42.7672 95.564 42.7807 95.563 42.7946" stroke="#895285" stroke-width="3" stroke-linecap="round"/>
<path d="M46.9993 63.878C46.7932 66.8514 45.921 74.6269 45.715 77.6003C45.6701 78.2474 45.0214 82.5877 45.0662 81.9406C45.1235 81.1132 46.1316 77.84 46.448 77.0794C47.021 75.702 47.9212 74.3174 49.4399 73.8899C51.3347 73.3564 53.1805 74.0895 54.6529 75.319C55.7443 76.2303 56.5295 77.6627 55.939 79.0824C55.588 79.9261 55.0073 81.1201 54.2891 81.5688C53.1724 82.2665 51.7788 82.8066 50.467 82.6518C48.4915 82.4188 46.665 81.7654 45.8669 80.2173" stroke="#895285" stroke-width="3" stroke-linecap="round"/>
<path d="M60.1617 77.5313C61.3424 78.7519 65.5032 79.417 66.0746 77.1701C66.6699 74.8294 63.6791 74.9516 62.2137 74.8982C59.8303 74.8113 58.088 77.4194 57.9413 79.5359C57.841 80.983 58.2053 81.6793 58.9046 82.8555C59.8454 84.4381 61.7096 84.9726 63.52 84.6926C65.7723 84.3442 67.3042 81.2674 67.8832 79.2999C68.8287 76.0869 69.1577 72.7082 70.2366 69.5374C70.7269 68.0965 71.2719 66.6808 71.7302 65.2274C72.0964 64.0661 72.0646 63.9305 71.9283 65.2893C71.6088 68.4752 70.3432 71.4206 69.4045 74.4522C68.8286 76.3121 68.4402 78.2163 68.3056 80.1579C68.2173 81.4315 68.389 81.928 69.4344 82.7801C70.1805 83.3883 71.1685 84.0181 72.1577 84.0867C74.1529 84.225 75.8695 80.6858 76.5254 79.1857" stroke="#895285" stroke-width="3" stroke-linecap="round"/>
<path d="M79.4168 76.9574C80.4988 74.6177 83.0549 75.6911 84.3006 77.1224C85.1129 78.0556 85.8162 80.0203 85.87 80.7581C85.9682 82.1064 85.3675 83.5243 84.318 84.3799C82.6108 85.7716 80.0948 84.6008 78.7704 83.2245C78.0316 82.4566 78.4895 80.5411 78.5798 79.5783C78.6575 78.7505 79.0683 77.7108 79.4168 76.9574Z" stroke="#895285" stroke-width="3" stroke-linecap="round"/>
<path d="M88.5647 75.6834C87.6851 77.664 87.1023 79.8069 87.0966 81.9899C87.094 82.9687 87.9966 84.1657 89.0845 83.7562C90.3224 83.2903 90.767 81.4489 90.8491 80.2649C90.8682 79.9888 90.935 79.7942 91.0345 79.5357C91.2612 78.9472 91.2516 80.3424 91.3053 80.6337C91.5727 82.0827 91.8461 84.4348 93.2083 85.2948C94.1361 85.8805 95.7121 85.6826 96.303 84.7191C97.7888 82.2961 96.4874 79.0086 95.0767 76.8285" stroke="#895285" stroke-width="3" stroke-linecap="round"/>
</svg>
