<svg width="44" height="44" viewBox="0 0 44 44" fill="none" xmlns="http://www.w3.org/2000/svg">
<path d="M24.0792 41.7489C26.5249 41.7489 28.6758 39.8659 31.0144 39.4333C33.8651 38.906 37.8774 35.9669 39.0647 33.1561C39.5966 31.897 40.4881 31.133 40.7238 29.6827C41.0102 27.9198 41.9017 26.1023 41.9476 24.3122C42.0281 21.1744 42.1417 17.9075 41.2133 14.8825C39.4752 9.21902 35.0793 4.89044 29.573 3.27662C26.5043 2.37723 23.4626 1.70321 20.2172 2.13277C17.6766 2.46906 14.0526 2.97098 11.9766 4.7134C10.6423 5.83327 8.89001 7.26573 7.86983 8.66107C7.00392 9.8454 5.51512 10.6196 4.97335 12.0089C4.44774 13.3569 3.73668 14.4765 3.32794 15.8868C2.86596 17.4809 2.52928 18.9852 2.29445 20.6715C2.06105 22.3474 2.04968 23.9301 2.04968 25.6235C2.04968 26.5166 1.87834 27.5976 2.17207 28.4412C2.95452 30.6886 4.60006 32.718 6.3196 34.3139C8.93976 36.7457 12.3128 39.6665 15.8793 40.4795C17.4627 40.8405 19.1452 41.7489 20.7748 41.7489C21.4688 41.7489 24.037 41.4111 24.324 42" stroke="#976393" stroke-width="3" stroke-linecap="round"/>
<path d="M31 26C30.4595 25.9376 29.806 24.6723 29.4941 24.3013C28.3191 22.9035 26.9966 21.6322 25.8294 20.2379C25.1127 19.3816 24.5399 18.4159 23.6412 17.6898C23.3927 17.489 23.2639 17.1438 22.9941 17.036C22.3678 16.7858 21.0945 17.9105 20.6353 18.252C19.3106 19.2368 17.9563 20.2057 16.7176 21.3072C15.8973 22.0367 15.0528 22.7324 14.2294 23.4581C14.1213 23.5533 13.58 23.9187 13.5353 24.0813C13.4572 24.3652 13.2539 24.6583 13 24.7901" stroke="#976393" stroke-width="3" stroke-linecap="round"/>
</svg>
