<svg width="44" height="44" viewBox="0 0 44 44" fill="none" xmlns="http://www.w3.org/2000/svg">
<path d="M23.3517 2.25566C20.1762 2.25566 16.9177 3.64865 14.1694 5.19579C11.9072 6.4693 9.69585 7.85493 7.82557 9.72672C7.00453 10.5484 6.36584 11.7895 5.78192 12.7947C5.18604 13.8204 3.87213 15.5874 3.6673 16.7149C3.54385 17.3944 2.9666 17.8658 2.91512 18.5613C2.86605 19.2244 2.58058 19.8275 2.29067 20.4078C1.73346 21.5231 2.14875 23.7585 2.14875 25.0097C2.14875 26.202 1.96529 27.584 2.20552 28.7594C2.58601 30.6211 3.64612 32.5456 4.57559 34.1994C5.47647 35.8022 7.1668 38.012 8.79063 38.8723C10.2176 39.6284 11.0408 40.4664 12.7502 40.8466C13.8691 41.0955 14.9576 41.366 16.0711 41.6136C17.2016 41.865 18.4357 41.3445 19.5198 41.8267C20.3145 42.1802 21.7765 41.8835 22.6421 41.8835C23.9694 41.8835 25.3533 41.9893 26.6726 41.8693C30.1958 41.5487 33.3107 39.8612 36.1245 37.8497C38.6694 36.0305 39.8253 34.6234 40.226 31.4155C40.4188 29.8716 41.1723 28.1148 41.4891 26.5295C41.7554 25.1967 42 23.5846 42 22.2542C42 16.7414 38.594 11.7778 34.904 7.93707C32.8133 5.76103 31.1636 4.24003 28.3331 3.15049C26.812 2.56499 24.6706 2 23.0962 2" stroke="#976393" stroke-width="3" stroke-linecap="round"/>
<path d="M13 19C13.5405 19.0624 14.194 20.3277 14.5059 20.6987C15.6809 22.0965 17.0034 23.3678 18.1706 24.7621C18.8873 25.6184 19.4601 26.5841 20.3588 27.3102C20.6073 27.511 20.7361 27.8562 21.0059 27.964C21.6322 28.2142 22.9055 27.0895 23.3647 26.748C24.6894 25.7632 26.0437 24.7943 27.2824 23.6928C28.1027 22.9633 28.9472 22.2676 29.7706 21.5419C29.8787 21.4467 30.42 21.0813 30.4647 20.9187C30.5428 20.6348 30.7461 20.3417 31 20.2099" stroke="#976393" stroke-width="3" stroke-linecap="round"/>
</svg>
