<svg width="237" height="122" viewBox="0 0 237 122" fill="none" xmlns="http://www.w3.org/2000/svg">
<path d="M45.2227 37.1691C44.9093 34.7395 44.7555 34.2169 41.7801 34.6008C39.3007 34.9207 38.6549 35.2809 37.1412 37.7202C36.1875 39.257 35.4318 40.5076 35.9739 42.1127C36.7111 44.2952 37.6861 44.5373 39.7541 44.5072C42.5306 44.4669 45.0274 40.2316 45.2227 37.1691ZM45.2227 37.1691C45.1655 36.7257 45.1069 38.4329 45.1687 38.9117C45.3398 40.2378 45.5109 41.5639 45.682 42.89C46.5311 44.0708 46.5311 44.0708 48.0827 44.3747" stroke="#895285" stroke-width="3" stroke-linecap="round" stroke-linejoin="round"/>
<path d="M68.4389 31.8834C68.0861 30.4749 65.2238 30.3247 64.1321 30.812C63.2926 31.1867 63.0764 32.5642 63.3587 33.3447C63.6534 34.1597 65.3323 34.7312 66.0492 34.9811C67.9271 35.6355 72.3319 36.2866 70.5905 39.4314C68.5975 43.0307 64.2813 42.907 61.031 41.4862" stroke="#895285" stroke-width="3" stroke-linecap="round"/>
<path d="M73.8044 30.9401C74.1777 33.8329 74.5509 36.7257 74.9242 39.6185C75.252 42.1588 74.6349 37.697 74.6092 37.1731C74.4669 34.2696 75.3739 31.0171 78.9772 29.8481C81.6759 28.9726 83.1441 32.8592 83.3209 34.515C83.4116 35.3635 83.7313 38.263 83.8395 39.1015" stroke="#895285" stroke-width="3" stroke-linecap="round"/>
<path d="M87.5684 32.9748C89.5928 32.9044 91.6493 34.9458 93.325 33.3085C94.0359 32.6137 94.1144 30.8545 93.2896 30.1769C91.8893 29.1751 91.125 29.1588 89.5138 29.488C87.377 29.9245 86.7745 35.5939 88.0624 36.8031C89.1181 37.7944 90.5052 38.2755 91.7461 38.2164C94.587 38.081 95.8989 36.1125 96.5247 35.2477" stroke="#895285" stroke-width="3" stroke-linecap="round"/>
<path d="M105.912 30.5C103.754 40.1852 99.4514 34.1865 99.3875 33.6906C98.4438 30.2835 102.587 27.2281 104.546 27.608C106.315 28.7637 105.825 29.8352 105.911 30.5002C105.896 30.3612 106.522 34.2825 108.201 35.5782" stroke="#895285" stroke-width="3" stroke-linecap="round"/>
<path d="M107.415 18.0657C107.667 20.0183 108.271 21.8002 108.852 23.6759C109.723 26.4894 110.218 29.4007 111.07 32.2226C111.331 33.0854 111.797 35.7249 111.809 34.8237C111.827 33.5085 111.263 29.333 111.734 28.0954M111.734 28.0954C112.781 25.3427 113.208 25.7624 115.189 23.6164M111.734 28.0954C111.167 28.3218 118.325 32.2865 121.019 33.6353" stroke="#895285" stroke-width="3" stroke-linecap="round"/>
<path d="M133.557 25.3117C134.618 26.2953 134.91 28.8335 135.296 30.1392C136.323 33.6115 137.076 37.2633 138.416 40.6306C139.625 43.6666 136.7 34.3064 136.253 31.0695C135.975 29.057 133.661 26.1145 137.664 23.3872C140.256 22.7427 141.744 22.5508 143.23 24.3755C144.717 26.2002 142.453 28.9059 141.648 29.6212C140.384 30.7449 136.879 30.3047 135.901 28.8503" stroke="#895285" stroke-width="3" stroke-linecap="round"/>
<path d="M148.426 24.6165C149.754 25.6488 150.998 26.2193 152.695 26.2775C153.698 26.3119 155.592 26.3049 156.334 25.4696C157.447 24.217 155.3 21.669 154.083 21.4277C150.449 20.707 146.667 23.5637 146.933 27.3463C147.063 29.2 149.379 32.0048 155.708 29.4951" stroke="#895285" stroke-width="3" stroke-linecap="round"/>
<path d="M167.874 22.4638C167.409 20.4282 166.785 19.5004 165.028 19.7064C162.591 20.0209 161.413 21.4797 160.226 23.3715C158.833 25.5933 160.833 29.4497 163.641 29.3692C165.828 29.3065 167.709 24.2795 167.88 22.508C168.755 24.2874 170.682 28.0891 171.775 29.7144" stroke="#895285" stroke-width="3" stroke-linecap="round" stroke-linejoin="round"/>
<path d="M169.417 14.0986C170.469 17.5794 172.146 20.9778 173.412 24.3997C173.829 25.5295 174.202 26.6899 174.523 27.8514C174.749 28.6681 174.872 26.1929 175.055 25.3654C175.65 22.6696 176.428 20.5776 178.693 18.9763C178.977 18.7757 177.85 19.705 177.802 19.7576C177.015 20.6308 176.434 21.6553 175.719 22.5834C175.523 22.8369 174.064 23.9321 174.103 24.233C174.217 25.1206 182.238 26.9489 183.879 26.7372" stroke="#895285" stroke-width="3" stroke-linecap="round"/>
<path d="M10.3643 66.9935C11.4114 66.7384 13.9098 65.986 15.4363 67.5827C16.7855 68.6236 17.1239 70.8963 17.1319 72.9095C17.1426 75.6175 13.8936 76.9699 11.6801 76.7105C10.4624 76.5678 8.2958 75.5114 7.86158 74.2589C7.17309 72.2729 8.03188 67.5618 10.3643 66.9935Z" stroke="#895285" stroke-width="3" stroke-linecap="round"/>
<path d="M26.0473 61.813C25.7923 61.1079 26.3813 58.9225 23.1839 59.1576C18.5077 62.3532 20.4864 67.5684 21.427 72.0295C22.0526 74.9968 22.2913 78.0981 22.6601 81.1063C22.946 83.4375 23.0993 85.904 22.4595 88.1985C22.2175 89.0667 22.1024 89.4172 21.2332 89.5035C19.745 89.6512 19.6281 87.8728 19.4877 86.7844C18.8187 81.5993 21.4659 76.3328 22.3637 71.2423C22.7432 69.0905 27.7836 69.6967 28.6714 70.4284" stroke="#895285" stroke-width="3" stroke-linecap="round" stroke-linejoin="round"/>
<path d="M41.0572 64.4923C41.1251 65.59 40.7224 73.0775 43.32 72.181C44.7298 71.6944 45.5054 69.1787 45.394 67.8378C45.373 67.586 45.6953 66.5059 46.0002 66.8918C46.3366 67.3175 48.431 73.9456 49.4416 72.3054C51.0708 69.6611 50.9158 65.6148 51.4123 62.5983" stroke="#895285" stroke-width="3" stroke-linecap="round"/>
<path d="M54.0654 57.2146C54.5735 61.1523 55.0816 65.09 55.5897 69.0276C55.6732 69.6748 55.9691 70.3299 56.1787 70.9507C56.639 72.3134 56.3294 68.7061 56.3223 68.2203C56.3036 66.9315 56.4311 65.6456 56.8066 64.4076C56.9249 64.0176 57.8522 62.1547 58.3481 62.3027C59.4486 62.631 60.0662 65.2569 60.2259 66.1669C60.5393 67.9525 60.8808 69.5941 61.4645 71.3224" stroke="#895285" stroke-width="3" stroke-linecap="round"/>
<path d="M67.9392 60.9753C69.3061 58.9701 65.456 59.3693 64.5868 60.695C63.3641 62.56 62.5739 65.7304 64.5671 67.268C66.3018 68.6062 68.3035 66.6554 68.8778 65.0072C69.1012 64.3663 69.286 63.5905 69.2889 62.9087C69.2965 61.1218 69.5666 63.6076 69.6906 64.2205C69.9439 65.4725 70.2949 69.9054 71.9219 70.2241" stroke="#895285" stroke-width="3" stroke-linecap="round"/>
<path d="M76.7289 51.2655C77.4136 56.5724 76.463 62.3561 77.7314 67.5623C77.9898 68.6228 81.9888 69.4675 82.2516 68.1258M74.0472 58.5849C76.7918 58.3568 79.4816 58.5693 81.9684 57.2839" stroke="#895285" stroke-width="3" stroke-linecap="round"/>
<path d="M96.3506 50.7754C98.6002 55.8159 99.017 61.4062 100.36 66.7152" stroke="#895285" stroke-width="3" stroke-linecap="round"/>
<path d="M103.184 51.8463C104.458 53.0279 104.707 55.0051 104.918 56.6433" stroke="#895285" stroke-width="3" stroke-linecap="round"/>
<path d="M109.272 64.4495C110.998 64.0291 107.622 57.4101 109.632 57.1508C111.206 56.9477 111.964 58.5171 112.821 59.5286C113.423 60.2402 113.767 61.9018 114.054 60.4388C114.241 59.4827 114.446 53.6453 116.909 55.5454C118.941 57.1124 119.431 60.5423 120.485 62.7237" stroke="#895285" stroke-width="3" stroke-linecap="round"/>
<path d="M137.525 51.7299C137.144 51.0107 134.183 49.1827 132.048 52.7721C130.882 55.0676 131.638 62.9652 134.698 62.6788C138.05 62.365 142.362 60.1241 141.928 56.5763C141.847 55.9166 141.43 52.6555 141.89 53.1406C142.784 54.0838 143 56.3076 143.491 57.4482C147.608 64.5253 150.701 57.0757 150.863 55.4711C150.923 54.8809 151.171 53.3997 151.102 52.8167C151.014 52.0698 150.574 50.8528 150.886 52.0133C151.454 54.1248 152.363 57.2078 153.589 59.0279" stroke="#895285" stroke-width="3" stroke-linecap="round" stroke-linejoin="round"/>
<path d="M156.247 51.1956C157.158 51.4093 157.387 55.6638 157.641 56.5945C157.784 57.1202 158.056 58.733 157.987 58.1925C157.829 56.9733 157.657 55.7552 157.515 54.5342C157.156 51.4472 159.304 49.6855 162.142 49.3193" stroke="#895285" stroke-width="3" stroke-linecap="round"/>
<path d="M165.524 48.1158C166.079 50.9234 166.88 53.7681 167.588 56.543C168.422 59.8143 167.735 54.4362 167.628 53.6091C167.494 52.5714 166.688 49.4863 168.015 48.9574C171.749 47.469 172.119 48.4279 173.038 48.8134" stroke="#895285" stroke-width="3" stroke-linecap="round"/>
<path d="M175.42 50.4456C176.349 51.1332 177.51 51.5362 178.609 51.7836C180.189 52.1395 181.751 49.8146 180.897 48.3355C180.253 47.2203 178.838 47.2353 177.758 47.3074C176.654 47.3812 175.859 48.5709 175.588 49.6235C175.177 51.2181 175.554 53.8026 176.949 54.696C178.382 55.6141 180.38 54.9649 181.915 54.7668" stroke="#895285" stroke-width="3" stroke-linecap="round"/>
<path d="M184.809 45.9358C185.103 48.2169 185.838 50.2638 186.35 52.4876C186.443 52.8938 186.895 56.2864 186.714 54.8776C186.338 51.9687 185.434 49.0649 186.987 46.439C187.442 45.6696 189.411 44.7926 190.16 44.696C191.131 44.5706 192.353 45.1427 193.063 46.0052C194.439 47.6788 194.397 50.417 194.663 52.4793" stroke="#895285" stroke-width="3" stroke-linecap="round" stroke-linejoin="round"/>
<path d="M196.602 38.8232C197.067 41.3242 197.663 43.7946 198.274 46.2626C198.782 48.3135 199.11 50.255 200.377 51.9884C201.915 54.0933 202.25 51.8102 203.443 50.7714M194.548 43.2723L200.809 42.4643" stroke="#895285" stroke-width="3" stroke-linecap="round"/>
<path d="M204.094 39.1062C204.463 41.9659 205.248 44.6629 206.006 47.4444C206.442 49.0414 206.704 50.8168 207.714 52.1519C208.18 52.7681 208.661 53.2827 209.405 52.6466C211.164 51.1427 211.364 48.5506 211.3 46.4359C211.267 45.3419 211.44 44.1567 211.302 43.0885C211.111 41.6047 212.158 45.9585 212.69 47.3569C213.29 48.9354 214.799 52.4158 217.068 50.5421C219.211 48.7723 219.387 45.2172 219.057 42.6612C218.759 40.3483 219.964 47.2561 220.769 49.4447C221.996 52.7774 223.472 55.9768 224.006 59.5181C224.274 61.2991 225.769 66.7134 222.906 67.0828C220.412 67.4046 219.866 66.0545 219.557 63.8268C219.048 60.1638 218.682 56.4556 221.073 53.3571C223.648 50.0189 226.719 47.0139 228.61 43.1952" stroke="#895285" stroke-width="3" stroke-linecap="round"/>
<path d="M59.7121 84.6858C60.3457 86.5831 61.8876 94.058 63.985 92.7474C66.0486 91.0327 65.6895 89.6841 67.3659 86.7689C67.6954 86.1958 69.5931 89.354 69.885 89.7517C70.7054 90.8692 71.7437 92.1268 72.9436 92.8459C73.34 93.0834 74.7526 85.5458 74.7519 84.2377" stroke="#895285" stroke-width="3" stroke-linecap="round"/>
<path d="M85.2666 85.1121C84.4082 84.0984 82.2588 83.8556 80.9996 83.9891C79.4967 84.1484 79.0895 84.9484 79.0958 86.5282C79.1014 87.9554 79.1749 90.2672 81.1048 90.329C84.7388 90.4456 85.8789 87.6958 85.4701 84.528" stroke="#895285" stroke-width="3" stroke-linecap="round"/>
<path d="M88.6113 83.006C89.4848 85.0109 89.8023 87.9624 90.0796 90.1116C90.3514 92.2182 89.827 88.1041 89.7737 87.6909C89.6185 86.4879 88.8506 84.6563 90.4119 84.2303C92.2192 83.7373 92.0951 82.2894 95.8511 82.9086" stroke="#895285" stroke-width="3" stroke-linecap="round" stroke-linejoin="round"/>
<path d="M96.8975 76.8954C98.2219 78.4168 98.6756 81.105 99.3235 82.9669C99.9764 84.8434 100.552 86.6104 100.928 88.5555C101.2 89.9653 101.636 86.956 101.714 86.7185C102.359 84.7317 103.749 83.0694 105.226 81.6319C106.317 80.5699 105.566 81.6752 105.207 82.2077C104.735 82.9083 102.355 84.4127 102.308 85.324C102.259 86.2768 107.066 87.6089 108.15 87.6236" stroke="#895285" stroke-width="3" stroke-linecap="round"/>
<path d="M110.55 82.45C110.686 83.4984 111.12 86.9719 112.011 87.2824M109.055 77.3433L109.125 77.892" stroke="#895285" stroke-width="3" stroke-linecap="round"/>
<path d="M116.381 79.4229C116.685 80.8384 117.544 87.104 117.712 85.6661C117.824 84.7145 116.806 80.941 118.389 80.6975C125.979 75.6637 123.976 83.585 124.283 85.9654" stroke="#895285" stroke-width="3" stroke-linecap="round"/>
<path d="M136.077 77.0031C134.48 76.2123 130.992 75.8943 129.339 76.964C126.814 78.5983 129.582 84.378 132.222 84.6502C132.837 84.7137 135.165 81.6581 133.887 78.7017C132.91 75.8994 135.001 80.4931 135.208 81.0107C136.746 84.861 138.24 88.8982 138.776 93.0558C139.472 98.4452 133.925 104.751 128.24 103.512C126.957 103.232 126.434 102.071 126.213 100.891C125.792 98.647 129.16 95.9269 130.683 94.7045C134.313 91.7904 139.263 91.0219 142.915 88.1364" stroke="#895285" stroke-width="3" stroke-linecap="round" stroke-linejoin="round"/>
<path d="M150.8 74.0347C151.219 72.381 153.843 72.3506 155.186 72.7512C155.246 73.2168 157.185 76.5264 154.402 78.398C153.906 78.462 152.153 78.9318 151.362 78.286C150.363 77.4691 150.499 75.2234 150.8 74.0347Z" stroke="#895285" stroke-width="3" stroke-linecap="round" stroke-linejoin="round"/>
<path d="M160.112 79.1867C159.912 77.632 159.711 76.0772 159.51 74.5225C159.259 72.571 159.477 75.1609 159.681 75.7247C159.815 76.0937 160.243 74.3719 160.367 74.195C160.875 73.4667 161.603 72.8578 162.473 72.7455C164 72.5485 165.725 77.5397 166.991 78.286" stroke="#895285" stroke-width="3" stroke-linecap="round"/>
</svg>
