<svg width="48" height="48" viewBox="0 0 48 48" fill="none" xmlns="http://www.w3.org/2000/svg">
<path d="M23.7315 7.22921C22.6469 7.05092 20.5076 6.92506 18.7768 7.05084C16.3205 7.22934 15.3156 8.32772 14.4392 9.20163C13.8123 9.82672 12.5583 12.4777 13.8123 15.0985C14.4394 16.409 15.5961 16.8402 16.3205 17.0643C16.8772 17.2365 19.4805 17.8886 20.7037 17.9377M23.7315 7.22921C23.8303 7.24545 23.7938 7.42459 23.8092 7.91887C23.7929 10.2445 23.8092 10.7787 23.7315 12.2718C23.7161 13.3439 23.664 15.2853 23.6227 16.3289C23.5761 17.5017 23.7967 17.7868 23.6409 17.9487M23.7315 7.22921C24.8161 7.05092 26.5188 7.16117 28.2496 7.28695C30.7059 7.46545 31.7108 8.56383 32.5872 9.43773C33.2141 10.0628 34.4681 12.7138 33.2141 15.3346C32.587 16.6451 31.4303 17.0763 30.7059 17.3004C30.1492 17.4726 27.5459 18.1247 26.3227 18.1738C25.6794 18.1996 25.1274 18.3191 24.0739 18.3201C23.8546 18.3203 23.7183 18.0292 23.6409 17.9487M20.7037 17.9377C21.347 17.9635 21.6434 17.9367 22.6969 17.9377C22.9162 17.9379 23.2622 17.9901 23.3397 17.9096L23.6409 17.9487M20.7037 17.9377C18.2474 18.1162 15.3153 18.8112 14.4389 19.6851C13.4263 20.6948 12.4676 23.1972 13.7217 25.818C14.3488 27.1285 15.5055 27.5597 16.2299 27.7838C16.7866 27.956 19.3899 28.6081 20.6131 28.6571M23.6409 17.9487L23.6837 18.1427M23.6409 17.9487C23.7397 17.9649 23.7032 18.1441 23.7185 18.6384C23.7023 20.964 23.9216 21.4681 23.844 22.9612C23.8286 24.0333 23.8854 25.8487 23.844 26.8924C23.7975 28.0652 23.9998 28.6962 23.844 28.8581M20.6131 28.6571C21.2564 28.683 21.8084 28.8025 22.8618 28.8034C23.0812 28.8036 23.7665 28.9386 23.844 28.8581M20.6131 28.6571C19.4461 28.6571 19.6203 28.5453 17.5739 28.8581C16.1866 29.0701 15.1906 29.8966 14.4389 30.8237C13.8656 31.5306 13.1848 32.7893 13.0698 34.0968C12.9066 35.9522 13.0696 36.221 13.153 36.5705C13.2665 37.0461 13.3676 37.5669 14.4389 38.6862C15.5101 39.8055 18.4856 40.0317 18.8279 39.9966C19.3127 39.9469 21.514 39.8022 23.044 38.2472C23.2373 38.0507 24.119 36.7206 24.3315 35.4102C24.6049 33.7239 24.3899 31.4814 24.3483 30.6119C24.3397 30.394 24.3397 30.0828 24.3315 29.8966C24.3232 29.7104 23.861 29.0686 23.844 28.8581M30.114 18.3201C29.3021 18.3024 26.9449 18.0626 25.725 19.0299C24.0724 20.3403 24.0704 24.0849 24.0724 24.2355C24.1308 28.6689 27.1099 29.3099 28.233 29.5133C28.5513 29.5709 30.8746 29.9717 31.9951 29.5133C33.7301 28.8034 34.5476 27.3646 34.8557 25.818C35.1637 24.2714 34.9472 22.8757 34.5031 21.6507C33.8761 19.9211 32.6221 18.3747 30.114 18.3201Z" vector-effect="non-scaling-stroke" stroke="#976393" stroke-width="3" stroke-linecap="round"/>
</svg>