<svg width="48" height="48" viewBox="0 0 48 48" fill="none" xmlns="http://www.w3.org/2000/svg">
<path d="M32.5 39C30.6539 40.059 26.2985 40 25.5559 40C17.0338 40 13.5474 37.1646 11.2231 34.7342C10.4959 33.9738 8.44806 31.4935 8.01012 25.867C7.9184 24.6887 8.35016 14.4588 13.5473 10.8356C17.0336 8.40506 20.5201 8.00025 22.8443 8C27.4929 7.9995 30.7003 9.29088 32.9162 10.8356C35.2405 12.4558 39.2563 18.0286 39.8889 23.3922C40.1808 25.867 39.8888 28.658 39.1141 31.4935C38.3394 34.3289 36.4667 36.7245 32.5 39ZM32.5 39C32.2916 38.5931 31.2086 37.3161 30.6539 36.3399C30.3523 35.8093 30.0489 35.3694 29.8945 35.0602C29.7492 34.7693 29.3009 33.9133 28.632 32.8177C28.3723 32.3924 28.2485 32.2274 27.8892 31.6456C27.5298 31.0637 26.9523 30.0943 26.4829 29.3015C26.0135 28.5087 25.672 27.9048 25.3495 27.4096C24.7679 26.5168 23.7355 24.8387 23.4999 24.5C23.0002 23.7816 21.9764 21.7827 21.4999 21C21.3643 20.6872 20.2055 18.7437 19.9157 18.6771C19.8735 18.6674 19.4999 18.7389 19.4999 19C19.4999 20.0499 18.9999 25.4703 18.9999 26.5C18.9999 27.145 18.5962 28.8813 18.5 29.5M28 19C28 19.5 28 19.4763 27.9587 20.5303C27.9175 21.5844 27.835 23.5437 27.75 25.5625" vector-effect="non-scaling-stroke" stroke="#976393" stroke-width="3" stroke-linecap="round" stroke-linejoin="round"/>
</svg>
