<svg width="48" height="48" viewBox="0 0 48 48" fill="none" xmlns="http://www.w3.org/2000/svg">
<path d="M25.0607 22.5129C25.4373 22.5129 26.3533 22.4523 27.3203 23.6858C27.558 23.989 27.6969 24.8588 27.6969 25.6409C27.697 26.8139 27.071 27.3199 26.0049 27.6578C25.566 27.797 24.3038 27.6931 24.1755 27.6578C24.0881 27.6338 22.8011 27.2049 22.4245 26.0318C22.2561 25.5072 22.4245 24.0768 23.0452 23.2306C23.1242 23.1229 23.3232 22.9991 23.3857 22.9618C23.8008 22.7131 24.1755 22.5129 25.0607 22.5129Z" fill="#976393"/>
<path d="M31.4552 12.0634C32.6145 11.78 34.3942 11.4073 35.2057 12.4178C36.2286 13.6918 36.2433 15.0739 35.9556 16.8073C35.8798 17.2639 34.8848 20.632 34.7275 21.1106C34.6283 21.4123 32.2784 25.8998 32.102 26.2588C31.8072 26.8587 29.8511 30.365 24.873 35.3914C24.5415 35.7261 20.8153 38.5417 19.6561 38.8248C18.4969 39.1078 17.3647 39.0794 16.2805 38.5058C15.1963 37.9322 14.8555 35.61 15.1217 34.47C17.5436 24.0979 21.7035 19.7795 22.5901 18.2927C22.9933 17.6167 25.2493 15.5031 25.8977 15.0716C26.8976 14.4062 29.9439 12.4328 31.4552 12.0634Z" stroke="#976393" stroke-width="3" stroke-linecap="round" stroke-linejoin="round" vector-effect="non-scaling-stroke"/>
<path d="M16.2923 10.6959C18.464 8.77488 22.6257 11.3927 23.1923 11.8401C25.6075 13.7468 28.862 18.6951 29.0574 19.0856C29.2118 19.3942 32.8506 26.1978 33.1975 27.0939C33.3981 27.6119 34.3362 30.0283 34.4978 30.526C35.6126 33.9581 35.137 36.3798 34.4978 37.0917C33.8875 37.7715 33.1975 38.1529 31.8175 38.1529C30.0925 38.1529 28.2868 37.3384 27.3325 36.6275C26.6169 36.0944 26.2073 35.5954 25.947 35.3413C25.6323 35.034 22.387 31.1795 22.0517 30.8389C21.7591 30.4736 21.2003 29.8266 20.8881 29.374C19.0523 26.7125 16.6623 21.8377 16.2924 20.6109C15.9474 19.4669 15.2576 17.5602 14.9125 15.2721C14.7916 14.4707 14.5674 12.2216 16.2923 10.6959Z" stroke="#976393" stroke-width="3" stroke-linecap="round" stroke-linejoin="round" vector-effect="non-scaling-stroke"/>
<path d="M36.8956 20.8875C37.4255 21.0867 39.8481 22.5504 39.9966 24.1655C40.0906 25.187 38.1842 26.6823 37.4625 27.0498C37.142 27.213 36.684 27.4246 35.4767 27.7986C34.6752 28.047 33.7202 28.3988 31.4467 28.9251C28.9826 29.4954 27.2106 30.0122 25.0935 30.2071C22.9763 30.4021 20.7541 30.3956 20.0761 30.3788C19.3981 30.3621 15.3556 29.8691 12.7429 28.8244C12.2915 28.6439 10.1159 27.6248 10.0113 26.4877C9.90668 25.3505 10.5457 24.479 11.1986 23.7623C11.8515 23.0457 13.7324 21.6647 16.7 21.0354C17.0414 20.9629 17.8254 20.8369 18.1822 20.7795L18.216 20.774C18.5546 20.7196 18.6438 20.6969 19.5348 20.6016C20.4258 20.5064 22.1869 20.2959 23.4549 20.2127C24.7229 20.1296 25.825 19.9363 26.305 19.93C26.785 19.9238 33.4647 19.598 36.8956 20.8875Z" stroke="#976393" stroke-width="3" stroke-linecap="round" stroke-linejoin="round" vector-effect="non-scaling-stroke"/>
<path d="M25.0607 22.5129C25.4373 22.5129 26.3533 22.4523 27.3203 23.6858C27.558 23.989 27.6969 24.8588 27.6969 25.6409C27.697 26.8139 27.071 27.3199 26.0049 27.6578C25.566 27.797 24.3038 27.6931 24.1755 27.6578C24.0881 27.6338 22.8011 27.2049 22.4245 26.0318C22.2561 25.5072 22.4245 24.0768 23.0452 23.2306C23.1242 23.1229 23.3232 22.9991 23.3857 22.9618C23.8008 22.7131 24.1755 22.5129 25.0607 22.5129Z" stroke="#976393" stroke-width="3" stroke-linecap="round" stroke-linejoin="round"/>
</svg>
