<svg width="48" height="48" viewBox="0 0 48 48" fill="none" xmlns="http://www.w3.org/2000/svg">
<path d="M34.5565 27.4714C34.2758 27.8387 33.8308 28.39 33.403 28.841C31.0874 31.282 27.0648 31.4602 25.6725 31.0398C24.2278 30.6035 23.6657 29.7981 23.3142 29.2945C22.8597 28.6432 22.4545 27.7099 21.8088 27.1651C21.1443 26.6043 18.8061 24.2586 15.0526 25.316C14.3384 25.5172 12.9673 26.0638 12.0071 26.847C10.5325 28.0496 10.0479 28.515 8.96908 29.7701C8.69975 30.0834 8.34458 30.6613 8.09304 31.0287C7.77863 31.4878 7.3577 32.5561 7.53456 32.2394C7.67576 31.9865 9.05667 31.413 10.465 30.956C11.2316 30.7072 12.8855 30.9469 13.3844 31.0398C16.7208 31.661 18.7419 34.7969 19.2231 35.1859C19.6436 35.5257 20.204 35.9553 21.1842 36.2778C21.8141 36.4849 23.8833 36.7775 25.1555 36.5129C26.1601 36.3039 27.9771 35.6573 29.2339 34.9287C29.8799 34.5541 30.8846 34.0243 32.1518 32.7184C32.9991 31.8453 33.5275 30.6431 33.82 29.7701C34.07 29.024 34.1943 28.1296 34.5565 27.4714ZM34.5565 27.4714C34.8042 27.1474 34.9241 26.9665 34.7919 27.1238C34.7031 27.2293 34.6255 27.3461 34.5565 27.4714ZM40.8689 13.7946C40.5882 14.1619 40.1432 14.7131 39.7154 15.1642C37.3998 17.6051 33.3772 17.7833 31.9849 17.3629C30.5402 16.9267 29.9781 16.1212 29.6266 15.6176C29.172 14.9664 28.7669 14.0331 28.1212 13.4882C27.4567 12.9274 25.1185 10.5817 21.365 11.6391C20.6508 11.8403 19.2797 12.387 18.3195 13.1701C16.8449 14.3728 16.3603 14.8382 15.2815 16.0932C15.0121 16.4065 14.657 16.9845 14.4054 17.3518C14.091 17.811 13.6701 18.8792 13.847 18.5625C13.9882 18.3096 15.3691 17.7362 16.7774 17.2791C17.544 17.0303 19.1979 17.27 19.6968 17.3629C23.0332 17.9842 25.0543 21.1201 25.5355 21.509C25.956 21.8489 26.5164 22.2785 27.4966 22.6009C28.1265 22.8081 30.1957 23.1006 31.4679 22.836C32.4725 22.6271 34.2895 21.9804 35.5463 21.2518C36.1923 20.8772 37.1969 20.3475 38.4642 19.0416C39.3115 18.1684 39.8399 16.9663 40.1324 16.0932C40.3824 15.3471 40.5067 14.4527 40.8689 13.7946ZM40.8689 13.7946C41.1166 13.4706 41.2365 13.2897 41.1043 13.4469C41.0155 13.5525 40.9379 13.6692 40.8689 13.7946Z" stroke="#976393" stroke-width="3" stroke-linecap="round" vector-effect="non-scaling-stroke"/>
</svg>
