<svg width="48" height="48" viewBox="0 0 48 48" fill="none" xmlns="http://www.w3.org/2000/svg">
<path d="M19.2344 25.6533C19.2539 25.6533 19.7911 25.6826 20.6484 25.7416C20.9791 25.7644 21.0957 25.8006 21.5318 25.8548C21.968 25.9089 22.2369 25.9646 23 26M23 26C23.7631 26.0354 24.9975 26.0479 25.4823 26.0624C25.9672 26.0769 26.1624 26.116 26.2923 26.1361C26.4222 26.1562 26.4807 26.1562 26.5411 26.1858M23 26C23 26.0781 22.814 26.8452 22.7896 27.3296C22.7652 27.814 22.7163 28.7023 22.5448 29.8433C22.3732 30.9842 22.0803 32.3509 21.9295 33.0842C21.7786 33.8761 21.7688 33.9853 21.7541 34.113C21.749 34.1918 21.749 34.2992 21.749 34.3506M33.0788 26.8366C32.9909 26.7878 32.9031 26.739 32.5405 26.7041C32.178 26.6692 31.5435 26.6497 31.1043 26.6738C30.6652 26.6979 30.4407 26.7662 30.1883 26.8697C29.936 26.9733 29.6627 27.11 29.434 27.2438C29.0187 27.4869 28.6826 27.8208 28.4068 28.1506C28.2211 28.3726 28.1392 28.7177 28.0505 29.1214C27.9844 29.4217 28.0301 29.6362 28.0692 29.7887C28.1514 30.1082 28.551 30.277 28.9344 30.4444C29.1351 30.5321 29.3763 30.5533 30.0388 30.5734C30.7013 30.5935 31.7849 30.5935 32.4456 30.6325C33.3177 30.6841 33.6006 30.8887 33.7873 31.0507C34.0517 31.2801 34.2709 31.588 34.4432 31.839C34.5773 32.0344 34.6756 32.2684 34.7692 32.6024C34.8916 33.0389 34.8143 33.4224 34.7751 33.6388C34.7343 33.8645 34.5308 34.13 34.3054 34.4242L34.3032 34.4272C34.1207 34.6652 33.8884 34.813 33.6086 34.9753C33.2265 35.1968 32.7847 35.2769 32.3135 35.3458C32.0196 35.3888 31.608 35.3952 31.1869 35.3516C30.7658 35.3079 30.346 35.2006 30.0224 35.1013C29.6988 35.0021 29.484 34.9142 29.222 34.7665C28.6422 34.4394 28.2774 34.1341 28.1397 33.9818C27.9023 33.6313 27.8428 33.3656 27.8526 33.1489C27.8623 33.0591 27.8818 33.0103 27.902 32.96M8.82222 8.71219C8.15576 9.16972 7.92344 10.0582 8.0215 12.2276C8.10387 14.0496 8.09179 17.3402 8.11999 19.146C8.14819 20.9519 8.17596 21.1745 8.21805 23.4162C8.26014 25.6579 8.3157 29.9119 8.33043 32.1529C8.34516 34.3938 8.31738 34.4927 8.30307 35.026C8.26289 36.5234 8.34432 37.5918 8.48405 37.7413C8.872 38.1565 9.54971 38.2911 10.096 38.4664C10.8532 38.7095 11.7349 38.7408 14.1949 38.9161C15.3385 38.9977 18.126 39.355 19.3887 39.4044C22.2152 39.5152 30.1189 39.8653 30.8192 39.9654C32.1409 40.0284 34.5313 39.9909 35.8175 39.9662C37.4519 39.9347 37.8883 39.5922 38.254 39.4044C38.586 39.234 38.9826 38.8442 39.2645 38.1329C39.4678 37.6203 39.4893 36.8476 39.5874 35.8639C39.641 35.3262 39.6576 34.7071 39.6858 34.3267C39.714 33.9464 39.7418 33.8227 39.7422 31.1373C39.7427 28.4519 39.7149 23.2086 39.6867 20.4333C39.5956 19.5977 40.5375 10.7972 39.5322 9.49621C38.3205 7.92817 35.345 8.33279 34.7983 8.32042C33.9697 8.30168 32.6217 8.22518 31.2761 8.21282C28.9348 8.18733 20.9707 7.98819 18.7552 8.00055C16.5397 8.01292 16.373 8.03765 15.8149 8.05039C13.2565 8.1088 12.5312 8.13808 11.9799 8.21265C11.27 8.30866 9.54986 8.21265 8.82222 8.71219Z" vector-effect="non-scaling-stroke" stroke="#976393" stroke-width="3" stroke-linecap="round" stroke-linejoin="round"/>
</svg>
