<svg width="74" height="48" viewBox="0 0 74 48" fill="none" xmlns="http://www.w3.org/2000/svg">
<path d="M29.535 23.6236C28.8663 22.4348 26.7929 23.5344 26.0434 24.106C24.7229 25.1132 24.5261 28.4203 25.8597 29.5157C30.455 33.2905 33.1427 23.8614 29.3283 22.5899" stroke="#976393" stroke-width="2" stroke-linecap="round"/>
<path d="M34.4965 21.5562C33.9049 23.7611 32.7344 26.7196 33.5891 28.9989C33.8973 29.8206 35.3435 29.9074 36.0126 29.5157C37.7284 28.5113 38.1473 24.843 38.3671 23.1068C38.4244 22.6544 38.4245 21.284 38.4245 21.74C38.4245 22.9714 38.3869 24.2117 38.5164 25.4383C38.6388 26.5976 38.8321 28.52 39.9177 29.2515C40.8446 29.8762 40.9472 29.3288 41.3189 28.5854" stroke="#976393" stroke-width="2" stroke-linecap="round"/>
<path d="M45.661 22.5899C42.9882 22.7087 42.0563 25.5199 42.7092 27.9307C43.0362 29.138 44.3318 29.8581 45.5461 29.642C47.8075 29.2396 47.9271 26.6099 48.3486 24.8066C48.6627 23.4631 49.1756 21.9902 49.1756 20.5914C49.1756 19.5188 48.809 17.798 49.1985 16.8242C50.1628 14.4134 49.1196 22.017 49.0148 24.6114C48.9506 26.2004 48.8158 27.9027 49.1641 29.4698C49.3692 30.3927 49.3246 27.5808 49.5201 26.6558C49.9238 24.7459 50.0811 22.741 51.5186 21.3035C52.4548 20.3673 52.7656 22.4942 52.9658 23.1412C53.5567 25.0515 53.8324 27.1092 53.9191 29.1022C53.9301 29.3545 53.9119 30.2952 54.1373 29.6191" stroke="#976393" stroke-width="2" stroke-linecap="round"/>
<path d="M58.2706 17.2147C58.2706 19.7804 57.6504 22.3051 57.6504 24.8641" stroke="#976393" stroke-width="2" stroke-linecap="round"/>
<path d="M58.0639 29.2056C57.8615 28.7333 57.7745 28.2548 57.6504 27.7584" stroke="#976393" stroke-width="2" stroke-linecap="round"/>
<path d="M14.5952 20.6066C12.9086 23.6733 8.88548 24.9449 5.91217 26.3953C4.86313 26.907 3.31294 26.7868 2.16788 27.1074C1.5484 27.2809 2.82881 27.2223 3.01781 27.2223C5.62621 27.2223 7.36673 29.1125 9.19704 30.7598C10.5253 31.9552 11.5062 33.7954 12.6312 35.1932C14.1424 37.0708 15.8898 38.4128 17.8686 39.776C23.0272 43.3296 28.6647 45.3487 34.9132 45.8174C38.1958 46.0636 41.4896 46.0615 44.7793 46.0356C48.2158 46.0085 51.3746 45.1295 54.6109 44.0141C57.7208 42.9424 60.1715 41.6558 62.8001 39.7071C65.0902 38.0093 67.3547 36.6598 68.9678 34.2514C71.5182 30.4439 72.5283 25.0247 71.7358 20.4458C70.8781 15.49 67.8702 11.027 64.833 7.17998C63.4629 5.44451 61.1967 4.58127 59.2511 3.65392C57.0951 2.62633 54.8328 2 52.4516 2C47.4892 2 42.6931 3.36193 37.9224 4.59573C35.8108 5.14185 33.7758 6.28169 31.7317 7.07661C29.9707 7.76143 28.258 8.55722 26.6321 9.51155C24.8187 10.5759 22.5633 11.528 21.0042 12.9572C20.457 13.4588 19.8251 13.717 19.2469 14.1173C18.6 14.5651 18.1746 15.2629 17.5815 15.7482C17.0468 16.1857 16.8028 16.764 16.2951 17.2528C15.7983 17.7312 15.2777 18.0915 14.9972 18.7459C14.5058 19.8926 13.6048 21.3835 12.3211 21.6403" stroke="#976393" stroke-width="2" stroke-linecap="round"/>
</svg>
