<svg width="755" height="1000" viewBox="0 0 755 1000" fill="none" xmlns="http://www.w3.org/2000/svg">
<path d="M685.754 871.308C632.195 923.779 433.245 999.193 378.551 1000H377.264C322.594 999.193 123.62 923.779 70.0855 871.308C47.1026 848.82 57.1687 665.839 60.9529 607.967V608.32C147.385 597.064 287.704 587.927 373.48 419.434C466.799 589.189 607.951 598.906 695.619 609.986C695.745 612.333 695.82 614.731 695.846 617.103C695.846 617.154 707.602 849.88 685.754 871.308Z" fill="url(#paint0_radial_445_1675)"/>
<path d="M753.219 751.549C745.473 777.772 716.688 798.771 697.944 791.451V791.325L697.792 773.254L697.363 722.701V721.767C697.363 721.086 697.565 720.43 697.893 719.723C699.81 715.71 706.723 711.621 709.801 709.097C714.418 705.261 719.135 700.794 730.614 703.419C742.572 706.17 759.273 731.055 753.244 751.549H753.219Z" fill="#926039"/>
<path d="M697.564 736.636C697.564 736.636 706.47 726.137 716.586 730.806C726.728 735.45 730.311 744.965 729.251 754.051C728.191 763.137 719.563 770.481 713.71 772.021C706.445 773.914 697.766 773.283 697.766 773.283L697.539 736.661L697.564 736.636Z" fill="#754D2D"/>
<path d="M58.1481 721.439C58.1481 716.77 48.2839 712.076 44.7015 709.097C40.0847 705.261 35.3671 700.794 23.8882 703.419C11.9048 706.17 -4.77101 731.055 1.28375 751.574C9.00358 777.772 37.3601 798.644 56.1046 791.325L58.1481 721.464V721.439Z" fill="#926039"/>
<path d="M57.6921 736.863C57.6921 736.863 48.0044 726.136 37.8627 730.78C27.721 735.424 24.1386 744.939 25.1982 754.025C26.2578 763.111 34.8858 770.456 40.7387 771.995C48.0045 773.888 56.6325 773.257 56.6325 773.257L57.7173 736.863H57.6921Z" fill="#754D2D"/>
<path d="M287.677 765.863C297.472 765.863 305.412 743.508 305.412 715.931C305.412 688.355 297.472 666 287.677 666C277.882 666 269.941 688.355 269.941 715.931C269.941 743.508 277.882 765.863 287.677 765.863Z" fill="black"/>
<path d="M466.798 765.863C476.593 765.863 484.533 743.508 484.533 715.931C484.533 688.355 476.593 666 466.798 666C457.003 666 449.062 688.355 449.062 715.931C449.062 743.508 457.003 765.863 466.798 765.863Z" fill="black"/>
<path d="M401.602 804.424C396.733 807.15 377.257 806.544 377.257 806.544C377.257 806.544 357.756 807.175 352.887 804.424C348.724 802.052 360.707 789.912 371.833 784.511C375.239 782.845 379.225 782.845 382.631 784.511C393.782 789.937 405.765 802.077 401.577 804.424H401.602Z" fill="#754D2D"/>
<path d="M695.634 609.987C607.966 598.908 466.814 589.241 373.445 419.435C287.669 587.954 147.35 597.065 60.918 608.347C60.918 452.018 163.647 345.662 283.052 305.381C312.746 295.336 344.331 289.985 377.052 289.985C409.773 289.985 439.013 295.008 467.773 304.447C589.903 344.451 699.469 460.776 695.609 610.013L695.634 609.987Z" fill="black"/>
<path d="M418.779 46.304C418.779 46.304 382.702 -15.9347 304.369 3.90292C235.723 21.2672 239.658 69.1451 239.658 69.1451C239.658 69.1451 177.446 43.7297 142.807 77.7767C93.7891 125.957 129.285 202.027 129.285 202.027C129.285 202.027 93.7638 219.391 93.7891 266.26C93.8648 355.327 189.505 360.274 189.505 360.274C189.505 360.274 153.025 409.439 192.457 448.887C241.752 498.229 365.598 386.951 365.598 386.951C365.598 386.951 603.499 499.44 547.72 360.829C547.72 360.829 650.045 357.422 661.6 271.358C673.609 181.811 597.394 164.85 597.394 164.85C597.394 164.85 613.137 77.6505 558.972 41.1048C493.681 -2.93677 418.779 46.3293 418.779 46.3293V46.304Z" fill="black"/>
<g opacity="0.2">
<path d="M578.666 137.714C578.591 137.915 579.575 137.84 579.751 137.865C579.524 137.537 578.389 137.714 578.666 137.714Z" fill="#79522C"/>
<path d="M576.371 134.486L576.8 134.562L575.791 134.082L576.371 134.486Z" fill="#79522C"/>
<path d="M576.369 131.455C574.653 131.758 576.646 132.54 576.041 133.096L575.662 133.197L577.05 133.424C576.823 132.768 575.915 131.909 576.394 131.455H576.369Z" fill="#79522C"/>
<path d="M580.051 129.814C579.395 129.915 579.471 129.46 579.849 130.192C579.925 130.167 579.975 130.142 580.026 130.117C580.026 130.041 580.026 129.965 580.051 129.814Z" fill="#79522C"/>
<path d="M580.029 130.115C580.079 130.442 580.581 129.915 580.029 130.115V130.115Z" fill="#79522C"/>
<path d="M579.629 128.63L580.234 129.059C580.638 128.958 580.714 128.58 580.991 128.731C580.663 128.302 580.26 128.403 579.629 128.655V128.63Z" fill="#79522C"/>
<path d="M578.389 128.252L578.641 128.479C578.818 128.429 578.868 128.378 578.389 128.252Z" fill="#79522C"/>
<path d="M579.171 128.931L578.642 128.477C578.364 128.552 577.809 128.552 578.843 128.678C578.339 128.653 578.843 128.729 579.197 128.931H579.171Z" fill="#79522C"/>
<path d="M578.92 129.185C578.542 129.437 578.315 129.74 577.734 129.311C577.987 130.118 579.172 129.992 578.92 129.185Z" fill="#79522C"/>
<path d="M574.606 131.328L574.102 131.656L574.682 131.934C574.404 131.808 575.136 131.328 574.606 131.353V131.328Z" fill="#79522C"/>
<path d="M580.481 125.977C580.128 125.977 579.522 126.128 579.043 126.178L579.472 126.481C579.724 126.305 579.951 126.002 580.481 125.977Z" fill="#79522C"/>
<path d="M579.041 126.182L578.41 125.728C578.334 126.157 578.637 126.207 579.041 126.182Z" fill="#79522C"/>
<path d="M576.465 128.203L577.802 128.96L576.465 128.052V128.203Z" fill="#79522C"/>
<path d="M580.503 124.186L581.335 124.439L580.049 123.984L580.503 124.186Z" fill="#79522C"/>
<path d="M580.332 122.999C581.038 123.176 581.518 122.696 581.947 122.898C581.82 122.57 581.215 122.318 580.66 122.065C580.963 122.318 580.887 122.621 580.332 122.974V122.999Z" fill="#79522C"/>
<path d="M579.844 121.66C580.02 121.786 580.323 121.913 580.626 122.064C580.474 121.938 580.222 121.786 579.844 121.66Z" fill="#79522C"/>
<path d="M578.584 124.92C578.811 124.869 579.366 124.793 579.618 124.541L578.609 124.743C578.609 124.743 578.609 124.869 578.609 124.92H578.584Z" fill="#79522C"/>
<path d="M578.564 124.74H578.59C578.59 124.538 578.64 124.386 578.64 124.336C578.64 124.386 578.615 124.513 578.564 124.74Z" fill="#79522C"/>
<path d="M578.59 124.967V124.917C578.59 124.917 578.466 124.942 578.59 124.967Z" fill="#79522C"/>
<path d="M577.371 126.967C576.791 126.689 576.186 126.134 575.303 126.715C576.009 126.891 576.488 126.588 577.371 126.967Z" fill="#79522C"/>
<path d="M577.297 125.221L577.07 125.725C577.348 125.725 577.726 125.624 578.029 125.725L577.297 125.195V125.221Z" fill="#79522C"/>
<path d="M576.973 124.966L577.301 125.218L577.376 125.042L576.973 124.966Z" fill="#79522C"/>
<path d="M578.918 122.548C578.464 122.346 578.439 122.118 578.338 121.841C578.136 122.118 578.035 122.421 578.06 122.699C578.388 122.724 578.969 122.85 578.918 122.548Z" fill="#79522C"/>
<path d="M578.661 123.631L578.608 123.579C578.608 123.579 578.504 123.631 578.661 123.631Z" fill="#79522C"/>
<path d="M578.283 119.214C578.283 119.214 578.156 119.239 578.105 119.265H578.283V119.214Z" fill="#79522C"/>
<path d="M577.885 122.775C577.683 123.002 577.935 123.128 578.263 123.229C578.162 123.078 578.086 122.901 578.086 122.725C577.935 122.725 577.834 122.725 577.885 122.775Z" fill="#79522C"/>
<path d="M579.373 120.957C579.172 121.083 578.995 121.209 578.818 121.336C579.146 121.209 579.651 120.982 579.373 120.957Z" fill="#79522C"/>
<path d="M578.867 123.506H578.918C579.146 123.455 579.019 123.48 578.867 123.506Z" fill="#79522C"/>
<path d="M578.863 123.505C578.712 123.404 578.459 123.328 578.232 123.228C578.308 123.354 578.434 123.48 578.586 123.581C578.661 123.556 578.762 123.53 578.863 123.505Z" fill="#79522C"/>
<path d="M571.699 118.632C572.658 118.632 573.541 119.162 572.532 119.692C573.263 120.146 576.366 119.742 578.107 119.263C577.704 119.263 577.3 119.263 576.745 118.809C576.24 119.011 575.559 119.944 574.701 119.541C574.197 118.91 575.029 119.011 575.509 118.657C574.348 118.96 573.768 117.9 572.027 118.102L572.658 118.657C572.38 118.657 571.952 118.481 571.699 118.657V118.632Z" fill="#79522C"/>
<path d="M578.037 120.226L578.163 120.428C578.315 120.201 578.693 120.024 579.425 119.696C578.945 119.368 578.592 119.317 578.289 119.292L578.188 120.302L578.037 120.226Z" fill="#79522C"/>
<path d="M578.184 121.334C577.15 121.208 576.696 120.728 575.586 121.057C575.662 121.637 576.469 121.46 576.923 121.789C576.646 120.829 577.503 122.041 578.084 121.334C578.26 121.511 578.311 121.688 578.361 121.839C578.487 121.662 578.639 121.486 578.815 121.334H578.739V121.359C578.613 121.41 578.538 121.41 578.613 121.359C578.462 121.359 578.336 121.359 578.235 121.334C578.437 121.057 578.512 121.284 578.613 121.359H578.765L578.184 120.4C578.058 120.602 578.084 120.855 578.21 121.309L578.184 121.334Z" fill="#79522C"/>
<path d="M573.115 126.232C573.115 126.232 573.293 126.207 573.344 126.207C573.217 126.156 573.141 126.13 573.115 126.232Z" fill="#79522C"/>
<path d="M573.718 125.825C573.87 125.901 574.273 125.952 574.172 126.179C573.87 126.381 573.668 126.179 573.34 126.179C573.617 126.305 574.097 126.633 574.576 126.204L574.425 126.128C574.778 125.75 576.065 125.22 576.191 125.295C575.257 125.422 574.601 125.523 573.693 125.8L573.718 125.825Z" fill="#79522C"/>
<path d="M575.69 123.556L575.16 122.773L574.277 123.202H574.807C574.605 123.632 575.261 123.505 575.69 123.556Z" fill="#79522C"/>
<path d="M578.794 119.113L579.879 119.189L578.34 118.76L578.794 119.113Z" fill="#79522C"/>
<path d="M578.633 118.08H579.566L578.986 117.827L578.633 118.08Z" fill="#79522C"/>
<path d="M555.66 64.5972L555.332 64.5215C555.332 64.5215 555.559 64.5972 555.66 64.5972Z" fill="#79522C"/>
<path d="M556.311 66.036L556.74 65.8594C556.487 65.9099 556.285 65.9603 556.311 66.036Z" fill="#79522C"/>
<path d="M576.27 92.2055C577.102 91.726 578.389 91.095 577.329 91.3222L576.32 91.5998C576.547 91.8017 576.446 92.0289 576.27 92.2055Z" fill="#79522C"/>
<path d="M566.303 76.3827L566.025 76.5593C566.379 76.5341 566.732 76.5089 567.035 76.4836C566.807 76.4584 566.555 76.4079 566.303 76.3574V76.3827Z" fill="#79522C"/>
<path d="M562.109 77.4221L562.614 76.8164C562.412 76.9678 562.261 77.1698 562.109 77.4221Z" fill="#79522C"/>
<path d="M550.404 57.8613L549.395 58.2399C549.596 58.568 549.95 58.1137 550.404 57.8613Z" fill="#79522C"/>
<path d="M577.679 107.355C578.058 107.027 578.209 106.774 578.234 106.572C577.679 106.976 576.796 107.329 577.679 107.355Z" fill="#79522C"/>
<path d="M565.773 60.1809C565.546 60.1305 565.319 60.1809 565.117 60.2819C565.344 60.3324 565.571 60.3324 565.773 60.1809Z" fill="#79522C"/>
<path d="M578.186 105.688C578.186 105.688 578.035 105.815 577.959 105.865C578.161 106.067 578.312 106.269 578.262 106.547C578.691 106.244 578.943 105.916 578.186 105.688Z" fill="#79522C"/>
<path d="M529.09 37.1086C529.09 37.1086 529.09 37.0333 529.09 36.958C529.015 37.0835 529.04 37.1086 529.09 37.1086Z" fill="#79522C"/>
<path d="M523.945 23.9363C523.945 23.9363 524.223 23.9363 524.399 23.9616C524.349 23.8606 524.223 23.8354 523.945 23.9363Z" fill="#79522C"/>
<path d="M578.916 113.843C578.996 114.083 579.049 113.869 578.916 113.843V113.843Z" fill="#79522C"/>
<path d="M574.86 115.1C574.86 115.1 574.583 115.024 574.355 115.024C574.608 115.024 574.759 115.05 574.86 115.1Z" fill="#79522C"/>
<path d="M571.549 104.043C571.347 104.119 571.398 104.093 571.549 104.043V104.043Z" fill="#79522C"/>
<path d="M578.467 114.194C578.467 114.194 578.694 113.993 578.77 113.892C578.694 113.942 578.593 114.043 578.467 114.194Z" fill="#79522C"/>
<path d="M578.939 114.116C578.939 114.116 578.863 114.269 578.838 114.319C579.016 114.319 579.117 114.319 578.939 114.116Z" fill="#79522C"/>
<path d="M578.841 113.535C578.841 113.661 578.841 113.788 578.74 113.888C578.816 113.838 578.866 113.813 578.892 113.838C578.892 113.762 578.841 113.687 578.816 113.535H578.841Z" fill="#79522C"/>
<path d="M544.003 44.4808C544.003 44.4808 544.003 44.4304 544.028 44.3799C543.574 44.5566 543.7 44.5566 544.003 44.4808Z" fill="#79522C"/>
<path d="M564.639 88.5221H564.691L564.717 88.4961L564.639 88.5221Z" fill="#79522C"/>
<path d="M563.73 87.9436C565.068 87.9941 564.941 88.196 564.74 88.4989L567.616 87.666L563.73 87.9436Z" fill="#79522C"/>
<path d="M553.587 61.4683L553.032 62.3769C551.392 62.604 551.644 61.9731 550.736 63.0331C553.587 61.4683 551.972 64.5222 554.848 63.0331L554.419 63.6388C554.419 63.6388 554.218 63.6388 554.218 63.5126C553.158 64.7998 556.513 62.8312 556.513 63.8155C556.438 64.1941 556.11 64.5979 555.656 64.5979L556.665 64.825C556.69 65.0269 556.16 65.2289 556.135 65.027L556.816 65.8093H556.715C557.245 65.7589 558.103 65.7084 558.481 65.7084C558.178 66.1375 558.103 65.7336 557.775 65.986L558.733 66.1627C558.077 66.718 557.119 66.6675 557.068 66.2636C554.369 68.1313 558.027 66.3141 556.766 68.1566L556.185 67.8537C554.646 68.939 555.403 69.0147 554.596 69.999C555.101 69.6456 556.766 67.7527 557.749 67.9546C557.598 68.207 557.573 68.4594 558.304 68.4847C557.245 68.9642 557.649 69.1409 557.85 69.469L556.438 70.0495C557.018 70.2514 557.724 69.9233 558.456 69.898C558.506 70.4028 557.472 70.9328 556.564 71.4124C556.614 72.22 558.128 70.2009 558.733 70.9328C558.431 71.7405 559.162 71.9171 560.298 72.3209C559.97 72.9267 559.389 72.5733 559.036 72.8762L560.323 72.8257C560.323 72.8257 559.97 73.0276 559.793 73.0781C560.348 73.2295 561.231 72.5733 561.811 72.9267C563.476 72.4976 559.869 74.7943 561.887 74.7943C561.534 75.0972 560.979 75.0215 560.424 75.2739C561.912 75.7282 561.534 75.7282 563.375 75.9048L562.618 76.8134C563.552 76.0058 565.066 76.1825 566.302 76.3591C566.781 76.031 567.185 75.7534 567.387 75.5767L568.421 76.1825C568.219 76.3591 567.689 76.4349 567.033 76.4853C567.16 76.4853 567.311 76.5106 567.437 76.5358C566.983 77.0154 566.1 77.0911 565.217 77.1415C565.469 76.9649 565.747 76.763 566.024 76.5611C565.066 76.6368 564.031 76.7377 563.199 77.0658C563.375 77.0658 563.577 77.1163 563.678 77.2173C563.426 77.2173 563.199 77.2677 563.047 77.3435C562.896 77.4192 563.249 77.3939 563.653 77.4192L562.063 78.1006L562.719 77.9492L561.988 79.3121C563.855 79.5897 566.504 79.5645 567.513 80.6497C566.226 80.6497 565.52 81.104 564.082 81.4826C565.52 80.7255 563.174 80.7254 563.3 80.0188C563.224 80.3973 562.543 80.4983 562.265 80.4983L563.956 81.2302C562.77 81.5078 563.148 81.7098 562.719 82.1136C564.99 81.2807 564.485 82.5426 565.293 82.8203C564.511 83.0474 563.703 83.1231 563.754 82.5174C562.164 83.5774 566.68 82.6184 565.343 83.6027C565.293 83.4765 565.394 83.3755 564.99 83.4008C565.772 83.5522 565.419 84.486 564.687 84.4608L564.637 84.3346C564.612 85.2937 565.217 87.1108 567.26 86.8332C567.008 86.8837 564.839 87.2118 564.41 87.2623C566.756 87.338 569.102 87.4137 571.474 87.5651C569.733 87.7671 565.772 89.1299 564.637 88.5495C564.435 88.8271 564.208 89.13 564.914 89.4833C565.141 89.2814 567.336 88.6252 567.513 88.8019C565.696 89.7357 566.554 89.4076 565.066 90.3919C565.394 90.089 568.144 89.8366 568.118 90.2152C567.715 90.2152 565.469 90.72 565.167 90.6443L567.967 91.0481C567.437 90.8967 565.722 91.4014 564.99 91.7295C565.495 91.5529 565.066 92.4867 565.394 92.6886L565.949 92.2091C565.722 93.2691 569.859 92.5877 569.859 93.6224C569.279 93.572 566.428 93.8496 566.176 94.4048C567.563 94.4048 572.886 94.4553 574.072 95.2377L573.315 95.5154L574.299 96.0958C572.18 95.9192 567.664 95.3135 565.898 94.9349C565.343 95.4144 564.99 95.1872 565.141 95.7173C564.435 96.0201 563.981 95.5658 563.93 95.4144L563.653 96.7773C565.242 96.4997 565.394 97.5597 566.706 97.3325L564.864 96.1463C566.428 95.8435 569.531 96.323 569.354 97.3325C568.749 97.6606 566.504 97.5345 565.974 97.6102C566.529 97.6606 567.134 98.3673 566.756 98.4935L565.848 98.2159C565.318 98.7964 568.068 98.7964 566.63 99.604C566.554 99.8312 564.662 100.487 565.595 100.412C567.387 99.8564 573.013 99.1245 574.4 99.2002C574.299 99.3012 572.811 100.588 571.928 100.942C570.54 101.446 568.471 100.765 567.26 101.219C567.689 101.194 568.27 101.32 568.446 101.396C568.093 101.674 567.084 101.446 567.336 101.926C568.976 101.85 567.311 102.961 568.724 102.027C569.228 102.481 568.446 102.582 568.572 103.137C569.607 102.86 572.205 103.314 572.71 103.768C572.306 103.768 571.776 103.945 571.524 104.021C571.474 105.056 570.767 105.661 570.843 106.595C570.464 106.721 570.01 107.201 569.304 107.075C569.607 107.176 570.162 107.277 570.237 107.554C568.875 108.21 569.96 106.923 568.32 107.479C569.279 107.453 569.682 108.135 570.313 108.488C571.776 108.261 570.515 107.504 569.884 107.15C571.902 106.999 574.072 107.554 575.081 108.513C575.636 109.27 573.795 108.942 574.097 109.069C573.845 110.583 577.705 110.129 576.317 111.466C575.056 112.047 573.769 111.643 572.836 111.794C572.306 111.189 573.593 110.76 573.517 110.33L572.937 110.911C572.508 110.734 572.155 110.33 572.508 110.053C571.373 110.532 572.458 112.577 571.423 113.763C571.852 113.94 572.331 114.268 572.836 114.091L572.634 113.738C573.668 113.359 574.097 114.343 574.551 113.864C575.308 114.318 576.469 114.823 575.914 115.53L574.451 115.732C574.879 115.706 575.308 115.252 574.854 115.075C575.51 115.328 572.912 116.211 574.854 116.464L575.838 115.934C576.595 116.388 578.184 116.943 577.73 117.599C579.168 117.271 577.554 117.473 579.244 116.968C577.15 117.423 579.244 115.378 577.074 116.085C579.017 115.555 577.882 115.277 579.521 114.596C579.042 114.646 578.613 114.848 578.815 114.318C578.664 114.318 578.487 114.243 578.386 114.217H578.411H578.361C578.26 114.217 578.285 114.217 578.361 114.217C578.159 114.343 577.907 114.47 577.629 114.52C576.519 114.318 576.494 113.485 575.914 113.233C576.141 112.905 576.469 113.334 576.973 113.132L576.09 112.753C577.175 112.652 577.831 111.845 578.487 112.526V111.87C579.067 111.441 579.294 110.911 578.815 110.608C579.017 110.28 577.579 109.901 578.437 110.103L577.705 109.119H577.982C578.058 108.059 576.04 107.125 577.907 105.813C577.604 105.485 577.251 105.157 577.503 104.576L578.411 104.374C578.058 103.97 579.219 102.961 578.235 102.86C580.682 102.153 578.563 100.639 578.916 99.8312L577.705 99.9321C577.705 99.3769 577.301 98.9226 576.746 98.3168L575.687 98.4935C574.753 98.0392 576.267 96.954 576.04 96.0454C576.444 96.0454 576.368 96.2978 576.141 96.4997C578.411 95.0863 574.072 94.4806 575.687 93.2439C575.258 93.0672 575.359 92.8653 575.611 92.6634C575.611 92.6634 575.636 92.7138 575.687 92.7138C575.687 92.6886 575.687 92.6381 575.687 92.6129C575.863 92.4867 576.04 92.3353 576.191 92.1838C575.939 92.3353 575.762 92.4615 575.661 92.5624C575.611 92.3857 575.434 92.1081 575.132 91.881L576.242 91.5781C576.242 91.5781 576.242 91.5276 576.191 91.5276C576.57 91.1743 575.611 91.4014 574.778 91.6791C574.577 91.5781 574.324 91.4771 574.022 91.4267C575.813 90.8967 573.265 90.8209 575.182 90.1647C574.198 90.1647 574.223 88.9028 572.18 89.13C572.432 89.0795 572.558 88.9785 572.584 89.13C572.76 88.7766 572.937 88.4233 572.306 88.2718L573.719 87.868L571.65 87.5904C572.432 87.0099 572.912 86.7323 574.097 86.9342C572.18 86.3032 573.29 86.278 571.423 85.7984L572.357 85.647C572.256 85.3694 570.919 85.1675 571.65 84.8141C573.29 83.7541 571.12 81.5079 572.331 79.413C569.733 80.4478 573.34 78.3025 571.221 78.8073C571.827 78.5297 572.13 78.2016 572.76 78.3278C571.877 77.6463 573.391 76.7377 571.474 76.6368C572.079 76.3591 572.458 76.5611 572.811 76.3591C572.659 76.3339 572.18 76.233 572.533 76.031C572.886 75.8291 573.113 76.0058 573.416 76.0563C573.038 75.1982 571.07 75.6777 569.228 76.1825C569.96 75.4758 569.783 75.2991 568.471 75.3496C569.026 75.0215 569.556 74.5672 569.96 75.0215C569.96 74.6934 570.212 72.8762 568.749 73.3305C569.077 73.1033 568.724 72.8762 568.522 72.851C568.396 72.1443 568.497 72.0433 568.143 71.4376L567.967 71.7152C566.15 72.0686 567.387 71.3114 566.983 70.8571L567.16 70.8066C567.942 69.1409 566.378 70.529 567.336 68.7875L566.302 69.2671C563.956 70.0747 567.26 67.677 566.1 67.3489L565.595 67.8537C564.662 67.8032 568.244 65.5317 568.345 65.0017C568.497 64.825 568.724 65.0017 568.926 65.0522C569.809 63.4621 567.488 65.5065 566.832 64.926C567.513 64.4717 568.799 64.2698 568.724 63.7145C569.203 63.1845 565.696 63.336 566.781 62.0235C566.302 62.4526 565.797 62.8564 565.217 62.7302C564.763 62.3264 566.63 60.2821 564.637 60.7111C564.763 60.5597 564.889 60.4587 565.015 60.4083C564.359 60.2568 563.628 59.5249 562.568 59.8025C565.873 57.5563 559.566 58.3892 562.745 56.6224L561.912 55.5372L562.24 55.3858C562.038 54.5024 561.08 54.7043 560.171 54.9315C560.272 54.6286 560.651 54.5781 560.827 54.4772C560.777 53.0385 560.55 52.9881 558.481 53.1143L559.415 52.3571C558.708 52.5085 559.944 49.7827 558.052 49.5808C558.178 49.5051 558.38 49.4042 558.557 49.3789C556.665 49.0761 559.162 44.634 555.403 46.9055L553.99 46.8551C554.47 47.9656 552.426 47.8898 552.174 48.7227C551.695 48.546 552.452 47.0065 552.981 47.2841L552.88 47.486C554.747 46.2241 552.578 45.8455 553.789 44.8864C552.149 43.2207 551.569 40.6211 549.979 39.031L548.945 40.4697L548.466 39.8639C548.617 39.4349 549.222 38.6777 549.576 39.132C550.055 38.2234 548.339 39.0815 548.062 39.3591C547.784 38.0972 549.777 38.1729 549.55 37.9205L549.121 37.6934L549.046 37.9205C548.289 38.1982 547.759 38.7029 547.33 38.1982C547.255 37.6682 547.885 37.2643 547.81 37.0877C547.885 36.9867 547.885 36.911 547.658 36.8858L547.002 36.1286L546.397 37.4158C545.615 37.6429 545.766 36.7596 545.06 38.2486C546.17 35.9772 542.89 35.2705 542.991 34.4628C541.906 34.8919 541.452 34.5385 540.922 34.0085C540.922 34.3619 540.064 35.6743 539.686 35.1443C541.73 32.6456 539.56 33.3271 540.392 31.1566C539.938 32.6709 538.652 30.4751 538.072 32.6961C537.769 32.1913 538.702 31.6613 538.753 30.8032C537.062 31.1313 536.76 28.6327 535.12 28.2289C534.893 28.5822 534.817 29.2889 534.237 29.6675L534.464 27.396C534.085 27.4212 533.127 29.4151 533.253 27.8503C533.177 28.2036 533.051 28.7336 532.799 28.7589C531.84 27.2193 530.2 26.8912 528.661 26.4874C527.072 26.1593 525.684 25.5283 524.65 23.2568C524.852 24.1402 524.549 24.1654 524.221 24.0897C524.373 24.3421 523.918 25.0993 523.818 25.6545L522.96 23.7868C522.329 25.2507 521.547 23.5345 521.068 24.9731L521.522 24.8216C520.588 26.4369 521.32 28.8851 520.664 31.0808C521.724 29.2637 521.219 34.3366 522.884 31.7623C522.935 32.2671 522.506 32.4185 522.455 32.9737C522.96 32.0904 523.263 31.9894 523.616 32.5952L523.49 32.7971C524.877 33.0495 525.155 34.1095 526.29 35.2957L526.618 34.2104C526.87 34.4881 526.794 34.8414 526.82 35.1695C527.854 33.7561 526.012 34.69 527.047 33.0999C526.567 35.4219 529.242 34.1347 528.384 36.6081C528.838 36.8353 528.813 35.3714 529.267 35.5733L529.09 36.2548L529.62 35.4976C529.847 35.8005 529.62 36.6586 529.342 37.2139C529.317 37.1129 529.065 37.2643 528.964 37.2643C528.964 38.2234 530.15 37.5924 530.15 37.8953L529.923 37.2896C531.462 37.3653 532.446 38.9553 534.338 38.5263L534.54 38.0215C535.978 37.7691 534.918 38.9806 536.154 39.2077L536.053 39.2834C536.558 38.9806 536.961 38.9553 537.163 39.1825C536.558 39.5106 536.886 40.4949 536.179 40.823C537.718 40.6463 537.113 40.4697 538.929 39.3591L538.526 40.1668C539.232 39.6873 539.51 39.3591 540.115 39.5358C539.257 39.8387 539.585 40.823 538.526 41.3025C538.273 43.5235 541.149 40.9492 539.762 43.4731C541.78 41.9587 539.837 41.7316 540.418 41.5549C540.72 40.7473 541.957 40.4444 542.108 40.8987C542.386 41.2016 540.569 43.7254 541.326 44.3059C541.25 44.2302 541.124 44.3564 541.074 44.3059C540.922 45.0126 542.184 44.1293 541.805 45.2145C542.991 44.3059 542.158 45.6688 543.521 44.3564L542.562 44.0283C543.269 44.0283 545.135 42.7664 545.034 44.1545C544.706 44.3817 544.177 44.5583 543.874 44.634C543.672 45.2145 544.479 44.7098 544.252 45.2903C542.865 46.6027 543.168 44.8107 541.805 45.4922C541.427 46.2493 543.47 45.2145 541.856 46.5017C543.95 44.8864 542.285 47.3851 544.177 46.426L543.344 47.1832C543.546 47.1327 544.076 46.9055 544.202 47.057L542.915 47.8394C544.202 47.3094 542.84 49.3032 543.647 49.2023C542.915 48.4451 544.479 48.0918 544.782 47.1832C546.775 47.1327 543.117 49.7828 544.479 50.4642C544.227 50.439 544.479 49.4546 545.085 49.3285C545.085 49.6818 545.009 50.2623 544.681 50.7671C545.489 51.3223 545.463 49.8837 546.271 49.7323C545.438 50.8933 547.027 49.7323 547.633 49.7323L546.75 50.4894C546.876 51.8271 548.768 49.177 548.743 50.5399L547.229 51.2214L547.885 51.3728L546.8 52.13C547.91 51.9533 547.835 52.2562 547.885 52.9124C548.44 52.3066 549.576 51.6757 549.929 52.029C549.601 52.7104 548.945 52.559 549.525 53.0133C548.844 53.3162 548.037 53.7452 548.667 52.8619C548.339 53.0638 547.986 53.19 547.683 53.3919C547.28 54.1491 548.112 54.1743 548.264 54.4014C548.264 54.3005 548.238 54.1743 548.314 54.0229L550.181 53.8967C549.929 54.2752 549.576 54.3762 549.222 54.5024C549.449 54.6033 549.954 54.4014 550.206 54.5781C549.399 55.0577 548.617 55.6634 548.037 55.5877L549.424 55.7391C549.121 56.042 548.793 56.7739 548.44 56.8748C548.264 57.6068 550.711 56.8748 550.484 57.8844C550.66 57.8087 550.837 57.7834 551.039 57.8339C551.215 58.5154 550.559 59.6259 552.073 59.6006L550.887 60.8626C551.543 61.1654 552.376 59.2473 553.461 59.7773C554.293 60.1306 552.376 60.7616 552.098 61.2159C553.007 61.0897 554.798 60.7868 553.965 62.0488C553.587 62.0235 553.713 61.7459 553.511 61.6197L553.587 61.4683ZM557.749 67.9294C557.472 67.9042 556.665 67.9294 557.245 67.5508C558.506 67.147 558.002 67.5508 557.749 67.9294ZM564.485 78.1763C564.082 78.1763 564.208 77.9492 564.586 77.6211C564.712 77.722 564.712 77.8987 564.485 78.1763ZM577.831 111.466C577.831 111.466 577.806 111.466 577.781 111.466C578.21 111.088 578.033 111.214 577.831 111.466ZM577.377 112.249C577.554 112.324 577.705 112.299 577.856 112.249C577.554 112.223 577.528 112.047 577.604 111.845C577.301 111.921 577.099 112.021 577.377 112.223V112.249ZM547.583 37.1886L547.507 37.5167C547.027 37.5167 547.305 37.3653 547.583 37.1886Z" fill="#79522C"/>
<path d="M562.617 77.3227C562.794 77.2217 562.996 77.146 563.197 77.0703C562.996 77.0703 562.769 77.146 562.617 77.3227Z" fill="#79522C"/>
<path d="M550.611 57.7839V57.7588L550.41 57.8592L550.611 57.7839Z" fill="#79522C"/>
<path d="M566.729 101.623C566.88 101.446 567.082 101.345 567.284 101.27C567.006 101.27 566.779 101.396 566.729 101.623Z" fill="#79522C"/>
<path d="M579.548 116.109L579.22 115.63C579.296 115.857 579.044 115.958 578.867 116.084C579.145 116.084 579.523 115.958 579.548 116.084V116.109Z" fill="#79522C"/>
<path d="M572.529 120.504C572.681 120.58 572.529 120.655 572.706 120.706H573.236C573.185 120.378 572.756 120.176 572.529 120.504Z" fill="#79522C"/>
<path d="M575.709 116.714C574.75 116.79 575.078 117.067 575.28 117.395V117.345C576.643 117.395 576.188 117.042 575.709 116.714Z" fill="#79522C"/>
<path d="M575.303 117.471C575.303 117.471 575.378 117.673 575.328 117.774C575.883 117.774 575.429 117.647 575.303 117.471Z" fill="#79522C"/>
<path d="M578.088 113.154C577.836 113.331 579.324 113.205 578.946 113.306C580.182 113.432 577.407 112.321 578.088 113.154Z" fill="#79522C"/>
<path d="M572.529 117.095L573.715 116.943L572.756 116.792L572.529 117.095Z" fill="#79522C"/>
<path d="M573.291 114.443L572.988 114.999C573.19 114.999 573.316 115.049 573.392 115.125C573.417 114.797 573.644 114.418 573.291 114.469V114.443Z" fill="#79522C"/>
<path d="M573.418 115.127C573.418 115.304 573.418 115.455 573.645 115.556C573.645 115.455 573.569 115.278 573.418 115.127Z" fill="#79522C"/>
<path d="M572.129 116.389L572.381 116.238L572.457 115.859L572.129 116.389Z" fill="#79522C"/>
<path d="M573.21 108.741L572.832 108.186C572.428 108.161 572.176 108.337 572.352 108.539C572.655 108.666 572.831 108.867 573.21 108.741Z" fill="#79522C"/>
<path d="M570.039 110.684C570.266 110.507 570.544 110.482 570.922 110.381L569.434 110.457L570.014 110.684H570.039Z" fill="#79522C"/>
<path d="M569.58 109.044C569.176 109.019 568.343 108.313 568.495 109.019C568.898 109.044 569.277 109.6 569.58 109.044Z" fill="#79522C"/>
<path d="M570.693 100.288L570.744 100.44L573.166 100.137L570.693 100.288Z" fill="#79522C"/>
<path d="M563.903 93.6718C563.424 94.4037 565.417 93.5961 564.786 94.2775C565.367 94.3532 565.291 93.697 565.821 93.7727C565.165 93.4698 565.467 93.2175 563.903 93.6465V93.6718Z" fill="#79522C"/>
<path d="M565.82 93.7744C565.82 93.7744 566.047 93.8754 566.224 93.9259C566.047 93.8249 565.921 93.7997 565.82 93.7744Z" fill="#79522C"/>
<path d="M522.556 22.2219L522.178 21.6162L522.304 22.4743L522.556 22.2219Z" fill="#79522C"/>
<path d="M521.222 23.7612L521.449 22.2217L520.869 23.5341C520.869 23.5341 521.222 23.4079 521.222 23.7865V23.7612Z" fill="#79522C"/>
<path d="M555.352 70.2257L555.705 70.0995C556.058 69.8724 556.033 69.7714 556.033 69.5947L555.352 70.2257Z" fill="#79522C"/>
<path d="M554.092 64.8522V64.9531L555.252 64.1455L554.092 64.8522Z" fill="#79522C"/>
<path d="M550.312 61.7956C550.363 61.9723 550.716 61.9975 550.767 62.1994C550.363 61.9975 551.776 60.8365 550.312 61.7956Z" fill="#79522C"/>
</g>
<defs>
<radialGradient id="paint0_radial_445_1675" cx="0" cy="0" r="1" gradientUnits="userSpaceOnUse" gradientTransform="translate(377.239 709.704) scale(306.371 306.499)">
<stop stop-color="#B17F4A"/>
<stop offset="0.95" stop-color="#926039"/>
</radialGradient>
</defs>
</svg>
