<svg width="664" height="475" viewBox="0 0 664 475" fill="none" xmlns="http://www.w3.org/2000/svg">
<path d="M646.789 1.23229C646.365 0.520589 645.444 0.287354 644.732 0.711348C644.021 1.13534 643.787 2.056 644.211 2.76771L646.789 1.23229ZM615.5 185.5L614.227 184.706L614.227 184.706L615.5 185.5ZM3.77333 472.034C4.01155 471.24 3.56146 470.404 2.76802 470.166C1.97459 469.928 1.13826 470.378 0.900043 471.171L3.77333 472.034ZM2.76289 465.41C2.49141 466.193 2.90583 467.047 3.68851 467.319C4.4712 467.59 5.32576 467.176 5.59723 466.393L2.76289 465.41ZM7.6418 460.876C7.94592 460.105 7.56778 459.234 6.7972 458.93C6.02661 458.626 5.15539 459.004 4.85127 459.775L7.6418 460.876ZM7.1674 454.248C6.83132 455.005 7.1727 455.891 7.92989 456.227C8.68708 456.563 9.57335 456.222 9.90944 455.465L7.1674 454.248ZM12.4203 450.113C12.7877 449.371 12.4837 448.471 11.7412 448.103C10.9987 447.736 10.099 448.04 9.73152 448.782L12.4203 450.113ZM12.5138 443.441C12.1161 444.168 12.3828 445.079 13.1095 445.477C13.8362 445.875 14.7477 445.608 15.1455 444.881L12.5138 443.441ZM18.0808 439.767C18.5076 439.057 18.2779 438.135 17.5679 437.708C16.8578 437.282 15.9362 437.511 15.5095 438.221L18.0808 439.767ZM18.7034 433.138C18.2491 433.83 18.4422 434.76 19.1349 435.215C19.8276 435.669 20.7575 435.476 21.2119 434.783L18.7034 433.138ZM24.5428 429.913C25.0234 429.238 24.8661 428.302 24.1914 427.821C23.5166 427.341 22.58 427.498 22.0993 428.173L24.5428 429.913ZM25.6932 423.323C25.1877 423.979 25.31 424.921 25.9663 425.427C26.6226 425.932 27.5645 425.81 28.07 425.153L25.6932 423.323ZM31.7461 420.554C32.2747 419.916 32.1862 418.971 31.5484 418.442C30.9106 417.913 29.965 418.002 29.4363 418.64L31.7461 420.554ZM33.3404 414.092C32.7901 414.711 32.846 415.659 33.4653 416.21C34.0846 416.76 35.0327 416.704 35.5829 416.085L33.3404 414.092ZM39.5975 411.716C40.168 411.115 40.1436 410.166 39.5429 409.595C38.9422 409.025 37.9928 409.049 37.4223 409.65L39.5975 411.716ZM41.6392 405.35C41.05 405.932 41.0443 406.882 41.6266 407.471C42.2089 408.06 43.1586 408.066 43.7479 407.484L41.6392 405.35ZM47.9865 403.42C48.5929 402.855 48.627 401.906 48.0626 401.3C47.4982 400.693 46.5491 400.659 45.9427 401.224L47.9865 403.42ZM50.4024 397.192C49.78 397.739 49.7187 398.687 50.2654 399.309C50.8121 399.931 51.7598 399.993 52.3822 399.446L50.4024 397.192ZM56.9314 395.561C57.5687 395.032 57.6562 394.086 57.1269 393.449C56.5976 392.812 55.6519 392.724 55.0146 393.253L56.9314 395.561ZM59.6334 389.517C58.9827 390.03 58.8709 390.973 59.3837 391.624C59.8965 392.274 60.8396 392.386 61.4903 391.873L59.6334 389.517ZM66.1733 388.276C66.8363 387.78 66.9713 386.84 66.4747 386.176C65.9781 385.513 65.038 385.378 64.3749 385.875L66.1733 388.276ZM69.2483 382.315C68.5737 382.796 68.4166 383.732 68.8975 384.407C69.3784 385.081 70.315 385.238 70.9896 384.758L69.2483 382.315ZM75.87 381.361C76.5551 380.895 76.733 379.962 76.2672 379.277C75.8015 378.592 74.8686 378.414 74.1834 378.88L75.87 381.361ZM79.1302 375.592C78.4355 376.044 78.2382 376.973 78.6896 377.667C79.1409 378.362 80.07 378.559 80.7647 378.108L79.1302 375.592ZM85.7741 374.925C86.4777 374.487 86.6934 373.562 86.256 372.859C85.8186 372.155 84.8937 371.939 84.1902 372.377L85.7741 374.925ZM89.3602 369.231C88.6485 369.655 88.4151 370.576 88.839 371.287C89.2628 371.999 90.1835 372.233 90.8952 371.809L89.3602 369.231ZM95.9936 368.834C96.7128 368.423 96.9626 367.507 96.5515 366.788C96.1403 366.068 95.224 365.819 94.5048 366.23L95.9936 368.834ZM99.6968 363.321C98.9707 363.719 98.7055 364.631 99.1044 365.357C99.5033 366.083 100.415 366.349 101.141 365.95L99.6968 363.321ZM106.385 363.125C107.117 362.738 107.397 361.83 107.01 361.098C106.623 360.365 105.715 360.085 104.983 360.472L106.385 363.125ZM110.36 357.684C109.622 358.06 109.328 358.963 109.703 359.701C110.079 360.44 110.982 360.733 111.72 360.358L110.36 357.684ZM116.979 357.73C117.723 357.365 118.03 356.466 117.665 355.722C117.3 354.979 116.401 354.672 115.657 355.037L116.979 357.73ZM121.023 352.449C120.275 352.803 119.955 353.698 120.31 354.447C120.665 355.195 121.559 355.514 122.308 355.16L121.023 352.449ZM127.716 352.641C128.469 352.296 128.8 351.406 128.455 350.652C128.11 349.899 127.22 349.568 126.467 349.913L127.716 352.641ZM131.982 347.43C131.225 347.765 130.883 348.651 131.218 349.409C131.553 350.166 132.439 350.508 133.197 350.173L131.982 347.43ZM138.588 347.824C139.349 347.498 139.702 346.616 139.375 345.854C139.049 345.093 138.167 344.74 137.406 345.067L138.588 347.824ZM142.895 342.75C142.13 343.068 141.767 343.946 142.085 344.711C142.403 345.476 143.281 345.838 144.046 345.52L142.895 342.75ZM149.569 343.26C150.337 342.95 150.709 342.076 150.399 341.308C150.09 340.54 149.216 340.168 148.447 340.478L149.569 343.26ZM154.061 338.249C153.29 338.551 152.909 339.421 153.211 340.192C153.512 340.964 154.382 341.345 155.154 341.043L154.061 338.249ZM160.652 338.923C161.427 338.629 161.816 337.762 161.522 336.988C161.227 336.214 160.361 335.824 159.586 336.119L160.652 338.923ZM165.163 334.029C164.386 334.316 163.989 335.179 164.276 335.956C164.563 336.733 165.426 337.13 166.203 336.843L165.163 334.029ZM171.806 334.801C172.585 334.52 172.99 333.661 172.71 332.881C172.43 332.102 171.57 331.697 170.791 331.977L171.806 334.801ZM176.468 329.963C175.686 330.237 175.274 331.093 175.548 331.875C175.822 332.657 176.677 333.068 177.459 332.795L176.468 329.963ZM183.054 330.861C183.838 330.594 184.257 329.741 183.989 328.957C183.722 328.173 182.869 327.755 182.085 328.022L183.054 330.861ZM187.724 326.122C186.938 326.383 186.513 327.233 186.775 328.019C187.036 328.805 187.886 329.23 188.672 328.968L187.724 326.122ZM194.332 327.108C195.12 326.852 195.551 326.006 195.295 325.218C195.039 324.43 194.193 323.999 193.405 324.254L194.332 327.108ZM199.124 322.419C198.335 322.669 197.898 323.512 198.148 324.302C198.399 325.092 199.242 325.529 200.031 325.279L199.124 322.419ZM205.707 323.499C206.498 323.254 206.941 322.414 206.696 321.622C206.45 320.831 205.61 320.388 204.819 320.634L205.707 323.499ZM210.505 318.89C209.712 319.131 209.265 319.968 209.505 320.761C209.745 321.554 210.583 322.002 211.376 321.761L210.505 318.89ZM217.077 320.051C217.871 319.816 218.324 318.981 218.088 318.187C217.853 317.393 217.018 316.94 216.224 317.175L217.077 320.051ZM221.972 315.488C221.176 315.719 220.719 316.551 220.95 317.346C221.181 318.142 222.014 318.6 222.809 318.368L221.972 315.488ZM228.548 316.717C229.345 316.491 229.807 315.661 229.58 314.864C229.353 314.067 228.523 313.605 227.727 313.832L228.548 316.717ZM233.45 312.218C232.652 312.441 232.186 313.268 232.409 314.066C232.632 314.864 233.459 315.33 234.257 315.107L233.45 312.218ZM239.991 313.521C240.79 313.302 241.26 312.477 241.041 311.678C240.822 310.879 239.996 310.409 239.197 310.628L239.991 313.521ZM244.967 309.06C244.167 309.276 243.693 310.099 243.908 310.899C244.124 311.699 244.947 312.172 245.747 311.957L244.967 309.06ZM251.523 310.415C252.324 310.203 252.801 309.382 252.59 308.582C252.378 307.781 251.557 307.303 250.756 307.515L251.523 310.415ZM256.516 306.004C255.714 306.212 255.234 307.031 255.442 307.833C255.651 308.635 256.47 309.116 257.272 308.907L256.516 306.004ZM263.032 307.42C263.834 307.214 264.318 306.397 264.113 305.594C263.907 304.792 263.09 304.308 262.287 304.513L263.032 307.42ZM268.073 303.043C267.27 303.245 266.783 304.061 266.986 304.864C267.188 305.667 268.004 306.154 268.807 305.952L268.073 303.043ZM274.595 304.502C275.399 304.302 275.889 303.488 275.689 302.684C275.489 301.88 274.675 301.391 273.871 301.591L274.595 304.502ZM279.668 300.159C278.864 300.356 278.372 301.168 278.569 301.973C278.766 302.778 279.578 303.27 280.383 303.072L279.668 300.159ZM286.168 301.663C286.973 301.468 287.468 300.657 287.273 299.852C287.078 299.047 286.267 298.552 285.462 298.747L286.168 301.663ZM291.262 297.351C290.456 297.544 289.96 298.353 290.152 299.159C290.345 299.965 291.154 300.462 291.96 300.269L291.262 297.351ZM297.758 298.89C298.565 298.699 299.064 297.891 298.873 297.085C298.682 296.279 297.874 295.78 297.068 295.97L297.758 298.89ZM302.878 294.604C302.071 294.792 301.57 295.599 301.759 296.406C301.948 297.213 302.754 297.714 303.561 297.525L302.878 294.604ZM309.37 296.172C310.177 295.985 310.68 295.18 310.493 294.372C310.306 293.565 309.5 293.063 308.693 293.25L309.37 296.172ZM314.508 291.908C313.701 292.094 313.197 292.899 313.382 293.706C313.567 294.514 314.372 295.018 315.18 294.832L314.508 291.908ZM320.988 293.504C321.796 293.32 322.302 292.516 322.118 291.709C321.934 290.901 321.13 290.395 320.322 290.579L320.988 293.504ZM326.132 289.261C325.324 289.443 324.817 290.247 325 291.055C325.182 291.863 325.986 292.37 326.794 292.187L326.132 289.261ZM332.615 290.875C333.423 290.694 333.931 289.891 333.75 289.083C333.568 288.275 332.766 287.767 331.957 287.948L332.615 290.875ZM337.789 286.642C336.98 286.823 336.471 287.625 336.652 288.433C336.832 289.242 337.634 289.751 338.443 289.57L337.789 286.642ZM344.262 288.273C345.071 288.094 345.58 287.292 345.401 286.484C345.221 285.675 344.42 285.165 343.611 285.345L344.262 288.273ZM349.423 284.056C348.614 284.235 348.103 285.036 348.282 285.844C348.461 286.653 349.262 287.164 350.071 286.985L349.423 284.056ZM355.882 285.7C356.691 285.521 357.201 284.721 357.023 283.912C356.844 283.103 356.044 282.592 355.235 282.77L355.882 285.7ZM361.083 281.481C360.274 281.659 359.763 282.459 359.941 283.268C360.119 284.077 360.92 284.589 361.729 284.41L361.083 281.481ZM367.56 283.126C368.369 282.948 368.88 282.148 368.702 281.339C368.524 280.53 367.724 280.018 366.915 280.196L367.56 283.126ZM372.728 278.917C371.919 279.095 371.408 279.895 371.586 280.704C371.764 281.513 372.564 282.025 373.373 281.846L372.728 278.917ZM379.167 280.571C379.976 280.392 380.487 279.592 380.309 278.783C380.131 277.974 379.33 277.463 378.521 277.641L379.167 280.571ZM384.373 276.35C383.564 276.529 383.053 277.33 383.231 278.138C383.41 278.947 384.21 279.458 385.019 279.28L384.373 276.35ZM390.862 277.988C391.671 277.809 392.182 277.008 392.003 276.199C391.824 275.39 391.023 274.88 390.214 275.059L390.862 277.988ZM396.028 273.769C395.22 273.949 394.71 274.75 394.89 275.559C395.069 276.367 395.871 276.877 396.679 276.697L396.028 273.769ZM402.469 275.407C403.277 275.226 403.786 274.425 403.605 273.616C403.425 272.808 402.623 272.299 401.814 272.479L402.469 275.407ZM407.64 271.173C406.832 271.355 406.324 272.158 406.506 272.966C406.688 273.774 407.49 274.282 408.299 274.1L407.64 271.173ZM414.152 272.779C414.96 272.596 415.467 271.793 415.284 270.985C415.101 270.177 414.297 269.67 413.489 269.853L414.152 272.779ZM419.302 268.531C418.494 268.715 417.989 269.52 418.174 270.327C418.358 271.135 419.163 271.64 419.97 271.455L419.302 268.531ZM425.751 270.128C426.558 269.942 427.062 269.137 426.875 268.329C426.689 267.522 425.884 267.019 425.077 267.205L425.751 270.128ZM430.869 265.862C430.062 266.05 429.561 266.856 429.749 267.663C429.937 268.47 430.744 268.971 431.55 268.783L430.869 265.862ZM437.41 267.408C438.216 267.218 438.716 266.41 438.525 265.604C438.335 264.797 437.527 264.298 436.721 264.489L437.41 267.408ZM442.525 263.109C441.72 263.302 441.223 264.111 441.416 264.917C441.608 265.723 442.418 266.219 443.223 266.027L442.525 263.109ZM448.988 264.637C449.793 264.442 450.287 263.631 450.092 262.826C449.896 262.021 449.085 261.526 448.28 261.722L448.988 264.637ZM454.039 260.313C453.235 260.511 452.743 261.324 452.942 262.128C453.14 262.932 453.953 263.424 454.757 263.225L454.039 260.313ZM460.614 261.768C461.417 261.566 461.905 260.751 461.703 259.948C461.502 259.144 460.687 258.656 459.883 258.858L460.614 261.768ZM465.667 257.392C464.865 257.598 464.38 258.415 464.586 259.217C464.791 260.02 465.608 260.504 466.411 260.299L465.667 257.392ZM472.146 258.817C472.948 258.607 473.428 257.788 473.218 256.986C473.009 256.185 472.19 255.705 471.388 255.914L472.146 258.817ZM477.122 254.401C476.322 254.614 475.846 255.436 476.06 256.237C476.273 257.037 477.095 257.513 477.896 257.299L477.122 254.401ZM483.731 255.724C484.53 255.506 485.001 254.681 484.783 253.882C484.565 253.083 483.74 252.612 482.941 252.83L483.731 255.724ZM488.682 251.243C487.885 251.466 487.419 252.294 487.642 253.091C487.866 253.889 488.694 254.355 489.491 254.131L488.682 251.243ZM495.173 252.519C495.969 252.29 496.429 251.459 496.2 250.663C495.972 249.867 495.141 249.407 494.344 249.636L495.173 252.519ZM500.074 247.965C499.279 248.2 498.826 249.035 499.061 249.829C499.296 250.624 500.13 251.077 500.925 250.842L500.074 247.965ZM506.709 249.105C507.501 248.864 507.947 248.025 507.706 247.233C507.464 246.441 506.626 245.994 505.833 246.236L506.709 249.105ZM511.496 244.481C510.706 244.73 510.267 245.572 510.516 246.362C510.765 247.153 511.607 247.591 512.397 247.343L511.496 244.481ZM517.987 245.553C518.774 245.296 519.205 244.45 518.948 243.662C518.692 242.874 517.845 242.444 517.058 242.7L517.987 245.553ZM522.806 240.794C522.021 241.059 521.6 241.91 521.865 242.695C522.13 243.48 522.982 243.901 523.766 243.636L522.806 240.794ZM529.447 241.679C530.228 241.404 530.639 240.548 530.365 239.766C530.09 238.985 529.234 238.574 528.453 238.848L529.447 241.679ZM533.975 236.869C533.197 237.153 532.797 238.015 533.082 238.793C533.366 239.571 534.228 239.971 535.006 239.686L533.975 236.869ZM540.625 237.585C541.398 237.289 541.786 236.422 541.49 235.648C541.194 234.874 540.327 234.487 539.553 234.783L540.625 237.585ZM545.15 232.592C544.381 232.901 544.008 233.774 544.316 234.543C544.624 235.312 545.497 235.685 546.266 235.377L545.15 232.592ZM551.756 233.122C552.52 232.8 552.878 231.921 552.556 231.157C552.235 230.394 551.355 230.036 550.592 230.357L551.756 233.122ZM555.999 228.02C555.242 228.356 554.9 229.242 555.236 229.999C555.573 230.757 556.459 231.098 557.216 230.762L555.999 228.02ZM562.76 228.229C563.509 227.876 563.831 226.982 563.478 226.233C563.126 225.483 562.232 225.161 561.482 225.514L562.76 228.229ZM566.771 222.95C566.03 223.32 565.729 224.221 566.1 224.962C566.47 225.703 567.371 226.004 568.112 225.633L566.771 222.95ZM573.408 222.897C574.139 222.507 574.415 221.598 574.024 220.868C573.634 220.137 572.725 219.861 571.995 220.251L573.408 222.897ZM577.253 217.34C576.535 217.753 576.287 218.67 576.699 219.388C577.112 220.106 578.029 220.354 578.747 219.942L577.253 217.34ZM583.843 216.902C584.547 216.465 584.764 215.541 584.327 214.837C583.891 214.133 582.966 213.916 582.262 214.352L583.843 216.902ZM587.242 211.131C586.555 211.595 586.375 212.527 586.838 213.214C587.302 213.9 588.235 214.081 588.921 213.617L587.242 211.131ZM593.873 210.113C594.538 209.619 594.677 208.68 594.184 208.014C593.69 207.349 592.75 207.21 592.085 207.704L593.873 210.113ZM596.62 204.165C595.98 204.691 595.888 205.636 596.413 206.277C596.939 206.917 597.884 207.009 598.525 206.484L596.62 204.165ZM603.185 202.427C603.793 201.864 603.83 200.915 603.268 200.307C602.705 199.699 601.756 199.662 601.148 200.224L603.185 202.427ZM605.276 196.157C604.706 196.757 604.73 197.707 605.33 198.277C605.931 198.848 606.881 198.824 607.451 198.223L605.276 196.157ZM611.491 193.647C612.015 193.005 611.92 192.06 611.278 191.536C610.637 191.012 609.692 191.107 609.168 191.748L611.491 193.647ZM612.664 187.093C612.195 187.776 612.369 188.71 613.051 189.179C613.734 189.648 614.668 189.474 615.137 188.792L612.664 187.093ZM618.409 183.655C618.843 182.949 618.624 182.025 617.918 181.591C617.213 181.156 616.289 181.376 615.854 182.081L618.409 183.655ZM619.024 176.874C618.597 177.584 618.826 178.506 619.536 178.933C620.246 179.36 621.168 179.13 621.595 178.42L619.024 176.874ZM624.743 173.113C625.161 172.398 624.921 171.479 624.206 171.061C623.491 170.642 622.572 170.883 622.154 171.598L624.743 173.113ZM625.214 166.293C624.805 167.013 625.057 167.929 625.777 168.338C626.497 168.747 627.413 168.496 627.822 167.775L625.214 166.293ZM630.825 162.412C631.224 161.686 630.96 160.774 630.235 160.374C629.509 159.975 628.597 160.239 628.197 160.964L630.825 162.412ZM631.099 155.607C630.71 156.339 630.987 157.247 631.718 157.636C632.449 158.026 633.358 157.748 633.747 157.017L631.099 155.607ZM636.609 151.542C636.987 150.805 636.696 149.901 635.959 149.523C635.221 149.145 634.317 149.436 633.939 150.173L636.609 151.542ZM636.686 144.706C636.321 145.45 636.627 146.349 637.37 146.714C638.113 147.08 639.013 146.774 639.378 146.031L636.686 144.706ZM642.05 140.479C642.402 139.729 642.08 138.836 641.33 138.483C640.581 138.131 639.687 138.453 639.335 139.203L642.05 140.479ZM641.877 133.658C641.539 134.415 641.878 135.302 642.635 135.64C643.391 135.978 644.278 135.639 644.616 134.883L641.877 133.658ZM647.071 129.237C647.393 128.474 647.036 127.594 646.273 127.272C645.51 126.949 644.63 127.307 644.307 128.07L647.071 129.237ZM646.617 122.429C646.312 123.199 646.689 124.071 647.459 124.376C648.229 124.681 649.101 124.305 649.406 123.534L646.617 122.429ZM651.615 117.763C651.901 116.986 651.503 116.123 650.726 115.837C649.949 115.55 649.086 115.948 648.8 116.725L651.615 117.763ZM650.836 110.975C650.57 111.759 650.99 112.611 651.775 112.877C652.559 113.143 653.411 112.723 653.677 111.939L650.836 110.975ZM655.581 106.06C655.824 105.268 655.38 104.429 654.589 104.185C653.797 103.941 652.957 104.385 652.713 105.177L655.581 106.06ZM654.418 99.3307C654.198 100.129 654.668 100.955 655.467 101.175C656.266 101.394 657.091 100.924 657.311 100.126L654.418 99.3307ZM658.852 94.137C659.045 93.3313 658.548 92.5218 657.742 92.3288C656.937 92.1359 656.127 92.6326 655.934 93.4382L658.852 94.137ZM657.246 87.5021C657.082 88.3141 657.607 89.1054 658.419 89.2694C659.231 89.4334 660.022 88.9081 660.186 88.0961L657.246 87.5021ZM661.296 82.007C661.428 81.1892 660.873 80.4188 660.055 80.2862C659.237 80.1537 658.467 80.7091 658.334 81.5269L661.296 82.007ZM659.183 75.5187C659.084 76.3413 659.671 77.088 660.494 77.1865C661.316 77.2851 662.063 76.6982 662.161 75.8757L659.183 75.5187ZM662.764 69.7021C662.826 68.876 662.206 68.1561 661.38 68.0942C660.554 68.0323 659.834 68.6518 659.772 69.4779L662.764 69.7021ZM660.084 63.4173C660.061 64.2455 660.714 64.9352 661.542 64.9579C662.37 64.9806 663.06 64.3277 663.082 63.4996L660.084 63.4173ZM663.099 57.2879C663.08 56.4596 662.393 55.8034 661.565 55.8222C660.737 55.841 660.081 56.5276 660.099 57.3558L663.099 57.2879ZM659.805 51.308C659.867 52.134 660.587 52.7533 661.413 52.6912C662.239 52.629 662.858 51.9089 662.796 51.0828L659.805 51.308ZM662.162 44.9022C662.055 44.0807 661.303 43.5015 660.481 43.6086C659.66 43.7156 659.081 44.4683 659.188 45.2898L662.162 44.9022ZM658.239 39.3174C658.392 40.1316 659.176 40.6678 659.99 40.5151C660.805 40.3623 661.341 39.5784 661.188 38.7642L658.239 39.3174ZM659.868 32.6845C659.669 31.8802 658.856 31.3894 658.052 31.5881C657.248 31.7868 656.757 32.5998 656.955 33.4041L659.868 32.6845ZM655.338 27.5756C655.582 28.3673 656.422 28.8112 657.214 28.5672C658.005 28.3232 658.449 27.4836 658.205 26.6919L655.338 27.5756ZM656.207 20.8038C655.919 20.0271 655.056 19.6309 654.279 19.919C653.502 20.207 653.106 21.0702 653.394 21.8469L656.207 20.8038ZM651.134 16.231C651.464 16.9908 652.348 17.3391 653.107 17.009C653.867 16.6788 654.215 15.7952 653.885 15.0354L651.134 16.231ZM651.259 9.40652C650.89 8.6652 649.989 8.36401 649.248 8.73379C648.506 9.10357 648.205 10.0043 648.575 10.7456L651.259 9.40652ZM645.735 5.39662C646.142 6.11838 647.056 6.37385 647.778 5.96722C648.5 5.5606 648.755 4.64585 648.349 3.92409L645.735 5.39662ZM2.94543 474.901C3.21197 473.94 3.48797 472.984 3.77333 472.034L0.900043 471.171C0.608608 472.142 0.326755 473.118 0.0545721 474.099L2.94543 474.901ZM5.59723 466.393C6.2422 464.534 6.92396 462.695 7.6418 460.876L4.85127 459.775C4.11804 461.632 3.42167 463.511 2.76289 465.41L5.59723 466.393ZM9.90944 455.465C10.7102 453.661 11.5474 451.877 12.4203 450.113L9.73152 448.782C8.84019 450.584 7.98523 452.405 7.1674 454.248L9.90944 455.465ZM15.1455 444.881C16.0891 443.157 17.0678 441.452 18.0808 439.767L15.5095 438.221C14.4759 439.941 13.477 441.681 12.5138 443.441L15.1455 444.881ZM21.2119 434.783C22.289 433.141 23.3995 431.518 24.5428 429.913L22.0993 428.173C20.9341 429.808 19.8019 431.463 18.7034 433.138L21.2119 434.783ZM28.07 425.153C29.2643 423.603 30.4899 422.07 31.7461 420.554L29.4363 418.64C28.1576 420.183 26.9097 421.743 25.6932 423.323L28.07 425.153ZM35.5829 416.085C36.8917 414.612 38.2301 413.156 39.5975 411.716L37.4223 409.65C36.0325 411.113 34.6716 412.594 33.3404 414.092L35.5829 416.085ZM43.7479 407.484C45.1342 406.114 46.5472 404.759 47.9865 403.42L45.9427 401.224C44.4819 402.583 43.0472 403.958 41.6392 405.35L43.7479 407.484ZM52.3822 399.446C53.8733 398.136 55.3899 396.842 56.9314 395.561L55.0146 393.253C53.4523 394.551 51.9147 395.864 50.4024 397.192L52.3822 399.446ZM61.4903 391.873C63.0287 390.661 64.5899 389.462 66.1733 388.276L64.3749 385.875C62.7722 387.075 61.1915 388.289 59.6334 389.517L61.4903 391.873ZM70.9896 384.758C72.5955 383.613 74.2225 382.481 75.87 381.361L74.1834 378.88C72.5179 380.012 70.8727 381.157 69.2483 382.315L70.9896 384.758ZM80.7647 378.108C82.4155 377.035 84.0855 375.974 85.7741 374.925L84.1902 372.377C82.485 373.437 80.7981 374.509 79.1302 375.592L80.7647 378.108ZM90.8952 371.809C92.5776 370.807 94.2773 369.815 95.9936 368.834L94.5048 366.23C92.7733 367.22 91.0583 368.22 89.3602 369.231L90.8952 371.809ZM101.141 365.95C102.873 364.998 104.621 364.057 106.385 363.125L104.983 360.472C103.205 361.412 101.443 362.361 99.6968 363.321L101.141 365.95ZM111.72 360.358C113.459 359.473 115.212 358.597 116.979 357.73L115.657 355.037C113.878 355.91 112.112 356.793 110.36 357.684L111.72 360.358ZM122.308 355.16C124.098 354.312 125.9 353.472 127.716 352.641L126.467 349.913C124.64 350.75 122.825 351.595 121.023 352.449L122.308 355.16ZM133.197 350.173C134.982 349.382 136.78 348.599 138.588 347.824L137.406 345.067C135.587 345.847 133.779 346.634 131.982 347.43L133.197 350.173ZM144.046 345.52C145.876 344.76 147.717 344.006 149.569 343.26L148.447 340.478C146.586 341.228 144.735 341.985 142.895 342.75L144.046 345.52ZM155.154 341.043C156.977 340.33 158.81 339.623 160.652 338.923L159.586 336.119C157.736 336.822 155.894 337.532 154.061 338.249L155.154 341.043ZM166.203 336.843C168.062 336.156 169.93 335.475 171.806 334.801L170.791 331.977C168.907 332.655 167.03 333.339 165.163 334.029L166.203 336.843ZM177.459 332.795C179.317 332.145 181.182 331.5 183.054 330.861L182.085 328.022C180.205 328.663 178.333 329.31 176.468 329.963L177.459 332.795ZM188.672 328.968C190.551 328.343 192.438 327.723 194.332 327.108L193.405 324.254C191.505 324.872 189.611 325.494 187.724 326.122L188.672 328.968ZM200.031 325.279C201.917 324.68 203.809 324.087 205.707 323.499L204.819 320.634C202.915 321.224 201.017 321.819 199.124 322.419L200.031 325.279ZM211.376 321.761C213.271 321.187 215.171 320.617 217.077 320.051L216.224 317.175C214.312 317.743 212.406 318.314 210.505 318.89L211.376 321.761ZM222.809 318.368C224.718 317.814 226.631 317.264 228.548 316.717L227.727 313.832C225.804 314.38 223.886 314.931 221.972 315.488L222.809 318.368ZM234.257 315.107C236.164 314.575 238.076 314.046 239.991 313.521L239.197 310.628C237.278 311.154 235.362 311.684 233.45 312.218L234.257 315.107ZM245.747 311.957C247.669 311.44 249.594 310.926 251.523 310.415L250.756 307.515C248.823 308.027 246.893 308.542 244.967 309.06L245.747 311.957ZM257.272 308.907C259.189 308.408 261.109 307.912 263.032 307.42L262.287 304.513C260.361 305.007 258.437 305.504 256.516 306.004L257.272 308.907ZM268.807 305.952C270.734 305.465 272.664 304.982 274.595 304.502L273.871 301.591C271.937 302.072 270.004 302.556 268.073 303.043L268.807 305.952ZM280.383 303.072C282.31 302.6 284.238 302.13 286.168 301.663L285.462 298.747C283.529 299.215 281.598 299.685 279.668 300.159L280.383 303.072ZM291.96 300.269C293.892 299.807 295.825 299.347 297.758 298.89L297.068 295.97C295.132 296.428 293.197 296.888 291.262 297.351L291.96 300.269ZM303.561 297.525C305.497 297.072 307.434 296.621 309.37 296.172L308.693 293.25C306.754 293.699 304.816 294.15 302.878 294.604L303.561 297.525ZM315.18 294.832C317.116 294.388 319.052 293.945 320.988 293.504L320.322 290.579C318.385 291.02 316.447 291.463 314.508 291.908L315.18 294.832ZM326.794 292.187C328.735 291.748 330.675 291.311 332.615 290.875L331.957 287.948C330.017 288.384 328.075 288.822 326.132 289.261L326.794 292.187ZM338.443 289.57C340.384 289.136 342.324 288.704 344.262 288.273L343.611 285.345C341.672 285.776 339.731 286.208 337.789 286.642L338.443 289.57ZM350.071 286.985C352.01 286.555 353.947 286.127 355.882 285.7L355.235 282.77C353.3 283.198 351.362 283.626 349.423 284.056L350.071 286.985ZM361.729 284.41C363.675 283.981 365.619 283.553 367.56 283.126L366.915 280.196C364.974 280.623 363.03 281.052 361.083 281.481L361.729 284.41ZM373.373 281.846C375.308 281.421 377.239 280.995 379.167 280.571L378.521 277.641C376.594 278.066 374.663 278.491 372.728 278.917L373.373 281.846ZM385.019 279.28C386.971 278.849 388.919 278.418 390.862 277.988L390.214 275.059C388.271 275.489 386.324 275.92 384.373 276.35L385.019 279.28ZM396.679 276.697C398.614 276.267 400.544 275.837 402.469 275.407L401.814 272.479C399.891 272.909 397.962 273.339 396.028 273.769L396.679 276.697ZM408.299 274.1C410.255 273.66 412.207 273.22 414.152 272.779L413.489 269.853C411.546 270.294 409.596 270.734 407.64 271.173L408.299 274.1ZM419.97 271.455C421.904 271.014 423.831 270.571 425.751 270.128L425.077 267.205C423.158 267.648 421.233 268.089 419.302 268.531L419.97 271.455ZM431.55 268.783C433.511 268.326 435.464 267.868 437.41 267.408L436.721 264.489C434.778 264.947 432.827 265.405 430.869 265.862L431.55 268.783ZM443.223 266.027C445.153 265.565 447.075 265.102 448.988 264.637L448.28 261.722C446.37 262.186 444.452 262.648 442.525 263.109L443.223 266.027ZM454.757 263.225C456.719 262.741 458.671 262.255 460.614 261.768L459.883 258.858C457.945 259.345 455.997 259.83 454.039 260.313L454.757 263.225ZM466.411 260.299C468.333 259.807 470.245 259.313 472.146 258.817L471.388 255.914C469.492 256.409 467.585 256.902 465.667 257.392L466.411 260.299ZM477.896 257.299C479.853 256.777 481.798 256.252 483.731 255.724L482.941 252.83C481.014 253.357 479.074 253.88 477.122 254.401L477.896 257.299ZM489.491 254.131C491.399 253.597 493.293 253.06 495.173 252.519L494.344 249.636C492.471 250.175 490.583 250.71 488.682 251.243L489.491 254.131ZM500.925 250.842C502.868 250.267 504.796 249.688 506.709 249.105L505.833 246.236C503.93 246.816 502.009 247.393 500.074 247.965L500.925 250.842ZM512.397 247.343C514.277 246.751 516.14 246.154 517.987 245.553L517.058 242.7C515.221 243.298 513.367 243.892 511.496 244.481L512.397 247.343ZM523.766 243.636C525.68 242.989 527.573 242.337 529.447 241.679L528.453 238.848C526.591 239.502 524.708 240.151 522.806 240.794L523.766 243.636ZM535.006 239.686C536.901 238.993 538.775 238.292 540.625 237.585L539.553 234.783C537.717 235.485 535.857 236.18 533.975 236.869L535.006 239.686ZM546.266 235.377C548.122 234.633 549.952 233.882 551.756 233.122L550.592 230.357C548.804 231.11 546.99 231.855 545.15 232.592L546.266 235.377ZM557.216 230.762C559.095 229.927 560.943 229.083 562.76 228.229L561.482 225.514C559.687 226.359 557.858 227.194 555.999 228.02L557.216 230.762ZM568.112 225.633C569.912 224.733 571.678 223.821 573.408 222.897L571.995 220.251C570.289 221.162 568.548 222.061 566.771 222.95L568.112 225.633ZM578.747 219.942C580.487 218.943 582.186 217.93 583.843 216.902L582.262 214.352C580.635 215.362 578.965 216.357 577.253 217.34L578.747 219.942ZM588.921 213.617C590.623 212.467 592.274 211.3 593.873 210.113L592.085 207.704C590.524 208.863 588.909 210.005 587.242 211.131L588.921 213.617ZM598.525 206.484C600.142 205.155 601.696 203.803 603.185 202.427L601.148 200.224C599.705 201.559 598.195 202.872 596.62 204.165L598.525 206.484ZM607.451 198.223C608.873 196.726 610.221 195.201 611.491 193.647L609.168 191.748C607.947 193.242 606.649 194.712 605.276 196.157L607.451 198.223ZM615.137 188.792C615.703 187.967 616.249 187.134 616.773 186.294L614.227 184.706C613.727 185.509 613.206 186.304 612.664 187.093L615.137 188.792ZM616.773 186.294C617.323 185.411 617.868 184.531 618.409 183.655L615.854 182.081C615.317 182.953 614.775 183.828 614.227 184.706L616.773 186.294ZM621.595 178.42C622.666 176.639 623.715 174.87 624.743 173.113L622.154 171.598C621.132 173.344 620.088 175.103 619.024 176.874L621.595 178.42ZM627.822 167.775C628.846 165.975 629.847 164.187 630.825 162.412L628.197 160.964C627.226 162.727 626.231 164.503 625.214 166.293L627.822 167.775ZM633.747 157.017C634.726 155.178 635.68 153.353 636.609 151.542L633.939 150.173C633.018 151.97 632.071 153.782 631.099 155.607L633.747 157.017ZM639.378 146.031C640.296 144.166 641.186 142.315 642.05 140.479L639.335 139.203C638.479 141.022 637.596 142.857 636.686 144.706L639.378 146.031ZM644.616 134.883C645.464 132.986 646.282 131.104 647.071 129.237L644.307 128.07C643.527 129.917 642.717 131.78 641.877 133.658L644.616 134.883ZM649.406 123.534C650.175 121.594 650.911 119.671 651.615 117.763L648.8 116.725C648.105 118.61 647.378 120.511 646.617 122.429L649.406 123.534ZM653.677 111.939C654.348 109.962 654.982 108.003 655.581 106.06L652.713 105.177C652.124 107.092 651.498 109.024 650.836 110.975L653.677 111.939ZM657.311 100.126C657.864 98.1114 658.378 96.1154 658.852 94.137L655.934 93.4382C655.468 95.3836 654.963 97.3476 654.418 99.3307L657.311 100.126ZM660.186 88.0961C660.6 86.0476 660.97 84.0181 661.296 82.007L658.334 81.5269C658.015 83.499 657.652 85.4905 657.246 87.5021L660.186 88.0961ZM662.161 75.8757C662.41 73.7984 662.611 71.7408 662.764 69.7021L659.772 69.4779C659.623 71.4713 659.426 73.4847 659.183 75.5187L662.161 75.8757ZM663.082 63.4996C663.14 61.4093 663.145 59.339 663.099 57.2879L660.099 57.3558C660.145 59.356 660.14 61.3762 660.084 63.4173L663.082 63.4996ZM662.796 51.0828C662.64 49.003 662.428 46.9431 662.162 44.9022L659.188 45.2898C659.446 47.2763 659.652 49.282 659.805 51.308L662.796 51.0828ZM661.188 38.7642C660.804 36.7188 660.364 34.6926 659.868 32.6845L656.955 33.4041C657.438 35.357 657.866 37.3278 658.239 39.3174L661.188 38.7642ZM658.205 26.6919C657.595 24.7119 656.929 22.7496 656.207 20.8038L653.394 21.8469C654.096 23.7405 654.745 25.6497 655.338 27.5756L658.205 26.6919ZM653.885 15.0354C653.063 13.1439 652.188 11.268 651.259 9.40652L648.575 10.7456C649.48 12.5606 650.333 14.3887 651.134 16.231L653.885 15.0354ZM648.349 3.92409C647.841 3.02355 647.321 2.12632 646.789 1.23229L644.211 2.76771C644.732 3.64116 645.24 4.51742 645.735 5.39662L648.349 3.92409Z" fill="#976393"/>
</svg>
