<svg width="43" height="58" viewBox="0 0 43 58" fill="none" xmlns="http://www.w3.org/2000/svg">
<path d="M21.6438 2.07007L23.1438 2.06643C23.1418 1.23871 22.4697 0.569065 21.642 0.570069C20.8142 0.571074 20.1438 1.24235 20.1438 2.07007L21.6438 2.07007ZM20.2281 13.9186L18.8989 13.2233L20.2281 13.9186ZM14.8331 20.8185L13.9076 19.6381L13.9076 19.6381L14.8331 20.8185ZM9.99998 26.1628L9.50312 27.5782L9.56872 27.6012L9.63618 27.6181L9.99998 26.1628ZM17.5 29.1628L18.3748 27.9444L18.3748 27.9444L17.5 29.1628ZM23.4804 38.3936L24.8313 37.7418L23.4804 38.3936ZM25.5 48.1628L24.0041 48.2736L25.5 48.1628ZM26.0567 48.6628L24.568 48.4793L26.0567 48.6628ZM27 39.1628L25.506 39.0289L27 39.1628ZM31.5154 23.6244L30.2836 22.7684L30.2836 22.7684L31.5154 23.6244ZM40.5019 17.2219L39.6699 15.9738L40.5019 17.2219ZM23.4931 14.0461L24.9028 13.5335L23.4931 14.0461ZM22.1029 9.42916L23.5898 9.23091L22.1029 9.42916ZM20.1438 2.07371C20.1437 2.02294 20.1382 2.12519 20.1016 2.51525C20.0708 2.84354 20.0261 3.29761 19.9713 3.83743C19.8617 4.91658 19.7123 6.33011 19.554 7.74986C19.3955 9.1713 19.2288 10.5912 19.0843 11.6862C19.0119 12.2355 18.9467 12.6909 18.8922 13.0195C18.8647 13.1855 18.8425 13.3034 18.8262 13.3784C18.7935 13.5279 18.8073 13.3985 18.8989 13.2233L21.5572 14.6138C21.685 14.3695 21.7415 14.0897 21.7572 14.0179C21.7891 13.8715 21.8208 13.6971 21.8518 13.51C21.9144 13.1326 21.9847 12.639 22.0586 12.0785C22.2069 10.9539 22.3762 9.51085 22.5355 8.0824C22.695 6.65225 22.8454 5.22891 22.9559 4.14058C23.0112 3.59667 23.0567 3.13435 23.0885 2.79564C23.1145 2.51871 23.1441 2.20336 23.1438 2.06643L20.1438 2.07371ZM18.8989 13.2233C17.6304 15.6484 15.9295 18.0528 13.9076 19.6381L15.7587 21.9989C18.2444 20.0499 20.1851 17.2369 21.5572 14.6138L18.8989 13.2233ZM13.9076 19.6381C12.6439 20.6289 10.5491 21.5831 8.24047 22.2916C5.94483 22.9961 3.62814 23.3998 2.00013 23.3998V26.3998C4.02247 26.3998 6.64901 25.9181 9.12065 25.1595C11.5793 24.405 14.0758 23.3185 15.7587 21.9989L13.9076 19.6381ZM2.00013 23.3998C1.91857 23.3998 1.81579 23.4002 1.73388 23.405C1.71295 23.4062 1.66247 23.4094 1.60164 23.4177C1.57377 23.4215 1.51002 23.4307 1.43132 23.4506C1.42967 23.451 1.12708 23.5133 0.841462 23.749C0.675081 23.8863 0.31623 24.2509 0.296676 24.8582C0.277304 25.4597 0.606357 25.8436 0.755735 25.9875C1.01717 26.2392 1.30675 26.3253 1.30977 26.3263C1.43548 26.3696 1.54307 26.3869 1.55415 26.3888C1.68736 26.4119 1.9363 26.4307 2.1052 26.4443C2.55732 26.4807 3.30427 26.5386 4.18725 26.6287C6.00566 26.8144 8.19387 27.1185 9.50312 27.5782L10.4968 24.7475C8.80677 24.1542 6.28076 23.8269 4.49194 23.6442C3.5713 23.5502 2.79138 23.4898 2.34609 23.4539C2.06629 23.4314 2.02391 23.4255 2.06725 23.433C2.07992 23.4352 2.10289 23.4394 2.13197 23.4459C2.15518 23.4511 2.21398 23.4648 2.28745 23.4901C2.28804 23.4903 2.576 23.5755 2.83664 23.8265C2.98562 23.97 3.31448 24.3535 3.29512 24.9547C3.27558 25.5616 2.91695 25.9258 2.75099 26.0628C2.57878 26.2049 2.41607 26.2735 2.35148 26.2992C2.27122 26.3311 2.20444 26.3495 2.16619 26.3592C2.09001 26.3784 2.02962 26.3871 2.00597 26.3903C1.95357 26.3974 1.91492 26.3996 1.90931 26.3999C1.88871 26.4011 1.90311 26.3998 2.00013 26.3998V23.3998ZM9.63618 27.6181C11.6901 28.1315 12.8078 28.3938 13.759 28.7496C14.6448 29.081 15.4003 29.5019 16.6252 30.3813L18.3748 27.9444C17.0253 26.9755 16.0307 26.3964 14.8101 25.9398C13.6549 25.5077 12.3099 25.1942 10.3638 24.7076L9.63618 27.6181ZM16.6252 30.3813C19.573 32.4977 20.1784 35.0021 22.1294 39.0455L24.8313 37.7418C23.1402 34.2369 22.129 30.6396 18.3748 27.9444L16.6252 30.3813ZM22.1294 39.0455C23.5436 41.9763 23.7403 44.7121 24.0041 48.2736L26.9959 48.052C26.7376 44.5646 26.5303 41.2628 24.8313 37.7418L22.1294 39.0455ZM24.0041 48.2736C24.1931 50.8256 24.5567 53.786 24.5567 56.1628H27.5567C27.5567 53.6433 27.1678 50.3731 26.9959 48.052L24.0041 48.2736ZM24.5567 56.1628C24.5567 56.2688 24.5552 56.2514 24.5586 56.202C24.5593 56.1925 24.5623 56.1483 24.5707 56.0914C24.5742 56.0683 24.5851 55.9963 24.6104 55.9064C24.625 55.8575 24.6701 55.7347 24.7028 55.662C24.7684 55.5406 25.0172 55.2293 25.221 55.0658C25.6274 54.8752 26.5013 54.8815 26.893 55.0699C27.0859 55.2247 27.325 55.5169 27.3895 55.6306C27.4792 55.8061 27.5117 55.96 27.5155 55.9767C27.5348 56.0607 27.542 56.1279 27.5429 56.1351C27.5489 56.1872 27.5499 56.2245 27.5484 56.1941C27.5455 56.133 27.5402 55.9607 27.5339 55.6861C27.5217 55.1516 27.5069 54.3006 27.497 53.3678C27.4765 51.4294 27.4816 49.3642 27.5454 48.8464L24.568 48.4793C24.4728 49.251 24.4779 51.5855 24.4972 53.3996C24.5072 54.343 24.5222 55.2064 24.5347 55.7549C24.5409 56.0217 24.5468 56.233 24.5519 56.3389C24.5525 56.3503 24.5553 56.4158 24.5629 56.4817C24.5642 56.4923 24.5718 56.5621 24.5915 56.6477C24.5955 56.6652 24.6282 56.8197 24.718 56.9955C24.7826 57.1094 25.0218 57.4017 25.2148 57.5566C25.6066 57.745 26.4806 57.7513 26.8871 57.5607C27.0909 57.3971 27.3398 57.0857 27.4055 56.9641C27.4383 56.8912 27.4835 56.7682 27.4982 56.7191C27.5236 56.6286 27.5347 56.5557 27.5383 56.5315C27.547 56.4726 27.5503 56.4253 27.5513 56.4118C27.557 56.3303 27.5567 56.2193 27.5567 56.1628H24.5567ZM27.5454 48.8464C28.0746 44.5545 28.0473 44.2789 28.494 39.2968L25.506 39.0289C25.0561 44.0468 25.0892 44.2515 24.568 48.4793L27.5454 48.8464ZM28.494 39.2968C28.9629 34.0671 29.8947 28.5852 32.7472 24.4804L30.2836 22.7684C26.9457 27.5719 25.9785 33.7586 25.506 39.0289L28.494 39.2968ZM32.7472 24.4804C33.8535 22.8884 34.9878 22.0395 36.321 21.2793C37.5861 20.5579 39.4612 19.7185 41.334 18.47L39.6699 15.9738C37.86 17.1804 36.509 17.7187 34.8351 18.6731C33.2293 19.5887 31.7116 20.7135 30.2836 22.7684L32.7472 24.4804ZM41.334 18.47C41.601 18.2919 41.8618 18.0953 42.0766 17.878C42.2515 17.701 42.5986 17.3131 42.6803 16.7391C42.7273 16.4088 42.6794 16.0532 42.5086 15.7241C42.3469 15.4127 42.1191 15.2088 41.9319 15.0821C41.5894 14.8503 41.2178 14.7653 40.9923 14.7252C40.503 14.6384 39.8969 14.6366 39.3063 14.6609C38.6878 14.6863 37.9731 14.7464 37.2182 14.8231C35.7224 14.9752 33.941 15.2072 32.341 15.3919C30.6956 15.5818 29.2409 15.7219 28.2504 15.7219V18.7219C29.4387 18.7219 31.0581 18.5599 32.685 18.3721C34.3572 18.1791 36.0461 17.9578 37.5217 17.8077C38.2525 17.7334 38.8988 17.6802 39.4294 17.6584C39.9879 17.6354 40.3189 17.6526 40.4678 17.679C40.5614 17.6956 40.4341 17.6909 40.2503 17.5665C40.1425 17.4935 39.9725 17.3501 39.846 17.1064C39.7104 16.845 39.6749 16.5644 39.7102 16.3167C39.7683 15.9079 39.9954 15.716 39.9428 15.7691C39.9302 15.7819 39.856 15.8497 39.6699 15.9738L41.334 18.47ZM28.2504 15.7219C27.0213 15.7219 26.4186 15.5598 26.0417 15.3184C25.692 15.0945 25.3106 14.6551 24.9028 13.5335L22.0834 14.5587C22.5945 15.9642 23.2804 17.1126 24.4239 17.8448C25.5402 18.5596 26.8567 18.7219 28.2504 18.7219V15.7219ZM24.9028 13.5335C24.3049 11.8892 23.7814 10.668 23.5898 9.23091L20.6161 9.62741C20.8629 11.4789 21.559 13.1167 22.0834 14.5587L24.9028 13.5335ZM23.5898 9.23091C23.271 6.8398 23.1438 4.51161 23.1438 2.07007H20.1438C20.1438 4.61931 20.2767 7.08228 20.6161 9.62741L23.5898 9.23091Z" fill="#895285"/>
</svg>
