<svg width="418" height="382" viewBox="0 0 418 382" fill="none" xmlns="http://www.w3.org/2000/svg">
<path d="M37.8326 142.53L32.9774 143.724L32.9774 143.724L37.8326 142.53ZM61.9529 215.849L66.8081 214.654L61.9529 215.849ZM84.5567 307.731L89.412 306.536L84.5567 307.731ZM105.363 302.612L106.557 307.467L105.363 302.612ZM239.416 316.765L240.952 321.523L242.947 320.879L243.886 319.004L239.416 316.765ZM260.527 284.192L264.657 287.01L264.657 287.01L260.527 284.192ZM301.802 251.744L304.041 256.215L304.041 256.215L301.802 251.744ZM338.148 245.345L339.827 240.635L339.585 240.549L339.336 240.488L338.148 245.345ZM360.698 249.711L362.992 245.268L362.992 245.268L360.698 249.711ZM356.317 200.764L351.34 201.245L351.34 201.246L356.317 200.764ZM332.271 86.5358L337.127 85.3414L337.127 85.3414L332.271 86.5358ZM314.1 12.6727L309.245 13.8671L309.245 13.8671L314.1 12.6727ZM230.787 18.6967L232.113 23.5178L232.449 23.4255L232.768 23.2876L230.787 18.6967ZM189.161 46.538L193.043 49.6887L193.043 49.6887L189.161 46.538ZM168.065 86.3223L163.484 88.3258C164.5 90.6504 167.097 91.845 169.524 91.1046C171.95 90.3643 173.438 87.9237 172.984 85.4275L168.065 86.3223ZM143.822 65.5348L142.12 70.2363L142.12 70.2364L143.822 65.5348ZM143.792 65.5241L145.494 60.8226L145.494 60.8226L143.792 65.5241ZM23.8833 85.8291L18.9052 86.2972L18.9398 86.665L19.0281 87.0237L23.8833 85.8291ZM28.7708 105.695L33.6261 104.5L28.7708 105.695ZM35.3243 153.264C35.9839 155.946 38.6925 157.585 41.3739 156.925C44.0554 156.265 45.6944 153.557 45.0347 150.875L35.3243 153.264ZM34.3848 136.432C37.0663 135.773 38.7053 133.064 38.0456 130.383C37.3859 127.701 34.6774 126.062 31.9959 126.722L34.3848 136.432ZM5.25046 141.117L10.2212 140.576L5.25046 141.117ZM23.7411 203.922L19.0929 205.764L19.0929 205.764L23.7411 203.922ZM73.2612 352.126L78.0788 350.788L78.0788 350.788L73.2612 352.126ZM79.4348 370.814L74.9874 373.099L74.9874 373.099L79.4348 370.814ZM96.5553 372.215L94.3048 367.75L94.3048 367.75L96.5553 372.215ZM195.28 329.125L194.085 324.27L195.28 329.125ZM314.66 297.23L313.466 292.375L314.66 297.23ZM378.469 286.584L379.664 291.439L378.469 286.584ZM410.795 276.106L415.594 277.507L415.594 277.507L410.795 276.106ZM403.902 198.661L398.927 199.158L398.927 199.158L403.902 198.661ZM391.079 144.705L386.223 145.899L386.223 145.899L391.079 144.705ZM369.042 55.1286L373.897 53.9342L373.897 53.9342L369.042 55.1286ZM348.968 41.264L347.774 36.4088L347.774 36.4088L348.968 41.264ZM322.77 40.0342C320.088 40.6938 318.449 43.4024 319.109 46.0839C319.769 48.7653 322.477 50.4043 325.159 49.7447L322.77 40.0342ZM172.201 83.8948C171.541 81.2134 168.833 79.5744 166.151 80.234C163.47 80.8937 161.831 83.6022 162.491 86.2837L172.201 83.8948ZM197.763 171.491L202.605 170.243L202.605 170.243L197.763 171.491ZM207.751 206.691L212.607 205.497L212.607 205.497L207.751 206.691ZM223.689 260.675L218.834 261.87L223.689 260.675ZM233.484 316.021C234.143 318.702 236.852 320.341 239.533 319.682C242.215 319.022 243.854 316.313 243.194 313.632L233.484 316.021ZM32.9774 143.724C36.1602 156.662 40.7183 168.845 45.1672 180.77C49.6463 192.777 54.0209 204.536 57.0976 217.043L66.8081 214.654C63.5712 201.497 58.9879 189.207 54.5364 177.275C50.0546 165.262 45.7093 153.617 42.6878 141.335L32.9774 143.724ZM79.7015 308.925C80.0215 310.226 80.3501 311.454 80.7302 312.454C81.0109 313.192 81.7372 315.045 83.5433 316.186C86.0254 317.754 88.4449 316.895 89.5055 316.36C90.4637 315.877 91.3737 315.146 91.9038 314.725C94.2354 312.876 98.1191 309.543 106.557 307.467L104.168 297.757C93.622 300.351 88.3772 304.759 85.6891 306.891C84.9643 307.466 84.8762 307.495 85.0032 307.431C85.2327 307.315 86.9881 306.534 88.8833 307.731C90.1026 308.501 90.3191 309.536 90.0775 308.9C89.9354 308.526 89.7291 307.825 89.412 306.536L79.7015 308.925ZM106.557 307.467C145.867 297.797 174.389 302.531 195.078 308.982C205.611 312.266 213.886 315.904 221.222 318.653C224.786 319.988 228.201 321.137 231.35 321.753C234.493 322.368 237.796 322.542 240.952 321.523L237.879 312.007C236.982 312.297 235.578 312.39 233.27 311.939C230.969 311.489 228.192 310.586 224.731 309.289C218.02 306.774 208.923 302.824 198.055 299.435C175.94 292.539 145.542 287.579 104.168 297.757L106.557 307.467ZM243.886 319.004C245.462 315.857 249.332 309.772 253.607 303.328C257.815 296.984 262.196 290.617 264.657 287.01L256.397 281.374C253.965 284.939 249.529 291.386 245.274 297.8C241.086 304.113 236.846 310.729 234.945 314.526L243.886 319.004ZM264.657 287.01C270.785 278.029 275.407 273.067 280.876 269.049C286.526 264.9 293.215 261.635 304.041 256.215L299.563 247.273C289.084 252.521 281.458 256.215 274.957 260.99C268.276 265.897 262.912 271.825 256.397 281.374L264.657 287.01ZM304.041 256.215C318.609 248.92 328.822 248.211 336.96 250.202L339.336 240.488C328.34 237.799 315.68 239.203 299.563 247.273L304.041 256.215ZM336.469 250.055C340.321 251.428 345.356 251.871 349.223 252.299C353.66 252.791 356.699 253.273 358.405 254.154L362.992 245.268C359.311 243.368 354.235 242.793 350.323 242.36C345.842 241.864 342.294 241.515 339.827 240.635L336.469 250.055ZM358.404 254.154C359.645 254.794 361.529 255.112 363.367 254.097C364.829 253.29 365.469 252.046 365.702 251.533C366.192 250.451 366.316 249.301 366.37 248.681C366.5 247.188 366.454 245.207 366.335 243.104C366.091 238.794 365.477 232.944 364.769 227.013C363.315 214.828 361.524 202.664 361.294 200.282L351.34 201.246C351.571 203.632 353.469 216.714 354.84 228.198C355.544 234.101 356.126 239.69 356.351 243.668C356.466 245.709 356.472 247.083 356.408 247.814C356.365 248.305 356.331 247.984 356.594 247.404C356.713 247.142 357.222 246.067 358.534 245.343C360.222 244.411 361.939 244.724 362.992 245.268L358.404 254.154ZM361.294 200.282C357.523 161.316 346.341 122.796 337.127 85.3414L327.416 87.7302C336.772 125.762 347.66 163.222 351.34 201.245L361.294 200.282ZM337.127 85.3414L318.956 11.4783L309.245 13.8671L327.416 87.7302L337.127 85.3414ZM318.956 11.4783C318.165 8.26262 315.993 5.9965 313.56 4.48579C311.173 3.00375 308.256 2.05711 305.195 1.44575C299.056 0.219699 291.178 0.122155 282.718 0.832352C265.748 2.25702 245.164 7.04754 228.806 14.1059L232.768 23.2876C248.041 16.6976 267.556 12.1404 283.555 10.7973C291.58 10.1236 298.405 10.2872 303.237 11.2521C305.661 11.7363 307.297 12.3676 308.286 12.9816C308.759 13.2758 309.006 13.5173 309.123 13.6618C309.228 13.7898 309.241 13.8509 309.245 13.8671L318.956 11.4783ZM229.462 13.8757C226.509 14.6874 222.682 16.5294 218.776 18.6935C214.763 20.9165 210.305 23.6848 205.981 26.5911C201.655 29.4982 197.408 32.5812 193.822 35.4467C190.319 38.2455 187.175 41.0501 185.279 43.3872L193.043 49.6887C194.222 48.2369 196.648 45.9887 200.064 43.259C203.397 40.596 207.416 37.6749 211.559 34.8907C215.702 32.1057 219.913 29.4955 223.622 27.441C227.437 25.3276 230.384 23.9931 232.113 23.5178L229.462 13.8757ZM185.279 43.3872C185.002 43.7286 184.455 44.2861 183.491 45.1863C182.377 46.227 181.645 46.8709 180.162 48.25C177.622 50.6123 174.533 53.6288 171.676 57.2481C165.959 64.4911 160.849 74.5911 163.145 87.217L172.984 85.4275C171.399 76.714 174.761 69.4793 179.525 63.4437C181.909 60.4238 184.562 57.815 186.973 55.5726C187.966 54.6493 189.512 53.2458 190.316 52.4951C191.27 51.604 192.283 50.6261 193.043 49.6887L185.279 43.3872ZM172.646 84.3187C165.49 67.9579 150.546 62.6509 145.523 60.8332L142.12 70.2364C147.013 72.0071 158.154 76.1407 163.484 88.3258L172.646 84.3187ZM145.524 60.8333L145.494 60.8226L142.091 70.2257L142.12 70.2363L145.524 60.8333ZM145.494 60.8226C101.205 44.7935 69.735 47.9589 49.1368 56.6523C38.89 60.9769 31.4327 66.6322 26.5177 71.8222C24.0681 74.4088 22.1982 76.9349 20.9311 79.1878C20.2991 80.3114 19.7768 81.4385 19.4184 82.5279C19.0868 83.5356 18.7716 84.8766 18.9052 86.2972L28.8613 85.361C28.9118 85.8974 28.7833 86.0609 28.9174 85.6533C29.0246 85.3275 29.2469 84.8016 29.6471 84.0899C30.4446 82.6719 31.7902 80.7978 33.7786 78.6983C37.7395 74.5157 44.0473 69.6544 53.0251 65.8654C70.8762 58.3314 99.6938 54.8814 142.091 70.2257L145.494 60.8226ZM19.0281 87.0237C23.9159 106.891 20.5229 93.0985 23.9156 106.889L33.6261 104.5C30.2337 90.7106 33.6258 104.499 28.7385 84.6346L19.0281 87.0237ZM23.9156 106.889L32.9774 143.724L42.6878 141.335L33.6261 104.5L23.9156 106.889ZM32.9774 143.724L35.3243 153.264L45.0347 150.875L42.6878 141.335L32.9774 143.724ZM31.9959 126.722C31.1353 126.934 29.1297 127.249 26.0486 127.775C23.1547 128.268 19.6167 128.902 16.2041 129.7C12.8631 130.48 9.3231 131.488 6.56337 132.818C5.2021 133.474 3.692 134.365 2.49295 135.607C1.23914 136.906 -0.0114575 138.978 0.279746 141.657L10.2212 140.576C10.3542 141.8 9.72136 142.517 9.68675 142.553C9.67401 142.566 9.74751 142.489 9.97049 142.342C10.1878 142.199 10.4935 142.025 10.904 141.827C12.6398 140.991 15.3036 140.179 18.4795 139.437C21.5838 138.712 24.8758 138.119 27.7299 137.632C30.3967 137.178 33.0569 136.759 34.3848 136.432L31.9959 126.722ZM0.279746 141.657C2.65111 163.472 11.4254 186.42 19.0929 205.764L28.3893 202.08C20.6593 182.577 12.4243 160.844 10.2212 140.576L0.279746 141.657ZM19.0929 205.764C38.0099 253.491 54.6791 303.909 68.4436 353.465L78.0788 350.788C64.2284 300.923 47.449 250.167 28.3893 202.08L19.0929 205.764ZM68.4436 353.465C70.1907 359.755 71.5277 366.365 74.9874 373.099L83.8821 368.529C81.0337 362.985 80.0583 357.915 78.0788 350.788L68.4436 353.465ZM74.9874 373.099C76.325 375.702 77.886 377.973 79.9257 379.523C82.1817 381.237 84.6833 381.815 87.1964 381.544C89.4286 381.302 91.5158 380.402 93.2262 379.569C94.7185 378.841 97.163 377.508 98.8059 376.68L94.3048 367.75C91.7805 369.022 90.5979 369.725 88.8443 370.58C87.3088 371.328 86.5315 371.557 86.1219 371.601C85.9931 371.615 86.0754 371.636 85.9761 371.561C85.6607 371.321 84.9304 370.569 83.8821 368.529L74.9874 373.099ZM98.8059 376.68C131.005 360.45 162.734 342.28 196.474 333.98L194.085 324.27C158.921 332.92 125.769 351.89 94.3048 367.75L98.8059 376.68ZM196.474 333.98C216.552 329.041 236.458 323.51 256.287 318C276.14 312.484 295.917 306.99 315.855 302.086L313.466 292.375C293.36 297.321 273.44 302.856 253.61 308.365C233.757 313.881 213.994 319.372 194.085 324.27L196.474 333.98ZM315.855 302.086C326.073 299.572 336.682 298.187 347.512 296.79C358.238 295.408 369.212 294.011 379.664 291.439L377.275 281.729C367.473 284.14 357.08 285.474 346.233 286.873C335.491 288.258 324.322 289.704 313.466 292.375L315.855 302.086ZM379.664 291.439C381.279 291.042 383.75 290.758 387.068 290.404C390.217 290.068 393.933 289.684 397.503 289.05C401.032 288.423 404.789 287.491 407.961 285.901C411.139 284.307 414.365 281.718 415.594 277.507L405.995 274.705C405.852 275.196 405.359 276.019 403.479 276.962C401.593 277.907 398.953 278.636 395.753 279.204C392.593 279.766 389.246 280.115 386.007 280.46C382.936 280.788 379.693 281.134 377.275 281.729L379.664 291.439ZM415.594 277.507C419.339 264.677 418.029 250.375 415.735 236.826C413.353 222.754 410.064 210.048 408.877 198.164L398.927 199.158C400.145 211.358 403.71 225.702 405.876 238.495C408.13 251.812 409.064 264.19 405.995 274.705L415.594 277.507ZM408.877 198.164C407.95 188.874 405.728 179.422 403.26 170.255C400.741 160.902 398.068 152.184 395.934 143.51L386.223 145.899C388.372 154.635 391.225 164.021 393.604 172.856C396.033 181.877 398.082 190.698 398.927 199.158L408.877 198.164ZM395.934 143.51L373.897 53.9342L364.187 56.323L386.223 145.899L395.934 143.51ZM373.897 53.9342C372.783 49.4048 371.818 45.712 370.746 42.9257C369.698 40.2024 368.219 37.4212 365.499 35.7224C362.694 33.9709 359.62 34.0146 357.025 34.3672C354.464 34.7152 351.285 35.5449 347.774 36.4088L350.162 46.1193C354.032 45.1673 356.489 44.5319 358.372 44.2761C360.221 44.0249 360.397 44.3263 360.202 44.2045C360.091 44.1354 360.582 44.3561 361.413 46.5175C362.221 48.6161 363.047 51.691 364.187 56.323L373.897 53.9342ZM347.774 36.4088C344.021 37.3319 339.956 37.7598 335.614 38.1896C331.431 38.6036 326.862 39.0274 322.77 40.0342L325.159 49.7447C328.411 48.9444 332.192 48.5771 336.599 48.141C340.846 47.7206 345.609 47.2393 350.162 46.1193L347.774 36.4088ZM162.491 86.2837C164.446 94.2345 171.229 112.437 177.808 130.059C184.528 148.06 191.057 165.51 192.922 172.74L202.605 170.243C200.57 162.352 193.756 144.188 187.176 126.561C180.454 108.556 173.978 91.1173 172.201 83.8948L162.491 86.2837ZM192.922 172.74C194.478 178.775 196.277 184.709 198.018 190.516C199.77 196.359 201.47 202.087 202.896 207.886L212.607 205.497C211.113 199.424 209.345 193.473 207.597 187.644C205.838 181.779 204.103 176.049 202.605 170.243L192.922 172.74ZM202.896 207.886C205.193 217.222 208.108 226.315 210.96 235.215C213.829 244.169 216.635 252.931 218.834 261.87L228.544 259.481C226.249 250.152 223.335 241.064 220.483 232.164C217.614 223.21 214.807 214.443 212.607 205.497L202.896 207.886ZM218.834 261.87C221.114 271.141 223.679 280.203 226.213 289.155C228.755 298.133 231.265 307.001 233.484 316.021L243.194 313.632C240.927 304.417 238.369 295.383 235.835 286.431C233.294 277.454 230.777 268.557 228.544 259.481L218.834 261.87ZM57.0976 217.043L79.7015 308.925L89.412 306.536L66.8081 214.654L57.0976 217.043Z" fill="#976393"/>
</svg>
