<svg width="563" height="486" viewBox="0 0 563 486" fill="none" xmlns="http://www.w3.org/2000/svg">
<path d="M495.785 130.163C473.277 92.0253 428.444 92.848 388.283 90.5994C349.971 88.4545 311.961 89.0202 273.971 94.8152C230.819 101.398 193.029 115.818 154.633 136.405C89.7527 171.193 21.1372 212.143 6.19005 289.632C1.37409 314.598 1.20565 342.003 5.62254 367.055C9.92691 391.469 25.1558 412.639 43.7264 428.67C51.8548 435.687 60.8531 440.606 70.4802 445.371C94.8065 457.411 120.469 468.717 146.931 475.125C195.736 486.942 250.416 485.505 300.077 481.367C338.108 478.198 380.13 474.287 415.523 458.748C453.743 441.969 488.345 414.63 512.567 380.594C533.506 351.17 545.377 316.153 553.022 281.119C560.498 246.858 565.691 205.896 553.265 172.077C539.595 134.873 506.929 105.555 475.517 83.3029C428.374 49.9071 378.127 23.7349 325.047 1.74438" stroke="#976393" stroke-width="3" stroke-linecap="round"/>
</svg>
