<svg width="405" height="387" viewBox="0 0 405 387" fill="none" xmlns="http://www.w3.org/2000/svg">
<path d="M333.79 21.7407C332.058 20.5036 329.984 19.859 327.908 19.4476C313.461 16.5857 298.372 15.5159 283.74 14.2632C255.831 11.8737 227.325 9.89831 199.294 11.1725C169.689 12.5181 139.9 20.7332 111.308 27.9222C91.9361 32.7928 71.1259 44.4469 55 57C29.6792 76.7108 14.4041 100.761 8.16726 131.611C4.68378 148.842 0.577164 165.733 2.48431 183.406C4.601 203.02 9.62499 221.626 15.6947 240.285C26.74 274.239 48.383 305.539 74.4683 329.816C93.5783 347.602 115.179 362.863 139.673 372.289C154.678 378.063 170.3 380.629 186.233 382.259C207.889 384.474 230.91 386.765 252.683 384.652C270.209 382.95 288.356 377.747 303.531 368.699C327.772 354.246 346.74 330.47 362.304 307.383C381.206 279.348 399.959 248.77 401.886 214.363C402.973 194.952 403.19 175.346 400.589 156.038C397.038 129.666 387.18 106.795 372.274 84.8513C358.698 64.864 343.258 41.6531 323.62 26.9252C308.435 15.5359 290.005 9.44582 272.773 2" stroke="#976393" stroke-width="3" stroke-linecap="round"/>
</svg>
