<svg width="20" height="31" viewBox="0 0 20 31" fill="none" xmlns="http://www.w3.org/2000/svg">
<path d="M8.71606 2C8.82184 4.06272 9.36115 6.11561 9.58334 8.17296C9.86542 10.7848 10.1264 13.3599 10.5526 15.9529C11.2716 20.3266 11.8904 24.7195 12.6188 29.0896M3 15.6065C5.42092 15.6065 7.73539 14.9242 10.0657 14.3056C12.3418 13.7013 15.183 13.3932 17.2335 12.1629M14.9533 8.16288C14.2257 8.38117 13.7414 9.77767 13.3974 10.3566C12.496 11.8731 11.4282 13.2295 10.3393 14.6127L10.3364 14.6164C8.89279 16.4502 7.49488 18.3068 6 20.1007M2 10.1629C5.14334 11.7974 8.20753 13.7029 11.2339 15.5451C13.2358 16.7636 15.7992 17.7574 17.611 19.1162" stroke="#895285" stroke-width="3" stroke-linecap="round"/>
</svg>
