<svg width="370" height="326" viewBox="0 0 370 326" fill="none" xmlns="http://www.w3.org/2000/svg">
<path d="M105.634 34.6875C119.273 89.2428 129.204 141.594 135.163 197.872C138.085 225.469 137.003 266.585 128.5 280.464M128.5 280.464C121.121 292.509 111 307.249 101.5 312.213C84.0086 324.344 47.9274 322.451 25.7017 313.902C6.87277 306.66 5.71984 291.464 5.71984 285.928C3.49942 251.464 28.0959 235.973 53.8982 235.973C68.4755 235.973 117.477 266.766 128.5 280.464ZM105.633 34.6878C163.914 34.6878 222.687 25.6752 278.808 10.7096C283.372 9.49271 292.562 2.93811 294.35 6.71324C302.344 23.5896 306.949 44.1018 311.889 62.2183C327.063 117.853 350.335 169.505 360.427 226.511M360.427 226.511C360.766 228.43 361.091 230.355 361.4 232.286C366.009 261.091 369.925 285.927 347.413 308.439C330.58 325.272 276.742 323.773 258.383 312.213C237.798 299.253 228.3 282.886 229.52 258.484C231.372 221.446 331.892 226.392 360.427 226.511ZM360.427 226.511C360.761 226.512 361.086 226.513 361.4 226.513" stroke="#976393" stroke-width="10" stroke-linecap="round"/>
</svg>
