<svg width="2556" height="3035" viewBox="0 0 2556 3035" fill="none" xmlns="http://www.w3.org/2000/svg">
<path d="M2039.36 24.0362L2035.67 27.4094L2035.84 27.5937L2036.03 27.7602L2039.36 24.0362ZM2482.07 427.537L2478.73 431.261L2478.73 431.261L2482.07 427.537ZM2535.92 475.781L2539.25 472.057L2539.25 472.057L2535.92 475.781ZM2524.26 510.217L2520.54 506.88L2520.54 506.88L2524.26 510.217ZM2449.05 572.736L2450.6 577.489L2450.6 577.489L2449.05 572.736ZM2407.49 615.259L2412.48 614.985L2412.48 614.985L2407.49 615.259ZM2364.08 630.816L2361.61 635.164L2361.61 635.164L2364.08 630.816ZM2229.06 512.972L2232.4 509.248L2232.4 509.248L2229.06 512.972ZM1977.76 281.923L1981.22 278.318L1981.22 278.318L1977.76 281.923ZM1845.07 156.453L1848.4 152.729L1845.07 156.453ZM1808.96 111.622L1805.06 108.497L1805.06 108.497L1808.96 111.622ZM1863.85 88.6663L1864.2 83.6783L1864.2 83.6783L1863.85 88.6663ZM1938.14 92.8065L1940.5 97.2145L1940.5 97.2145L1938.14 92.8065ZM1994.95 34.814L1990.2 33.277L1990.2 33.277L1994.95 34.814ZM187.484 2453.17L184.694 2457.32L184.887 2457.44L185.09 2457.56L187.484 2453.17ZM713.457 2777.1L716.21 2772.93L716.035 2772.81L715.851 2772.71L713.457 2777.1ZM815.812 2871.44L820.202 2873.84L820.202 2873.84L815.812 2871.44ZM768.102 2933.91L772.492 2936.31L772.492 2936.31L768.102 2933.91ZM761.833 2994L757.318 2991.85L757.318 2991.85L761.833 2994ZM725.285 3021.69L727.679 3017.3L727.679 3017.3L725.285 3021.69ZM373.897 2830.03L371.503 2834.42L371.503 2834.42L373.897 2830.03ZM219.754 2730.37L217.083 2734.6L217.083 2734.6L219.754 2730.37ZM9.93458 2589.17L7.54035 2593.56L9.93458 2589.17ZM73.1721 2560.16L72.4194 2565.1L72.4194 2565.1L73.1721 2560.16ZM119.794 2543.25L118.926 2538.33L118.926 2538.33L119.794 2543.25ZM296 330.653L297.98 326.061L290.893 323.006L291.001 330.722L296 330.653ZM391.044 1108.99L386.061 1109.41L386.061 1109.41L391.044 1108.99ZM423.039 2109.38L418.039 2109.34L418.039 2109.34L423.039 2109.38ZM406.1 2383.62L401.101 2383.53L401.101 2383.53L406.1 2383.62ZM388.691 2649.74L383.7 2649.44L383.7 2649.44L388.691 2649.74ZM520.435 2758.87L520.728 2753.87L520.728 2753.87L520.435 2758.87ZM832.854 2764.14L832.925 2759.14L832.925 2759.14L832.854 2764.14ZM1524.04 2777.93L1524.06 2772.93L1524.06 2772.93L1524.04 2777.93ZM1976.67 2790.1L1977.3 2785.14L1977.3 2785.14L1976.67 2790.1ZM2258.97 2810.39L2263.82 2811.61L2263.82 2811.61L2258.97 2810.39ZM2258.97 1104.12L2263.97 1104L2263.97 1104L2258.97 1104.12ZM2068 309.001L2068 314.001L2068 314.001L2068 309.001ZM1829.87 309.002L1829.66 304.006L1829.87 309.002ZM1364.53 310.219L1364.6 315.219L1364.53 310.219ZM479.825 336.775L479.653 341.772L479.739 341.775H479.825V336.775ZM645.572 2766.83C646.031 2769.55 648.611 2771.39 651.334 2770.93C654.057 2770.47 655.892 2767.89 655.432 2765.17L645.572 2766.83ZM1053 2134.99L1056.9 2131.86L1055.56 2130.19L1053.42 2130.01L1053 2134.99ZM1223 2172.49V2167.49H1221.77L1220.68 2168.06L1223 2172.49ZM1560 2765.99C1560 2768.75 1562.24 2770.99 1565 2770.99C1567.76 2770.99 1570 2768.75 1570 2765.99H1560ZM1048.57 2130.07C1047.56 2132.64 1048.83 2135.54 1051.4 2136.55C1053.97 2137.56 1056.87 2136.3 1057.88 2133.73L1048.57 2130.07ZM1070.75 2095.65L1066.14 2093.71L1066.14 2093.71L1070.75 2095.65ZM1110.85 1996.35C1111.51 1993.67 1109.88 1990.96 1107.2 1990.29C1104.52 1989.63 1101.81 1991.26 1101.14 1993.94L1110.85 1996.35ZM1231.49 2017.44C1231.46 2014.68 1229.19 2012.47 1226.43 2012.5C1223.67 2012.53 1221.46 2014.8 1221.49 2017.56L1231.49 2017.44ZM1217.35 2174.32C1218.36 2176.89 1221.26 2178.16 1223.83 2177.16C1226.4 2176.15 1227.67 2173.25 1226.66 2170.68L1217.35 2174.32ZM852.622 1607.01C854.575 1608.96 857.74 1608.96 859.693 1607.01C861.646 1605.05 861.646 1601.89 859.693 1599.94L852.622 1607.01ZM766.13 1586.86L767.597 1591.64L766.13 1586.86ZM720.21 1638.31L715.457 1636.76L715.457 1636.76L720.21 1638.31ZM711.55 1688.66L716.544 1688.9L716.544 1688.9L711.55 1688.66ZM715.98 1713.34L712.595 1717.02L712.595 1717.02L715.98 1713.34ZM767.036 1731.97L766.3 1736.91L766.3 1736.91L767.036 1731.97ZM831.183 1732.77L829.878 1727.95L829.878 1727.95L831.183 1732.77ZM866.026 1715.85L862.848 1711.99L862.848 1711.99L866.026 1715.85ZM875.301 1706.84C876.327 1704.27 875.08 1701.36 872.516 1700.34C869.952 1699.31 867.042 1700.56 866.016 1703.12L875.301 1706.84ZM1675.36 1800.68C1673.73 1798.45 1670.6 1797.96 1668.37 1799.59C1666.14 1801.22 1665.65 1804.34 1667.28 1806.58L1675.36 1800.68ZM1824.17 1849.51L1827.55 1853.2L1827.55 1853.2L1824.17 1849.51ZM1844.56 1747.71L1848.6 1744.77L1848.6 1744.77L1844.56 1747.71ZM1782.97 1707.78L1781.8 1712.64L1782.97 1707.78ZM1711.37 1715.92C1708.76 1716.83 1707.38 1719.68 1708.29 1722.29C1709.2 1724.9 1712.06 1726.27 1714.66 1725.36L1711.37 1715.92ZM862.357 1395.51C859.602 1395.32 857.21 1397.39 857.013 1400.14C856.816 1402.9 858.89 1405.29 861.644 1405.49L862.357 1395.51ZM1146.97 1193.05C1147.27 1190.31 1145.3 1187.84 1142.55 1187.53C1139.81 1187.23 1137.34 1189.2 1137.03 1191.95L1146.97 1193.05ZM1258.88 1095.33C1260.17 1092.89 1259.23 1089.86 1256.79 1088.58C1254.34 1087.29 1251.32 1088.23 1250.03 1090.67L1258.88 1095.33ZM1263.12 1143.44L1258.48 1141.58L1258.48 1141.58L1263.12 1143.44ZM1254.46 1179.29L1249.46 1179.32L1254.46 1179.29ZM1294.24 1247.36L1290.93 1251.11L1290.93 1251.11L1294.24 1247.36ZM1380.84 1286.74L1380.58 1291.73L1380.58 1291.73L1380.84 1286.74ZM1447.61 1276.16L1445.27 1271.74L1445.27 1271.74L1447.61 1276.16ZM1466.44 1262.06L1461.78 1260.26L1461.78 1260.26L1466.44 1262.06ZM1454.15 1316.44L1459.13 1316.88L1459.13 1316.88L1454.15 1316.44ZM1494.33 1400.43L1490.51 1403.65L1490.51 1403.65L1494.33 1400.43ZM1595.54 1442.82L1595.19 1447.81L1595.19 1447.81L1595.54 1442.82ZM1731.89 1445.05C1734.62 1444.66 1736.52 1442.13 1736.13 1439.4C1735.74 1436.66 1733.21 1434.76 1730.48 1435.15L1731.89 1445.05ZM1142.38 1187.58C1139.67 1187.09 1137.07 1188.9 1136.58 1191.62C1136.09 1194.33 1137.9 1196.93 1140.62 1197.42L1142.38 1187.58ZM1259.39 1095.05C1259.97 1092.35 1258.25 1089.69 1255.55 1089.11C1252.85 1088.53 1250.19 1090.25 1249.61 1092.95L1259.39 1095.05ZM1373.71 977.055C1372.92 979.699 1374.41 982.489 1377.06 983.287C1379.7 984.085 1382.49 982.589 1383.29 979.945L1373.71 977.055ZM1420.6 900.854L1423.63 904.828L1423.63 904.828L1420.6 900.854ZM1655.14 832.497L1655.15 837.497L1655.14 832.497ZM1759.69 843.569L1757.52 848.075L1757.52 848.075L1759.69 843.569ZM1833.77 949.956L1829.02 951.516L1829.02 951.516L1833.77 949.956ZM1817.42 1107.85L1821.39 1110.89L1821.39 1110.89L1817.42 1107.85ZM1820.04 1109.78L1821.2 1114.64L1821.2 1114.64L1820.04 1109.78ZM1986.96 1106.41L1988.18 1101.56L1988.18 1101.56L1986.96 1106.41ZM2064.27 1382.72L2060.45 1379.49L2060.45 1379.49L2064.27 1382.72ZM1946.19 1441.45L1945.93 1436.46L1945.93 1436.46L1946.19 1441.45ZM1951.44 1442.65L1950.38 1447.54L1950.38 1447.54L1951.44 1442.65ZM2104.03 1513.18L2101.29 1517.36L2101.29 1517.36L2104.03 1513.18ZM2157.92 1600.55L2152.92 1600.68L2152.92 1600.68L2157.92 1600.55ZM1938.05 1761.63C1935.42 1760.78 1932.6 1762.21 1931.75 1764.84C1930.89 1767.47 1932.33 1770.29 1934.96 1771.14L1938.05 1761.63ZM1596.36 1941.83C1595.72 1939.15 1593.02 1937.49 1590.33 1938.14C1587.65 1938.78 1585.99 1941.48 1586.64 1944.17L1596.36 1941.83ZM1662.5 2007L1660.63 2011.64L1660.85 2011.73L1661.09 2011.8L1662.5 2007ZM1882.88 2021.6L1883.76 2026.52L1883.76 2026.52L1882.88 2021.6ZM1969.1 1957.25L1973.84 1958.84L1973.84 1958.84L1969.1 1957.25ZM1994.42 1866.36L1999.41 1866.77L1999.41 1866.77L1994.42 1866.36ZM1999.42 1775C1999.42 1772.24 1997.18 1770 1994.42 1770C1991.66 1770 1989.42 1772.24 1989.42 1775H1999.42ZM1013.99 1955.89C1013.93 1953.13 1011.65 1950.94 1008.89 1951C1006.13 1951.06 1003.94 1953.35 1004 1956.11L1013.99 1955.89ZM1035.5 2018L1037.54 2013.44L1037.54 2013.44L1035.5 2018ZM1097.45 2001.76L1100.8 2005.47L1100.8 2005.47L1097.45 2001.76ZM1108.92 1997.61C1111.16 1995.99 1111.67 1992.87 1110.05 1990.63C1108.43 1988.39 1105.31 1987.88 1103.07 1989.5L1108.92 1997.61ZM1231.8 2022.45C1230.39 2020.08 1227.33 2019.29 1224.95 2020.7C1222.58 2022.11 1221.79 2025.17 1223.2 2027.55L1231.8 2022.45ZM1290.21 2055.96L1292.61 2060.35L1292.61 2060.35L1290.21 2055.96ZM1311.38 2042.77L1316.08 2044.49L1316.08 2044.49L1311.38 2042.77ZM1319.5 2034.02C1320.72 2031.54 1319.71 2028.54 1317.23 2027.32C1314.75 2026.1 1311.76 2027.12 1310.53 2029.59L1319.5 2034.02ZM1320.38 2027.4C1318.34 2025.53 1315.18 2025.67 1313.31 2027.7C1311.45 2029.74 1311.59 2032.9 1313.62 2034.77L1320.38 2027.4ZM1527 2049L1529.9 2053.07L1529.9 2053.07L1527 2049ZM1596.44 1947.3C1596.88 1944.57 1595.02 1942 1592.3 1941.56C1589.57 1941.12 1587.01 1942.98 1586.56 1945.7L1596.44 1947.3ZM1377.31 980.174C1378.26 982.767 1381.13 984.099 1383.72 983.149C1386.31 982.199 1387.65 979.327 1386.7 976.734L1377.31 980.174ZM1321.12 911.851L1324.63 908.297L1324.63 908.297L1321.12 911.851ZM1155.81 810.631L1154.56 815.472L1154.56 815.472L1155.81 810.631ZM868.345 815.013L870.393 819.574L870.393 819.574L868.345 815.013ZM726.925 989.408L731.568 991.264L731.568 991.264L726.925 989.408ZM717.292 1161.39L712.356 1162.19L712.356 1162.19L717.292 1161.39ZM748.119 1262.39L745.065 1266.35L745.065 1266.35L748.119 1262.39ZM857.812 1294.97C860.558 1295.26 863.015 1293.26 863.299 1290.51C863.583 1287.77 861.587 1285.31 858.84 1285.03L857.812 1294.97ZM857.255 1294.94C859.985 1294.53 861.86 1291.98 861.443 1289.25C861.026 1286.52 858.475 1284.64 855.746 1285.06L857.255 1294.94ZM627.188 1363.42L630.507 1367.16L630.507 1367.16L627.188 1363.42ZM563.569 1453.1L568.286 1454.75L563.569 1453.1ZM552.045 1622.08L557.026 1621.64L552.045 1622.08ZM780 1811C782.762 1811 785 1808.76 785 1806C785 1803.24 782.762 1801 780 1801V1811ZM779.515 1811C782.276 1811 784.515 1808.77 784.515 1806C784.516 1803.24 782.277 1801 779.516 1801L779.515 1811ZM715.82 1862.47L710.942 1861.38L715.82 1862.47ZM756.913 1957.55L759.939 1953.57L756.913 1957.55ZM945.156 2005.27L947.029 2009.91L947.029 2009.91L945.156 2005.27ZM1013.01 1957.87C1014.49 1955.54 1013.8 1952.45 1011.47 1950.97C1009.14 1949.49 1006.05 1950.18 1004.57 1952.51L1013.01 1957.87ZM1264.09 1602C1264.39 1599.26 1262.41 1596.79 1259.66 1596.49C1256.92 1596.19 1254.45 1598.17 1254.15 1600.92L1264.09 1602ZM1211.01 1717.53C1209.68 1719.95 1210.56 1722.99 1212.98 1724.33C1215.4 1725.66 1218.44 1724.77 1219.77 1722.35L1211.01 1717.53ZM1132.26 1787.37C1132.11 1784.61 1129.74 1782.5 1126.99 1782.66C1124.23 1782.81 1122.12 1785.18 1122.28 1787.93L1132.26 1787.37ZM1153.34 1828.67L1149.75 1832.15L1149.75 1832.15L1153.34 1828.67ZM1200.44 1850.14L1199.79 1855.1L1199.79 1855.1L1200.44 1850.14ZM1262.56 1834.81C1264.53 1832.88 1264.57 1829.71 1262.64 1827.74C1260.71 1825.76 1257.55 1825.73 1255.57 1827.66L1262.56 1834.81ZM1135.76 1479.45C1136.01 1476.7 1133.98 1474.27 1131.23 1474.02C1128.48 1473.77 1126.05 1475.8 1125.8 1478.55L1135.76 1479.45ZM1108.24 1545.63C1107.4 1548.26 1108.85 1551.08 1111.48 1551.91C1114.12 1552.75 1116.93 1551.3 1117.77 1548.67L1108.24 1545.63ZM1432.73 1547.33C1432.91 1544.58 1430.83 1542.19 1428.07 1542.01C1425.32 1541.83 1422.94 1543.91 1422.75 1546.67L1432.73 1547.33ZM1402.2 1631.52C1401.42 1634.17 1402.94 1636.94 1405.59 1637.72C1408.24 1638.5 1411.02 1636.99 1411.8 1634.34L1402.2 1631.52ZM868.485 1398.39C868.698 1395.63 866.639 1393.23 863.886 1393.02C861.133 1392.8 858.728 1394.86 858.515 1397.61L868.485 1398.39ZM1165 2009L1166.06 2004.11L1166.06 2004.11L1165 2009ZM1736.32 1439.67C1735.59 1437.01 1732.83 1435.45 1730.17 1436.18C1727.51 1436.91 1725.95 1439.67 1726.68 1442.33L1736.32 1439.67ZM1642.48 2453.93C1641.3 2456.43 1642.37 2459.41 1644.87 2460.58C1647.37 2461.76 1650.35 2460.69 1651.52 2458.19L1642.48 2453.93ZM1658.96 2406.58L1663.81 2407.8L1658.96 2406.58ZM1671.86 2361.09L1676.72 2362.23L1676.72 2362.23L1671.86 2361.09ZM1678.77 2335.06L1676.2 2330.77L1676.2 2330.77L1678.77 2335.06ZM1698.59 2391.22L1693.74 2392.45L1693.74 2392.45L1698.59 2391.22ZM1707.95 2439.3C1709.19 2441.77 1712.19 2442.77 1714.66 2441.54C1717.13 2440.3 1718.13 2437.3 1716.9 2434.83L1707.95 2439.3ZM1651.26 2394.9C1648.5 2394.9 1646.26 2397.14 1646.26 2399.9C1646.26 2402.66 1648.5 2404.9 1651.26 2404.9V2394.9ZM1699.53 2399.9L1698.25 2395.06L1698.25 2395.06L1699.53 2399.9ZM1720.38 2398.93C1722.92 2397.85 1724.1 2394.91 1723.01 2392.37C1721.92 2389.83 1718.98 2388.65 1716.44 2389.74L1720.38 2398.93ZM1773.01 2369.68C1775.77 2369.68 1778.01 2367.45 1778.01 2364.68C1778.01 2361.92 1775.77 2359.68 1773.01 2359.68V2369.68ZM1747.24 2374.64L1750.58 2370.92L1747.24 2374.64ZM1785.6 2377.28L1787.18 2372.53L1785.6 2377.28ZM1759.03 2401.98C1757.79 2399.51 1754.79 2398.51 1752.32 2399.75C1749.85 2400.98 1748.85 2403.99 1750.09 2406.46L1759.03 2401.98ZM1804.71 2369.96C1803.15 2367.68 1800.04 2367.1 1797.76 2368.66C1795.48 2370.22 1794.9 2373.33 1796.46 2375.61L1804.71 2369.96ZM1813.45 2370.69L1816.19 2374.87L1816.19 2374.87L1813.45 2370.69ZM1815.39 2356.18L1811.04 2358.63L1811.04 2358.63L1815.39 2356.18ZM1795.4 2362.64L1800.4 2362.7L1795.4 2362.64ZM1804.39 2393.4L1800.92 2397L1800.92 2397L1804.39 2393.4ZM1831.47 2402.56L1829.34 2398.04L1829.34 2398.04L1831.47 2402.56ZM1849.35 2373.05L1854.28 2373.85L1854.28 2373.85L1849.35 2373.05ZM1849.9 2321.26L1854.88 2320.8L1854.88 2320.8L1849.9 2321.26ZM1848.52 2305.15L1843.53 2305.57L1843.53 2305.57L1848.52 2305.15ZM1855.74 2348.96L1850.77 2349.57L1850.77 2349.57L1855.74 2348.96ZM1859.8 2384.55L1854.93 2385.68L1854.93 2385.68L1859.8 2384.55ZM1864.87 2393.68L1862.63 2389.2L1862.63 2389.2L1864.87 2393.68ZM1879.62 2374.76L1875.36 2372.14L1875.36 2372.14L1879.62 2374.76ZM1897.09 2315.25L1892.11 2314.71L1892.11 2314.71L1897.09 2315.25ZM1896.77 2284.32L1891.89 2285.4L1891.89 2285.4L1896.77 2284.32ZM1891.98 2282.37L1888.19 2279.12L1888.19 2279.12L1891.98 2282.37ZM1890.45 2329.38L1895.29 2328.1L1895.29 2328.1L1890.45 2329.38ZM1913.78 2398.68L1909.01 2400.15L1909.01 2400.15L1913.78 2398.68ZM1927.08 2443.22L1922.33 2444.78L1922.33 2444.78L1927.08 2443.22ZM1930.38 2456.2L1925.6 2457.67L1925.6 2457.67L1930.38 2456.2ZM1931.66 2453.18L1936.54 2454.3L1936.54 2454.3L1931.66 2453.18ZM1934.06 2437L1939.04 2437.39L1939.04 2437.39L1934.06 2437ZM1924.1 2375.1L1928.8 2373.4L1928.8 2373.4L1924.1 2375.1ZM1909.69 2349.86L1913.13 2346.24L1913.13 2346.24L1909.69 2349.86ZM1903.58 2346.95L1900.66 2342.89L1900.66 2342.89L1903.58 2346.95ZM1907.33 2346.67L1907.09 2341.67L1907.09 2341.67L1907.33 2346.67ZM1916.98 2345.7L1916.1 2340.77L1916.1 2340.77L1916.98 2345.7ZM1941.98 2337.16L1944.55 2341.45L1944.55 2341.45L1941.98 2337.16ZM1970.72 2312.09C1971.63 2309.48 1970.27 2306.63 1967.66 2305.71C1965.06 2304.79 1962.2 2306.16 1961.29 2308.76L1970.72 2312.09ZM1708.86 2506.47C1708.07 2503.82 1705.29 2502.31 1702.64 2503.1C1699.99 2503.89 1698.48 2506.67 1699.27 2509.32L1708.86 2506.47ZM1720.23 2574.02L1715.32 2574.97L1720.23 2574.02ZM1724.53 2596.85L1729.39 2595.7L1729.39 2595.7L1724.53 2596.85ZM1723.14 2593.3L1718.49 2595.13L1718.49 2595.13L1723.14 2593.3ZM1713.27 2569.47L1708.5 2570.99L1708.5 2570.99L1713.27 2569.47ZM1710.69 2530.15L1705.73 2529.47L1705.73 2529.47L1710.69 2530.15ZM1729.99 2498.85L1729.87 2493.85L1729.99 2498.85ZM1740.83 2523.69L1736.11 2522.05L1736.11 2522.05L1740.83 2523.69ZM1719.52 2529.5C1717.18 2528.03 1714.09 2528.73 1712.62 2531.06C1711.14 2533.4 1711.84 2536.48 1714.18 2537.96L1719.52 2529.5ZM1785.86 2504.18C1788.55 2504.8 1791.23 2503.12 1791.85 2500.43C1792.48 2497.74 1790.8 2495.06 1788.11 2494.43L1785.86 2504.18ZM1770.57 2498.78L1772.29 2503.47L1772.29 2503.47L1770.57 2498.78ZM1754.25 2522.84L1749.27 2523.27L1754.25 2522.84ZM1791.59 2517.82L1786.67 2516.93L1786.67 2516.93L1791.59 2517.82ZM1790.82 2503.57L1795.48 2501.75L1795.48 2501.75L1790.82 2503.57ZM1791.99 2504.37L1793.73 2499.68L1793.73 2499.68L1791.99 2504.37ZM1798 2504.22L1799.45 2509.01L1799.45 2509.01L1798 2504.22ZM1805.38 2500.51L1808.6 2504.34L1808.6 2504.34L1805.38 2500.51ZM1813.39 2492.89L1813.97 2497.86L1813.97 2497.86L1813.39 2492.89ZM1822.43 2543.58L1817.45 2544.07L1817.45 2544.07L1822.43 2543.58ZM1836.1 2498.09L1835.97 2493.09L1836.1 2498.09ZM1857.7 2450.65L1862.69 2450.99L1862.69 2450.99L1857.7 2450.65ZM1859.42 2455.12L1854.46 2455.76L1854.46 2455.76L1859.42 2455.12ZM1865.55 2516.09L1870.43 2515.01L1870.43 2515.01L1865.55 2516.09ZM1880.97 2532.91L1882.94 2537.51L1883.77 2537.16L1884.42 2536.54L1880.97 2532.91ZM1893.19 2504.98L1888.22 2504.4L1888.22 2504.4L1893.19 2504.98ZM1898.81 2507.9L1894.23 2509.91L1894.23 2509.91L1898.81 2507.9ZM1901.59 2515.2L1906.36 2513.72L1906.36 2513.72L1901.59 2515.2ZM1903.12 2520.41L1907.55 2522.72L1907.55 2522.72L1903.12 2520.41ZM1901.12 2511.06L1905.96 2509.81L1905.96 2509.81L1901.12 2511.06ZM1897.56 2496.98L1892.67 2498.04L1892.67 2498.04L1897.56 2496.98ZM1906.59 2488.87L1907.86 2493.71L1907.86 2493.71L1906.59 2488.87ZM1921.13 2480.73L1923.82 2484.94L1923.82 2484.94L1921.13 2480.73ZM1925.52 2477.61L1925.64 2482.61L1925.52 2477.61ZM1918.92 2487.95L1923.72 2489.34L1923.72 2489.34L1918.92 2487.95ZM1917.2 2512.9L1912.23 2513.4L1912.23 2513.4L1917.2 2512.9ZM1933.94 2490.59L1928.94 2490.47L1928.94 2490.47L1933.94 2490.59ZM1930.19 2480.51L1934.34 2477.72L1934.34 2477.72L1930.19 2480.51ZM1939.38 2505.29L1939.26 2500.29L1939.38 2505.29ZM1955.69 2480.71L1950.95 2479.1L1950.95 2479.1L1955.69 2480.71ZM1958.51 2468.75L1963.46 2469.47L1963.46 2469.47L1958.51 2468.75ZM1960.34 2463.26L1955.69 2465.1L1960.34 2463.26ZM1973.22 2505.39L1977.8 2503.39L1977.8 2503.39L1973.22 2505.39ZM1977.84 2509.68L1982.16 2512.2L1982.16 2512.2L1977.84 2509.68ZM1983.25 2487.08L1978.27 2486.55L1978.27 2486.55L1983.25 2487.08ZM1985.71 2450.34L1980.72 2450.14L1980.72 2450.14L1985.71 2450.34ZM1988.26 2442.24L1983.27 2442.55L1983.28 2442.64L1983.29 2442.74L1988.26 2442.24ZM1991.29 2459.59L1996.2 2458.66L1996.2 2458.66L1991.29 2459.59ZM1997.74 2487.61L2002.57 2486.33L2002.57 2486.33L1997.74 2487.61ZM2003.21 2501.17L2006.95 2497.85L2006.95 2497.85L2003.21 2501.17ZM2036.7 2467.71C2038.37 2465.51 2037.94 2462.38 2035.74 2460.71C2033.54 2459.04 2030.41 2459.46 2028.74 2461.66L2036.7 2467.71ZM1961.62 2424.9C1958.87 2425.08 1956.78 2427.46 1956.96 2430.22C1957.14 2432.97 1959.52 2435.06 1962.28 2434.88L1961.62 2424.9ZM2035.7 2418.92C2038.37 2418.21 2039.96 2415.47 2039.25 2412.8C2038.54 2410.13 2035.8 2408.54 2033.13 2409.25L2035.7 2418.92ZM1968.22 2440.73C1968.15 2437.97 1965.86 2435.79 1963.1 2435.86C1960.34 2435.92 1958.15 2438.22 1958.22 2440.98L1968.22 2440.73ZM1958.31 2444.71C1958.38 2447.47 1960.68 2449.65 1963.44 2449.59C1966.2 2449.52 1968.38 2447.22 1968.31 2444.46L1958.31 2444.71ZM1833.84 2467.93C1831.08 2468 1828.9 2470.29 1828.97 2473.05C1829.04 2475.81 1831.33 2477.99 1834.09 2477.92L1833.84 2467.93ZM1904.9 2472.36C1907.6 2471.8 1909.34 2469.15 1908.78 2466.45C1908.22 2463.74 1905.57 2462 1902.87 2462.57L1904.9 2472.36ZM2036.03 27.7602C2111.76 95.6094 2184.53 162.527 2257.33 229.469C2330.13 296.405 2402.95 363.365 2478.73 431.261L2485.4 423.813C2409.68 355.967 2336.9 289.05 2264.1 222.108C2191.31 155.172 2118.49 88.2114 2042.7 20.3122L2036.03 27.7602ZM2478.73 431.261L2532.58 479.505L2539.25 472.057L2485.4 423.813L2478.73 431.261ZM2532.58 479.505C2539.8 485.977 2543.42 489.395 2544.92 491.434C2545.71 492.514 2545.08 492.146 2545.21 490.973C2545.38 489.509 2546.41 489.037 2545.83 489.417C2543.78 490.773 2531.59 494.541 2520.54 506.88L2527.98 513.553C2538.11 502.246 2545.83 501.405 2551.34 497.76C2552.66 496.889 2554.81 495.142 2555.15 492.075C2555.46 489.299 2554.07 486.999 2552.98 485.516C2550.71 482.429 2546.1 478.194 2539.25 472.057L2532.58 479.505ZM2520.54 506.88C2510.54 518.036 2498.5 531.327 2485.72 542.894C2472.85 554.538 2459.68 564.006 2447.5 567.983L2450.6 577.489C2464.84 572.84 2479.29 562.195 2492.43 550.309C2505.65 538.347 2518.01 524.691 2527.98 513.553L2520.54 506.88ZM2447.5 567.983C2439 570.758 2427.76 577.06 2418.71 585.13C2409.88 593.013 2401.85 603.75 2402.49 615.532L2412.48 614.985C2412.1 607.983 2417.06 600.003 2425.37 592.592C2433.47 585.369 2443.52 579.802 2450.6 577.489L2447.5 567.983ZM2402.49 615.532C2402.98 624.357 2402.06 629.817 2400.59 633.011C2399.29 635.819 2397.59 636.864 2395.36 637.183C2392.67 637.568 2388.82 636.906 2383.65 634.935C2378.6 633.004 2372.84 630.04 2366.55 626.468L2361.61 635.164C2368.03 638.81 2374.31 642.072 2380.09 644.277C2385.76 646.444 2391.55 647.831 2396.78 647.083C2402.47 646.269 2406.98 642.997 2409.66 637.212C2412.16 631.813 2413 624.403 2412.48 614.985L2402.49 615.532ZM2366.55 626.468C2342.18 612.631 2319.46 593.08 2297.35 572.012C2275.46 551.152 2253.78 528.401 2232.4 509.248L2225.73 516.696C2247.06 535.804 2267.97 557.828 2290.45 579.251C2312.72 600.465 2336.15 620.706 2361.61 635.164L2366.55 626.468ZM2232.4 509.248C2147.46 433.144 2063.17 357.088 1981.22 278.318L1974.29 285.528C2056.37 364.43 2140.78 440.589 2225.73 516.696L2232.4 509.248ZM1981.22 278.318C1937.71 236.496 1893.11 192.78 1848.4 152.729L1841.73 160.177C1886.26 200.075 1930.68 243.607 1974.29 285.528L1981.22 278.318ZM1848.4 152.729C1845.44 150.079 1835.66 140.168 1827.04 130.319C1822.74 125.396 1818.86 120.642 1816.31 116.916C1815.01 115.023 1814.21 113.612 1813.83 112.698C1813.63 112.229 1813.66 112.146 1813.68 112.347C1813.69 112.522 1813.76 113.624 1812.86 114.747L1805.06 108.497C1803.71 110.187 1803.61 112.09 1803.72 113.273C1803.83 114.482 1804.21 115.613 1804.59 116.536C1805.37 118.406 1806.63 120.488 1808.06 122.566C1810.95 126.786 1815.13 131.893 1819.52 136.903C1828.28 146.918 1838.36 157.156 1841.73 160.177L1848.4 152.729ZM1812.86 114.747C1817.63 108.798 1826.34 103.183 1836.22 99.1822C1846.08 95.1902 1856.26 93.1511 1863.5 93.6543L1864.2 83.6783C1854.92 83.0338 1843.16 85.5841 1832.47 89.9128C1821.8 94.2327 1811.32 100.669 1805.06 108.497L1812.86 114.747ZM1863.5 93.6543C1868.63 94.0107 1874.5 95.0613 1880.95 96.3464C1887.29 97.6103 1894.21 99.1065 1901.01 100.209C1914.39 102.379 1929.01 103.365 1940.5 97.2145L1935.78 88.3985C1927.52 92.8234 1915.95 92.5012 1902.61 90.3379C1896.05 89.2738 1889.46 87.8471 1882.9 86.5394C1876.45 85.253 1870.03 84.0834 1864.2 83.6783L1863.5 93.6543ZM1940.5 97.2145C1963.56 84.8678 1990.68 64.3015 1999.71 36.3509L1990.2 33.277C1982.41 57.3835 1958.28 76.3511 1935.78 88.3985L1940.5 97.2145ZM1999.71 36.3509C2000.27 34.631 2000.77 32.475 2001.26 30.3727C2001.77 28.1843 2002.3 25.8964 2002.95 23.6072C2004.28 18.8612 2005.88 14.9608 2007.97 12.6683C2008.92 11.6137 2009.86 11.0393 2010.82 10.7826C2011.78 10.5269 2013.18 10.4724 2015.27 11.1644C2019.67 12.6237 2026.27 17.1226 2035.67 27.4094L2043.05 20.663C2033.35 10.0475 2025.32 3.96193 2018.42 1.6722C2014.85 0.489676 2011.43 0.269613 2008.24 1.12185C2005.05 1.97307 2002.53 3.78017 2000.56 5.94531C1996.8 10.0924 1994.7 15.9845 1993.32 20.9018C1992.61 23.4442 1992.02 25.9555 1991.52 28.0987C1991 30.3281 1990.6 32.0359 1990.2 33.277L1999.71 36.3509ZM185.09 2457.56C275.317 2506.77 361.324 2562.92 447.577 2619.23C533.775 2675.51 620.217 2731.94 711.063 2781.49L715.851 2772.71C625.411 2723.38 539.296 2667.17 453.044 2610.86C366.847 2554.58 280.51 2498.21 189.879 2448.78L185.09 2457.56ZM710.704 2781.27C762.616 2815.51 797.011 2825.17 812.905 2832.73C816.924 2834.64 819.345 2836.21 820.768 2837.71C821.99 2838.99 822.523 2840.25 822.544 2842.07C822.569 2844.18 821.895 2847.2 820.019 2851.78C818.167 2856.29 815.327 2861.89 811.423 2869.05L820.202 2873.84C824.137 2866.62 827.199 2860.62 829.271 2855.57C831.319 2850.58 832.591 2846.07 832.544 2841.95C832.493 2837.55 830.936 2833.88 828.007 2830.81C825.28 2827.95 821.491 2825.74 817.198 2823.7C799.849 2815.45 767.39 2806.68 716.21 2772.93L710.704 2781.27ZM811.423 2869.05C806.431 2878.2 797.618 2888.43 788.24 2899.29C779.103 2909.87 769.417 2921.06 763.713 2931.52L772.492 2936.31C777.574 2926.99 786.44 2916.67 795.809 2905.82C804.938 2895.25 814.585 2884.13 820.202 2873.84L811.423 2869.05ZM763.713 2931.52C757.448 2943 758.428 2954.61 759.373 2964.62C760.355 2975.02 761.248 2983.58 757.318 2991.85L766.349 2996.14C771.674 2984.94 770.251 2973.45 769.329 2963.68C768.368 2953.51 767.856 2944.81 772.492 2936.31L763.713 2931.52ZM757.318 2991.85C753.518 2999.84 751.318 3006.77 749.67 3012.23C748.832 3015.01 748.186 3017.25 747.53 3019.17C746.871 3021.1 746.322 3022.34 745.809 3023.15C745.339 3023.89 745.062 3024.01 744.996 3024.04C744.9 3024.08 744.436 3024.25 743.161 3024.05C740.338 3023.6 735.688 3021.67 727.679 3017.3L722.891 3026.08C730.784 3030.39 736.835 3033.16 741.573 3033.92C744.079 3034.33 746.611 3034.24 748.984 3033.21C751.386 3032.16 753.049 3030.4 754.251 3028.51C755.41 3026.68 756.263 3024.54 756.993 3022.4C757.727 3020.25 758.459 3017.73 759.245 3015.12C760.845 3009.81 762.874 3003.45 766.349 2996.14L757.318 2991.85ZM376.291 2825.64C349.835 2811.21 324.388 2794.57 299.013 2777.4C273.697 2760.27 248.368 2742.54 222.426 2726.14L217.083 2734.6C242.849 2750.88 267.917 2768.43 293.408 2785.68C318.839 2802.89 344.61 2819.75 371.503 2834.42L376.291 2825.64ZM222.426 2726.14C187.262 2703.92 153.064 2678.61 118.392 2653.76C83.7972 2628.96 48.7897 2604.67 12.3288 2584.78L7.54035 2593.56C43.4192 2613.13 77.9984 2637.11 112.567 2661.89C147.059 2686.61 181.6 2712.17 217.083 2734.6L222.426 2726.14ZM12.3288 2584.78C9.6599 2583.33 10.3391 2582.8 10.3968 2583.79C10.4464 2584.64 9.88341 2584.31 11.7574 2582.81C15.2217 2580.03 22.4322 2576.95 31.4568 2574.08C40.2489 2571.29 50.0389 2568.91 58.0453 2567.3C62.0459 2566.5 65.5524 2565.89 68.2265 2565.52C69.5676 2565.34 70.653 2565.22 71.4626 2565.16C72.4069 2565.09 72.6135 2565.13 72.4194 2565.1L73.9247 2555.22C72.896 2555.06 71.6885 2555.11 70.7269 2555.19C69.6305 2555.27 68.3181 2555.42 66.8569 2555.62C63.9267 2556.02 60.2114 2556.67 56.0731 2557.5C47.8019 2559.16 37.6463 2561.62 28.4279 2564.55C19.442 2567.41 10.5772 2570.94 5.50448 2575C3.11002 2576.92 0.16313 2580.07 0.413775 2584.37C0.672549 2588.81 4.13783 2591.7 7.54035 2593.56L12.3288 2584.78ZM72.4194 2565.1C84.3133 2566.91 92.9314 2562.72 100.244 2558.28C107.806 2553.68 113.264 2549.48 120.663 2548.18L118.926 2538.33C109.132 2540.06 101.429 2545.86 95.0521 2549.73C88.4264 2553.75 82.3293 2556.5 73.9247 2555.22L72.4194 2565.1ZM120.663 2548.18C126.504 2547.15 130.391 2543.09 132.978 2538.35C135.531 2533.67 137.182 2527.69 138.415 2521.4C139.66 2515.04 140.553 2507.94 141.409 2500.84C142.273 2493.67 143.1 2486.5 144.219 2479.73C145.339 2472.95 146.717 2466.81 148.606 2461.74C150.512 2456.63 152.779 2453.05 155.4 2450.91C157.827 2448.93 160.922 2447.89 165.424 2448.53C170.143 2449.2 176.429 2451.76 184.694 2457.32L190.275 2449.02C181.397 2443.05 173.658 2439.6 166.839 2438.63C159.802 2437.62 153.846 2439.28 149.08 2443.16C144.507 2446.89 141.438 2452.34 139.236 2458.25C137.017 2464.2 135.514 2471.07 134.353 2478.1C133.189 2485.14 132.333 2492.58 131.481 2499.64C130.62 2506.78 129.766 2513.53 128.602 2519.48C127.426 2525.48 126.007 2530.25 124.198 2533.56C122.423 2536.82 120.658 2538.02 118.926 2538.33L120.663 2548.18ZM727.679 3017.3L376.291 2825.64L371.503 2834.42L722.891 3026.08L727.679 3017.3ZM291.001 330.722C293.011 474.583 310.802 597.946 331.062 720.968C351.33 844.036 374.042 966.627 386.061 1109.41L396.026 1108.57C383.964 965.287 361.16 842.189 340.929 719.343C320.69 596.452 303 473.68 301 330.583L291.001 330.722ZM386.061 1109.41C414.163 1443.24 420.979 1774.68 418.039 2109.34L428.038 2109.43C430.98 1774.59 424.163 1442.81 396.026 1108.57L386.061 1109.41ZM418.039 2109.34C417.639 2154.81 413.81 2200.18 409.867 2245.84C405.929 2291.44 401.877 2337.34 401.101 2383.53L411.099 2383.7C411.869 2337.92 415.885 2292.38 419.83 2246.7C423.769 2201.09 427.635 2155.34 428.038 2109.43L418.039 2109.34ZM401.101 2383.53C400.807 2401.04 396.719 2418.2 392.536 2435.96C388.397 2453.52 384.162 2471.69 384.162 2490.31H394.162C394.162 2473.03 398.091 2455.99 402.269 2438.25C406.402 2420.71 410.784 2402.47 411.099 2383.7L401.101 2383.53ZM384.162 2490.31C384.162 2543.65 386.837 2596.7 383.7 2649.44L393.682 2650.04C396.841 2596.93 394.162 2542.95 394.162 2490.31H384.162ZM383.7 2649.44C382.956 2661.95 381 2674.13 379.174 2686.7C377.362 2699.17 375.693 2711.96 375.693 2725.2H385.693C385.693 2712.74 387.263 2700.58 389.07 2688.14C390.863 2675.79 392.906 2663.08 393.682 2650.04L383.7 2649.44ZM375.693 2725.2C375.693 2738.03 385.126 2746.24 396.8 2751.39C408.572 2756.59 424.198 2759.49 440.159 2761.16C456.213 2762.84 473.041 2763.32 487.425 2763.48C502.004 2763.64 513.705 2763.48 520.141 2763.86L520.728 2753.87C513.985 2753.48 501.628 2753.63 487.535 2753.48C473.246 2753.32 456.786 2752.85 441.2 2751.22C425.52 2749.57 411.153 2746.8 400.841 2742.25C390.432 2737.65 385.693 2732.01 385.693 2725.2H375.693ZM520.141 2763.86C624.229 2769.98 728.938 2767.67 832.783 2769.14L832.925 2759.14C728.579 2757.66 624.534 2759.98 520.728 2753.87L520.141 2763.86ZM832.783 2769.14C1062.96 2772.41 1293.57 2781.92 1524.01 2782.93L1524.06 2772.93C1293.51 2771.92 1063.63 2762.41 832.925 2759.14L832.783 2769.14ZM1524.01 2782.93C1673.83 2783.59 1827.92 2776.08 1976.03 2795.06L1977.3 2785.14C1828.38 2766.06 1673.14 2773.59 1524.06 2772.93L1524.01 2782.93ZM1976.03 2795.06C1983.52 2796.02 2004.26 2799.7 2031.69 2804.26C2058.99 2808.8 2092.66 2814.16 2125.64 2818.43C2158.58 2822.68 2191.02 2825.87 2215.79 2826C2228.14 2826.06 2238.89 2825.37 2246.93 2823.56C2250.94 2822.65 2254.58 2821.4 2257.46 2819.63C2260.38 2817.83 2262.91 2815.24 2263.82 2811.61L2254.13 2809.17C2254.05 2809.45 2253.76 2810.16 2252.22 2811.11C2250.65 2812.08 2248.2 2813.02 2244.73 2813.8C2237.8 2815.36 2227.96 2816.06 2215.85 2816C2191.71 2815.87 2159.77 2812.76 2126.92 2808.51C2094.12 2804.27 2060.59 2798.93 2033.33 2794.4C2006.21 2789.89 1985.04 2786.13 1977.3 2785.14L1976.03 2795.06ZM2263.82 2811.61C2272.45 2777.28 2272.89 2739.09 2271.24 2701.27C2269.58 2663.1 2265.86 2625.8 2265.86 2591.73H2255.86C2255.86 2625.99 2259.63 2664.42 2261.25 2701.7C2262.89 2739.32 2262.38 2776.31 2254.13 2809.17L2263.82 2811.61ZM2265.86 2591.73C2265.86 2096.17 2275.98 1599.62 2263.97 1104L2253.98 1104.24C2265.98 1599.71 2255.86 2095.89 2255.86 2591.73H2265.86ZM2263.97 1104C2257.14 821.881 2251.3 774.848 2251.3 492.889H2241.3C2241.3 775.002 2247.15 822.397 2253.98 1104.24L2263.97 1104ZM2251.3 492.889C2251.3 491.083 2251.65 487.311 2252.29 481.741C2252.92 476.28 2253.79 469.413 2254.77 461.591C2256.71 445.989 2259.06 426.709 2260.63 407.945C2262.19 389.248 2263 370.779 2261.79 356.88C2261.19 349.99 2260.07 343.776 2258.03 339.139C2256.02 334.558 2252.39 330.073 2246.3 330.073V340.073C2246.45 340.073 2247.48 339.982 2248.88 343.158C2250.25 346.278 2251.26 351.184 2251.83 357.745C2252.96 370.749 2252.21 388.508 2250.66 407.114C2249.11 425.654 2246.79 444.753 2244.84 460.354C2243.87 468.134 2242.99 475.075 2242.36 480.597C2241.74 486.009 2241.3 490.394 2241.3 492.889H2251.3ZM2246.3 330.073C2238.09 330.073 2228.52 328.539 2217.13 326.109C2205.62 323.653 2193.08 320.477 2178.24 317.158C2148.9 310.599 2112.69 304.001 2068 304.001L2068 314.001C2111.67 314.001 2147.09 320.44 2176.06 326.917C2190.36 330.116 2203.65 333.457 2215.04 335.889C2226.57 338.348 2236.99 340.073 2246.3 340.073V330.073ZM2068 304.001C1867.03 303.999 1936.74 299.503 1829.66 304.006L1830.08 313.998C1937.11 309.496 1865.81 313.999 2068 314.001L2068 304.001ZM1829.66 304.006C1674.96 310.513 1519.75 303.16 1364.47 305.219L1364.6 315.219C1518.82 313.173 1675.44 320.501 1830.08 313.998L1829.66 304.006ZM1364.47 305.219C1282.26 306.31 1200.55 309.863 1118.89 313.139C1037.2 316.417 955.549 319.418 873.318 319.418V329.418C955.77 329.418 1037.6 326.409 1119.29 323.131C1201.01 319.853 1282.56 316.307 1364.6 315.219L1364.47 305.219ZM873.318 319.418C820.055 319.418 785.567 321.751 751.185 324.077C716.861 326.399 682.643 328.714 629.727 328.714V338.714C682.99 338.714 717.478 336.38 751.86 334.054C786.185 331.732 820.402 329.418 873.318 329.418V319.418ZM629.727 328.714C612.535 328.714 595.238 329.484 572.272 330.247C549.264 331.011 520.387 331.775 479.825 331.775V341.775C520.526 341.775 549.517 341.008 572.603 340.241C595.731 339.473 612.754 338.714 629.727 338.714V328.714ZM479.997 331.778C435.331 330.237 401.159 334.008 372.715 335.481C344.16 336.96 321.349 336.135 297.98 326.061L294.021 335.244C319.573 346.26 344.295 346.966 373.232 345.468C402.281 343.964 435.561 340.251 479.653 341.772L479.997 331.778ZM655.432 2765.17C635.678 2648.13 673.855 2486.3 748.094 2356.22C822.474 2225.9 931.638 2129.73 1052.58 2139.97L1053.42 2130.01C926.368 2119.25 814.281 2220.08 739.409 2351.27C664.398 2482.7 625.324 2646.87 645.572 2766.83L655.432 2765.17ZM1049.1 2138.12C1058.05 2149.27 1066.8 2161.12 1076.25 2171.32C1085.79 2181.61 1096.41 2190.66 1109.57 2196.39C1136.18 2207.97 1171.28 2205.2 1225.32 2176.92L1220.68 2168.06C1167.72 2195.78 1136.08 2197.01 1113.56 2187.22C1102.15 2182.25 1092.62 2174.28 1083.58 2164.52C1074.46 2154.67 1066.21 2143.46 1056.9 2131.86L1049.1 2138.12ZM1223 2177.49C1374.29 2177.49 1458.55 2288.13 1505.17 2418.24C1551.76 2548.26 1560 2695.97 1560 2765.99H1570C1570 2695.51 1561.74 2546.47 1514.58 2414.87C1467.46 2283.35 1380.71 2167.49 1223 2167.49V2177.49ZM1057.88 2133.73C1060.21 2127.8 1063.17 2122.05 1066.3 2116.07C1069.38 2110.17 1072.66 2104.01 1075.36 2097.58L1066.14 2093.71C1063.63 2099.66 1060.58 2105.42 1057.44 2111.44C1054.32 2117.38 1051.13 2123.57 1048.57 2130.07L1057.88 2133.73ZM1075.36 2097.58C1089.11 2064.89 1102.21 2031.14 1110.85 1996.35L1101.14 1993.94C1092.7 2027.96 1079.84 2061.14 1066.14 2093.71L1075.36 2097.58ZM1221.49 2017.56C1221.58 2024.4 1220.29 2034.46 1218.46 2046.86C1216.66 2059.09 1214.38 2073.36 1212.66 2088.13C1209.25 2117.47 1207.85 2150.04 1217.35 2174.32L1226.66 2170.68C1218.16 2148.96 1219.18 2118.65 1222.6 2089.29C1224.29 2074.72 1226.53 2060.7 1228.36 2048.31C1230.15 2036.1 1231.59 2025.22 1231.49 2017.44L1221.49 2017.56ZM859.693 1599.94C848.312 1588.55 831.145 1582.12 813.928 1579.47C796.649 1576.8 778.536 1577.82 764.663 1582.08L767.597 1591.64C779.792 1587.89 796.354 1586.88 812.404 1589.35C828.514 1591.84 843.327 1597.71 852.622 1607.01L859.693 1599.94ZM764.663 1582.08C736.284 1590.78 723.692 1611.57 715.457 1636.76L724.962 1639.87C732.742 1616.07 743.713 1598.96 767.597 1591.64L764.663 1582.08ZM715.457 1636.76C709.914 1653.72 707.398 1670.87 706.555 1688.42L716.544 1688.9C717.356 1671.99 719.766 1655.76 724.962 1639.87L715.457 1636.76ZM706.555 1688.42C706.381 1692.05 705.761 1697.42 706.108 1702.17C706.473 1707.18 707.928 1712.72 712.595 1717.02L719.366 1709.66C717.311 1707.77 716.351 1705.14 716.081 1701.44C715.793 1697.48 716.318 1693.61 716.544 1688.9L706.555 1688.42ZM712.595 1717.02C727.786 1730.99 748.47 1734.26 766.3 1736.91L767.773 1727.02C749.465 1724.29 731.953 1721.24 719.366 1709.66L712.595 1717.02ZM766.3 1736.91C786.548 1739.93 811.034 1743.4 832.489 1737.6L829.878 1727.95C810.781 1733.11 788.412 1730.1 767.773 1727.02L766.3 1736.91ZM832.489 1737.6C845.132 1734.18 858.588 1728.46 869.205 1719.71L862.848 1711.99C853.682 1719.54 841.674 1724.76 829.878 1727.95L832.489 1737.6ZM869.205 1719.71C872.005 1717.41 873.149 1714.53 873.813 1712.24C874.119 1711.18 874.395 1709.96 874.597 1709.15C874.827 1708.23 875.038 1707.49 875.301 1706.84L866.016 1703.12C865.499 1704.42 865.158 1705.67 864.895 1706.73C864.604 1707.89 864.446 1708.63 864.206 1709.46C863.779 1710.94 863.387 1711.55 862.848 1711.99L869.205 1719.71ZM1667.28 1806.58C1684.07 1829.59 1709.78 1853.83 1738.37 1866.14C1767.22 1878.58 1799.44 1878.96 1827.55 1853.2L1820.79 1845.82C1796.3 1868.28 1768.53 1868.26 1742.33 1856.96C1715.85 1845.55 1691.44 1822.73 1675.36 1800.68L1667.28 1806.58ZM1827.55 1853.2C1842.19 1839.78 1853.38 1821.1 1858.02 1801.66C1862.66 1782.21 1860.8 1761.54 1848.6 1744.77L1840.52 1750.66C1850.57 1764.47 1852.44 1781.93 1848.29 1799.34C1844.13 1816.78 1834 1833.72 1820.79 1845.82L1827.55 1853.2ZM1848.6 1744.77C1832.71 1722.92 1807.57 1708.59 1784.15 1702.92L1781.8 1712.64C1803.34 1717.86 1826.26 1731.05 1840.52 1750.66L1848.6 1744.77ZM1784.15 1702.92C1771.18 1699.79 1758.71 1701.09 1746.69 1704.11C1734.84 1707.09 1722.85 1711.91 1711.37 1715.92L1714.66 1725.36C1726.77 1721.13 1737.85 1716.64 1749.13 1713.81C1760.24 1711.02 1770.96 1710.02 1781.8 1712.64L1784.15 1702.92ZM861.644 1405.49C1033.87 1417.79 1105.77 1372.78 1133.89 1318.57C1147.79 1291.77 1150.57 1263.42 1150.16 1240.26C1149.96 1228.66 1148.95 1218.29 1148.11 1210.03C1147.69 1205.87 1147.32 1202.33 1147.09 1199.38C1146.87 1196.36 1146.83 1194.31 1146.97 1193.05L1137.03 1191.95C1136.78 1194.21 1136.89 1197.07 1137.12 1200.13C1137.36 1203.25 1137.75 1206.97 1138.16 1211.05C1139 1219.27 1139.97 1229.29 1140.16 1240.43C1140.56 1262.75 1137.84 1289.23 1125.01 1313.96C1099.67 1362.82 1033.13 1407.71 862.357 1395.51L861.644 1405.49ZM1250.03 1090.67C1247.64 1095.22 1248.03 1100.53 1249.01 1105.13C1250.01 1109.87 1251.9 1114.98 1253.66 1119.7C1255.48 1124.59 1257.17 1129.08 1258.15 1133.12C1259.15 1137.28 1259.13 1139.96 1258.48 1141.58L1267.76 1145.3C1269.62 1140.67 1268.99 1135.4 1267.87 1130.77C1266.72 1126.02 1264.77 1120.9 1263.03 1116.21C1261.22 1111.35 1259.61 1106.94 1258.79 1103.06C1257.94 1099.06 1258.17 1096.68 1258.88 1095.33L1250.03 1090.67ZM1258.48 1141.58C1253.9 1153.01 1249.38 1165.83 1249.46 1179.32L1259.46 1179.26C1259.39 1167.88 1263.21 1156.64 1267.76 1145.3L1258.48 1141.58ZM1249.46 1179.32C1249.65 1210.41 1270.29 1232.86 1290.93 1251.11L1297.55 1243.62C1277.05 1225.48 1259.62 1205.63 1259.46 1179.26L1249.46 1179.32ZM1290.93 1251.11C1316.62 1273.83 1345.08 1289.88 1380.58 1291.73L1381.1 1281.74C1348.63 1280.05 1322.23 1265.44 1297.55 1243.62L1290.93 1251.11ZM1380.58 1291.73C1401.98 1292.84 1429.42 1291.46 1449.95 1280.58L1445.27 1271.74C1427.24 1281.29 1402.12 1282.84 1381.1 1281.74L1380.58 1291.73ZM1449.95 1280.58C1457.36 1276.65 1463.58 1270.68 1468.87 1265.4L1461.8 1258.33C1456.48 1263.64 1451.2 1268.6 1445.27 1271.74L1449.95 1280.58ZM1468.87 1265.4C1469.78 1264.49 1470.48 1263.64 1470.98 1262.99C1471.41 1262.42 1471.9 1261.71 1471.78 1261.88C1471.77 1261.9 1471.74 1261.93 1471.7 1261.98C1471.67 1262.02 1471.59 1262.13 1471.47 1262.26C1471.41 1262.33 1471.3 1262.45 1471.15 1262.59C1471.04 1262.69 1470.72 1262.99 1470.23 1263.27C1470.02 1263.39 1468.26 1264.44 1466.03 1263.62C1463.33 1262.64 1462.87 1260.14 1462.79 1259.58C1462.69 1258.84 1462.79 1258.26 1462.82 1258.1C1462.86 1257.86 1462.91 1257.67 1462.94 1257.57C1462.99 1257.38 1463.05 1257.23 1463.07 1257.18C1463.09 1257.12 1463.11 1257.07 1463.12 1257.05C1463.13 1257.02 1463.14 1257 1463.14 1257C1463.14 1257 1463.13 1257.01 1463.09 1257.11C1463.05 1257.19 1463 1257.3 1462.94 1257.44C1462.69 1258 1462.3 1258.9 1461.78 1260.26L1471.1 1263.87C1471.56 1262.68 1471.89 1261.93 1472.07 1261.52C1472.12 1261.41 1472.27 1261.08 1472.31 1261C1472.32 1260.96 1472.37 1260.85 1472.42 1260.72C1472.44 1260.66 1472.5 1260.5 1472.56 1260.3C1472.59 1260.2 1472.64 1260.01 1472.68 1259.77C1472.71 1259.6 1472.8 1259.02 1472.71 1258.27C1472.63 1257.72 1472.17 1255.22 1469.46 1254.23C1467.24 1253.42 1465.47 1254.47 1465.27 1254.59C1464.77 1254.87 1464.45 1255.17 1464.33 1255.27C1464.18 1255.41 1464.07 1255.54 1464.01 1255.61C1463.81 1255.83 1463.66 1256.04 1463.66 1256.05C1463.4 1256.4 1462.9 1257.22 1461.8 1258.33L1468.87 1265.4ZM1461.78 1260.26C1454.94 1277.92 1450.8 1297.33 1449.17 1316.01L1459.13 1316.88C1460.69 1299.02 1464.65 1280.54 1471.1 1263.87L1461.78 1260.26ZM1449.17 1316.01C1447.78 1332.02 1454 1348.87 1462.33 1363.93C1470.73 1379.1 1481.64 1393.11 1490.51 1403.65L1498.16 1397.21C1489.45 1386.86 1479.01 1373.42 1471.08 1359.09C1463.09 1344.64 1458 1329.93 1459.13 1316.88L1449.17 1316.01ZM1490.51 1403.65C1515.79 1433.69 1558.78 1445.23 1595.19 1447.81L1595.89 1437.84C1560.39 1435.32 1520.8 1424.12 1498.16 1397.21L1490.51 1403.65ZM1595.19 1447.81C1640.88 1451.05 1686.25 1451.57 1731.89 1445.05L1730.48 1435.15C1685.81 1441.54 1641.22 1441.05 1595.89 1437.84L1595.19 1447.81ZM1140.62 1197.42C1181.98 1204.85 1210.54 1185.47 1229.11 1161.37C1247.52 1137.47 1256.49 1108.56 1259.39 1095.05L1249.61 1092.95C1246.89 1105.63 1238.37 1132.97 1221.19 1155.27C1204.16 1177.37 1179.02 1194.15 1142.38 1187.58L1140.62 1197.42ZM1383.29 979.945C1386.83 968.218 1392.86 952.424 1400.15 937.957C1407.55 923.282 1415.84 910.777 1423.63 904.828L1417.56 896.88C1407.82 904.318 1398.69 918.649 1391.22 933.457C1383.66 948.472 1377.41 964.807 1373.71 977.055L1383.29 979.945ZM1423.63 904.828C1493.04 851.824 1573.24 837.741 1655.15 837.497L1655.12 827.497C1572.15 827.744 1489.43 842.002 1417.56 896.88L1423.63 904.828ZM1655.15 837.497C1671.79 837.448 1689.69 836.479 1707.71 837.382C1725.62 838.278 1742.84 841.017 1757.52 848.075L1761.86 839.063C1745.43 831.164 1726.66 828.318 1708.21 827.394C1689.88 826.476 1671.05 827.45 1655.12 827.497L1655.15 837.497ZM1757.52 848.075C1773.97 855.986 1788.56 871.629 1800.78 890.702C1812.96 909.7 1822.49 931.651 1829.02 951.516L1838.52 948.395C1831.8 927.939 1821.94 905.18 1809.2 885.307C1796.52 865.509 1780.69 848.12 1761.86 839.063L1757.52 848.075ZM1829.02 951.516C1835.96 972.674 1838.91 1002.23 1836.59 1031.11C1834.26 1060.09 1826.7 1087.48 1813.44 1104.81L1821.39 1110.89C1836.34 1091.33 1844.16 1061.7 1846.55 1031.92C1848.96 1002.03 1845.97 971.092 1838.52 948.395L1829.02 951.516ZM1813.44 1104.81C1812.24 1106.39 1811.1 1107.24 1810.56 1107.58L1815.9 1116.04C1817.35 1115.12 1819.4 1113.48 1821.39 1110.89L1813.44 1104.81ZM1810.56 1107.58C1810.4 1107.68 1810.32 1107.72 1810.35 1107.71C1810.35 1107.71 1810.45 1107.66 1810.62 1107.6C1810.69 1107.57 1810.88 1107.5 1811.15 1107.44C1811.28 1107.42 1811.54 1107.36 1811.87 1107.34C1812.07 1107.33 1812.93 1107.26 1813.95 1107.64C1814.52 1107.85 1815.39 1108.3 1816.11 1109.21C1816.9 1110.2 1817.22 1111.35 1817.2 1112.39C1817.18 1114.09 1816.31 1115.18 1816.17 1115.36C1815.71 1115.96 1815.22 1116.3 1815.19 1116.32C1815.04 1116.43 1814.92 1116.5 1814.88 1116.53C1814.82 1116.56 1814.78 1116.58 1814.77 1116.59C1814.73 1116.61 1814.83 1116.56 1815.12 1116.44L1811.34 1107.18C1810.86 1107.38 1810.43 1107.57 1810.06 1107.77C1809.91 1107.85 1809.61 1108.01 1809.29 1108.24C1809.23 1108.29 1808.71 1108.65 1808.24 1109.27C1808.1 1109.45 1807.23 1110.55 1807.2 1112.25C1807.19 1113.3 1807.5 1114.45 1808.29 1115.44C1809.02 1116.35 1809.89 1116.8 1810.46 1117.01C1811.48 1117.39 1812.35 1117.33 1812.56 1117.32C1812.91 1117.29 1813.18 1117.24 1813.32 1117.21C1813.62 1117.14 1813.86 1117.06 1813.98 1117.01C1814.25 1116.92 1814.49 1116.81 1814.67 1116.73C1815.05 1116.54 1815.46 1116.31 1815.9 1116.04L1810.56 1107.58ZM1815.12 1116.44C1815.94 1116.1 1817.82 1115.45 1821.2 1114.64L1818.88 1104.91C1815.16 1105.8 1812.77 1106.6 1811.34 1107.18L1815.12 1116.44ZM1821.2 1114.64C1872.34 1102.44 1935.15 1098.55 1985.74 1111.26L1988.18 1101.56C1935.56 1088.35 1871.04 1092.47 1818.88 1104.91L1821.2 1114.64ZM1985.74 1111.26C2037.81 1124.33 2076.65 1167.49 2092.38 1219.64C2108.09 1271.73 2100.55 1332.2 2060.45 1379.49L2068.08 1385.96C2110.63 1335.77 2118.52 1271.67 2101.96 1216.75C2085.42 1161.9 2044.29 1115.64 1988.18 1101.56L1985.74 1111.26ZM2060.45 1379.49C2031.76 1413.33 1986.16 1434.34 1945.93 1436.46L1946.45 1446.44C1989.33 1444.19 2037.54 1421.98 2068.08 1385.96L2060.45 1379.49ZM1945.93 1436.46C1944.88 1436.51 1943.94 1436.56 1943.09 1436.59L1943.52 1446.58C1944.4 1446.55 1945.37 1446.5 1946.45 1446.44L1945.93 1436.46ZM1943.09 1436.59C1940.56 1436.7 1938.95 1436.73 1938.08 1436.72C1937.58 1436.71 1937.49 1436.7 1937.6 1436.71C1937.64 1436.71 1937.81 1436.73 1938.04 1436.79C1938.15 1436.81 1938.38 1436.87 1938.66 1436.98C1938.84 1437.04 1939.55 1437.31 1940.25 1437.96C1941.1 1438.74 1942.46 1440.71 1941.59 1443.25C1940.98 1445.02 1939.63 1445.8 1939.42 1445.92C1938.99 1446.18 1938.62 1446.3 1938.48 1446.35C1938.3 1446.41 1938.16 1446.45 1938.07 1446.47C1937.71 1446.55 1937.53 1446.54 1937.94 1446.52C1938.2 1446.5 1938.59 1446.49 1939.09 1446.48C1940.09 1446.47 1941.45 1446.49 1943.01 1446.58L1943.6 1436.6C1941.8 1436.49 1940.19 1436.46 1938.95 1436.48C1938.34 1436.49 1937.79 1436.51 1937.33 1436.54C1937.03 1436.55 1936.37 1436.6 1935.78 1436.73C1935.73 1436.75 1935.05 1436.89 1934.32 1437.32C1934.1 1437.45 1932.74 1438.23 1932.13 1440.01C1931.25 1442.56 1932.62 1444.53 1933.47 1445.32C1934.18 1445.97 1934.91 1446.25 1935.1 1446.32C1935.4 1446.43 1935.65 1446.5 1935.78 1446.53C1936.06 1446.59 1936.3 1446.62 1936.42 1446.64C1936.89 1446.69 1937.46 1446.71 1937.97 1446.72C1939.1 1446.73 1940.91 1446.69 1943.52 1446.58L1943.09 1436.59ZM1943.01 1446.58C1945.3 1446.72 1947.92 1447.01 1950.38 1447.54L1952.5 1437.77C1949.39 1437.09 1946.23 1436.76 1943.6 1436.6L1943.01 1446.58ZM1950.38 1447.54C2001.46 1458.62 2055.45 1487.36 2101.29 1517.36L2106.77 1508.99C2060.57 1478.77 2005.37 1449.23 1952.5 1437.77L1950.38 1447.54ZM2101.29 1517.36C2117.19 1527.77 2129.72 1537.91 2138.46 1550.67C2147.14 1563.33 2152.34 1578.94 2152.92 1600.68L2162.92 1600.42C2162.3 1577.07 2156.64 1559.52 2146.71 1545.02C2136.86 1530.64 2123.03 1519.64 2106.77 1508.99L2101.29 1517.36ZM2152.92 1600.68C2154.72 1668.34 2125.06 1716.23 2083.15 1743.43C2041.07 1770.74 1986.37 1777.35 1938.05 1761.63L1934.96 1771.14C1986.04 1787.76 2043.9 1780.82 2088.6 1751.82C2133.47 1722.7 2164.81 1671.5 2162.92 1600.42L2152.92 1600.68ZM1586.64 1944.17C1591.28 1963.48 1603.43 1977.75 1617.44 1988.42C1631.41 1999.07 1647.52 2006.34 1660.63 2011.64L1664.37 2002.36C1651.48 1997.16 1636.38 1990.28 1623.5 1980.47C1610.65 1970.69 1600.3 1958.21 1596.36 1941.83L1586.64 1944.17ZM1661.09 2011.8C1714.73 2027.59 1750.58 2034.89 1783.05 2036.39C1815.53 2037.89 1844.35 2033.57 1883.76 2026.52L1882 2016.68C1842.63 2023.71 1814.77 2027.84 1783.51 2026.4C1752.23 2024.95 1717.27 2017.91 1663.91 2002.2L1661.09 2011.8ZM1883.76 2026.52C1917.39 2020.51 1960.25 1999.46 1973.84 1958.84L1964.36 1955.67C1952.47 1991.19 1914.1 2010.94 1882 2016.68L1883.76 2026.52ZM1973.84 1958.84C1977.7 1947.3 1983.57 1930.58 1988.7 1913.74C1993.81 1896.99 1998.34 1879.63 1999.41 1866.77L1989.44 1865.94C1988.47 1877.63 1984.24 1894.08 1979.14 1910.83C1974.06 1927.49 1968.28 1943.94 1964.36 1955.67L1973.84 1958.84ZM1999.41 1866.77C2002.97 1823.71 1999.42 1817.15 1999.42 1775H1989.42C1989.42 1818.9 1992.98 1823.22 1989.44 1865.94L1999.41 1866.77ZM1004 1956.11C1004.15 1963.15 1003.64 1969.36 1003.32 1975.43C1003 1981.35 1002.86 1987.24 1004.01 1992.84C1005.2 1998.62 1007.74 2004 1012.57 2009.02C1017.31 2013.95 1024.07 2018.36 1033.45 2022.56L1037.54 2013.44C1028.82 2009.53 1023.31 2005.76 1019.78 2002.09C1016.34 1998.52 1014.64 1994.88 1013.81 1990.83C1012.94 1986.6 1012.99 1981.86 1013.3 1975.96C1013.61 1970.21 1014.16 1963.42 1013.99 1955.89L1004 1956.11ZM1033.45 2022.56C1054.43 2031.98 1070.44 2028.86 1081.84 2022.35C1087.41 2019.17 1091.72 2015.28 1094.9 2011.99C1096.48 2010.35 1097.81 2008.84 1098.83 2007.66C1099.97 2006.34 1100.51 2005.74 1100.8 2005.47L1094.1 1998.05C1093.23 1998.83 1092.18 2000.06 1091.28 2001.1C1090.27 2002.26 1089.09 2003.61 1087.7 2005.05C1084.92 2007.93 1081.35 2011.12 1076.88 2013.67C1068.21 2018.61 1055.56 2021.52 1037.54 2013.44L1033.45 2022.56ZM1100.8 2005.47C1102.46 2003.98 1104 2002.28 1105.23 2000.99C1106.55 1999.61 1107.69 1998.5 1108.92 1997.61L1103.07 1989.5C1101.05 1990.95 1099.4 1992.62 1098 1994.08C1096.51 1995.64 1095.4 1996.88 1094.1 1998.05L1100.8 2005.47ZM1223.2 2027.55C1230.56 2039.97 1241.1 2051.54 1253.1 2058.4C1265.19 2065.32 1279.24 2067.65 1292.61 2060.35L1287.81 2051.57C1278.37 2056.73 1268.11 2055.47 1258.06 2049.72C1247.93 2043.93 1238.52 2033.78 1231.8 2022.45L1223.2 2027.55ZM1292.61 2060.35C1293.61 2059.8 1295.19 2059.09 1297.33 2058.14C1299.37 2057.23 1301.77 2056.15 1304.11 2054.96C1306.43 2053.78 1308.86 2052.41 1310.91 2050.85C1312.84 2049.37 1315.05 2047.28 1316.08 2044.49L1306.69 2041.05C1306.69 2041.03 1306.63 2041.21 1306.31 2041.58C1305.99 2041.94 1305.52 2042.38 1304.85 2042.89C1303.5 2043.92 1301.68 2044.98 1299.58 2046.05C1297.5 2047.11 1295.32 2048.09 1293.25 2049.01C1291.29 2049.88 1289.26 2050.78 1287.81 2051.57L1292.61 2060.35ZM1316.08 2044.49C1316.83 2042.44 1317.38 2040.28 1317.86 2038.61C1318.36 2036.82 1318.84 2035.36 1319.5 2034.02L1310.53 2029.59C1309.45 2031.78 1308.78 2033.97 1308.24 2035.88C1307.66 2037.9 1307.27 2039.46 1306.69 2041.05L1316.08 2044.49ZM1313.62 2034.77C1343.9 2062.53 1370.74 2081.46 1413.63 2081.46V2071.46C1374.56 2071.46 1350.09 2054.63 1320.38 2027.4L1313.62 2034.77ZM1413.63 2081.46C1429.18 2081.46 1446.31 2083.23 1464.98 2080.62C1484.04 2077.95 1505.03 2070.77 1529.9 2053.07L1524.1 2044.93C1500.48 2061.73 1480.99 2068.28 1463.6 2070.71C1445.82 2073.2 1430.52 2071.46 1413.63 2071.46V2081.46ZM1529.9 2053.07C1548.61 2039.77 1562.87 2030.37 1573.49 2015.67C1584.2 2000.84 1590.98 1981.04 1596.44 1947.3L1586.56 1945.7C1581.19 1978.96 1574.72 1996.89 1565.39 2009.81C1555.96 2022.85 1543.39 2031.2 1524.1 2044.93L1529.9 2053.07ZM1386.7 976.734C1381.85 963.508 1369.98 950.268 1357.94 938.678C1351.83 932.802 1345.49 927.181 1339.7 922.057C1333.87 916.891 1328.66 912.284 1324.63 908.297L1317.6 915.404C1321.87 919.63 1327.31 924.444 1333.07 929.543C1338.88 934.684 1345.07 940.173 1351 945.884C1363.05 957.469 1373.33 969.319 1377.31 980.174L1386.7 976.734ZM1324.63 908.297C1275.9 860.054 1221.28 822.388 1157.06 805.79L1154.56 815.472C1216.5 831.482 1269.63 867.918 1317.6 915.404L1324.63 908.297ZM1157.06 805.79C1061.9 781.198 960.137 768.306 866.296 810.452L870.393 819.574C961.008 778.877 1059.94 791.019 1154.56 815.472L1157.06 805.79ZM866.296 810.452C795.646 842.182 752.36 912.309 722.283 987.553L731.568 991.264C761.39 916.659 803.41 849.657 870.393 819.574L866.296 810.452ZM722.283 987.553C701.413 1039.76 703.564 1107.66 712.356 1162.19L722.228 1160.6C713.529 1106.64 711.716 1040.93 731.568 991.264L722.283 987.553ZM712.356 1162.19C714.265 1174.03 716.893 1195.71 721.591 1216.16C723.949 1226.42 726.872 1236.59 730.583 1245.29C734.247 1253.88 738.913 1261.61 745.065 1266.35L751.174 1258.44C747.049 1255.25 743.213 1249.42 739.781 1241.37C736.396 1233.43 733.63 1223.9 731.337 1213.92C726.737 1193.89 724.227 1173 722.228 1160.6L712.356 1162.19ZM745.065 1266.35C760.241 1278.06 780.492 1284.29 800.618 1288.07C820.762 1291.85 841.564 1293.29 857.812 1294.97L858.84 1285.03C842.135 1283.3 822.067 1281.92 802.463 1278.24C782.841 1274.56 764.465 1268.69 751.174 1258.44L745.065 1266.35ZM855.746 1285.06C831.141 1288.81 784.215 1297.8 738.08 1310.58C715.01 1316.97 692.048 1324.33 672.134 1332.5C652.319 1340.62 635.11 1349.7 623.868 1359.68L630.507 1367.16C640.464 1358.32 656.409 1349.75 675.928 1341.75C695.347 1333.79 717.899 1326.54 740.749 1320.21C786.451 1307.56 832.984 1298.65 857.255 1294.94L855.746 1285.06ZM623.868 1359.68C597.889 1382.75 573.585 1409.53 558.852 1451.44L568.286 1454.75C582.234 1415.08 605.18 1389.65 630.507 1367.16L623.868 1359.68ZM558.852 1451.44C541.041 1502.1 542.29 1568.09 547.064 1622.51L557.026 1621.64C552.262 1567.33 551.245 1503.23 568.286 1454.75L558.852 1451.44ZM547.064 1622.51C554.291 1704.91 590.918 1752.39 637.012 1779.02C682.759 1805.44 737.265 1811 780 1811V1801C737.858 1801 685.478 1795.46 642.014 1770.36C598.896 1745.45 563.983 1700.97 557.026 1621.64L547.064 1622.51ZM779.516 1801C758.665 1801 742.137 1813.43 730.796 1826.6C719.498 1839.71 712.478 1854.55 710.942 1861.38L720.698 1863.57C721.788 1858.72 727.858 1845.33 738.372 1833.12C748.845 1820.97 762.851 1811 779.515 1811L779.516 1801ZM710.942 1861.38C705.568 1885.26 707.195 1903.73 715.109 1919.75C722.922 1935.57 736.577 1948.37 753.888 1961.53L759.939 1953.57C742.904 1940.62 730.818 1928.97 724.074 1915.32C717.43 1901.87 715.683 1885.86 720.698 1863.57L710.942 1861.38ZM753.888 1961.53C777.012 1979.1 809.948 1997.23 844.609 2008C879.166 2018.73 916.205 2022.36 947.029 2009.91L943.283 2000.64C915.54 2011.85 881.151 2008.87 847.574 1998.45C814.102 1988.05 782.2 1970.49 759.939 1953.57L753.888 1961.53ZM947.029 2009.91C961.695 2003.98 973.538 1998.45 984.059 1990.59C994.644 1982.68 1003.65 1972.61 1013.01 1957.87L1004.57 1952.51C995.696 1966.49 987.463 1975.57 978.075 1982.58C968.624 1989.64 957.766 1994.79 943.283 2000.64L947.029 2009.91ZM1254.15 1600.92C1249.72 1641.38 1230.79 1681.56 1211.01 1717.53L1219.77 1722.35C1239.64 1686.22 1259.43 1644.56 1264.09 1602L1254.15 1600.92ZM1122.28 1787.93C1122.51 1791.93 1123.97 1796.14 1125.87 1800.1C1127.81 1804.13 1130.37 1808.25 1133.12 1812.17C1138.62 1820.01 1145.15 1827.41 1149.75 1832.15L1156.93 1825.19C1152.58 1820.71 1146.43 1813.72 1141.31 1806.43C1138.75 1802.78 1136.51 1799.14 1134.89 1795.77C1133.24 1792.33 1132.38 1789.49 1132.26 1787.37L1122.28 1787.93ZM1149.75 1832.15C1154.96 1837.53 1164.6 1842.82 1173.86 1846.87C1183.22 1850.96 1193.26 1854.23 1199.79 1855.1L1201.1 1845.18C1195.93 1844.5 1186.89 1841.65 1177.87 1837.71C1168.74 1833.72 1160.68 1829.06 1156.93 1825.19L1149.75 1832.15ZM1199.79 1855.1C1209.33 1856.37 1221.83 1854.32 1233.21 1850.65C1244.57 1846.99 1255.82 1841.4 1262.56 1834.81L1255.57 1827.66C1250.42 1832.69 1240.87 1837.68 1230.14 1841.13C1219.44 1844.58 1208.57 1846.18 1201.1 1845.18L1199.79 1855.1ZM1125.8 1478.55C1123.75 1501.1 1115.37 1523.22 1108.24 1545.63L1117.77 1548.67C1124.65 1527.03 1133.58 1503.42 1135.76 1479.45L1125.8 1478.55ZM1422.75 1546.67C1420.84 1575.33 1410.61 1602.95 1402.2 1631.52L1411.8 1634.34C1419.92 1606.71 1430.72 1577.44 1432.73 1547.33L1422.75 1546.67ZM858.515 1397.61C848.504 1527.01 849.677 1664.59 890.873 1778.05C932.211 1891.89 1013.85 1981.35 1163.94 2013.89L1166.06 2004.11C1019.68 1972.38 940.566 1885.6 900.272 1774.63C859.838 1663.28 858.497 1527.49 868.485 1398.39L858.515 1397.61ZM1163.94 2013.89C1318.1 2047.3 1484.21 1987.41 1600.17 1877.69C1716.19 1767.92 1782.66 1607.59 1736.32 1439.67L1726.68 1442.33C1771.82 1605.91 1707.27 1762.58 1593.3 1870.43C1479.26 1978.34 1316.39 2036.7 1166.06 2004.11L1163.94 2013.89ZM1651.52 2458.19C1655.35 2450.06 1657.42 2441.17 1659.04 2432.58C1660.7 2423.77 1661.84 2415.59 1663.81 2407.8L1654.11 2405.36C1652.05 2413.52 1650.76 2422.56 1649.22 2430.73C1647.63 2439.13 1645.74 2447 1642.48 2453.93L1651.52 2458.19ZM1663.81 2407.8C1665.7 2400.3 1667.98 2392.89 1670.29 2385.31C1672.58 2377.77 1674.88 2370.08 1676.72 2362.23L1666.99 2359.95C1665.23 2367.45 1663.01 2374.85 1660.72 2382.4C1658.44 2389.91 1656.07 2397.57 1654.11 2405.36L1663.81 2407.8ZM1676.72 2362.23C1677.06 2360.79 1677.38 2358.45 1677.7 2356.15C1678.04 2353.7 1678.43 2350.95 1678.92 2348.28C1679.41 2345.57 1679.97 2343.14 1680.62 2341.31C1680.94 2340.39 1681.24 2339.76 1681.47 2339.38C1681.74 2338.95 1681.74 2339.11 1681.35 2339.35L1676.2 2330.77C1674.66 2331.7 1673.62 2333.05 1672.93 2334.18C1672.21 2335.37 1671.65 2336.69 1671.19 2337.98C1670.28 2340.56 1669.6 2343.6 1669.08 2346.48C1668.55 2349.39 1668.13 2352.34 1667.8 2354.77C1667.44 2357.35 1667.19 2359.08 1666.99 2359.95L1676.72 2362.23ZM1681.35 2339.35C1680.09 2340.1 1678.7 2340.13 1677.65 2339.8C1676.78 2339.53 1676.28 2339.08 1676.16 2338.96C1675.92 2338.74 1675.97 2338.7 1676.28 2339.24C1676.85 2340.2 1677.63 2341.89 1678.58 2344.28C1680.46 2348.98 1682.69 2355.57 1684.88 2362.47C1689.26 2376.24 1693.3 2390.71 1693.74 2392.45L1703.44 2389.99C1702.93 2388.01 1698.83 2373.34 1694.41 2359.44C1692.21 2352.49 1689.89 2345.61 1687.87 2340.56C1686.87 2338.08 1685.87 2335.82 1684.91 2334.19C1684.47 2333.43 1683.83 2332.43 1682.97 2331.64C1682.54 2331.24 1681.76 2330.6 1680.63 2330.25C1679.31 2329.84 1677.68 2329.88 1676.2 2330.77L1681.35 2339.35ZM1693.74 2392.45C1697.49 2407.25 1700.56 2424.52 1707.95 2439.3L1716.9 2434.83C1710.15 2421.33 1707.44 2405.82 1703.44 2389.99L1693.74 2392.45ZM1651.26 2404.9C1657.51 2404.9 1665.96 2405.69 1675.29 2406.12C1684.15 2406.53 1693.76 2406.6 1700.81 2404.73L1698.25 2395.06C1692.88 2396.48 1684.73 2396.55 1675.75 2396.13C1667.22 2395.74 1657.75 2394.9 1651.26 2394.9V2404.9ZM1700.81 2404.73C1706.89 2403.12 1712.1 2402.48 1720.38 2398.93L1716.44 2389.74C1709.06 2392.91 1705.45 2393.16 1698.25 2395.06L1700.81 2404.73ZM1773.01 2359.68C1767.97 2359.68 1759.36 2360.69 1752.75 2362.54C1749.64 2363.41 1746.07 2364.7 1743.76 2366.75C1742.53 2367.84 1741.01 2369.73 1741 2372.42C1740.99 2375.12 1742.5 2377.1 1743.89 2378.36L1750.58 2370.92C1750.26 2370.64 1751.01 2371.16 1751 2372.47C1750.99 2373.77 1750.25 2374.36 1750.4 2374.22C1750.84 2373.83 1752.42 2373.02 1755.45 2372.17C1761.13 2370.58 1768.83 2369.68 1773.01 2369.68V2359.68ZM1743.89 2378.36C1746.72 2380.9 1750.83 2381.63 1754.12 2381.91C1757.69 2382.22 1761.79 2382.09 1765.67 2381.9C1769.69 2381.7 1773.45 2381.45 1776.86 2381.41C1780.37 2381.37 1782.73 2381.59 1784.02 2382.02L1787.18 2372.53C1784.15 2371.52 1780.29 2371.37 1776.74 2371.41C1773.09 2371.45 1768.92 2371.73 1765.18 2371.91C1761.3 2372.1 1757.81 2372.19 1754.98 2371.95C1753.57 2371.82 1752.48 2371.63 1751.68 2371.39C1751.29 2371.28 1751.01 2371.16 1750.82 2371.07C1750.64 2370.98 1750.57 2370.92 1750.58 2370.92L1743.89 2378.36ZM1784.02 2382.02C1787.5 2383.18 1789.17 2384.46 1789.91 2385.38C1790.53 2386.14 1790.69 2386.84 1790.54 2387.75C1790.16 2390.16 1787.54 2393.87 1782.52 2397.51C1777.72 2400.98 1771.88 2403.53 1767.02 2404.23C1761.95 2404.97 1759.84 2403.6 1759.03 2401.98L1750.09 2406.46C1753.83 2413.94 1761.86 2415.08 1768.45 2414.13C1775.24 2413.15 1782.57 2409.82 1788.38 2405.61C1793.97 2401.56 1799.39 2395.79 1800.42 2389.31C1800.98 2385.77 1800.19 2382.17 1797.68 2379.08C1795.3 2376.15 1791.68 2374.03 1787.18 2372.53L1784.02 2382.02ZM1796.46 2375.61C1797.6 2377.27 1799.14 2378.73 1801.24 2379.49C1803.33 2380.25 1805.36 2380.1 1807.07 2379.65C1810.12 2378.86 1813.36 2376.73 1816.19 2374.87L1810.71 2366.51C1809.18 2367.52 1807.92 2368.32 1806.82 2368.94C1805.7 2369.57 1804.98 2369.86 1804.54 2369.98C1804.15 2370.08 1804.29 2369.96 1804.65 2370.09C1805.03 2370.23 1805.01 2370.4 1804.71 2369.96L1796.46 2375.61ZM1816.19 2374.87C1820.19 2372.25 1822.11 2368.38 1822.39 2364.36C1822.66 2360.54 1821.47 2356.79 1819.75 2353.73L1811.04 2358.63C1812.08 2360.49 1812.51 2362.29 1812.42 2363.65C1812.33 2364.81 1811.9 2365.73 1810.71 2366.51L1816.19 2374.87ZM1819.75 2353.73C1815.6 2346.35 1807.6 2345.71 1801.81 2347.81C1796.2 2349.85 1790.49 2355.19 1790.4 2362.58L1800.4 2362.7C1800.42 2360.76 1802.16 2358.33 1805.23 2357.21C1808.15 2356.15 1810.09 2356.94 1811.04 2358.63L1819.75 2353.73ZM1790.4 2362.58C1790.33 2367.9 1790.6 2374.14 1792 2380.15C1793.41 2386.17 1796.03 2392.29 1800.92 2397L1807.86 2389.8C1804.82 2386.88 1802.88 2382.77 1801.74 2377.88C1800.6 2373 1800.34 2367.67 1800.4 2362.7L1790.4 2362.58ZM1800.92 2397C1804.59 2400.54 1809.36 2404.47 1814.8 2406.86C1820.35 2409.29 1826.93 2410.23 1833.6 2407.09L1829.34 2398.04C1826.01 2399.61 1822.56 2399.34 1818.82 2397.7C1814.97 2396.01 1811.2 2393.01 1807.86 2389.8L1800.92 2397ZM1833.6 2407.09C1847.64 2400.48 1852.32 2386.04 1854.28 2373.85L1844.41 2372.26C1842.54 2383.84 1838.59 2393.69 1829.34 2398.04L1833.6 2407.09ZM1854.28 2373.85C1857.19 2355.9 1856.47 2338.31 1854.88 2320.8L1844.92 2321.71C1846.49 2338.94 1847.11 2355.54 1844.41 2372.26L1854.28 2373.85ZM1854.88 2320.8C1854.64 2318.14 1854.18 2312.78 1853.84 2308.75C1853.66 2306.74 1853.52 2305.06 1853.45 2304.22C1853.43 2304.02 1853.42 2303.86 1853.41 2303.77C1853.41 2303.75 1853.41 2303.73 1853.41 2303.71C1853.41 2303.7 1853.41 2303.69 1853.41 2303.69C1853.41 2303.69 1853.41 2303.7 1853.41 2303.7C1853.41 2303.7 1853.41 2303.71 1853.41 2303.72C1853.41 2303.72 1853.41 2303.74 1853.41 2303.77C1853.41 2303.78 1853.42 2303.83 1853.42 2303.85C1853.42 2303.9 1853.42 2304.1 1853.42 2304.25C1852.42 2307.06 1845.95 2308.41 1843.54 2305.13C1843.5 2304.97 1843.47 2304.75 1843.46 2304.7C1843.45 2304.64 1843.45 2304.58 1843.45 2304.58C1843.45 2304.57 1843.45 2304.56 1843.45 2304.55C1843.44 2304.55 1843.44 2304.54 1843.44 2304.54C1843.44 2304.54 1843.45 2304.56 1843.45 2304.61C1843.45 2304.66 1843.46 2304.73 1843.47 2304.81C1843.48 2304.99 1843.5 2305.24 1843.53 2305.57L1853.5 2304.72C1853.44 2304.06 1853.41 2303.7 1853.4 2303.61C1853.4 2303.61 1853.4 2303.58 1853.4 2303.55C1853.4 2303.55 1853.39 2303.5 1853.38 2303.43C1853.37 2303.38 1853.34 2303.16 1853.31 2303C1850.89 2299.72 1844.42 2301.07 1843.43 2303.88C1843.42 2304.03 1843.42 2304.23 1843.43 2304.28C1843.43 2304.31 1843.43 2304.35 1843.43 2304.36C1843.43 2304.39 1843.43 2304.42 1843.43 2304.42C1843.44 2304.44 1843.44 2304.46 1843.44 2304.47C1843.44 2304.5 1843.44 2304.54 1843.45 2304.59C1843.46 2304.69 1843.47 2304.85 1843.49 2305.06C1843.56 2305.9 1843.7 2307.58 1843.87 2309.6C1844.22 2313.62 1844.68 2319.01 1844.92 2321.71L1854.88 2320.8ZM1843.53 2305.57C1844.19 2313.22 1845.59 2320.75 1847.01 2328.03C1848.45 2335.38 1849.9 2342.45 1850.77 2349.57L1860.7 2348.35C1859.77 2340.8 1858.23 2333.31 1856.83 2326.11C1855.41 2318.83 1854.1 2311.78 1853.5 2304.72L1843.53 2305.57ZM1850.77 2349.57C1851.48 2355.33 1851.81 2361.08 1852.32 2367.24C1852.82 2373.27 1853.5 2379.52 1854.93 2385.68L1864.67 2383.41C1863.41 2377.98 1862.78 2372.32 1862.28 2366.41C1861.8 2360.61 1861.44 2354.37 1860.7 2348.35L1850.77 2349.57ZM1854.93 2385.68C1855.01 2386.03 1855.61 2389.58 1856.49 2392.14C1856.93 2393.41 1857.7 2395.29 1859.09 2396.73C1859.85 2397.51 1861 2398.38 1862.58 2398.74C1864.23 2399.11 1865.81 2398.8 1867.1 2398.15L1862.63 2389.2C1863.07 2388.99 1863.85 2388.77 1864.78 2388.98C1865.64 2389.18 1866.13 2389.62 1866.28 2389.78C1866.47 2389.98 1866.28 2389.84 1865.94 2388.86C1865.65 2388.03 1865.41 2387.03 1865.19 2386.02C1865.09 2385.53 1865 2385.06 1864.92 2384.63C1864.84 2384.24 1864.75 2383.78 1864.67 2383.41L1854.93 2385.68ZM1867.1 2398.15C1871.54 2395.93 1874.99 2391.64 1877.52 2387.9C1880.02 2384.2 1882.44 2379.72 1883.89 2377.37L1875.36 2372.14C1873.39 2375.35 1871.65 2378.73 1869.24 2382.3C1866.85 2385.82 1864.62 2388.21 1862.63 2389.2L1867.1 2398.15ZM1883.89 2377.37C1890.81 2366.07 1895.23 2353.17 1898.13 2340.25L1888.37 2338.06C1885.62 2350.31 1881.53 2362.08 1875.36 2372.14L1883.89 2377.37ZM1898.13 2340.25C1899.97 2332.03 1901.2 2323.75 1902.06 2315.78L1892.11 2314.71C1891.29 2322.41 1890.11 2330.3 1888.37 2338.06L1898.13 2340.25ZM1902.06 2315.78C1903.12 2305.86 1904.03 2293.96 1901.66 2283.24L1891.89 2285.4C1893.87 2294.36 1893.18 2304.79 1892.11 2314.71L1902.06 2315.78ZM1901.66 2283.24C1901.42 2282.18 1901.05 2281.06 1900.48 2280.02C1899.94 2279.02 1899.03 2277.77 1897.56 2276.91C1895.92 2275.95 1893.96 2275.72 1892.07 2276.35C1890.38 2276.92 1889.11 2278.04 1888.19 2279.12L1895.78 2285.63C1896.05 2285.31 1895.9 2285.62 1895.24 2285.84C1894.87 2285.96 1894.4 2286.04 1893.86 2285.98C1893.32 2285.92 1892.87 2285.75 1892.52 2285.54C1892.18 2285.35 1891.97 2285.14 1891.86 2285.01C1891.8 2284.95 1891.76 2284.9 1891.74 2284.87C1891.72 2284.83 1891.71 2284.82 1891.71 2284.81C1891.71 2284.81 1891.71 2284.83 1891.73 2284.86C1891.74 2284.88 1891.75 2284.92 1891.77 2284.97C1891.81 2285.08 1891.85 2285.22 1891.89 2285.4L1901.66 2283.24ZM1888.19 2279.12C1881.55 2286.86 1880.2 2296.6 1880.75 2305.6C1881.29 2314.59 1883.78 2323.67 1885.62 2330.66L1895.29 2328.1C1893.38 2320.88 1891.2 2312.8 1890.73 2305C1890.26 2297.22 1891.55 2290.56 1895.78 2285.63L1888.19 2279.12ZM1885.62 2330.66C1886.5 2334 1887.46 2337.32 1888.46 2340.62L1898.03 2337.69C1897.05 2334.51 1896.14 2331.31 1895.29 2328.1L1885.62 2330.66ZM1888.46 2340.62C1891.58 2350.8 1895.21 2360.79 1898.79 2370.63C1902.39 2380.52 1905.95 2390.27 1909.01 2400.15L1918.56 2397.2C1915.42 2387.04 1911.77 2377.06 1908.19 2367.21C1904.59 2357.33 1901.05 2347.58 1898.03 2337.69L1888.46 2340.62ZM1909.01 2400.15C1913.45 2414.51 1917.51 2430.15 1922.33 2444.78L1931.83 2441.66C1926.96 2426.88 1923.27 2412.43 1918.56 2397.2L1909.01 2400.15ZM1922.33 2444.78C1922.95 2446.66 1923.4 2448.61 1923.89 2450.8C1924.36 2452.92 1924.87 2455.31 1925.6 2457.67L1935.16 2454.73C1934.57 2452.83 1934.15 2450.87 1933.65 2448.63C1933.17 2446.47 1932.62 2444.06 1931.83 2441.66L1922.33 2444.78ZM1925.6 2457.67C1925.69 2457.97 1925.88 2458.51 1926.26 2459.09C1926.62 2459.64 1927.46 2460.7 1929.02 2461.19C1930.75 2461.73 1932.25 2461.24 1933.15 2460.7C1933.94 2460.23 1934.42 2459.66 1934.64 2459.38C1935.09 2458.8 1935.34 2458.23 1935.45 2457.98C1935.59 2457.65 1935.71 2457.33 1935.8 2457.06C1936.13 2456.05 1936.42 2454.82 1936.54 2454.3L1926.79 2452.07C1926.67 2452.61 1926.47 2453.41 1926.31 2453.91C1926.27 2454.02 1926.26 2454.04 1926.28 2454C1926.28 2453.98 1926.32 2453.91 1926.37 2453.81C1926.42 2453.72 1926.53 2453.51 1926.72 2453.27C1926.88 2453.06 1927.31 2452.54 1928.05 2452.1C1928.88 2451.61 1930.34 2451.12 1932.01 2451.65C1933.52 2452.12 1934.32 2453.14 1934.63 2453.62C1934.96 2454.13 1935.11 2454.57 1935.16 2454.73L1925.6 2457.67ZM1936.54 2454.3C1937.82 2448.7 1938.6 2443.03 1939.04 2437.39L1929.08 2436.62C1928.67 2441.85 1927.94 2447.03 1926.79 2452.07L1936.54 2454.3ZM1939.04 2437.39C1940.76 2415.45 1936.09 2393.53 1928.8 2373.4L1919.4 2376.81C1926.39 2396.12 1930.64 2416.55 1929.08 2436.62L1939.04 2437.39ZM1928.8 2373.4C1925.72 2364.9 1920.69 2353.41 1913.13 2346.24L1906.25 2353.49C1911.97 2358.92 1916.35 2368.41 1919.4 2376.81L1928.8 2373.4ZM1913.13 2346.24C1912.54 2345.68 1911.87 2345.31 1911.67 2345.2C1911.33 2345.01 1910.96 2344.82 1910.61 2344.65C1909.91 2344.32 1909.09 2343.95 1908.35 2343.62C1907.55 2343.27 1906.94 2343.01 1906.42 2342.78C1906.16 2342.67 1906.03 2342.6 1905.98 2342.58C1905.93 2342.55 1906.04 2342.61 1906.22 2342.71C1906.24 2342.73 1906.61 2342.94 1907 2343.31C1907.12 2343.42 1907.82 2344.06 1908.24 2345.16C1908.49 2345.79 1908.75 2346.87 1908.43 2348.15C1908.09 2349.51 1907.27 2350.45 1906.5 2351L1900.66 2342.89C1899.88 2343.45 1899.06 2344.39 1898.72 2345.74C1898.4 2347.03 1898.66 2348.11 1898.91 2348.75C1899.34 2349.85 1900.04 2350.5 1900.16 2350.61C1900.57 2350.99 1900.97 2351.22 1901.02 2351.26C1901.26 2351.41 1901.49 2351.52 1901.58 2351.56C1901.82 2351.68 1902.1 2351.81 1902.36 2351.92C1902.88 2352.15 1903.67 2352.49 1904.33 2352.78C1905.06 2353.1 1905.74 2353.41 1906.26 2353.66C1906.53 2353.79 1906.7 2353.88 1906.79 2353.93C1907.03 2354.06 1906.67 2353.89 1906.25 2353.49L1913.13 2346.24ZM1906.5 2351C1906.04 2351.34 1905.59 2351.47 1905.33 2351.52C1905.1 2351.56 1904.99 2351.54 1905.14 2351.55C1905.2 2351.55 1905.29 2351.56 1905.43 2351.57C1905.5 2351.58 1905.57 2351.58 1905.65 2351.59C1905.73 2351.6 1905.83 2351.61 1905.93 2351.62C1906.29 2351.65 1906.9 2351.69 1907.56 2351.66L1907.09 2341.67C1907.13 2341.67 1907.08 2341.68 1906.78 2341.65C1906.6 2341.64 1906.05 2341.58 1905.59 2341.56C1904.68 2341.52 1902.59 2341.49 1900.66 2342.89L1906.5 2351ZM1907.56 2351.66C1911.22 2351.49 1913.86 2351.33 1917.86 2350.62L1916.1 2340.77C1912.74 2341.37 1910.61 2341.51 1907.09 2341.67L1907.56 2351.66ZM1917.86 2350.62C1926.75 2349.03 1936.24 2346.42 1944.55 2341.45L1939.41 2332.87C1932.59 2336.95 1924.44 2339.29 1916.1 2340.77L1917.86 2350.62ZM1944.55 2341.45C1955.03 2335.17 1966.3 2324.6 1970.72 2312.09L1961.29 2308.76C1957.94 2318.25 1948.79 2327.24 1939.41 2332.87L1944.55 2341.45ZM1699.27 2509.32C1701.54 2516.95 1703.69 2524.68 1705.7 2532.46L1715.38 2529.95C1713.34 2522.06 1711.16 2514.22 1708.86 2506.47L1699.27 2509.32ZM1705.7 2532.46C1709.36 2546.55 1712.58 2560.8 1715.32 2574.97L1725.14 2573.07C1722.35 2558.69 1719.09 2544.24 1715.38 2529.95L1705.7 2532.46ZM1715.32 2574.97C1716.71 2582.17 1717.86 2590.36 1719.66 2598L1729.39 2595.7C1727.63 2588.23 1726.69 2581.1 1725.14 2573.07L1715.32 2574.97ZM1719.66 2598C1719.91 2599.06 1720.09 2599.83 1720.21 2600.35C1720.35 2600.96 1720.37 2601.08 1720.36 2601C1720.35 2600.97 1720.34 2600.89 1720.33 2600.78C1720.33 2600.74 1720.29 2600.41 1720.31 2599.99C1720.32 2599.86 1720.36 2599.16 1720.7 2598.36C1720.87 2597.94 1721.3 2597.08 1722.24 2596.36C1723.34 2595.5 1724.76 2595.15 1726.12 2595.38C1727.28 2595.57 1728.05 2596.11 1728.4 2596.38C1728.79 2596.69 1729.05 2596.99 1729.18 2597.16C1729.45 2597.49 1729.62 2597.79 1729.68 2597.89C1729.81 2598.14 1729.89 2598.34 1729.91 2598.38C1729.94 2598.46 1729.97 2598.52 1729.97 2598.54C1729.99 2598.59 1730 2598.61 1729.99 2598.59C1729.95 2598.48 1729.88 2598.23 1729.76 2597.8C1729.34 2596.35 1728.39 2592.98 1727.8 2591.47L1718.49 2595.13C1718.86 2596.08 1719.62 2598.74 1720.15 2600.59C1720.27 2600.98 1720.38 2601.38 1720.47 2601.65C1720.49 2601.72 1720.53 2601.82 1720.57 2601.93C1720.58 2601.99 1720.62 2602.07 1720.66 2602.17C1720.68 2602.23 1720.77 2602.45 1720.91 2602.7C1720.97 2602.82 1721.14 2603.12 1721.41 2603.45C1721.55 2603.62 1721.81 2603.92 1722.2 2604.23C1722.55 2604.51 1723.33 2605.05 1724.48 2605.24C1725.85 2605.47 1727.26 2605.12 1728.37 2604.26C1729.3 2603.53 1729.73 2602.67 1729.91 2602.25C1730.25 2601.45 1730.29 2600.75 1730.29 2600.62C1730.32 2600.18 1730.28 2599.83 1730.28 2599.77C1730.26 2599.64 1730.25 2599.54 1730.24 2599.47C1730.16 2598.96 1729.86 2597.68 1729.39 2595.7L1719.66 2598ZM1727.8 2591.47C1726.17 2587.33 1724.28 2583.26 1722.58 2579.43C1720.84 2575.53 1719.25 2571.79 1718.03 2567.95L1708.5 2570.99C1709.9 2575.38 1711.68 2579.54 1713.44 2583.5C1715.23 2587.53 1716.97 2591.26 1718.49 2595.13L1727.8 2591.47ZM1718.03 2567.95C1714.33 2556.34 1713.9 2544.25 1715.5 2531.84L1705.59 2530.56C1703.85 2544 1704.24 2557.63 1708.5 2570.99L1718.03 2567.95ZM1715.5 2531.84C1715.55 2531.5 1715.59 2531.17 1715.64 2530.83L1705.73 2529.47C1705.68 2529.83 1705.63 2530.2 1705.59 2530.56L1715.5 2531.84ZM1715.64 2530.83C1716.51 2524.5 1717.43 2517.52 1719.79 2512.03C1720.95 2509.35 1722.32 2507.35 1723.92 2506.02C1725.44 2504.76 1727.37 2503.91 1730.12 2503.84L1729.87 2493.85C1724.92 2493.97 1720.81 2495.6 1717.53 2498.33C1714.33 2500.99 1712.15 2504.5 1710.61 2508.07C1707.59 2515.07 1706.55 2523.56 1705.73 2529.47L1715.64 2530.83ZM1730.12 2503.84C1731.64 2503.81 1733.83 2505.09 1735.46 2509.84C1737 2514.34 1737.02 2519.43 1736.11 2522.05L1745.55 2525.33C1747.38 2520.08 1746.98 2512.63 1744.92 2506.6C1742.94 2500.84 1738.34 2493.64 1729.87 2493.85L1730.12 2503.84ZM1736.11 2522.05C1735.94 2522.52 1735.31 2523.54 1733.77 2524.84C1732.32 2526.06 1730.41 2527.24 1728.33 2528.16C1726.24 2529.09 1724.19 2529.66 1722.47 2529.83C1720.67 2530 1719.8 2529.68 1719.52 2529.5L1714.18 2537.96C1717.08 2539.79 1720.5 2540.06 1723.43 2539.78C1726.45 2539.49 1729.55 2538.56 1732.38 2537.31C1735.21 2536.05 1737.95 2534.39 1740.22 2532.48C1742.4 2530.64 1744.55 2528.22 1745.55 2525.33L1736.11 2522.05ZM1788.11 2494.43C1782.89 2493.23 1776.03 2491.45 1768.85 2494.08L1772.29 2503.47C1776.22 2502.03 1780.07 2502.84 1785.86 2504.18L1788.11 2494.43ZM1768.85 2494.08C1757.57 2498.22 1748.16 2510.46 1749.27 2523.27L1759.23 2522.41C1758.57 2514.79 1764.56 2506.31 1772.29 2503.47L1768.85 2494.08ZM1749.27 2523.27C1749.85 2530.04 1753.12 2534.95 1758.22 2537.51C1762.98 2539.91 1768.63 2539.91 1773.68 2538.77C1778.8 2537.61 1783.91 2535.16 1788 2531.84C1792.04 2528.57 1795.54 2524.09 1796.51 2518.71L1786.67 2516.93C1786.27 2519.14 1784.65 2521.7 1781.71 2524.07C1778.83 2526.4 1775.12 2528.19 1771.47 2529.01C1767.75 2529.86 1764.69 2529.58 1762.71 2528.58C1761.07 2527.75 1759.55 2526.14 1759.23 2522.41L1749.27 2523.27ZM1796.51 2518.71C1797.39 2513.85 1797.64 2507.26 1795.48 2501.75L1786.17 2505.39C1787.37 2508.45 1787.39 2512.92 1786.67 2516.93L1796.51 2518.71ZM1795.48 2501.75C1795.41 2501.57 1795.36 2501.45 1795.33 2501.37C1795.3 2501.31 1795.31 2501.33 1795.31 2501.34C1795.32 2501.34 1795.32 2501.36 1795.33 2501.39C1795.34 2501.41 1795.36 2501.45 1795.38 2501.51C1795.39 2501.55 1795.44 2501.69 1795.5 2501.87C1795.52 2501.96 1795.57 2502.15 1795.61 2502.39C1795.63 2502.5 1795.75 2503.2 1795.6 2504.08C1795.52 2504.53 1795.28 2505.53 1794.45 2506.48C1793.45 2507.63 1792.06 2508.2 1790.69 2508.2C1789.55 2508.2 1788.72 2507.82 1788.36 2507.63C1787.96 2507.42 1787.66 2507.2 1787.51 2507.07C1787.2 2506.82 1786.99 2506.58 1786.92 2506.5C1786.82 2506.39 1786.75 2506.29 1786.71 2506.24C1786.63 2506.14 1786.57 2506.05 1786.55 2506.02C1786.52 2505.98 1786.5 2505.95 1786.49 2505.94C1786.49 2505.93 1786.45 2505.87 1786.5 2505.95C1786.55 2506.03 1786.64 2506.17 1786.77 2506.35C1787.16 2506.89 1788.27 2508.33 1790.24 2509.06L1793.73 2499.68C1794.19 2499.86 1794.48 2500.09 1794.62 2500.22C1794.77 2500.35 1794.85 2500.46 1794.89 2500.51C1794.9 2500.52 1794.91 2500.54 1794.92 2500.55C1794.92 2500.55 1794.92 2500.56 1794.92 2500.56C1794.93 2500.57 1794.93 2500.57 1794.93 2500.57C1794.93 2500.57 1794.93 2500.57 1794.92 2500.56C1794.92 2500.55 1794.9 2500.52 1794.88 2500.49C1794.86 2500.47 1794.84 2500.44 1794.81 2500.39C1794.79 2500.36 1794.73 2500.27 1794.65 2500.17C1794.61 2500.11 1794.53 2500.02 1794.44 2499.91C1794.36 2499.82 1794.15 2499.59 1793.84 2499.33C1793.69 2499.21 1793.4 2498.98 1792.99 2498.77C1792.63 2498.58 1791.8 2498.2 1790.66 2498.2C1789.29 2498.2 1787.9 2498.78 1786.9 2499.92C1786.07 2500.87 1785.83 2501.87 1785.75 2502.32C1785.6 2503.2 1785.72 2503.9 1785.74 2504.01C1785.78 2504.26 1785.83 2504.45 1785.86 2504.54C1785.91 2504.72 1785.96 2504.86 1785.97 2504.91C1786.01 2505.01 1786.05 2505.1 1786.05 2505.11C1786.07 2505.14 1786.08 2505.17 1786.08 2505.18C1786.09 2505.2 1786.09 2505.2 1786.1 2505.22C1786.11 2505.25 1786.14 2505.31 1786.17 2505.39L1795.48 2501.75ZM1790.24 2509.06C1793.59 2510.3 1797.19 2509.69 1799.45 2509.01L1796.55 2499.44C1795.95 2499.62 1795.31 2499.74 1794.74 2499.77C1794.15 2499.8 1793.83 2499.72 1793.73 2499.68L1790.24 2509.06ZM1799.45 2509.01C1802.51 2508.08 1805.64 2506.82 1808.6 2504.34L1802.16 2496.69C1800.68 2497.93 1799 2498.7 1796.55 2499.44L1799.45 2509.01ZM1808.6 2504.34C1809.38 2503.68 1810.22 2502.72 1810.81 2502.03C1811.54 2501.19 1812.19 2500.41 1812.91 2499.6C1813.63 2498.8 1814.22 2498.19 1814.68 2497.8C1814.91 2497.61 1815.01 2497.55 1814.99 2497.56C1814.97 2497.57 1814.89 2497.62 1814.74 2497.68C1814.59 2497.73 1814.33 2497.82 1813.97 2497.86L1812.82 2487.93C1810.64 2488.18 1808.95 2489.55 1808.2 2490.19C1807.21 2491.03 1806.26 2492.04 1805.46 2492.94C1804.67 2493.82 1803.84 2494.81 1803.25 2495.49C1802.93 2495.86 1802.67 2496.15 1802.46 2496.38C1802.22 2496.63 1802.14 2496.71 1802.16 2496.69L1808.6 2504.34ZM1813.97 2497.86C1812.47 2498.03 1811.32 2497.49 1810.69 2497.06C1810.09 2496.66 1809.74 2496.23 1809.59 2496.03C1809.43 2495.81 1809.33 2495.63 1809.29 2495.56C1809.24 2495.47 1809.22 2495.42 1809.22 2495.42C1809.22 2495.41 1809.23 2495.43 1809.24 2495.48C1809.26 2495.53 1809.29 2495.6 1809.32 2495.69C1809.38 2495.87 1809.45 2496.12 1809.53 2496.42L1819.18 2493.78C1818.97 2493.01 1818.71 2492.19 1818.41 2491.48C1818.28 2491.17 1818.02 2490.59 1817.58 2490.02C1817.37 2489.73 1816.95 2489.23 1816.29 2488.78C1815.59 2488.31 1814.38 2487.75 1812.82 2487.93L1813.97 2497.86ZM1809.53 2496.42C1810.72 2500.79 1812.63 2511.91 1814.31 2522.62C1815.98 2533.26 1817.34 2542.88 1817.45 2544.07L1827.4 2543.08C1827.25 2541.55 1825.85 2531.63 1824.19 2521.07C1822.55 2510.57 1820.55 2498.81 1819.18 2493.78L1809.53 2496.42ZM1817.45 2544.07C1817.53 2544.88 1817.55 2545.27 1817.55 2545.38C1817.55 2545.52 1817.53 2545.18 1817.65 2544.68C1817.68 2544.55 1817.88 2543.56 1818.7 2542.61C1819.2 2542.04 1820.05 2541.32 1821.33 2541.03C1822.64 2540.72 1823.78 2541 1824.54 2541.36C1825.8 2541.94 1826.41 2542.88 1826.49 2542.99C1826.68 2543.27 1826.79 2543.49 1826.82 2543.56C1826.89 2543.7 1826.9 2543.76 1826.86 2543.63C1826.78 2543.4 1826.65 2542.97 1826.48 2542.29C1825.78 2539.59 1824.69 2534.51 1823.56 2528.49C1822.44 2522.49 1821.3 2515.69 1820.49 2509.57C1819.65 2503.34 1819.21 2498.2 1819.35 2495.34L1809.36 2494.86C1809.17 2498.73 1809.75 2504.69 1810.58 2510.9C1811.42 2517.23 1812.59 2524.21 1813.73 2530.33C1814.87 2536.41 1816.01 2541.77 1816.8 2544.8C1817 2545.56 1817.19 2546.27 1817.39 2546.83C1817.48 2547.1 1817.61 2547.47 1817.79 2547.84C1817.87 2548.02 1818.03 2548.33 1818.26 2548.67C1818.38 2548.85 1819.04 2549.83 1820.33 2550.43C1821.12 2550.79 1822.27 2551.07 1823.59 2550.77C1824.89 2550.47 1825.76 2549.74 1826.27 2549.15C1827.12 2548.17 1827.35 2547.12 1827.4 2546.91C1827.55 2546.24 1827.55 2545.63 1827.55 2545.39C1827.55 2544.75 1827.49 2543.95 1827.4 2543.08L1817.45 2544.07ZM1819.35 2495.34C1819.33 2495.62 1819.18 2497.33 1817.43 2498.45C1816.68 2498.93 1815.98 2499.06 1815.58 2499.09C1815.2 2499.12 1814.96 2499.08 1814.94 2499.08C1814.91 2499.07 1814.96 2499.08 1815.13 2499.13C1815.3 2499.18 1815.52 2499.25 1815.81 2499.35C1816.5 2499.58 1817.07 2499.79 1818.11 2500.15C1821.95 2501.47 1827.99 2503.29 1836.22 2503.09L1835.97 2493.09C1829.42 2493.26 1824.67 2491.83 1821.37 2490.7C1820.64 2490.44 1819.65 2490.09 1819 2489.87C1818.33 2489.64 1817.43 2489.35 1816.54 2489.21C1815.84 2489.1 1813.9 2488.83 1812.03 2490.03C1809.82 2491.45 1809.41 2493.71 1809.36 2494.86L1819.35 2495.34ZM1836.22 2503.09C1844.3 2502.89 1850.24 2499.37 1854.33 2494.16C1858.25 2489.16 1860.31 2482.8 1861.44 2476.84C1862.57 2470.82 1862.83 2464.75 1862.84 2459.99C1862.85 2457.59 1862.79 2455.49 1862.74 2453.88C1862.72 2453.06 1862.7 2452.4 1862.69 2451.87C1862.69 2451.6 1862.68 2451.39 1862.68 2451.23C1862.69 2451.15 1862.69 2451.09 1862.69 2451.05C1862.69 2451 1862.69 2450.98 1862.69 2450.99L1852.71 2450.31C1852.65 2451.22 1852.71 2452.75 1852.75 2454.17C1852.8 2455.77 1852.85 2457.74 1852.84 2459.96C1852.83 2464.44 1852.59 2469.82 1851.61 2474.98C1850.62 2480.21 1848.97 2484.78 1846.46 2487.99C1844.1 2490.99 1840.89 2492.97 1835.97 2493.09L1836.22 2503.09ZM1862.69 2450.99C1862.76 2450.01 1862.82 2449.44 1862.86 2449.15C1862.89 2449 1862.89 2449.06 1862.84 2449.22C1862.81 2449.31 1862.75 2449.53 1862.61 2449.81C1862.51 2450.03 1862.18 2450.68 1861.47 2451.3C1860.64 2452.04 1859.1 2452.83 1857.19 2452.42C1855.61 2452.09 1854.72 2451.11 1854.43 2450.75C1854.08 2450.33 1853.89 2449.95 1853.82 2449.8C1853.74 2449.62 1853.69 2449.48 1853.67 2449.43C1853.63 2449.29 1853.66 2449.36 1853.74 2449.79C1854.04 2451.55 1854.26 2454.22 1854.46 2455.76L1864.38 2454.48C1864.28 2453.74 1863.93 2450.05 1863.59 2448.08C1863.5 2447.59 1863.37 2446.89 1863.16 2446.25C1863.1 2446.07 1862.82 2445.21 1862.15 2444.4C1861.82 2443.99 1860.89 2442.98 1859.26 2442.64C1857.31 2442.23 1855.74 2443.03 1854.86 2443.8C1854.11 2444.46 1853.74 2445.17 1853.6 2445.47C1853.42 2445.84 1853.31 2446.17 1853.25 2446.39C1853.12 2446.83 1853.04 2447.27 1852.98 2447.61C1852.87 2448.32 1852.79 2449.23 1852.71 2450.31L1862.69 2450.99ZM1854.46 2455.76C1856.44 2471.2 1856.22 2478.26 1856.37 2485.67C1856.53 2493.37 1857.1 2501.06 1860.67 2517.17L1870.43 2515.01C1866.99 2499.49 1866.51 2492.45 1866.37 2485.46C1866.22 2478.17 1866.44 2470.56 1864.38 2454.48L1854.46 2455.76ZM1860.67 2517.17C1861.98 2523.09 1864.2 2528.96 1867.53 2533.03C1869.22 2535.11 1871.4 2536.96 1874.13 2537.92C1876.99 2538.91 1880.02 2538.76 1882.94 2537.51L1879 2528.32C1878.21 2528.66 1877.76 2528.59 1877.42 2528.47C1876.96 2528.31 1876.21 2527.85 1875.28 2526.72C1873.36 2524.37 1871.59 2520.23 1870.43 2515.01L1860.67 2517.17ZM1884.42 2536.54C1890.09 2531.14 1893.32 2525.84 1895.23 2520.47C1897.09 2515.25 1897.62 2510.12 1898.16 2505.56L1888.22 2504.4C1887.66 2509.2 1887.22 2513.16 1885.81 2517.12C1884.45 2520.94 1882.11 2524.93 1877.53 2529.29L1884.42 2536.54ZM1898.16 2505.56C1898.28 2504.48 1898.41 2503.77 1898.51 2503.35C1898.65 2502.81 1898.66 2503.05 1898.33 2503.53C1898.14 2503.81 1897.68 2504.39 1896.84 2504.83C1895.88 2505.32 1894.79 2505.45 1893.77 2505.23C1892.88 2505.03 1892.29 2504.61 1892.04 2504.4C1891.77 2504.18 1891.63 2504 1891.61 2503.98C1891.58 2503.93 1891.67 2504.05 1891.87 2504.45C1892.06 2504.83 1892.28 2505.3 1892.54 2505.89C1892.8 2506.48 1893.06 2507.11 1893.34 2507.8C1893.62 2508.48 1893.93 2509.2 1894.23 2509.91L1903.39 2505.9C1903.13 2505.29 1902.86 2504.65 1902.58 2503.97C1902.3 2503.3 1902.01 2502.59 1901.71 2501.91C1901.2 2500.73 1900.45 2499.06 1899.51 2497.85C1899.16 2497.39 1897.99 2495.92 1895.93 2495.46C1894.69 2495.19 1893.38 2495.35 1892.22 2495.96C1891.16 2496.51 1890.49 2497.28 1890.1 2497.85C1889.37 2498.91 1889.01 2500.11 1888.8 2500.97C1888.56 2501.95 1888.37 2503.1 1888.22 2504.4L1898.16 2505.56ZM1894.23 2509.91C1895.41 2512.6 1896 2514.06 1896.81 2516.68L1906.36 2513.72C1905.4 2510.62 1904.66 2508.79 1903.39 2505.9L1894.23 2509.91ZM1896.81 2516.68C1896.8 2516.64 1896.82 2516.7 1896.86 2516.92C1896.9 2517.12 1896.94 2517.38 1896.99 2517.7C1897.07 2518.23 1897.2 2519.19 1897.31 2519.86C1897.37 2520.23 1897.44 2520.66 1897.54 2521.08C1897.62 2521.41 1897.8 2522.09 1898.14 2522.77C1898.31 2523.1 1898.68 2523.78 1899.39 2524.41C1900.19 2525.11 1901.62 2525.91 1903.47 2525.67C1905.13 2525.46 1906.16 2524.53 1906.61 2524.05C1907.09 2523.54 1907.39 2523.03 1907.55 2522.72L1898.69 2518.09C1898.74 2517.98 1898.94 2517.62 1899.33 2517.21C1899.68 2516.83 1900.63 2515.96 1902.19 2515.75C1903.96 2515.52 1905.31 2516.29 1906.03 2516.93C1906.66 2517.49 1906.97 2518.06 1907.06 2518.25C1907.27 2518.65 1907.31 2518.92 1907.27 2518.76C1907.25 2518.68 1907.22 2518.51 1907.17 2518.24C1907.07 2517.63 1907.01 2517.09 1906.88 2516.23C1906.79 2515.59 1906.63 2514.57 1906.36 2513.72L1896.81 2516.68ZM1907.55 2522.72C1908.22 2521.44 1908.25 2520.16 1908.25 2519.63C1908.25 2518.94 1908.17 2518.25 1908.08 2517.68C1907.9 2516.52 1907.59 2515.25 1907.29 2514.14C1906.98 2513.02 1906.64 2511.93 1906.38 2511.11C1906.25 2510.7 1906.13 2510.33 1906.05 2510.08C1905.94 2509.74 1905.94 2509.72 1905.96 2509.81L1896.28 2512.32C1896.35 2512.57 1896.47 2512.93 1896.53 2513.13C1896.62 2513.41 1896.72 2513.73 1896.85 2514.12C1897.09 2514.9 1897.38 2515.84 1897.64 2516.79C1897.91 2517.76 1898.11 2518.61 1898.2 2519.22C1898.25 2519.53 1898.25 2519.65 1898.25 2519.63C1898.25 2519.61 1898.25 2519.47 1898.29 2519.26C1898.32 2519.07 1898.41 2518.62 1898.69 2518.09L1907.55 2522.72ZM1905.96 2509.81C1904.71 2504.97 1903.44 2500.53 1902.45 2495.93L1892.67 2498.04C1893.72 2502.91 1895.11 2507.79 1896.28 2512.32L1905.96 2509.81ZM1902.45 2495.93C1902.2 2494.79 1902.38 2494.59 1902.29 2494.84C1902.15 2495.21 1901.88 2495.36 1902 2495.28C1902.26 2495.14 1902.79 2494.93 1903.92 2494.65C1904.46 2494.51 1905.02 2494.38 1905.7 2494.23C1906.36 2494.08 1907.1 2493.91 1907.86 2493.71L1905.33 2484.03C1904.74 2484.19 1904.14 2484.33 1903.49 2484.48C1902.86 2484.62 1902.16 2484.78 1901.48 2484.95C1900.18 2485.27 1898.52 2485.75 1897.01 2486.62C1895.37 2487.57 1893.77 2489.06 1892.91 2491.36C1892.11 2493.53 1892.2 2495.84 1892.67 2498.04L1902.45 2495.93ZM1907.86 2493.71C1911.22 2492.83 1914.22 2491.22 1916.79 2489.61C1918.09 2488.8 1919.34 2487.95 1920.5 2487.16C1921.69 2486.36 1922.76 2485.62 1923.82 2484.94L1918.44 2476.51C1917.23 2477.29 1916.01 2478.12 1914.87 2478.9C1913.71 2479.69 1912.61 2480.44 1911.5 2481.13C1909.26 2482.52 1907.27 2483.53 1905.33 2484.03L1907.86 2493.71ZM1923.82 2484.94C1923.8 2484.96 1923.78 2484.97 1923.77 2484.98C1923.76 2484.98 1923.75 2484.99 1923.75 2484.99C1923.74 2485 1923.73 2485 1923.73 2485C1923.73 2485 1923.73 2485 1923.75 2484.99L1918.63 2476.4C1918.61 2476.41 1918.59 2476.42 1918.57 2476.43C1918.57 2476.44 1918.51 2476.47 1918.44 2476.51L1923.82 2484.94ZM1923.75 2484.99C1924 2484.84 1925.43 2484 1926.65 2483.21C1927.22 2482.84 1927.96 2482.35 1928.53 2481.88C1928.68 2481.75 1928.89 2481.57 1929.11 2481.34C1929.26 2481.19 1929.74 2480.7 1930.11 2479.96C1930.37 2479.43 1931.59 2476.54 1929.19 2474.12C1928.27 2473.2 1927.26 2472.87 1926.72 2472.75C1926.14 2472.61 1925.67 2472.61 1925.39 2472.61L1925.64 2482.61C1925.43 2482.62 1925 2482.61 1924.47 2482.49C1923.97 2482.37 1922.98 2482.06 1922.08 2481.16C1919.72 2478.77 1920.93 2475.95 1921.16 2475.49C1921.5 2474.82 1921.9 2474.42 1921.95 2474.37C1922.01 2474.3 1922.06 2474.26 1922.09 2474.23C1922.12 2474.2 1922.14 2474.19 1922.14 2474.18C1922.15 2474.18 1922.13 2474.19 1922.08 2474.23C1922.03 2474.27 1921.96 2474.32 1921.87 2474.38C1921.7 2474.5 1921.48 2474.65 1921.23 2474.81C1920.2 2475.48 1918.97 2476.2 1918.63 2476.4L1923.75 2484.99ZM1925.39 2472.61C1920.76 2472.73 1918.12 2475.79 1916.76 2478.37L1925.62 2483.02C1925.73 2482.79 1925.83 2482.65 1925.9 2482.56C1925.97 2482.47 1926 2482.45 1925.97 2482.47C1925.94 2482.5 1925.87 2482.54 1925.78 2482.58C1925.68 2482.61 1925.63 2482.61 1925.64 2482.61L1925.39 2472.61ZM1916.76 2478.37C1915.92 2479.98 1915.39 2481.7 1915.01 2483.08C1914.53 2484.88 1914.45 2485.41 1914.12 2486.55L1923.72 2489.34C1923.99 2488.43 1924.46 2486.46 1924.66 2485.7C1924.98 2484.52 1925.29 2483.64 1925.62 2483.02L1916.76 2478.37ZM1914.12 2486.55C1911.58 2495.32 1911.35 2504.76 1912.23 2513.4L1922.18 2512.39C1921.38 2504.56 1921.65 2496.49 1923.72 2489.34L1914.12 2486.55ZM1912.23 2513.4C1912.37 2514.79 1912.96 2517.7 1915.85 2519.11C1918.61 2520.45 1921.18 2519.25 1922.19 2518.68C1924.53 2517.38 1926.86 2514.81 1928.74 2512.39C1932.66 2507.36 1937.02 2499.83 1938.44 2494.15L1928.73 2491.73C1927.79 2495.52 1924.34 2501.77 1920.85 2506.25C1919.04 2508.58 1917.76 2509.71 1917.32 2509.95C1916.95 2510.16 1918.33 2509.19 1920.22 2510.11C1922.22 2511.08 1922.23 2512.9 1922.18 2512.39L1912.23 2513.4ZM1938.44 2494.15C1938.71 2493.05 1938.91 2491.89 1938.94 2490.72L1928.94 2490.47C1928.94 2490.69 1928.89 2491.1 1928.73 2491.73L1938.44 2494.15ZM1938.94 2490.72C1939.04 2486.81 1937.12 2482.69 1935.96 2480.49C1935.31 2479.25 1934.71 2478.25 1934.34 2477.69C1934.25 2477.55 1934.17 2477.42 1934.09 2477.31C1934.05 2477.26 1933.99 2477.17 1933.91 2477.07C1933.89 2477.04 1933.78 2476.89 1933.62 2476.71C1933.61 2476.71 1933.28 2476.32 1932.77 2475.97C1932.6 2475.86 1932.18 2475.61 1931.91 2475.49C1931.49 2475.33 1930.34 2475.09 1929.62 2475.08C1928.57 2475.26 1926.63 2476.31 1925.85 2477.16C1925.41 2477.91 1924.98 2479.25 1924.92 2479.8C1924.87 2480.7 1925.09 2481.39 1925.12 2481.49C1925.19 2481.73 1925.26 2481.91 1925.3 2482C1925.38 2482.19 1925.45 2482.33 1925.48 2482.38C1925.54 2482.5 1925.6 2482.6 1925.62 2482.63C1925.67 2482.72 1925.72 2482.81 1925.76 2482.86C1925.83 2482.98 1925.93 2483.12 1926.04 2483.29L1934.34 2477.72C1934.26 2477.6 1934.22 2477.53 1934.2 2477.51C1934.19 2477.49 1934.21 2477.52 1934.24 2477.57C1934.25 2477.59 1934.3 2477.67 1934.36 2477.79C1934.38 2477.83 1934.45 2477.97 1934.53 2478.15C1934.57 2478.24 1934.64 2478.42 1934.71 2478.66C1934.74 2478.76 1934.96 2479.45 1934.91 2480.35C1934.85 2480.9 1934.42 2482.24 1933.98 2482.98C1933.2 2483.84 1931.26 2484.89 1930.21 2485.06C1929.49 2485.06 1928.34 2484.82 1927.92 2484.66C1927.65 2484.53 1927.23 2484.29 1927.06 2484.18C1926.55 2483.82 1926.22 2483.44 1926.22 2483.44C1926.06 2483.27 1925.96 2483.13 1925.95 2483.11C1925.91 2483.07 1925.89 2483.04 1925.88 2483.03C1925.87 2483.01 1925.87 2483 1925.87 2483C1925.86 2483 1925.89 2483.04 1925.95 2483.12C1926.16 2483.46 1926.61 2484.19 1927.11 2485.13C1928.24 2487.3 1928.97 2489.38 1928.94 2490.47L1938.94 2490.72ZM1926.04 2483.29C1925.79 2482.92 1925.84 2482.84 1926.1 2483.68C1926.3 2484.33 1926.54 2485.21 1926.82 2486.32C1927.3 2488.24 1928.07 2491.56 1928.74 2494.17L1938.43 2491.7C1937.67 2488.74 1937.17 2486.47 1936.52 2483.88C1936.23 2482.73 1935.94 2481.63 1935.65 2480.7C1935.42 2479.96 1935.01 2478.72 1934.34 2477.72L1926.04 2483.29ZM1928.74 2494.17C1929.54 2497.3 1930.5 2500.72 1931.62 2503.4C1932.16 2504.71 1932.87 2506.16 1933.81 2507.35C1934.63 2508.39 1936.51 2510.36 1939.5 2510.29L1939.26 2500.29C1941.12 2500.25 1941.91 2501.47 1941.67 2501.17C1941.56 2501.03 1941.26 2500.55 1940.84 2499.54C1940.03 2497.59 1939.22 2494.8 1938.43 2491.7L1928.74 2494.17ZM1939.5 2510.29C1943.51 2510.19 1946.66 2508.04 1948.93 2505.71C1951.2 2503.37 1953.03 2500.39 1954.5 2497.51C1957.42 2491.76 1959.44 2485.23 1960.43 2482.31L1950.95 2479.1C1949.84 2482.38 1948.09 2488.04 1945.58 2492.98C1944.33 2495.44 1943.03 2497.43 1941.75 2498.75C1940.46 2500.08 1939.64 2500.28 1939.26 2500.29L1939.5 2510.29ZM1960.43 2482.31C1961.82 2478.19 1962.84 2473.71 1963.46 2469.47L1953.56 2468.03C1953.02 2471.75 1952.13 2475.63 1950.95 2479.1L1960.43 2482.31ZM1963.46 2469.47C1963.5 2469.15 1963.53 2468.69 1963.54 2468.52C1963.56 2468.22 1963.59 2467.87 1963.62 2467.48C1963.68 2466.67 1963.76 2465.82 1963.86 2465.13C1963.92 2464.79 1963.96 2464.59 1963.98 2464.52C1964.05 2464.25 1963.95 2464.87 1963.37 2465.6C1963.05 2466 1962.15 2466.97 1960.55 2467.27C1958.78 2467.59 1957.42 2466.87 1956.73 2466.32C1956.13 2465.84 1955.84 2465.35 1955.78 2465.24C1955.68 2465.09 1955.66 2465.01 1955.69 2465.1L1964.99 2461.42C1964.85 2461.05 1964.65 2460.61 1964.4 2460.18C1964.17 2459.79 1963.73 2459.11 1962.97 2458.51C1962.15 2457.85 1960.65 2457.08 1958.75 2457.43C1957.02 2457.75 1955.99 2458.81 1955.55 2459.36C1954.74 2460.37 1954.43 2461.51 1954.33 2461.9C1954.17 2462.49 1954.06 2463.1 1953.98 2463.63C1953.82 2464.69 1953.71 2465.85 1953.65 2466.71C1953.56 2467.87 1953.55 2468.08 1953.56 2468.03L1963.46 2469.47ZM1955.69 2465.1C1958.24 2471.55 1959.91 2478.36 1961.75 2485.61C1963.55 2492.73 1965.51 2500.23 1968.63 2507.39L1977.8 2503.39C1975.04 2497.07 1973.26 2490.32 1971.44 2483.15C1969.65 2476.1 1967.83 2468.59 1964.99 2461.42L1955.69 2465.1ZM1968.63 2507.39C1968.67 2507.48 1969.72 2510.33 1970.8 2512.05C1971.12 2512.56 1971.56 2513.19 1972.15 2513.78C1972.71 2514.33 1973.69 2515.14 1975.11 2515.51C1976.74 2515.93 1978.4 2515.63 1979.76 2514.77C1980.95 2514.02 1981.7 2512.99 1982.16 2512.2L1973.52 2507.17C1973.52 2507.17 1973.53 2507.15 1973.56 2507.11C1973.59 2507.07 1973.63 2507.01 1973.7 2506.93C1973.82 2506.79 1974.06 2506.55 1974.43 2506.32C1975.3 2505.76 1976.47 2505.53 1977.63 2505.83C1978.58 2506.08 1979.09 2506.57 1979.2 2506.68C1979.34 2506.82 1979.36 2506.88 1979.27 2506.73C1979.08 2506.44 1978.84 2505.94 1978.56 2505.26C1978.42 2504.94 1978.3 2504.63 1978.18 2504.32C1978.07 2504.05 1977.93 2503.68 1977.8 2503.39L1968.63 2507.39ZM1982.16 2512.2C1986.63 2504.51 1987.47 2494.64 1988.22 2487.61L1978.27 2486.55C1977.45 2494.27 1976.69 2501.71 1973.52 2507.17L1982.16 2512.2ZM1988.22 2487.61C1990.33 2467.74 1989.93 2470.21 1990.71 2450.54L1980.72 2450.14C1979.93 2469.8 1980.35 2467.04 1978.27 2486.55L1988.22 2487.61ZM1990.71 2450.54C1990.71 2450.45 1990.71 2450.33 1990.71 2450.3C1990.71 2450.29 1990.71 2450.26 1990.71 2450.25C1990.71 2450.24 1990.71 2450.22 1990.71 2450.21C1990.71 2450.19 1990.71 2450.16 1990.71 2450.14C1990.71 2450.09 1990.71 2450.02 1990.7 2449.93C1990.7 2449.75 1990.69 2449.5 1990.68 2449.17C1990.66 2448.51 1990.64 2447.56 1990.61 2446.39C1990.55 2444.04 1990.46 2440.79 1990.38 2437.16C1990.22 2429.88 1990.05 2421.1 1990.04 2414.94C1990.04 2411.8 1990.08 2409.54 1990.16 2408.49C1990.18 2408.21 1990.19 2408.2 1990.17 2408.34C1990.16 2408.35 1990.1 2408.74 1989.88 2409.22C1989.78 2409.44 1989.49 2410.05 1988.89 2410.66C1988.22 2411.34 1986.79 2412.34 1984.77 2412.09C1983 2411.88 1981.97 2410.82 1981.62 2410.42C1981.21 2409.95 1981 2409.52 1980.92 2409.34C1980.74 2408.97 1980.67 2408.69 1980.67 2408.69C1980.65 2408.62 1980.68 2408.7 1980.73 2409.05C1981.17 2411.94 1981.97 2421.59 1983.27 2442.55L1993.25 2441.92C1991.96 2421.19 1991.14 2410.98 1990.62 2407.54C1990.55 2407.1 1990.46 2406.6 1990.34 2406.15C1990.29 2405.96 1990.18 2405.53 1989.96 2405.06C1989.85 2404.84 1989.61 2404.37 1989.19 2403.88C1988.81 2403.45 1987.76 2402.38 1985.97 2402.16C1983.94 2401.92 1982.48 2402.92 1981.79 2403.62C1981.17 2404.25 1980.86 2404.89 1980.75 2405.15C1980.49 2405.72 1980.39 2406.23 1980.35 2406.41C1980.26 2406.87 1980.22 2407.36 1980.19 2407.72C1980.07 2409.23 1980.04 2411.88 1980.04 2414.95C1980.05 2421.23 1980.22 2430.1 1980.38 2437.39C1980.47 2441.03 1980.55 2444.3 1980.61 2446.65C1980.64 2447.83 1980.67 2448.78 1980.69 2449.44C1980.7 2449.77 1980.7 2450.02 1980.71 2450.2C1980.72 2450.57 1980.71 2450.35 1980.72 2450.14L1990.71 2450.54ZM1983.29 2442.74C1983.86 2448.38 1984.11 2450.21 1984.54 2452.08C1984.92 2453.75 1985.34 2455.04 1986.37 2460.51L1996.2 2458.66C1995.12 2452.93 1994.6 2451.22 1994.29 2449.85C1994.02 2448.68 1993.82 2447.44 1993.24 2441.73L1983.29 2442.74ZM1986.37 2460.51C1988.18 2470.1 1990.43 2479.54 1992.9 2488.88L2002.57 2486.33C2000.14 2477.13 1997.95 2467.94 1996.2 2458.66L1986.37 2460.51ZM1992.9 2488.88C1993.43 2490.87 1994.09 2493.7 1995.01 2496.34C1995.93 2499 1997.27 2502.02 1999.47 2504.49L2006.95 2497.85C2006.02 2496.8 2005.2 2495.22 2004.46 2493.07C2003.71 2490.9 2003.2 2488.71 2002.57 2486.33L1992.9 2488.88ZM1999.47 2504.49C2001.44 2506.71 2004.03 2506.22 2004.79 2506C2005.64 2505.75 2006.27 2505.33 2006.54 2505.15C2007.16 2504.72 2007.74 2504.18 2008.18 2503.74C2009.14 2502.79 2010.33 2501.45 2011.62 2499.94C2014.23 2496.87 2017.59 2492.65 2020.99 2488.29C2027.79 2479.57 2034.92 2470.06 2036.7 2467.71L2028.74 2461.66C2026.89 2464.09 2019.85 2473.48 2013.1 2482.14C2009.72 2486.48 2006.47 2490.56 2004 2493.46C2002.75 2494.93 2001.79 2496 2001.15 2496.62C2000.8 2496.97 2000.73 2497 2000.86 2496.92C2000.87 2496.9 2001.3 2496.6 2001.99 2496.4C2002.59 2496.22 2005.05 2495.71 2006.95 2497.85L1999.47 2504.49ZM1962.28 2434.88C1987.75 2433.21 2012.2 2425.18 2035.7 2418.92L2033.13 2409.25C2008.85 2415.72 1985.82 2423.31 1961.62 2424.9L1962.28 2434.88ZM1958.22 2440.98L1958.31 2444.71L1968.31 2444.46L1968.22 2440.73L1958.22 2440.98ZM1834.09 2477.92C1857.22 2477.35 1881.43 2477.23 1904.9 2472.36L1902.87 2462.57C1880.49 2467.21 1857.34 2467.35 1833.84 2467.93L1834.09 2477.92Z" fill="#976393"/>
</svg>
