<svg width="169" height="196" viewBox="0 0 169 196" fill="none" xmlns="http://www.w3.org/2000/svg">
<g clip-path="url(#clip0_881_755)">
<path d="M66.8579 105.76C62.8376 122.445 61.6634 139.667 57.7279 156.378C55.8205 164.477 53.8295 172.557 51.8804 180.646C50.6476 185.763 49.0758 190.696 47.8431 195.811M81.6748 108.302C78.3922 121.925 75.8752 135.643 73.1008 149.367C72.1572 154.035 71.573 158.765 70.4567 163.398C69.6248 166.851 68.8392 170.268 68.1774 173.754C67.7105 176.213 66.963 178.573 66.6569 181.065C66.2887 184.064 66.019 187.059 65.5218 190.045C65.096 192.603 64.854 195.189 64.2473 197.707M80.3701 22.6118L85.0137 3.33959C85.2769 2.24714 86.034 2.76546 87.031 3.00568C91.6353 4.11508 96.3014 4.98488 100.892 6.09095C101.828 6.31642 103.848 6.32835 103.791 7.55298C103.675 10.0607 102.906 12.5161 102.321 14.9462C101.742 17.3472 101.495 19.6424 101.131 22.0536C100.899 23.592 100.582 24.3329 100.216 25.8509M40.587 56.8379C40.9306 55.6945 41.5852 54.6202 42.1772 53.5255M42.1772 53.5255C42.4947 52.9386 42.7942 52.3457 43.0181 51.7333C43.9232 49.2577 44.6809 46.7461 45.5245 44.2596C45.9426 43.0275 46.9986 46.8527 47.1756 47.3149C47.9673 49.3815 49.1498 51.3964 50.1256 53.454M42.1772 53.5255C43.8724 52.6074 47.7277 53.7297 50.1256 53.454M50.1256 53.454C50.7253 54.7185 51.247 55.9992 51.5518 57.3178M50.1256 53.454C50.5302 53.4075 50.8932 53.3212 51.1974 53.1786M54.4858 51.1041C54.183 52.3607 57.005 58.8633 57.8139 58.6023C59.561 58.0386 60.5368 53.963 61.4438 52.5104M68.3378 53.1428C65.0464 50.6164 60.6243 60.1086 66.8658 59.2511C68.8042 58.9847 68.9867 57.1051 69.3023 55.4325C69.3588 55.133 69.6079 54.164 69.5365 54.4603C69.2666 55.5807 69.5199 56.931 69.4614 58.0748C69.3794 59.6783 70.0253 61.1725 70.841 62.506M74.7307 55.3356C74.3176 57.05 74.1895 59.1207 74.2045 60.8842M75.1621 50.6727L75.3729 50.7235M82.3627 46.0941C81.5329 49.5379 81.0335 52.9512 80.7308 56.481C80.6631 57.2706 79.8309 62.0903 80.5288 62.6782M89.6621 56.7378C84.6318 51.9258 83.1795 57.9532 84.7019 60.1715C85.4483 61.2589 88.0955 61.1978 88.762 60.4731C89.1454 60.0562 89.921 58.0207 90.2111 58.9454C90.4859 59.8214 90.4538 60.3906 90.9023 61.1239M95.9759 45.4015C95.1997 49.3014 95.6774 53.0443 95.1163 56.734C94.9922 58.0223 94.8751 58.5084 95.2764 60.5562M95.2764 60.5562C95.3372 60.8662 95.3737 61.0199 95.3952 61.0517M95.2764 60.5562C95.3119 60.7372 95.3515 60.9018 95.3952 61.0517M95.3952 61.0517C95.5154 61.2302 95.1622 57.5822 95.9468 56.195C96.9014 54.3678 99.2407 55.8746 100.07 56.1598C101.411 56.9973 102.492 59.6914 101.329 61.6063C101.041 62.0803 100.095 63.3228 97.944 62.848C96.7266 62.5793 95.8454 62.5977 95.3952 61.0517ZM106.301 47.3752C106.541 50.1816 105.881 56.5827 105.831 59.3751C105.813 60.3893 106.171 61.8153 106.325 62.8722M110.754 56.6426C110.958 56.7664 111.177 56.8912 111.408 57.0116M111.408 57.0116C113.13 57.9085 115.501 58.5634 116.88 56.7673C117.969 55.349 116.826 53.5111 115.121 53.1004C113.006 52.5907 111.943 54.9382 111.408 57.0116ZM111.408 57.0116C111.216 57.7597 111.092 58.4721 111.012 59.0018C110.875 59.9106 111.634 61.9052 112.475 62.4623C113.41 63.0817 114.155 63.4423 115.293 63.6667C116.783 63.9607 117.405 63.5947 118.648 63.1389M56.162 67.347C56.0634 66.5447 53.485 66.1615 52.8795 66.0156C51.1668 65.6029 49.6165 66.2609 48.5033 67.3932C47.5414 68.3717 47.2423 69.8628 47.4438 71.252C47.5619 72.066 47.7258 72.8511 47.8936 73.6291M47.8936 73.6291C48.2367 75.2204 48.5956 76.782 48.6102 78.4997M47.8936 73.6291C46.7696 73.6895 45.6486 73.7794 44.5569 74.0098M47.8936 73.6291C48.8601 73.5772 49.8289 73.547 50.7832 73.4681C51.926 73.3735 53.1011 73.1084 54.2353 73.0987M60.2636 74.0973C59.063 73.8081 56.8318 72.7114 56.1694 74.327C55.6175 75.6732 54.9992 78.9273 56.7431 79.7352C58.4788 80.5393 60.613 80.2205 61.4312 78.1622C62.0626 76.5737 60.9003 75.1384 60.0697 73.7804M64.322 74.3167C64.1529 75.595 64.537 77.0212 64.4978 78.3229C64.4856 78.7271 64.4481 79.7845 64.6727 80.1517C64.7402 80.262 65.0972 78.9548 65.1395 78.8378C66.0168 76.4125 67.7537 74.6031 70.3199 75.2214M79.6703 74.0923C80.133 75.0519 79.5553 80.6162 80.7475 80.8379C82.2155 81.1109 82.7502 77.1723 84.1404 76.8509C85.5138 76.5334 85.4864 79.1702 85.9079 79.8592C86.3835 80.6367 87.1734 78.5844 87.2763 78.4173C88.0427 77.173 88.5179 75.7667 89.2964 74.5199M101.545 83.8627C101.089 81.8911 99.4923 79.2627 100.82 77.337C102.015 75.6043 103.553 76.3281 105.539 76.5073M108.826 73.1847C108.419 75.7081 109.29 78.2917 109.298 80.8206C109.302 82.1206 109.342 83.3591 109.518 84.6422C109.674 85.7752 110.087 82.4267 110.393 81.3246C110.454 81.1021 110.523 80.8704 110.599 80.6334M110.599 80.6334C110.87 79.7835 111.233 78.866 111.703 78.0636M110.599 80.6334C110.425 80.5418 110.254 80.4475 110.087 80.35C108.556 79.457 110.299 78.9038 111.228 78.3577C111.389 78.263 111.547 78.165 111.703 78.0636M110.599 80.6334C112.009 81.3777 113.613 81.9446 115.059 82.584C116.656 83.2902 118.385 84.4063 120.077 84.814M111.703 78.0636C111.966 77.6141 112.263 77.2008 112.596 76.8556C113.185 76.2448 115 74.5048 114.55 75.2246C113.818 76.3973 112.84 77.3216 111.703 78.0636ZM91.3607 34.2873C91.3125 29.8773 88.1617 30.1467 86.9546 30.8845C85.6368 31.6904 85.0031 34.041 85.0458 34.5391C85.1809 36.1146 86.5232 37.2032 88.0818 37.5514C90.3094 38.049 91.3662 36.0618 91.3607 34.2873ZM16.3491 94.2944C26.4776 95.9985 33.2464 98.69 43.2405 101.098C49.7707 102.672 56.2237 103.622 62.7928 104.848C71.0903 106.398 79.5076 107.069 87.8146 108.593C94.6198 109.842 101.417 111.2 108.15 112.822C112.196 113.797 134.049 117.921 138.194 118.211L138.439 118.245C140.387 118.523 142.589 118.836 144.517 118.767C147.257 118.668 146.975 119.064 147.72 115.971C150.132 105.96 151.945 95.9492 154.363 85.9157L159.162 65.9985C159.313 65.3713 160.289 63.1786 159.312 62.8903C156.801 62.1495 154.182 61.6543 151.636 61.0409C147.712 60.0953 134.936 57.9454 138.899 57.4994C141.281 57.0416 143.359 56.1773 146.177 55.795C148.573 55.4699 156.863 54.1606 159.181 53.4861C160.602 53.2423 162.723 52.9851 163.907 52.6925C166.71 51.9993 165.397 45.877 165.252 43.7621C165.077 41.1968 166.499 35.548 164.645 34.8175C159.967 32.9745 155.024 34.2681 150.22 33.4886C138.047 31.5131 135.001 32.3172 122.835 29.9005C113.756 28.0969 104.694 27.4172 99.1515 26.0816C90.7406 24.0551 63.8156 20.3224 54.5274 19.1391C35.9747 15.6775 23.0772 14.502 7.5126 11.6205C6.46881 11.4273 5.38649 26.8451 5.5149 28.9715C5.77618 33.2981 5.52522 38.4192 5.86083 42.7874C6.01624 44.8101 5.22616 65.5261 4.18504 77.0928C3.9094 80.1552 6.02831 80.678 8.32805 81.4471C11.2399 82.4209 14.3928 82.9386 17.3808 83.6586L24.8046 85.4473C25.9272 85.7178 23.1813 85.4686 22.7932 85.5069C20.055 85.7771 17.3691 86.3068 14.671 86.7548C13.0503 87.0238 7.26939 87.6834 4.35102 88.0119C1.96933 88.4697 2.76645 90.7251 3.6462 90.937C7.33545 92.1226 7.42604 92.1444 8.70506 92.4526L16.3491 94.2944ZM76.4609 99.062C79.3667 97.0222 78.5298 93.7164 77.8686 93.2194C77.3783 92.8509 76.2861 92.5008 75.6053 92.593C74.7279 92.7119 74.1093 92.8526 73.5706 93.555C72.6389 94.77 72.0095 95.6495 72.4678 97.2545C72.6659 97.9483 73.5639 99.1469 74.3811 99.3438C75.0339 99.5011 75.522 99.6186 76.4609 99.062ZM96.6255 78.0853C95.9273 75.8597 93.0176 75.1568 92.1617 76.1728C90.7014 77.9062 91.0068 79.574 91.5468 81.5199C91.8585 82.6435 94.8109 83.4792 95.5647 82.488C96.6635 81.0429 97.1437 79.7372 96.6255 78.0853Z" stroke="#976393" stroke-width="3" stroke-linecap="round"/>
</g>
<defs>
<clipPath id="clip0_881_755">
<rect width="169" height="196" fill="white"/>
</clipPath>
</defs>
</svg>
