<svg width="175" height="200" viewBox="0 0 175 200" fill="none" xmlns="http://www.w3.org/2000/svg">
<path d="M94.2703 107.607C97.2572 124.507 103.067 140.762 106.142 157.652C107.632 165.839 109.038 174.041 110.486 182.234C111.402 187.417 111.934 192.567 112.85 197.749M108.867 104.011C111.306 117.811 114.484 131.391 117.429 145.079C118.431 149.735 119.786 154.304 120.616 158.997C121.234 162.494 121.88 165.941 122.668 169.4C123.223 171.841 123.481 174.303 124.198 176.71C125.059 179.606 126.01 182.459 126.748 185.395C127.38 187.909 128.192 190.376 128.643 192.927M73.4077 25.9919L69.9578 6.47069C69.7622 5.36412 70.6634 5.53645 71.6733 5.35798C76.3371 4.53376 80.9617 3.46524 85.6115 2.6435C86.5594 2.47598 88.4161 1.67899 88.8536 2.82422C89.7495 5.16937 90.0271 7.72709 90.4621 10.1886C90.8919 12.6207 91.5831 14.8232 92.2139 17.1787C92.6164 18.6816 92.6219 19.4874 92.8936 21.025M50.6291 73.2704C50.4869 72.085 50.6572 70.8385 50.7622 69.5985M50.7622 69.5985C50.8184 68.9335 50.8559 68.2704 50.8162 67.6195C50.656 64.9885 50.3462 62.3835 50.1252 59.7671C50.0157 58.4706 52.5131 61.5545 52.8602 61.9073C54.4122 63.4849 56.3017 64.8589 58.0189 66.3547M50.7622 69.5985C51.9488 68.0791 55.9312 67.5662 58.0189 66.3547M58.0189 66.3547C59.0742 67.2739 60.0644 68.2391 60.8711 69.3259M58.0189 66.3547C58.3711 66.1503 58.6693 65.926 58.8912 65.6737M61.0757 62.4574C61.3006 63.7302 66.4873 68.562 67.1244 67.9993C68.5003 66.784 67.765 62.6582 68.0156 60.9641M74.5873 58.7872C70.5603 57.7876 70.3027 68.2562 75.6805 64.9744C77.3508 63.9552 76.7664 62.1594 76.3869 60.5001C76.3189 60.203 76.1598 59.2153 76.2128 59.5154C76.4134 60.6503 77.1855 61.7866 77.5892 62.8584C78.1553 64.361 79.3448 65.4722 80.6256 66.3684M81.3237 58.2408C81.6306 59.9773 82.3411 61.9265 83.0601 63.5369M79.8546 53.7943L80.0681 53.7566M84.6237 46.7184C85.2402 50.2068 86.1473 53.535 87.2812 56.8914C87.5349 57.6422 88.6993 62.3926 89.5741 62.6524M95.5701 53.5555C89.0354 51.1564 90.1143 57.2616 92.3967 58.6862C93.5157 59.3844 95.9176 58.2699 96.2387 57.3391C96.4234 56.8037 96.3204 54.6279 96.9561 55.3595C97.5582 56.0525 97.7564 56.587 98.4607 57.0798M96.8244 40.6403C97.6723 44.5253 99.6067 47.7649 100.568 51.3712C100.969 52.6015 101.056 53.0939 102.243 54.8104M102.243 54.8104C102.423 55.0703 102.517 55.1966 102.55 55.2172M102.243 54.8104C102.348 54.9622 102.45 55.0972 102.55 55.2172M102.55 55.2172C102.732 55.3327 100.949 52.1303 101.114 50.545C101.258 48.4885 104.004 48.9342 104.878 48.8642C106.443 49.0955 108.511 51.1325 108.21 53.3528C108.136 53.9024 107.766 55.4193 105.604 55.8444C104.381 56.0849 103.581 56.4541 102.55 55.2172ZM107.078 38.3206C108.42 40.797 110.374 46.9282 111.445 49.5075C111.834 50.4443 112.732 51.6081 113.296 52.5155M114.865 45.0344C115.101 45.0664 115.352 45.093 115.612 45.111M115.612 45.111C117.548 45.2448 119.984 44.8968 120.529 42.6992C120.96 40.964 119.177 39.7365 117.451 40.0416C115.308 40.4203 115.273 42.9969 115.612 45.111ZM115.612 45.111C115.734 45.8738 115.905 46.5764 116.044 47.0938C116.282 47.9816 117.776 49.5061 118.769 49.6805C119.873 49.8745 120.701 49.9069 121.833 49.6578C123.317 49.3314 123.741 48.7471 124.697 47.8324M69.107 76.675C68.6958 75.9791 66.1792 76.6588 65.5658 76.7672C63.8311 77.0738 62.6731 78.2967 62.1056 79.7797C61.6152 81.0612 61.9372 82.5475 62.6775 83.7403C63.1112 84.4391 63.5754 85.0932 64.0402 85.7392M64.0402 85.7392C64.991 87.0606 65.9444 88.3484 66.6446 89.9169M64.0402 85.7392C63.0342 86.244 62.0426 86.7746 61.1341 87.4223M64.0402 85.7392C64.9054 85.3051 65.7813 84.8901 66.6244 84.4362C67.634 83.8926 68.6051 83.1797 69.6408 82.7173M75.5655 81.2221C74.3495 81.437 71.8659 81.3241 71.9047 83.0697C71.9371 84.5243 72.6716 87.7542 74.5931 87.7974C76.5055 87.8403 78.3342 86.6948 78.2611 84.481C78.2046 82.7725 76.5654 81.9217 75.2611 81.0091M79.3731 79.8004C79.7292 81.0397 80.6516 82.1933 81.1361 83.402C81.2866 83.7774 81.675 84.7616 82.0277 85.0084C82.1337 85.0825 81.9381 83.7416 81.9301 83.6175C81.7645 81.0437 82.633 78.6907 85.2324 78.2313M93.3512 73.4575C94.159 74.1521 95.8545 79.4832 97.0358 79.2097C98.4906 78.8729 97.4058 75.0491 98.5515 74.1986C99.6834 73.3584 100.713 75.7862 101.374 76.2492C102.121 76.7717 102.025 74.5748 102.052 74.3804C102.257 72.9335 102.13 71.4545 102.345 70.0004M117.308 73.6662C116.102 72.0413 113.587 70.2706 114.034 67.9747C114.436 65.9088 116.135 65.9573 118.028 65.3272M119.712 60.9676C120.348 63.443 122.179 65.4631 123.198 67.7776C123.722 68.9675 124.253 70.0868 124.928 71.1923C125.523 72.1686 124.563 68.9341 124.403 67.8018C124.37 67.5732 124.34 67.3335 124.315 67.0861M124.315 67.0861C124.224 66.1986 124.19 65.2124 124.3 64.289M124.315 67.0861C124.119 67.0715 123.925 67.0533 123.733 67.0308C121.972 66.8247 123.349 65.6206 123.982 64.7486C124.092 64.5973 124.198 64.4441 124.3 64.289M124.315 67.0861C125.905 67.2042 127.602 67.0826 129.183 67.0904C130.93 67.099 132.96 67.4308 134.674 67.1279M124.3 64.289C124.361 63.7718 124.468 63.2743 124.635 62.8249C124.93 62.0295 125.898 59.7089 125.774 60.5484C125.572 61.9161 125.045 63.1541 124.3 64.289ZM88.15 32.2987C86.3425 28.2759 83.5622 29.7826 82.7508 30.9417C81.8652 32.2072 82.2243 34.6151 82.4626 35.0546C83.2164 36.4446 84.8821 36.9057 86.4499 36.6016C88.6905 36.167 88.8646 33.923 88.15 32.2987ZM43.3905 117.294C53.3555 114.806 60.6358 114.566 70.7591 112.777C77.3736 111.608 83.6683 109.899 90.1798 108.396C98.4046 106.499 106.388 103.748 114.612 101.824C121.348 100.247 128.122 98.7738 134.941 97.5686C139.04 96.8443 160.718 91.8861 164.634 90.4941L164.873 90.4281C166.769 89.9033 168.912 89.3103 170.652 88.4754C173.123 87.2892 173.024 87.7656 172.47 84.632C170.678 74.4919 168.337 64.5913 166.54 54.4281L162.975 34.2536C162.863 33.6183 162.881 31.2181 161.87 31.3447C159.272 31.6698 156.674 32.2629 154.095 32.7187C150.12 33.4212 137.55 36.5591 141.004 34.5658C143.004 33.1938 144.563 31.5707 146.993 30.0934C149.06 28.8373 156.134 24.3225 157.99 22.7773C159.195 21.9856 161.035 20.902 162.003 20.1603C164.296 18.404 160.644 13.3176 159.666 11.437C158.479 9.15587 157.524 3.40957 155.532 3.48144C150.508 3.66274 146.494 6.82501 141.78 8.03111C129.833 11.0879 127.362 13.0429 115.245 15.6926C106.201 17.67 97.6244 20.6701 92.0097 21.6624C83.4902 23.168 57.3188 30.5129 48.3323 33.1423C29.9432 37.388 17.6516 41.4677 2.23328 45.0502C1.1993 45.2905 6.37223 59.8549 7.34019 61.7526C9.30969 65.6138 11.1274 70.408 13.1816 74.2775C14.1329 76.0694 21.6922 95.3731 25.363 106.391C26.3349 109.308 28.4861 108.94 30.9015 108.726C33.9598 108.454 37.0567 107.668 40.0833 107.133L47.603 105.804C48.7401 105.603 46.1236 106.472 45.7833 106.663C43.3815 108.005 41.1315 109.565 38.8376 111.054C37.4597 111.949 32.4248 114.865 29.8812 116.333C27.8812 117.705 29.5137 119.453 30.4048 119.296C34.2604 118.907 34.3521 118.891 35.6477 118.662L43.3905 117.294ZM100.394 97.6275C102.242 94.5959 100.153 91.9006 99.348 91.7094C98.7513 91.5677 97.6101 91.6836 97.023 92.0403C96.2664 92.5001 95.7556 92.8765 95.5428 93.7357C95.1746 95.2218 94.9494 96.2796 96.0112 97.5674C96.4702 98.1241 97.7726 98.8637 98.6003 98.7174C99.2615 98.6006 99.756 98.5131 100.394 97.6275ZM110.489 70.3378C108.959 68.577 106.011 69.0962 105.632 70.3698C104.987 72.5424 105.934 73.949 107.207 75.5166C107.942 76.4218 110.982 76.0073 111.277 74.7974C111.706 73.0334 111.624 71.6447 110.489 70.3378Z" stroke="#895285" stroke-width="3" stroke-linecap="round"/>
</svg>
