<svg width="2556" height="3035" viewBox="0 0 2556 3035" fill="none" xmlns="http://www.w3.org/2000/svg">
<path d="M2482.07 427.537C2330.56 291.794 2190.88 159.785 2039.36 24.0362C2001.16 -17.7686 1998.78 22.97 1994.95 34.814C1986.55 60.8425 1960.92 80.6095 1938.14 92.8065C1918.39 103.382 1885.77 90.1893 1863.85 88.6663C1847.33 87.5185 1819.99 97.8453 1808.96 111.622C1805.33 116.154 1838.74 150.782 1845.07 156.453C1889.68 196.427 1934.2 240.051 1977.76 281.923C2059.77 360.759 2144.12 436.867 2229.06 512.972C2271.77 551.233 2314.25 602.522 2364.08 630.816C2389.51 645.253 2409.48 651.743 2407.49 615.259C2406.46 596.475 2433.47 577.824 2449.05 572.736C2475.47 564.11 2504.29 532.51 2524.26 510.217C2545.45 486.571 2564.06 500.999 2535.92 475.781L2482.07 427.537Z" stroke="#976393" stroke-width="10" stroke-linecap="round"/>
<path d="M713.457 2777.1C532.171 2678.22 368.343 2551.81 187.484 2453.17C118.914 2407.05 150.088 2537.91 119.794 2543.25C102.602 2546.29 93.4706 2563.25 73.1721 2560.16C66.4952 2559.14 -14.3511 2575.92 9.93458 2589.17C82.2743 2628.63 149.108 2685.72 219.754 2730.37C271.462 2763.05 320.548 2800.93 373.897 2830.03L725.285 3021.69C757.089 3039.04 747.285 3024.6 761.833 2994C771.088 2974.53 757.202 2953.9 768.102 2933.91C778.89 2914.14 805.204 2890.89 815.812 2871.44C847.166 2813.96 816.549 2845.09 713.457 2777.1Z" stroke="#976393" stroke-width="10" stroke-linecap="round"/>
</svg>
