<svg width="296" height="360" viewBox="0 0 296 360" fill="none" xmlns="http://www.w3.org/2000/svg">
<path d="M109.095 131.724C118.026 109.261 138.02 105.072 158.887 105.072C180.386 105.072 187.994 116.246 197.098 131.57M163.405 105.072C169.643 93.3873 180.367 88.0622 186.329 81.5743C196.951 70.0148 205.94 56.7631 217.716 46.2493C226.61 38.3083 232.886 30.2257 240.118 21.3864C242.663 18.2761 241.056 14.6753 243.565 11.5397C246.443 7.94202 250.296 0.702064 257.763 8.4324C258.729 12.7789 259.705 16.4631 252.919 16.4631C248.997 16.4631 243.908 19.1157 242.125 15.5493M144.296 105.072C137.057 97.0197 133.226 82.3461 128.829 72.3859C124.285 62.0921 114.877 55.2659 109.925 45.3523C106.734 38.9634 99.8034 38.5377 93.1113 37.1481M93.1113 37.1481C89.6765 36.4349 86.3046 35.4678 83.5333 33.3101C73.4877 25.4888 79.3963 15.9384 91.2667 16.5985C97.96 16.9707 103.715 37.1481 93.1113 37.1481ZM240.468 131.641C251.265 131.641 290.551 126.752 288.337 165.796C288.337 196.155 290.551 226.465 290.551 256.958C290.551 282.28 291.742 311.199 285.017 335.834C283.689 340.697 281.159 346.463 277.334 350.285C273.731 353.884 258.253 355 253.412 355H97.1092C76.1508 355 57.025 352.47 36.4819 348.366C29.3615 346.943 15.503 341.799 11.6407 335.097C5.11782 323.778 5 317.468 5 304.136C5 268.666 7.21357 233.513 7.21357 197.985C7.21357 181.043 6.01292 155.828 16.7231 142.274C20.6096 137.356 23.6575 135.347 34.1029 131.663C47.1818 128.419 54.5451 131.641 61.569 131.641H240.468ZM257.217 191.173C243.536 181.186 231.034 185.52 228.709 195.904C227.648 200.645 226.062 210.183 233.157 218.048C240.251 225.913 252.715 231.715 259.864 218.048C263.85 210.429 266.396 198.707 257.217 191.173ZM263.993 271.254C258.606 263.515 254.302 263.504 250.657 261.481C247.318 259.627 240.654 259.278 235.128 261.481C224.248 265.818 223.744 288.569 227.056 293.351C233.11 305.627 249.17 306.67 255.533 302.512C264.437 296.693 267.678 279.058 263.993 271.254ZM177.903 160.445C145.728 152.156 80.473 145.116 51.9538 170.735C35.0775 185.895 36.1934 201.289 36.1934 225.887V268.737C36.1934 283.108 38.9182 288.695 40.2774 294.041C51.9538 339.963 159.131 321.778 183.438 321.778C212.021 321.778 211.116 292.255 211.116 270.947C211.116 245.424 212.065 219.409 206.564 194.701C202.395 175.976 195.16 166.792 177.903 160.445Z" stroke="#976393" stroke-width="10" stroke-linecap="round"/>
</svg>
