<svg width="217" height="43" viewBox="0 0 217 43" fill="none" xmlns="http://www.w3.org/2000/svg">
<path d="M5.81073 15.7327C5.81073 17.9855 5.54597 24.3824 9.10732 24.3824C11.0574 24.3824 12.3731 22.0614 13.4322 20.7532C16.7998 14.416 14.8869 18.2429 15.1863 21.9024C15.613 27.1174 19.2731 37.6523 12.1015 39.3834C9.46385 40.0201 7.22411 39.6308 5.38732 37.5083C4.24139 36.1841 3.3269 32.7278 2 32.0644" stroke="#976393" stroke-width="3" stroke-linecap="round" stroke-linejoin="round"/>
<path d="M22.918 17.4387C17.7207 16.9887 18.1633 23.3728 20.317 24.9392C21.9779 26.147 25.9193 26.0778 26.1844 23.427C26.3493 21.7779 24.5576 20.167 23.4624 19.0718" stroke="#976393" stroke-width="3" stroke-linecap="round" stroke-linejoin="round"/>
<path d="M30.2998 16.416C30.2998 18.5909 29.198 22.3351 30.2997 24.416C31.3967 26.4882 36.7621 25.886 36.7998 16.916C37.2497 14.4417 38.478 24.255 39.8 24.916" stroke="#976393" stroke-width="3" stroke-linecap="round" stroke-linejoin="round"/>
<path d="M57.4385 14.6439C57.5305 17.2219 58.4161 22.8712 58.5575 25.416C58.6632 27.3185 58.2678 18.4325 58.5575 16.5493C58.8271 14.7969 59.4692 13.916 60.7998 13.916C63.0572 13.916 63.7187 17.5885 64.6043 19.2712C65.5043 20.9812 65.4356 23.7972 65.7234 20.6322C65.8268 19.4942 66.6873 13.0804 67.8707 13.0107C72.595 12.7328 71.8468 23.306 72.7702 26.0761" stroke="#976393" stroke-width="3" stroke-linecap="round" stroke-linejoin="round"/>
<path d="M77.1257 14.0996C78.5131 17.2214 77.6701 21.5806 77.6701 24.9874M76.0378 6.47803C76.0378 6.58978 76.0288 6.66067 76.0148 6.70232M76.0148 6.70232C75.936 6.93708 75.6984 6.24273 76.0148 6.70232ZM76.0148 6.70232C76.022 6.71271 76.0294 6.72369 76.0372 6.73529" stroke="#976393" stroke-width="3" stroke-linecap="round" stroke-linejoin="round"/>
<path d="M89.7996 15.9161C88.2996 13.916 84.8933 14.6535 84.0814 16.2773C83.3808 17.6785 82.7848 20.3776 83.1439 21.9934C83.4474 23.3593 84.0814 23.9628 84.7996 24.4161C87.3431 25.5466 88.9406 25.2032 89.9185 23.0519C90.6771 21.383 90.2153 15.3317 90.7956 20.8441C91.3326 25.9457 93.1834 31.8204 92.9127 36.9641C92.7302 40.4319 84.2998 43.916 83.2998 34.416" stroke="#976393" stroke-width="3" stroke-linecap="round" stroke-linejoin="round"/>
<path d="M91.2798 6.47803C94.0526 7.17122 92.3329 19.4326 94.0017 22.1444C95.042 23.8347 95.0041 19.7427 95.0905 18.5756C95.1434 17.8622 95.8721 16.3888 96.3003 15.8536C100.872 10.1389 103.801 19.7191 103.801 23.8985" stroke="#976393" stroke-width="3" stroke-linecap="round" stroke-linejoin="round"/>
<path d="M109.789 4.84473C109.789 9.78176 109.294 15.0004 110.364 19.8155C110.709 21.3682 111.8 27.416 116.8 22.416M105.979 13.7328C108.348 13.5174 110.714 12.0996 113.056 12.0996" stroke="#976393" stroke-width="3" stroke-linecap="round" stroke-linejoin="round"/>
<path d="M139.186 13.5552C135.395 11.6596 133.742 12.2245 132.775 15.6118C132.492 16.599 131.3 20.916 133.198 22.1445C135.275 23.2441 136.927 21.4042 138.097 20.0879C138.981 19.0938 139.879 12.9857 140.305 16.8216C140.494 18.5216 141.566 24.591 142.997 21.1162C144.85 16.6169 146.098 11.5393 147.05 6.7806C147.365 5.20377 147.259 3.70252 147.352 2.12304C147.41 1.1469 147.887 6.27384 147.927 7.11328C148.143 11.662 148.536 17.5553 150.618 21.7211" stroke="#976393" stroke-width="3" stroke-linecap="round" stroke-linejoin="round"/>
<path d="M157.713 12.1642C158.3 9.916 153.117 9.18181 152.3 12.4158C151.778 14.4812 152.967 15.7493 153.8 15.9159C156.299 16.416 157.799 16.416 158.799 17.416C161.799 24.916 153.799 22.416 153.299 20.416" stroke="#976393" stroke-width="3" stroke-linecap="round" stroke-linejoin="round"/>
<path d="M169.127 13.5552C168.773 12.1391 164.8 10.916 162.8 13.916C161.859 16.0327 161.561 20.0685 163.411 21.5074C164.546 22.3902 167.8 22.916 169.3 21.416C170.8 19.416 170.8 17.916 170.216 15.7328" stroke="#976393" stroke-width="3" stroke-linecap="round" stroke-linejoin="round"/>
<path d="M194 4C194.305 10.3988 195.514 16.4709 196.722 22.5093M199.988 13.2546C199.778 15.3532 195.655 17.1613 198.778 18.4566C200.237 19.0613 203.613 18.872 204.343 20.3317" stroke="#976393" stroke-width="3" stroke-linecap="round" stroke-linejoin="round"/>
<path d="M205.868 14.4546C206.202 17.463 212.669 16.4008 213.5 14.0001C213.789 13.1663 213.582 11.616 213 11C211.886 9.82026 210.04 10.3067 209 11C207.5 12 206.271 14.5773 206.413 18.3863C206.55 22.1008 213 22.5 215.5 20" stroke="#976393" stroke-width="3" stroke-linecap="round" stroke-linejoin="round"/>
<path d="M190.5 7.37744H190.625M183.548 4.65576C183.548 9.81653 182.121 17.6034 185.695 21.7738C189.343 26.0292 190.399 16.0378 190.625 14.4548C190.625 16.8294 191.3 20.416 192.8 22.916" stroke="#976393" stroke-width="3" stroke-linecap="round" stroke-linejoin="round"/>
</svg>
